<?xml version="1.0" encoding="utf-8" standalone="no"?>
<!DOCTYPE svg PUBLIC "-//W3C//DTD SVG 1.1//EN"
  "http://www.w3.org/Graphics/SVG/1.1/DTD/svg11.dtd">
<!-- Created with matplotlib (https://matplotlib.org/) -->
<svg height="394.031406pt" version="1.1" viewBox="0 0 508.845156 394.031406" width="508.845156pt" xmlns="http://www.w3.org/2000/svg" xmlns:xlink="http://www.w3.org/1999/xlink">
 <defs>
  <style type="text/css">
*{stroke-linecap:butt;stroke-linejoin:round;}
  </style>
 </defs>
 <g id="figure_1">
  <g id="patch_1">
   <path d="M 0 394.031406 
L 508.845156 394.031406 
L 508.845156 0 
L 0 0 
z
" style="fill:#ffffff;"/>
  </g>
  <g id="axes_1">
   <g id="patch_2">
    <path d="M 55.245156 349.380938 
L 501.645156 349.380938 
L 501.645156 23.220937 
L 55.245156 23.220937 
z
" style="fill:#eaeaf2;"/>
   </g>
   <g id="matplotlib.axis_1">
    <g id="xtick_1">
     <g id="line2d_1">
      <path clip-path="url(#pd79b4310b1)" d="M 69.315182 349.380938 
L 69.315182 23.220937 
" style="fill:none;stroke:#ffffff;stroke-linecap:round;"/>
     </g>
     <g id="text_1">
      <!-- 2.5 -->
      <defs>
       <path d="M 50.34375 8.453125 
L 50.34375 0 
L 3.03125 0 
Q 2.9375 3.171875 4.046875 6.109375 
Q 5.859375 10.9375 9.828125 15.625 
Q 13.8125 20.3125 21.34375 26.46875 
Q 33.015625 36.03125 37.109375 41.625 
Q 41.21875 47.21875 41.21875 52.203125 
Q 41.21875 57.421875 37.46875 61 
Q 33.734375 64.59375 27.734375 64.59375 
Q 21.390625 64.59375 17.578125 60.78125 
Q 13.765625 56.984375 13.71875 50.25 
L 4.6875 51.171875 
Q 5.609375 61.28125 11.65625 66.578125 
Q 17.71875 71.875 27.9375 71.875 
Q 38.234375 71.875 44.234375 66.15625 
Q 50.25 60.453125 50.25 52 
Q 50.25 47.703125 48.484375 43.546875 
Q 46.734375 39.40625 42.65625 34.8125 
Q 38.578125 30.21875 29.109375 22.21875 
Q 21.1875 15.578125 18.9375 13.203125 
Q 16.703125 10.84375 15.234375 8.453125 
z
" id="ArialMT-50"/>
       <path d="M 9.078125 0 
L 9.078125 10.015625 
L 19.09375 10.015625 
L 19.09375 0 
z
" id="ArialMT-46"/>
       <path d="M 4.15625 18.75 
L 13.375 19.53125 
Q 14.40625 12.796875 18.140625 9.390625 
Q 21.875 6 27.15625 6 
Q 33.5 6 37.890625 10.78125 
Q 42.28125 15.578125 42.28125 23.484375 
Q 42.28125 31 38.0625 35.34375 
Q 33.84375 39.703125 27 39.703125 
Q 22.75 39.703125 19.328125 37.765625 
Q 15.921875 35.84375 13.96875 32.765625 
L 5.71875 33.84375 
L 12.640625 70.609375 
L 48.25 70.609375 
L 48.25 62.203125 
L 19.671875 62.203125 
L 15.828125 42.96875 
Q 22.265625 47.46875 29.34375 47.46875 
Q 38.71875 47.46875 45.15625 40.96875 
Q 51.609375 34.46875 51.609375 24.265625 
Q 51.609375 14.546875 45.953125 7.46875 
Q 39.0625 -1.21875 27.15625 -1.21875 
Q 17.390625 -1.21875 11.203125 4.25 
Q 5.03125 9.71875 4.15625 18.75 
z
" id="ArialMT-53"/>
      </defs>
      <g style="fill:#262626;" transform="translate(61.670182 366.754531)scale(0.11 -0.11)">
       <use xlink:href="#ArialMT-50"/>
       <use x="55.615234" xlink:href="#ArialMT-46"/>
       <use x="83.398438" xlink:href="#ArialMT-53"/>
      </g>
     </g>
    </g>
    <g id="xtick_2">
     <g id="line2d_2">
      <path clip-path="url(#pd79b4310b1)" d="M 121.769465 349.380938 
L 121.769465 23.220937 
" style="fill:none;stroke:#ffffff;stroke-linecap:round;"/>
     </g>
     <g id="text_2">
      <!-- 5.0 -->
      <defs>
       <path d="M 4.15625 35.296875 
Q 4.15625 48 6.765625 55.734375 
Q 9.375 63.484375 14.515625 67.671875 
Q 19.671875 71.875 27.484375 71.875 
Q 33.25 71.875 37.59375 69.546875 
Q 41.9375 67.234375 44.765625 62.859375 
Q 47.609375 58.5 49.21875 52.21875 
Q 50.828125 45.953125 50.828125 35.296875 
Q 50.828125 22.703125 48.234375 14.96875 
Q 45.65625 7.234375 40.5 3 
Q 35.359375 -1.21875 27.484375 -1.21875 
Q 17.140625 -1.21875 11.234375 6.203125 
Q 4.15625 15.140625 4.15625 35.296875 
z
M 13.1875 35.296875 
Q 13.1875 17.671875 17.3125 11.828125 
Q 21.4375 6 27.484375 6 
Q 33.546875 6 37.671875 11.859375 
Q 41.796875 17.71875 41.796875 35.296875 
Q 41.796875 52.984375 37.671875 58.78125 
Q 33.546875 64.59375 27.390625 64.59375 
Q 21.34375 64.59375 17.71875 59.46875 
Q 13.1875 52.9375 13.1875 35.296875 
z
" id="ArialMT-48"/>
      </defs>
      <g style="fill:#262626;" transform="translate(114.124465 366.754531)scale(0.11 -0.11)">
       <use xlink:href="#ArialMT-53"/>
       <use x="55.615234" xlink:href="#ArialMT-46"/>
       <use x="83.398438" xlink:href="#ArialMT-48"/>
      </g>
     </g>
    </g>
    <g id="xtick_3">
     <g id="line2d_3">
      <path clip-path="url(#pd79b4310b1)" d="M 174.223748 349.380938 
L 174.223748 23.220937 
" style="fill:none;stroke:#ffffff;stroke-linecap:round;"/>
     </g>
     <g id="text_3">
      <!-- 7.5 -->
      <defs>
       <path d="M 4.734375 62.203125 
L 4.734375 70.65625 
L 51.078125 70.65625 
L 51.078125 63.8125 
Q 44.234375 56.546875 37.515625 44.484375 
Q 30.8125 32.421875 27.15625 19.671875 
Q 24.515625 10.6875 23.78125 0 
L 14.75 0 
Q 14.890625 8.453125 18.0625 20.40625 
Q 21.234375 32.375 27.171875 43.484375 
Q 33.109375 54.59375 39.796875 62.203125 
z
" id="ArialMT-55"/>
      </defs>
      <g style="fill:#262626;" transform="translate(166.578748 366.754531)scale(0.11 -0.11)">
       <use xlink:href="#ArialMT-55"/>
       <use x="55.615234" xlink:href="#ArialMT-46"/>
       <use x="83.398438" xlink:href="#ArialMT-53"/>
      </g>
     </g>
    </g>
    <g id="xtick_4">
     <g id="line2d_4">
      <path clip-path="url(#pd79b4310b1)" d="M 226.678031 349.380938 
L 226.678031 23.220937 
" style="fill:none;stroke:#ffffff;stroke-linecap:round;"/>
     </g>
     <g id="text_4">
      <!-- 10.0 -->
      <defs>
       <path d="M 37.25 0 
L 28.46875 0 
L 28.46875 56 
Q 25.296875 52.984375 20.140625 49.953125 
Q 14.984375 46.921875 10.890625 45.40625 
L 10.890625 53.90625 
Q 18.265625 57.375 23.78125 62.296875 
Q 29.296875 67.234375 31.59375 71.875 
L 37.25 71.875 
z
" id="ArialMT-49"/>
      </defs>
      <g style="fill:#262626;" transform="translate(215.974515 366.754531)scale(0.11 -0.11)">
       <use xlink:href="#ArialMT-49"/>
       <use x="55.615234" xlink:href="#ArialMT-48"/>
       <use x="111.230469" xlink:href="#ArialMT-46"/>
       <use x="139.013672" xlink:href="#ArialMT-48"/>
      </g>
     </g>
    </g>
    <g id="xtick_5">
     <g id="line2d_5">
      <path clip-path="url(#pd79b4310b1)" d="M 279.132314 349.380938 
L 279.132314 23.220937 
" style="fill:none;stroke:#ffffff;stroke-linecap:round;"/>
     </g>
     <g id="text_5">
      <!-- 12.5 -->
      <g style="fill:#262626;" transform="translate(268.428798 366.754531)scale(0.11 -0.11)">
       <use xlink:href="#ArialMT-49"/>
       <use x="55.615234" xlink:href="#ArialMT-50"/>
       <use x="111.230469" xlink:href="#ArialMT-46"/>
       <use x="139.013672" xlink:href="#ArialMT-53"/>
      </g>
     </g>
    </g>
    <g id="xtick_6">
     <g id="line2d_6">
      <path clip-path="url(#pd79b4310b1)" d="M 331.586596 349.380938 
L 331.586596 23.220937 
" style="fill:none;stroke:#ffffff;stroke-linecap:round;"/>
     </g>
     <g id="text_6">
      <!-- 15.0 -->
      <g style="fill:#262626;" transform="translate(320.883081 366.754531)scale(0.11 -0.11)">
       <use xlink:href="#ArialMT-49"/>
       <use x="55.615234" xlink:href="#ArialMT-53"/>
       <use x="111.230469" xlink:href="#ArialMT-46"/>
       <use x="139.013672" xlink:href="#ArialMT-48"/>
      </g>
     </g>
    </g>
    <g id="xtick_7">
     <g id="line2d_7">
      <path clip-path="url(#pd79b4310b1)" d="M 384.040879 349.380938 
L 384.040879 23.220937 
" style="fill:none;stroke:#ffffff;stroke-linecap:round;"/>
     </g>
     <g id="text_7">
      <!-- 17.5 -->
      <g style="fill:#262626;" transform="translate(373.337364 366.754531)scale(0.11 -0.11)">
       <use xlink:href="#ArialMT-49"/>
       <use x="55.615234" xlink:href="#ArialMT-55"/>
       <use x="111.230469" xlink:href="#ArialMT-46"/>
       <use x="139.013672" xlink:href="#ArialMT-53"/>
      </g>
     </g>
    </g>
    <g id="xtick_8">
     <g id="line2d_8">
      <path clip-path="url(#pd79b4310b1)" d="M 436.495162 349.380938 
L 436.495162 23.220937 
" style="fill:none;stroke:#ffffff;stroke-linecap:round;"/>
     </g>
     <g id="text_8">
      <!-- 20.0 -->
      <g style="fill:#262626;" transform="translate(425.791647 366.754531)scale(0.11 -0.11)">
       <use xlink:href="#ArialMT-50"/>
       <use x="55.615234" xlink:href="#ArialMT-48"/>
       <use x="111.230469" xlink:href="#ArialMT-46"/>
       <use x="139.013672" xlink:href="#ArialMT-48"/>
      </g>
     </g>
    </g>
    <g id="xtick_9">
     <g id="line2d_9">
      <path clip-path="url(#pd79b4310b1)" d="M 488.949445 349.380938 
L 488.949445 23.220937 
" style="fill:none;stroke:#ffffff;stroke-linecap:round;"/>
     </g>
     <g id="text_9">
      <!-- 22.5 -->
      <g style="fill:#262626;" transform="translate(478.24593 366.754531)scale(0.11 -0.11)">
       <use xlink:href="#ArialMT-50"/>
       <use x="55.615234" xlink:href="#ArialMT-50"/>
       <use x="111.230469" xlink:href="#ArialMT-46"/>
       <use x="139.013672" xlink:href="#ArialMT-53"/>
      </g>
     </g>
    </g>
    <g id="text_10">
     <!-- Domestic Total Gross [Log $] -->
     <defs>
      <path d="M 7.71875 0 
L 7.71875 71.578125 
L 32.375 71.578125 
Q 40.71875 71.578125 45.125 70.5625 
Q 51.265625 69.140625 55.609375 65.4375 
Q 61.28125 60.640625 64.078125 53.1875 
Q 66.890625 45.75 66.890625 36.1875 
Q 66.890625 28.03125 64.984375 21.734375 
Q 63.09375 15.4375 60.109375 11.296875 
Q 57.125 7.171875 53.578125 4.796875 
Q 50.046875 2.4375 45.046875 1.21875 
Q 40.046875 0 33.546875 0 
z
M 17.1875 8.453125 
L 32.46875 8.453125 
Q 39.546875 8.453125 43.578125 9.765625 
Q 47.609375 11.078125 50 13.484375 
Q 53.375 16.84375 55.25 22.53125 
Q 57.125 28.21875 57.125 36.328125 
Q 57.125 47.5625 53.4375 53.59375 
Q 49.75 59.625 44.484375 61.671875 
Q 40.671875 63.140625 32.234375 63.140625 
L 17.1875 63.140625 
z
" id="ArialMT-68"/>
      <path d="M 3.328125 25.921875 
Q 3.328125 40.328125 11.328125 47.265625 
Q 18.015625 53.03125 27.640625 53.03125 
Q 38.328125 53.03125 45.109375 46.015625 
Q 51.90625 39.015625 51.90625 26.65625 
Q 51.90625 16.65625 48.90625 10.90625 
Q 45.90625 5.171875 40.15625 2 
Q 34.421875 -1.171875 27.640625 -1.171875 
Q 16.75 -1.171875 10.03125 5.8125 
Q 3.328125 12.796875 3.328125 25.921875 
z
M 12.359375 25.921875 
Q 12.359375 15.96875 16.703125 11.015625 
Q 21.046875 6.0625 27.640625 6.0625 
Q 34.1875 6.0625 38.53125 11.03125 
Q 42.875 16.015625 42.875 26.21875 
Q 42.875 35.84375 38.5 40.796875 
Q 34.125 45.75 27.640625 45.75 
Q 21.046875 45.75 16.703125 40.8125 
Q 12.359375 35.890625 12.359375 25.921875 
z
" id="ArialMT-111"/>
      <path d="M 6.59375 0 
L 6.59375 51.859375 
L 14.453125 51.859375 
L 14.453125 44.578125 
Q 16.890625 48.390625 20.9375 50.703125 
Q 25 53.03125 30.171875 53.03125 
Q 35.9375 53.03125 39.625 50.640625 
Q 43.3125 48.25 44.828125 43.953125 
Q 50.984375 53.03125 60.84375 53.03125 
Q 68.5625 53.03125 72.703125 48.75 
Q 76.859375 44.484375 76.859375 35.59375 
L 76.859375 0 
L 68.109375 0 
L 68.109375 32.671875 
Q 68.109375 37.9375 67.25 40.25 
Q 66.40625 42.578125 64.15625 43.984375 
Q 61.921875 45.40625 58.890625 45.40625 
Q 53.421875 45.40625 49.796875 41.765625 
Q 46.1875 38.140625 46.1875 30.125 
L 46.1875 0 
L 37.40625 0 
L 37.40625 33.6875 
Q 37.40625 39.546875 35.25 42.46875 
Q 33.109375 45.40625 28.21875 45.40625 
Q 24.515625 45.40625 21.359375 43.453125 
Q 18.21875 41.5 16.796875 37.734375 
Q 15.375 33.984375 15.375 26.90625 
L 15.375 0 
z
" id="ArialMT-109"/>
      <path d="M 42.09375 16.703125 
L 51.171875 15.578125 
Q 49.03125 7.625 43.21875 3.21875 
Q 37.40625 -1.171875 28.375 -1.171875 
Q 17 -1.171875 10.328125 5.828125 
Q 3.65625 12.84375 3.65625 25.484375 
Q 3.65625 38.578125 10.390625 45.796875 
Q 17.140625 53.03125 27.875 53.03125 
Q 38.28125 53.03125 44.875 45.953125 
Q 51.46875 38.875 51.46875 26.03125 
Q 51.46875 25.25 51.421875 23.6875 
L 12.75 23.6875 
Q 13.234375 15.140625 17.578125 10.59375 
Q 21.921875 6.0625 28.421875 6.0625 
Q 33.25 6.0625 36.671875 8.59375 
Q 40.09375 11.140625 42.09375 16.703125 
z
M 13.234375 30.90625 
L 42.1875 30.90625 
Q 41.609375 37.453125 38.875 40.71875 
Q 34.671875 45.796875 27.984375 45.796875 
Q 21.921875 45.796875 17.796875 41.75 
Q 13.671875 37.703125 13.234375 30.90625 
z
" id="ArialMT-101"/>
      <path d="M 3.078125 15.484375 
L 11.765625 16.84375 
Q 12.5 11.625 15.84375 8.84375 
Q 19.1875 6.0625 25.203125 6.0625 
Q 31.25 6.0625 34.171875 8.515625 
Q 37.109375 10.984375 37.109375 14.3125 
Q 37.109375 17.28125 34.515625 19 
Q 32.71875 20.171875 25.53125 21.96875 
Q 15.875 24.421875 12.140625 26.203125 
Q 8.40625 27.984375 6.46875 31.125 
Q 4.546875 34.28125 4.546875 38.09375 
Q 4.546875 41.546875 6.125 44.5 
Q 7.71875 47.46875 10.453125 49.421875 
Q 12.5 50.921875 16.03125 51.96875 
Q 19.578125 53.03125 23.640625 53.03125 
Q 29.734375 53.03125 34.34375 51.265625 
Q 38.96875 49.515625 41.15625 46.5 
Q 43.359375 43.5 44.1875 38.484375 
L 35.59375 37.3125 
Q 35.015625 41.3125 32.203125 43.546875 
Q 29.390625 45.796875 24.265625 45.796875 
Q 18.21875 45.796875 15.625 43.796875 
Q 13.03125 41.796875 13.03125 39.109375 
Q 13.03125 37.40625 14.109375 36.03125 
Q 15.1875 34.625 17.484375 33.6875 
Q 18.796875 33.203125 25.25 31.453125 
Q 34.578125 28.953125 38.25 27.359375 
Q 41.9375 25.78125 44.03125 22.75 
Q 46.140625 19.734375 46.140625 15.234375 
Q 46.140625 10.84375 43.578125 6.953125 
Q 41.015625 3.078125 36.171875 0.953125 
Q 31.34375 -1.171875 25.25 -1.171875 
Q 15.140625 -1.171875 9.84375 3.03125 
Q 4.546875 7.234375 3.078125 15.484375 
z
" id="ArialMT-115"/>
      <path d="M 25.78125 7.859375 
L 27.046875 0.09375 
Q 23.34375 -0.6875 20.40625 -0.6875 
Q 15.625 -0.6875 12.984375 0.828125 
Q 10.359375 2.34375 9.28125 4.8125 
Q 8.203125 7.28125 8.203125 15.1875 
L 8.203125 45.015625 
L 1.765625 45.015625 
L 1.765625 51.859375 
L 8.203125 51.859375 
L 8.203125 64.703125 
L 16.9375 69.96875 
L 16.9375 51.859375 
L 25.78125 51.859375 
L 25.78125 45.015625 
L 16.9375 45.015625 
L 16.9375 14.703125 
Q 16.9375 10.9375 17.40625 9.859375 
Q 17.875 8.796875 18.921875 8.15625 
Q 19.96875 7.515625 21.921875 7.515625 
Q 23.390625 7.515625 25.78125 7.859375 
z
" id="ArialMT-116"/>
      <path d="M 6.640625 61.46875 
L 6.640625 71.578125 
L 15.4375 71.578125 
L 15.4375 61.46875 
z
M 6.640625 0 
L 6.640625 51.859375 
L 15.4375 51.859375 
L 15.4375 0 
z
" id="ArialMT-105"/>
      <path d="M 40.4375 19 
L 49.078125 17.875 
Q 47.65625 8.9375 41.8125 3.875 
Q 35.984375 -1.171875 27.484375 -1.171875 
Q 16.84375 -1.171875 10.375 5.78125 
Q 3.90625 12.75 3.90625 25.734375 
Q 3.90625 34.125 6.6875 40.421875 
Q 9.46875 46.734375 15.15625 49.875 
Q 20.84375 53.03125 27.546875 53.03125 
Q 35.984375 53.03125 41.359375 48.75 
Q 46.734375 44.484375 48.25 36.625 
L 39.703125 35.296875 
Q 38.484375 40.53125 35.375 43.15625 
Q 32.28125 45.796875 27.875 45.796875 
Q 21.234375 45.796875 17.078125 41.03125 
Q 12.9375 36.28125 12.9375 25.984375 
Q 12.9375 15.53125 16.9375 10.796875 
Q 20.953125 6.0625 27.390625 6.0625 
Q 32.5625 6.0625 36.03125 9.234375 
Q 39.5 12.40625 40.4375 19 
z
" id="ArialMT-99"/>
      <path id="ArialMT-32"/>
      <path d="M 25.921875 0 
L 25.921875 63.140625 
L 2.34375 63.140625 
L 2.34375 71.578125 
L 59.078125 71.578125 
L 59.078125 63.140625 
L 35.40625 63.140625 
L 35.40625 0 
z
" id="ArialMT-84"/>
      <path d="M 40.4375 6.390625 
Q 35.546875 2.25 31.03125 0.53125 
Q 26.515625 -1.171875 21.34375 -1.171875 
Q 12.796875 -1.171875 8.203125 3 
Q 3.609375 7.171875 3.609375 13.671875 
Q 3.609375 17.484375 5.34375 20.625 
Q 7.078125 23.78125 9.890625 25.6875 
Q 12.703125 27.59375 16.21875 28.5625 
Q 18.796875 29.25 24.03125 29.890625 
Q 34.671875 31.15625 39.703125 32.90625 
Q 39.75 34.71875 39.75 35.203125 
Q 39.75 40.578125 37.25 42.78125 
Q 33.890625 45.75 27.25 45.75 
Q 21.046875 45.75 18.09375 43.578125 
Q 15.140625 41.40625 13.71875 35.890625 
L 5.125 37.0625 
Q 6.296875 42.578125 8.984375 45.96875 
Q 11.671875 49.359375 16.75 51.1875 
Q 21.828125 53.03125 28.515625 53.03125 
Q 35.15625 53.03125 39.296875 51.46875 
Q 43.453125 49.90625 45.40625 47.53125 
Q 47.359375 45.171875 48.140625 41.546875 
Q 48.578125 39.3125 48.578125 33.453125 
L 48.578125 21.734375 
Q 48.578125 9.46875 49.140625 6.21875 
Q 49.703125 2.984375 51.375 0 
L 42.1875 0 
Q 40.828125 2.734375 40.4375 6.390625 
z
M 39.703125 26.03125 
Q 34.90625 24.078125 25.34375 22.703125 
Q 19.921875 21.921875 17.671875 20.9375 
Q 15.4375 19.96875 14.203125 18.09375 
Q 12.984375 16.21875 12.984375 13.921875 
Q 12.984375 10.40625 15.640625 8.0625 
Q 18.3125 5.71875 23.4375 5.71875 
Q 28.515625 5.71875 32.46875 7.9375 
Q 36.421875 10.15625 38.28125 14.015625 
Q 39.703125 17 39.703125 22.796875 
z
" id="ArialMT-97"/>
      <path d="M 6.390625 0 
L 6.390625 71.578125 
L 15.1875 71.578125 
L 15.1875 0 
z
" id="ArialMT-108"/>
      <path d="M 41.21875 28.078125 
L 41.21875 36.46875 
L 71.53125 36.53125 
L 71.53125 9.96875 
Q 64.546875 4.390625 57.125 1.578125 
Q 49.703125 -1.21875 41.890625 -1.21875 
Q 31.34375 -1.21875 22.71875 3.296875 
Q 14.109375 7.8125 9.71875 16.359375 
Q 5.328125 24.90625 5.328125 35.453125 
Q 5.328125 45.90625 9.6875 54.953125 
Q 14.0625 64.015625 22.265625 68.40625 
Q 30.46875 72.796875 41.15625 72.796875 
Q 48.921875 72.796875 55.1875 70.28125 
Q 61.46875 67.78125 65.03125 63.28125 
Q 68.609375 58.796875 70.453125 51.5625 
L 61.921875 49.21875 
Q 60.296875 54.6875 57.90625 57.8125 
Q 55.515625 60.9375 51.0625 62.8125 
Q 46.625 64.703125 41.21875 64.703125 
Q 34.71875 64.703125 29.984375 62.71875 
Q 25.25 60.75 22.34375 57.515625 
Q 19.4375 54.296875 17.828125 50.4375 
Q 15.09375 43.796875 15.09375 36.03125 
Q 15.09375 26.46875 18.390625 20.015625 
Q 21.6875 13.578125 27.984375 10.453125 
Q 34.28125 7.328125 41.359375 7.328125 
Q 47.515625 7.328125 53.375 9.6875 
Q 59.234375 12.0625 62.25 14.75 
L 62.25 28.078125 
z
" id="ArialMT-71"/>
      <path d="M 6.5 0 
L 6.5 51.859375 
L 14.40625 51.859375 
L 14.40625 44 
Q 17.4375 49.515625 20 51.265625 
Q 22.5625 53.03125 25.640625 53.03125 
Q 30.078125 53.03125 34.671875 50.203125 
L 31.640625 42.046875 
Q 28.421875 43.953125 25.203125 43.953125 
Q 22.3125 43.953125 20.015625 42.21875 
Q 17.71875 40.484375 16.75 37.40625 
Q 15.28125 32.71875 15.28125 27.15625 
L 15.28125 0 
z
" id="ArialMT-114"/>
      <path d="M 6.78125 -19.875 
L 6.78125 71.578125 
L 26.171875 71.578125 
L 26.171875 64.3125 
L 15.578125 64.3125 
L 15.578125 -12.59375 
L 26.171875 -12.59375 
L 26.171875 -19.875 
z
" id="ArialMT-91"/>
      <path d="M 7.328125 0 
L 7.328125 71.578125 
L 16.796875 71.578125 
L 16.796875 8.453125 
L 52.046875 8.453125 
L 52.046875 0 
z
" id="ArialMT-76"/>
      <path d="M 4.984375 -4.296875 
L 13.53125 -5.5625 
Q 14.0625 -9.515625 16.5 -11.328125 
Q 19.78125 -13.765625 25.4375 -13.765625 
Q 31.546875 -13.765625 34.859375 -11.328125 
Q 38.1875 -8.890625 39.359375 -4.5 
Q 40.046875 -1.8125 39.984375 6.78125 
Q 34.234375 0 25.640625 0 
Q 14.9375 0 9.078125 7.71875 
Q 3.21875 15.4375 3.21875 26.21875 
Q 3.21875 33.640625 5.90625 39.90625 
Q 8.59375 46.1875 13.6875 49.609375 
Q 18.796875 53.03125 25.6875 53.03125 
Q 34.859375 53.03125 40.828125 45.609375 
L 40.828125 51.859375 
L 48.921875 51.859375 
L 48.921875 7.03125 
Q 48.921875 -5.078125 46.453125 -10.125 
Q 44 -15.1875 38.640625 -18.109375 
Q 33.296875 -21.046875 25.484375 -21.046875 
Q 16.21875 -21.046875 10.5 -16.875 
Q 4.78125 -12.703125 4.984375 -4.296875 
z
M 12.25 26.859375 
Q 12.25 16.65625 16.296875 11.96875 
Q 20.359375 7.28125 26.46875 7.28125 
Q 32.515625 7.28125 36.609375 11.9375 
Q 40.71875 16.609375 40.71875 26.5625 
Q 40.71875 36.078125 36.5 40.90625 
Q 32.28125 45.75 26.3125 45.75 
Q 20.453125 45.75 16.34375 40.984375 
Q 12.25 36.234375 12.25 26.859375 
z
" id="ArialMT-103"/>
      <path d="M 24.90625 -10.296875 
L 24.90625 -1.515625 
Q 18.3125 -0.6875 14.1875 1.4375 
Q 10.0625 3.5625 7.046875 8.296875 
Q 4.046875 13.03125 3.5625 19.875 
L 12.40625 21.53125 
Q 13.421875 14.453125 16.015625 11.140625 
Q 19.734375 6.453125 24.90625 5.90625 
L 24.90625 33.890625 
Q 19.484375 34.90625 13.8125 38.09375 
Q 9.625 40.4375 7.34375 44.578125 
Q 5.078125 48.734375 5.078125 54 
Q 5.078125 63.375 11.71875 69.1875 
Q 16.15625 73.09375 24.90625 73.96875 
L 24.90625 78.171875 
L 30.078125 78.171875 
L 30.078125 73.96875 
Q 37.75 73.25 42.234375 69.484375 
Q 48 64.703125 49.171875 56.34375 
L 40.09375 54.984375 
Q 39.3125 60.15625 36.84375 62.90625 
Q 34.375 65.671875 30.078125 66.546875 
L 30.078125 41.21875 
Q 36.71875 39.546875 38.875 38.625 
Q 42.96875 36.8125 45.546875 34.21875 
Q 48.140625 31.640625 49.53125 28.078125 
Q 50.921875 24.515625 50.921875 20.359375 
Q 50.921875 11.234375 45.109375 5.125 
Q 39.3125 -0.984375 30.078125 -1.421875 
L 30.078125 -10.296875 
z
M 24.90625 66.65625 
Q 19.78125 65.875 16.828125 62.546875 
Q 13.875 59.234375 13.875 54.6875 
Q 13.875 50.203125 16.375 47.171875 
Q 18.890625 44.140625 24.90625 42.328125 
z
M 30.078125 5.90625 
Q 35.203125 6.546875 38.546875 10.34375 
Q 41.890625 14.15625 41.890625 19.78125 
Q 41.890625 24.5625 39.515625 27.46875 
Q 37.15625 30.375 30.078125 32.671875 
z
" id="ArialMT-36"/>
      <path d="M 21.296875 -19.875 
L 1.90625 -19.875 
L 1.90625 -12.59375 
L 12.5 -12.59375 
L 12.5 64.3125 
L 1.90625 64.3125 
L 1.90625 71.578125 
L 21.296875 71.578125 
z
" id="ArialMT-93"/>
     </defs>
     <g style="fill:#262626;" transform="translate(188.707344 383.884844)scale(0.14 -0.14)">
      <use xlink:href="#ArialMT-68"/>
      <use x="72.216797" xlink:href="#ArialMT-111"/>
      <use x="127.832031" xlink:href="#ArialMT-109"/>
      <use x="211.132812" xlink:href="#ArialMT-101"/>
      <use x="266.748047" xlink:href="#ArialMT-115"/>
      <use x="316.748047" xlink:href="#ArialMT-116"/>
      <use x="344.53125" xlink:href="#ArialMT-105"/>
      <use x="366.748047" xlink:href="#ArialMT-99"/>
      <use x="416.748047" xlink:href="#ArialMT-32"/>
      <use x="442.78125" xlink:href="#ArialMT-84"/>
      <use x="492.740234" xlink:href="#ArialMT-111"/>
      <use x="548.355469" xlink:href="#ArialMT-116"/>
      <use x="576.138672" xlink:href="#ArialMT-97"/>
      <use x="631.753906" xlink:href="#ArialMT-108"/>
      <use x="653.970703" xlink:href="#ArialMT-32"/>
      <use x="681.753906" xlink:href="#ArialMT-71"/>
      <use x="759.537109" xlink:href="#ArialMT-114"/>
      <use x="792.837891" xlink:href="#ArialMT-111"/>
      <use x="848.453125" xlink:href="#ArialMT-115"/>
      <use x="898.453125" xlink:href="#ArialMT-115"/>
      <use x="948.453125" xlink:href="#ArialMT-32"/>
      <use x="976.236328" xlink:href="#ArialMT-91"/>
      <use x="1004.019531" xlink:href="#ArialMT-76"/>
      <use x="1059.634766" xlink:href="#ArialMT-111"/>
      <use x="1115.25" xlink:href="#ArialMT-103"/>
      <use x="1170.865234" xlink:href="#ArialMT-32"/>
      <use x="1198.648438" xlink:href="#ArialMT-36"/>
      <use x="1254.263672" xlink:href="#ArialMT-93"/>
     </g>
    </g>
   </g>
   <g id="matplotlib.axis_2">
    <g id="ytick_1">
     <g id="line2d_10">
      <path clip-path="url(#pd79b4310b1)" d="M 55.245156 349.380938 
L 501.645156 349.380938 
" style="fill:none;stroke:#ffffff;stroke-linecap:round;"/>
     </g>
     <g id="text_11">
      <!-- 0.00 -->
      <g style="fill:#262626;" transform="translate(24.338125 353.317734)scale(0.11 -0.11)">
       <use xlink:href="#ArialMT-48"/>
       <use x="55.615234" xlink:href="#ArialMT-46"/>
       <use x="83.398438" xlink:href="#ArialMT-48"/>
       <use x="139.013672" xlink:href="#ArialMT-48"/>
      </g>
     </g>
    </g>
    <g id="ytick_2">
     <g id="line2d_11">
      <path clip-path="url(#pd79b4310b1)" d="M 55.245156 296.127572 
L 501.645156 296.127572 
" style="fill:none;stroke:#ffffff;stroke-linecap:round;"/>
     </g>
     <g id="text_12">
      <!-- 0.02 -->
      <g style="fill:#262626;" transform="translate(24.338125 300.064369)scale(0.11 -0.11)">
       <use xlink:href="#ArialMT-48"/>
       <use x="55.615234" xlink:href="#ArialMT-46"/>
       <use x="83.398438" xlink:href="#ArialMT-48"/>
       <use x="139.013672" xlink:href="#ArialMT-50"/>
      </g>
     </g>
    </g>
    <g id="ytick_3">
     <g id="line2d_12">
      <path clip-path="url(#pd79b4310b1)" d="M 55.245156 242.874207 
L 501.645156 242.874207 
" style="fill:none;stroke:#ffffff;stroke-linecap:round;"/>
     </g>
     <g id="text_13">
      <!-- 0.04 -->
      <defs>
       <path d="M 32.328125 0 
L 32.328125 17.140625 
L 1.265625 17.140625 
L 1.265625 25.203125 
L 33.9375 71.578125 
L 41.109375 71.578125 
L 41.109375 25.203125 
L 50.78125 25.203125 
L 50.78125 17.140625 
L 41.109375 17.140625 
L 41.109375 0 
z
M 32.328125 25.203125 
L 32.328125 57.46875 
L 9.90625 25.203125 
z
" id="ArialMT-52"/>
      </defs>
      <g style="fill:#262626;" transform="translate(24.338125 246.811004)scale(0.11 -0.11)">
       <use xlink:href="#ArialMT-48"/>
       <use x="55.615234" xlink:href="#ArialMT-46"/>
       <use x="83.398438" xlink:href="#ArialMT-48"/>
       <use x="139.013672" xlink:href="#ArialMT-52"/>
      </g>
     </g>
    </g>
    <g id="ytick_4">
     <g id="line2d_13">
      <path clip-path="url(#pd79b4310b1)" d="M 55.245156 189.620842 
L 501.645156 189.620842 
" style="fill:none;stroke:#ffffff;stroke-linecap:round;"/>
     </g>
     <g id="text_14">
      <!-- 0.06 -->
      <defs>
       <path d="M 49.75 54.046875 
L 41.015625 53.375 
Q 39.84375 58.546875 37.703125 60.890625 
Q 34.125 64.65625 28.90625 64.65625 
Q 24.703125 64.65625 21.53125 62.3125 
Q 17.390625 59.28125 14.984375 53.46875 
Q 12.59375 47.65625 12.5 36.921875 
Q 15.671875 41.75 20.265625 44.09375 
Q 24.859375 46.4375 29.890625 46.4375 
Q 38.671875 46.4375 44.84375 39.96875 
Q 51.03125 33.5 51.03125 23.25 
Q 51.03125 16.5 48.125 10.71875 
Q 45.21875 4.9375 40.140625 1.859375 
Q 35.0625 -1.21875 28.609375 -1.21875 
Q 17.625 -1.21875 10.6875 6.859375 
Q 3.765625 14.9375 3.765625 33.5 
Q 3.765625 54.25 11.421875 63.671875 
Q 18.109375 71.875 29.4375 71.875 
Q 37.890625 71.875 43.28125 67.140625 
Q 48.6875 62.40625 49.75 54.046875 
z
M 13.875 23.1875 
Q 13.875 18.65625 15.796875 14.5 
Q 17.71875 10.359375 21.1875 8.171875 
Q 24.65625 6 28.46875 6 
Q 34.03125 6 38.03125 10.484375 
Q 42.046875 14.984375 42.046875 22.703125 
Q 42.046875 30.125 38.078125 34.390625 
Q 34.125 38.671875 28.125 38.671875 
Q 22.171875 38.671875 18.015625 34.390625 
Q 13.875 30.125 13.875 23.1875 
z
" id="ArialMT-54"/>
      </defs>
      <g style="fill:#262626;" transform="translate(24.338125 193.557639)scale(0.11 -0.11)">
       <use xlink:href="#ArialMT-48"/>
       <use x="55.615234" xlink:href="#ArialMT-46"/>
       <use x="83.398438" xlink:href="#ArialMT-48"/>
       <use x="139.013672" xlink:href="#ArialMT-54"/>
      </g>
     </g>
    </g>
    <g id="ytick_5">
     <g id="line2d_14">
      <path clip-path="url(#pd79b4310b1)" d="M 55.245156 136.367477 
L 501.645156 136.367477 
" style="fill:none;stroke:#ffffff;stroke-linecap:round;"/>
     </g>
     <g id="text_15">
      <!-- 0.08 -->
      <defs>
       <path d="M 17.671875 38.8125 
Q 12.203125 40.828125 9.5625 44.53125 
Q 6.9375 48.25 6.9375 53.421875 
Q 6.9375 61.234375 12.546875 66.546875 
Q 18.171875 71.875 27.484375 71.875 
Q 36.859375 71.875 42.578125 66.421875 
Q 48.296875 60.984375 48.296875 53.171875 
Q 48.296875 48.1875 45.671875 44.5 
Q 43.0625 40.828125 37.75 38.8125 
Q 44.34375 36.671875 47.78125 31.875 
Q 51.21875 27.09375 51.21875 20.453125 
Q 51.21875 11.28125 44.71875 5.03125 
Q 38.234375 -1.21875 27.640625 -1.21875 
Q 17.046875 -1.21875 10.546875 5.046875 
Q 4.046875 11.328125 4.046875 20.703125 
Q 4.046875 27.6875 7.59375 32.390625 
Q 11.140625 37.109375 17.671875 38.8125 
z
M 15.921875 53.71875 
Q 15.921875 48.640625 19.1875 45.40625 
Q 22.46875 42.1875 27.6875 42.1875 
Q 32.765625 42.1875 36.015625 45.375 
Q 39.265625 48.578125 39.265625 53.21875 
Q 39.265625 58.0625 35.90625 61.359375 
Q 32.5625 64.65625 27.59375 64.65625 
Q 22.5625 64.65625 19.234375 61.421875 
Q 15.921875 58.203125 15.921875 53.71875 
z
M 13.09375 20.65625 
Q 13.09375 16.890625 14.875 13.375 
Q 16.65625 9.859375 20.171875 7.921875 
Q 23.6875 6 27.734375 6 
Q 34.03125 6 38.125 10.046875 
Q 42.234375 14.109375 42.234375 20.359375 
Q 42.234375 26.703125 38.015625 30.859375 
Q 33.796875 35.015625 27.4375 35.015625 
Q 21.234375 35.015625 17.15625 30.90625 
Q 13.09375 26.8125 13.09375 20.65625 
z
" id="ArialMT-56"/>
      </defs>
      <g style="fill:#262626;" transform="translate(24.338125 140.304274)scale(0.11 -0.11)">
       <use xlink:href="#ArialMT-48"/>
       <use x="55.615234" xlink:href="#ArialMT-46"/>
       <use x="83.398438" xlink:href="#ArialMT-48"/>
       <use x="139.013672" xlink:href="#ArialMT-56"/>
      </g>
     </g>
    </g>
    <g id="ytick_6">
     <g id="line2d_15">
      <path clip-path="url(#pd79b4310b1)" d="M 55.245156 83.114112 
L 501.645156 83.114112 
" style="fill:none;stroke:#ffffff;stroke-linecap:round;"/>
     </g>
     <g id="text_16">
      <!-- 0.10 -->
      <g style="fill:#262626;" transform="translate(24.338125 87.050909)scale(0.11 -0.11)">
       <use xlink:href="#ArialMT-48"/>
       <use x="55.615234" xlink:href="#ArialMT-46"/>
       <use x="83.398438" xlink:href="#ArialMT-49"/>
       <use x="139.013672" xlink:href="#ArialMT-48"/>
      </g>
     </g>
    </g>
    <g id="ytick_7">
     <g id="line2d_16">
      <path clip-path="url(#pd79b4310b1)" d="M 55.245156 29.860747 
L 501.645156 29.860747 
" style="fill:none;stroke:#ffffff;stroke-linecap:round;"/>
     </g>
     <g id="text_17">
      <!-- 0.12 -->
      <g style="fill:#262626;" transform="translate(24.338125 33.797544)scale(0.11 -0.11)">
       <use xlink:href="#ArialMT-48"/>
       <use x="55.615234" xlink:href="#ArialMT-46"/>
       <use x="83.398438" xlink:href="#ArialMT-49"/>
       <use x="139.013672" xlink:href="#ArialMT-50"/>
      </g>
     </g>
    </g>
    <g id="text_18">
     <!-- P(Log of DTG) -->
     <defs>
      <path d="M 7.71875 0 
L 7.71875 71.578125 
L 34.71875 71.578125 
Q 41.84375 71.578125 45.609375 70.90625 
Q 50.875 70.015625 54.4375 67.546875 
Q 58.015625 65.09375 60.1875 60.640625 
Q 62.359375 56.203125 62.359375 50.875 
Q 62.359375 41.75 56.546875 35.421875 
Q 50.734375 29.109375 35.546875 29.109375 
L 17.1875 29.109375 
L 17.1875 0 
z
M 17.1875 37.546875 
L 35.6875 37.546875 
Q 44.875 37.546875 48.734375 40.96875 
Q 52.59375 44.390625 52.59375 50.59375 
Q 52.59375 55.078125 50.3125 58.265625 
Q 48.046875 61.46875 44.34375 62.5 
Q 41.9375 63.140625 35.5 63.140625 
L 17.1875 63.140625 
z
" id="ArialMT-80"/>
      <path d="M 23.390625 -21.046875 
Q 16.109375 -11.859375 11.078125 0.4375 
Q 6.0625 12.75 6.0625 25.921875 
Q 6.0625 37.546875 9.8125 48.1875 
Q 14.203125 60.546875 23.390625 72.796875 
L 29.6875 72.796875 
Q 23.78125 62.640625 21.875 58.296875 
Q 18.890625 51.5625 17.1875 44.234375 
Q 15.09375 35.109375 15.09375 25.875 
Q 15.09375 2.390625 29.6875 -21.046875 
z
" id="ArialMT-40"/>
      <path d="M 8.6875 0 
L 8.6875 45.015625 
L 0.921875 45.015625 
L 0.921875 51.859375 
L 8.6875 51.859375 
L 8.6875 57.375 
Q 8.6875 62.59375 9.625 65.140625 
Q 10.890625 68.5625 14.078125 70.671875 
Q 17.28125 72.796875 23.046875 72.796875 
Q 26.765625 72.796875 31.25 71.921875 
L 29.9375 64.265625 
Q 27.203125 64.75 24.75 64.75 
Q 20.75 64.75 19.09375 63.03125 
Q 17.4375 61.328125 17.4375 56.640625 
L 17.4375 51.859375 
L 27.546875 51.859375 
L 27.546875 45.015625 
L 17.4375 45.015625 
L 17.4375 0 
z
" id="ArialMT-102"/>
      <path d="M 12.359375 -21.046875 
L 6.0625 -21.046875 
Q 20.65625 2.390625 20.65625 25.875 
Q 20.65625 35.0625 18.5625 44.09375 
Q 16.890625 51.421875 13.921875 58.15625 
Q 12.015625 62.546875 6.0625 72.796875 
L 12.359375 72.796875 
Q 21.53125 60.546875 25.921875 48.1875 
Q 29.6875 37.546875 29.6875 25.921875 
Q 29.6875 12.75 24.625 0.4375 
Q 19.578125 -11.859375 12.359375 -21.046875 
z
" id="ArialMT-41"/>
     </defs>
     <g style="fill:#262626;" transform="translate(17.391563 231.811875)rotate(-90)scale(0.14 -0.14)">
      <use xlink:href="#ArialMT-80"/>
      <use x="66.699219" xlink:href="#ArialMT-40"/>
      <use x="100" xlink:href="#ArialMT-76"/>
      <use x="155.615234" xlink:href="#ArialMT-111"/>
      <use x="211.230469" xlink:href="#ArialMT-103"/>
      <use x="266.845703" xlink:href="#ArialMT-32"/>
      <use x="294.628906" xlink:href="#ArialMT-111"/>
      <use x="350.244141" xlink:href="#ArialMT-102"/>
      <use x="378.027344" xlink:href="#ArialMT-32"/>
      <use x="405.810547" xlink:href="#ArialMT-68"/>
      <use x="478.027344" xlink:href="#ArialMT-84"/>
      <use x="539.111328" xlink:href="#ArialMT-71"/>
      <use x="616.894531" xlink:href="#ArialMT-41"/>
     </g>
    </g>
   </g>
   <g id="patch_3">
    <path clip-path="url(#pd79b4310b1)" d="M 106.592681 349.380938 
L 115.882004 349.380938 
L 115.882004 347.87486 
L 106.592681 347.87486 
z
" style="fill:#4c72b0;opacity:0.4;stroke:#ffffff;stroke-linejoin:miter;"/>
   </g>
   <g id="patch_4">
    <path clip-path="url(#pd79b4310b1)" d="M 115.882004 349.380938 
L 125.171327 349.380938 
L 125.171327 349.380938 
L 115.882004 349.380938 
z
" style="fill:#4c72b0;opacity:0.4;stroke:#ffffff;stroke-linejoin:miter;"/>
   </g>
   <g id="patch_5">
    <path clip-path="url(#pd79b4310b1)" d="M 125.171327 349.380938 
L 134.46065 349.380938 
L 134.46065 348.251379 
L 125.171327 348.251379 
z
" style="fill:#4c72b0;opacity:0.4;stroke:#ffffff;stroke-linejoin:miter;"/>
   </g>
   <g id="patch_6">
    <path clip-path="url(#pd79b4310b1)" d="M 134.46065 349.380938 
L 143.749973 349.380938 
L 143.749973 345.239223 
L 134.46065 345.239223 
z
" style="fill:#4c72b0;opacity:0.4;stroke:#ffffff;stroke-linejoin:miter;"/>
   </g>
   <g id="patch_7">
    <path clip-path="url(#pd79b4310b1)" d="M 143.749973 349.380938 
L 153.039296 349.380938 
L 153.039296 337.708834 
L 143.749973 337.708834 
z
" style="fill:#4c72b0;opacity:0.4;stroke:#ffffff;stroke-linejoin:miter;"/>
   </g>
   <g id="patch_8">
    <path clip-path="url(#pd79b4310b1)" d="M 153.039296 349.380938 
L 162.328619 349.380938 
L 162.328619 327.919327 
L 153.039296 327.919327 
z
" style="fill:#4c72b0;opacity:0.4;stroke:#ffffff;stroke-linejoin:miter;"/>
   </g>
   <g id="patch_9">
    <path clip-path="url(#pd79b4310b1)" d="M 162.328619 349.380938 
L 171.617942 349.380938 
L 171.617942 312.858548 
L 162.328619 312.858548 
z
" style="fill:#4c72b0;opacity:0.4;stroke:#ffffff;stroke-linejoin:miter;"/>
   </g>
   <g id="patch_10">
    <path clip-path="url(#pd79b4310b1)" d="M 171.617942 349.380938 
L 180.907265 349.380938 
L 180.907265 291.773457 
L 171.617942 291.773457 
z
" style="fill:#4c72b0;opacity:0.4;stroke:#ffffff;stroke-linejoin:miter;"/>
   </g>
   <g id="patch_11">
    <path clip-path="url(#pd79b4310b1)" d="M 180.907265 349.380938 
L 190.196588 349.380938 
L 190.196588 249.603275 
L 180.907265 249.603275 
z
" style="fill:#4c72b0;opacity:0.4;stroke:#ffffff;stroke-linejoin:miter;"/>
   </g>
   <g id="patch_12">
    <path clip-path="url(#pd79b4310b1)" d="M 190.196588 349.380938 
L 199.485911 349.380938 
L 199.485911 213.080886 
L 190.196588 213.080886 
z
" style="fill:#4c72b0;opacity:0.4;stroke:#ffffff;stroke-linejoin:miter;"/>
   </g>
   <g id="patch_13">
    <path clip-path="url(#pd79b4310b1)" d="M 199.485911 349.380938 
L 208.775234 349.380938 
L 208.775234 171.663743 
L 199.485911 171.663743 
z
" style="fill:#4c72b0;opacity:0.4;stroke:#ffffff;stroke-linejoin:miter;"/>
   </g>
   <g id="patch_14">
    <path clip-path="url(#pd79b4310b1)" d="M 208.775234 349.380938 
L 218.064557 349.380938 
L 218.064557 126.104886 
L 208.775234 126.104886 
z
" style="fill:#4c72b0;opacity:0.4;stroke:#ffffff;stroke-linejoin:miter;"/>
   </g>
   <g id="patch_15">
    <path clip-path="url(#pd79b4310b1)" d="M 218.064557 349.380938 
L 227.35388 349.380938 
L 227.35388 97.865925 
L 218.064557 97.865925 
z
" style="fill:#4c72b0;opacity:0.4;stroke:#ffffff;stroke-linejoin:miter;"/>
   </g>
   <g id="patch_16">
    <path clip-path="url(#pd79b4310b1)" d="M 227.35388 349.380938 
L 236.643203 349.380938 
L 236.643203 87.323379 
L 227.35388 87.323379 
z
" style="fill:#4c72b0;opacity:0.4;stroke:#ffffff;stroke-linejoin:miter;"/>
   </g>
   <g id="patch_17">
    <path clip-path="url(#pd79b4310b1)" d="M 236.643203 349.380938 
L 245.932526 349.380938 
L 245.932526 80.169509 
L 236.643203 80.169509 
z
" style="fill:#4c72b0;opacity:0.4;stroke:#ffffff;stroke-linejoin:miter;"/>
   </g>
   <g id="patch_18">
    <path clip-path="url(#pd79b4310b1)" d="M 245.932526 349.380938 
L 255.221849 349.380938 
L 255.221849 87.323379 
L 245.932526 87.323379 
z
" style="fill:#4c72b0;opacity:0.4;stroke:#ffffff;stroke-linejoin:miter;"/>
   </g>
   <g id="patch_19">
    <path clip-path="url(#pd79b4310b1)" d="M 255.221849 349.380938 
L 264.511172 349.380938 
L 264.511172 83.558184 
L 255.221849 83.558184 
z
" style="fill:#4c72b0;opacity:0.4;stroke:#ffffff;stroke-linejoin:miter;"/>
   </g>
   <g id="patch_20">
    <path clip-path="url(#pd79b4310b1)" d="M 264.511172 349.380938 
L 273.800495 349.380938 
L 273.800495 85.817301 
L 264.511172 85.817301 
z
" style="fill:#4c72b0;opacity:0.4;stroke:#ffffff;stroke-linejoin:miter;"/>
   </g>
   <g id="patch_21">
    <path clip-path="url(#pd79b4310b1)" d="M 273.800495 349.380938 
L 283.089818 349.380938 
L 283.089818 76.780834 
L 273.800495 76.780834 
z
" style="fill:#4c72b0;opacity:0.4;stroke:#ffffff;stroke-linejoin:miter;"/>
   </g>
   <g id="patch_22">
    <path clip-path="url(#pd79b4310b1)" d="M 283.089818 349.380938 
L 292.379141 349.380938 
L 292.379141 123.09273 
L 283.089818 123.09273 
z
" style="fill:#4c72b0;opacity:0.4;stroke:#ffffff;stroke-linejoin:miter;"/>
   </g>
   <g id="patch_23">
    <path clip-path="url(#pd79b4310b1)" d="M 292.379141 349.380938 
L 301.668464 349.380938 
L 301.668464 121.586652 
L 292.379141 121.586652 
z
" style="fill:#4c72b0;opacity:0.4;stroke:#ffffff;stroke-linejoin:miter;"/>
   </g>
   <g id="patch_24">
    <path clip-path="url(#pd79b4310b1)" d="M 301.668464 349.380938 
L 310.957787 349.380938 
L 310.957787 130.2466 
L 301.668464 130.2466 
z
" style="fill:#4c72b0;opacity:0.4;stroke:#ffffff;stroke-linejoin:miter;"/>
   </g>
   <g id="patch_25">
    <path clip-path="url(#pd79b4310b1)" d="M 310.957787 349.380938 
L 320.24711 349.380938 
L 320.24711 150.578652 
L 310.957787 150.578652 
z
" style="fill:#4c72b0;opacity:0.4;stroke:#ffffff;stroke-linejoin:miter;"/>
   </g>
   <g id="patch_26">
    <path clip-path="url(#pd79b4310b1)" d="M 320.24711 349.380938 
L 329.536433 349.380938 
L 329.536433 147.943015 
L 320.24711 147.943015 
z
" style="fill:#4c72b0;opacity:0.4;stroke:#ffffff;stroke-linejoin:miter;"/>
   </g>
   <g id="patch_27">
    <path clip-path="url(#pd79b4310b1)" d="M 329.536433 349.380938 
L 338.825756 349.380938 
L 338.825756 135.141353 
L 329.536433 135.141353 
z
" style="fill:#4c72b0;opacity:0.4;stroke:#ffffff;stroke-linejoin:miter;"/>
   </g>
   <g id="patch_28">
    <path clip-path="url(#pd79b4310b1)" d="M 338.825756 349.380938 
L 348.115079 349.380938 
L 348.115079 129.493561 
L 338.825756 129.493561 
z
" style="fill:#4c72b0;opacity:0.4;stroke:#ffffff;stroke-linejoin:miter;"/>
   </g>
   <g id="patch_29">
    <path clip-path="url(#pd79b4310b1)" d="M 348.115079 349.380938 
L 357.404402 349.380938 
L 357.404402 114.809301 
L 348.115079 114.809301 
z
" style="fill:#4c72b0;opacity:0.4;stroke:#ffffff;stroke-linejoin:miter;"/>
   </g>
   <g id="patch_30">
    <path clip-path="url(#pd79b4310b1)" d="M 357.404402 349.380938 
L 366.693725 349.380938 
L 366.693725 53.813145 
L 357.404402 53.813145 
z
" style="fill:#4c72b0;opacity:0.4;stroke:#ffffff;stroke-linejoin:miter;"/>
   </g>
   <g id="patch_31">
    <path clip-path="url(#pd79b4310b1)" d="M 366.693725 349.380938 
L 375.983048 349.380938 
L 375.983048 45.906236 
L 366.693725 45.906236 
z
" style="fill:#4c72b0;opacity:0.4;stroke:#ffffff;stroke-linejoin:miter;"/>
   </g>
   <g id="patch_32">
    <path clip-path="url(#pd79b4310b1)" d="M 375.983048 349.380938 
L 385.272371 349.380938 
L 385.272371 38.752366 
L 375.983048 38.752366 
z
" style="fill:#4c72b0;opacity:0.4;stroke:#ffffff;stroke-linejoin:miter;"/>
   </g>
   <g id="patch_33">
    <path clip-path="url(#pd79b4310b1)" d="M 385.272371 349.380938 
L 394.561694 349.380938 
L 394.561694 71.509561 
L 385.272371 71.509561 
z
" style="fill:#4c72b0;opacity:0.4;stroke:#ffffff;stroke-linejoin:miter;"/>
   </g>
   <g id="patch_34">
    <path clip-path="url(#pd79b4310b1)" d="M 394.561694 349.380938 
L 403.851017 349.380938 
L 403.851017 146.436938 
L 394.561694 146.436938 
z
" style="fill:#4c72b0;opacity:0.4;stroke:#ffffff;stroke-linejoin:miter;"/>
   </g>
   <g id="patch_35">
    <path clip-path="url(#pd79b4310b1)" d="M 403.851017 349.380938 
L 413.14034 349.380938 
L 413.14034 212.327847 
L 403.851017 212.327847 
z
" style="fill:#4c72b0;opacity:0.4;stroke:#ffffff;stroke-linejoin:miter;"/>
   </g>
   <g id="patch_36">
    <path clip-path="url(#pd79b4310b1)" d="M 413.14034 349.380938 
L 422.429663 349.380938 
L 422.429663 272.194444 
L 413.14034 272.194444 
z
" style="fill:#4c72b0;opacity:0.4;stroke:#ffffff;stroke-linejoin:miter;"/>
   </g>
   <g id="patch_37">
    <path clip-path="url(#pd79b4310b1)" d="M 422.429663 349.380938 
L 431.718986 349.380938 
L 431.718986 315.494184 
L 422.429663 315.494184 
z
" style="fill:#4c72b0;opacity:0.4;stroke:#ffffff;stroke-linejoin:miter;"/>
   </g>
   <g id="patch_38">
    <path clip-path="url(#pd79b4310b1)" d="M 431.718986 349.380938 
L 441.008309 349.380938 
L 441.008309 337.708834 
L 431.718986 337.708834 
z
" style="fill:#4c72b0;opacity:0.4;stroke:#ffffff;stroke-linejoin:miter;"/>
   </g>
   <g id="patch_39">
    <path clip-path="url(#pd79b4310b1)" d="M 441.008309 349.380938 
L 450.297632 349.380938 
L 450.297632 345.615743 
L 441.008309 345.615743 
z
" style="fill:#4c72b0;opacity:0.4;stroke:#ffffff;stroke-linejoin:miter;"/>
   </g>
   <g id="line2d_17">
    <path clip-path="url(#pd79b4310b1)" d="M 75.536065 349.375261 
L 88.31774 349.294993 
L 101.099415 348.964071 
L 113.88109 348.73494 
L 120.271928 348.495284 
L 123.467347 348.194564 
L 126.662765 347.703148 
L 129.858184 346.972277 
L 133.053603 345.95691 
L 136.249022 344.616008 
L 139.44444 342.914142 
L 142.639859 340.822968 
L 145.835278 338.319482 
L 149.030697 335.379242 
L 152.226115 331.966385 
L 155.421534 328.025259 
L 158.616953 323.477983 
L 161.812372 318.228598 
L 165.00779 312.171139 
L 168.203209 305.199479 
L 171.398628 297.220542 
L 174.594047 288.17421 
L 177.789465 278.058417 
L 180.984884 266.948727 
L 184.180303 254.997072 
L 190.571141 229.36196 
L 200.157397 188.944505 
L 206.548234 162.112974 
L 209.743653 149.326317 
L 212.939072 137.33659 
L 216.134491 126.410329 
L 219.329909 116.748558 
L 222.525328 108.463732 
L 225.720747 101.573651 
L 228.916166 96.00979 
L 232.111584 91.641757 
L 235.307003 88.315855 
L 238.502422 85.8926 
L 241.697841 84.260818 
L 244.893259 83.319181 
L 248.088678 82.943589 
L 251.284097 82.974648 
L 254.479516 83.244747 
L 260.870353 84.095015 
L 264.065772 84.698342 
L 267.261191 85.579162 
L 270.456609 86.929677 
L 273.652028 88.967639 
L 276.847447 91.891626 
L 280.042866 95.809244 
L 283.238284 100.658905 
L 286.433703 106.173048 
L 289.629122 111.922376 
L 292.824541 117.436935 
L 296.019959 122.35255 
L 299.215378 126.513545 
L 302.410797 129.984027 
L 305.606216 132.965248 
L 308.801634 135.66178 
L 311.997053 138.162737 
L 315.192472 140.39298 
L 318.387891 142.147918 
L 321.583309 143.179683 
L 324.778728 143.28234 
L 327.974147 142.338365 
L 331.169566 140.319132 
L 334.364984 137.253216 
L 337.560403 133.180839 
L 340.755822 128.111903 
L 343.951241 122.008531 
L 347.146659 114.814142 
L 350.342078 106.535069 
L 353.537497 97.345648 
L 359.928334 78.090216 
L 363.123753 69.361516 
L 366.319172 62.12187 
L 369.514591 56.860687 
L 372.71001 53.913632 
L 375.905428 53.551609 
L 379.100847 56.065954 
L 382.296266 61.77287 
L 385.491685 70.922679 
L 388.687103 83.566487 
L 391.882522 99.458563 
L 395.077941 118.04845 
L 398.27336 138.566866 
L 411.055035 224.209449 
L 414.250453 243.605158 
L 417.445872 261.464513 
L 420.641291 277.571623 
L 423.83671 291.788758 
L 427.032128 304.067796 
L 430.227547 314.448914 
L 433.422966 323.041968 
L 436.618385 330.000185 
L 439.813803 335.49904 
L 443.009222 339.725554 
L 446.204641 342.87393 
L 449.40006 345.140444 
L 452.595478 346.714386 
L 455.790897 347.767275 
L 458.986316 348.444552 
L 462.181735 348.862222 
L 468.572572 349.245308 
L 478.158828 349.369154 
L 481.354247 349.375124 
L 481.354247 349.375124 
" style="fill:none;stroke:#4c72b0;stroke-linecap:round;stroke-width:1.5;"/>
   </g>
   <g id="patch_40">
    <path d="M 55.245156 349.380938 
L 55.245156 23.220937 
" style="fill:none;stroke:#ffffff;stroke-linecap:square;stroke-linejoin:miter;stroke-width:1.25;"/>
   </g>
   <g id="patch_41">
    <path d="M 501.645156 349.380938 
L 501.645156 23.220937 
" style="fill:none;stroke:#ffffff;stroke-linecap:square;stroke-linejoin:miter;stroke-width:1.25;"/>
   </g>
   <g id="patch_42">
    <path d="M 55.245156 349.380938 
L 501.645156 349.380938 
" style="fill:none;stroke:#ffffff;stroke-linecap:square;stroke-linejoin:miter;stroke-width:1.25;"/>
   </g>
   <g id="patch_43">
    <path d="M 55.245156 23.220937 
L 501.645156 23.220937 
" style="fill:none;stroke:#ffffff;stroke-linecap:square;stroke-linejoin:miter;stroke-width:1.25;"/>
   </g>
   <g id="text_19">
    <!-- Domestic Total Gross for all films 1980-2020 -->
    <defs>
     <path d="M 5.46875 16.546875 
L 13.921875 17.328125 
Q 14.984375 11.375 18.015625 8.6875 
Q 21.046875 6 25.78125 6 
Q 29.828125 6 32.875 7.859375 
Q 35.9375 9.71875 37.890625 12.8125 
Q 39.84375 15.921875 41.15625 21.1875 
Q 42.484375 26.46875 42.484375 31.9375 
Q 42.484375 32.515625 42.4375 33.6875 
Q 39.796875 29.5 35.234375 26.875 
Q 30.671875 24.265625 25.34375 24.265625 
Q 16.453125 24.265625 10.296875 30.703125 
Q 4.15625 37.15625 4.15625 47.703125 
Q 4.15625 58.59375 10.578125 65.234375 
Q 17 71.875 26.65625 71.875 
Q 33.640625 71.875 39.421875 68.109375 
Q 45.21875 64.359375 48.21875 57.390625 
Q 51.21875 50.4375 51.21875 37.25 
Q 51.21875 23.53125 48.234375 15.40625 
Q 45.265625 7.28125 39.375 3.03125 
Q 33.5 -1.21875 25.59375 -1.21875 
Q 17.1875 -1.21875 11.859375 3.4375 
Q 6.546875 8.109375 5.46875 16.546875 
z
M 41.453125 48.140625 
Q 41.453125 55.71875 37.421875 60.15625 
Q 33.40625 64.59375 27.734375 64.59375 
Q 21.875 64.59375 17.53125 59.8125 
Q 13.1875 55.03125 13.1875 47.40625 
Q 13.1875 40.578125 17.3125 36.296875 
Q 21.4375 32.03125 27.484375 32.03125 
Q 33.59375 32.03125 37.515625 36.296875 
Q 41.453125 40.578125 41.453125 48.140625 
z
" id="ArialMT-57"/>
     <path d="M 3.171875 21.484375 
L 3.171875 30.328125 
L 30.171875 30.328125 
L 30.171875 21.484375 
z
" id="ArialMT-45"/>
    </defs>
    <g style="fill:#262626;" transform="translate(141.248437 17.220937)scale(0.14 -0.14)">
     <use xlink:href="#ArialMT-68"/>
     <use x="72.216797" xlink:href="#ArialMT-111"/>
     <use x="127.832031" xlink:href="#ArialMT-109"/>
     <use x="211.132812" xlink:href="#ArialMT-101"/>
     <use x="266.748047" xlink:href="#ArialMT-115"/>
     <use x="316.748047" xlink:href="#ArialMT-116"/>
     <use x="344.53125" xlink:href="#ArialMT-105"/>
     <use x="366.748047" xlink:href="#ArialMT-99"/>
     <use x="416.748047" xlink:href="#ArialMT-32"/>
     <use x="442.78125" xlink:href="#ArialMT-84"/>
     <use x="492.740234" xlink:href="#ArialMT-111"/>
     <use x="548.355469" xlink:href="#ArialMT-116"/>
     <use x="576.138672" xlink:href="#ArialMT-97"/>
     <use x="631.753906" xlink:href="#ArialMT-108"/>
     <use x="653.970703" xlink:href="#ArialMT-32"/>
     <use x="681.753906" xlink:href="#ArialMT-71"/>
     <use x="759.537109" xlink:href="#ArialMT-114"/>
     <use x="792.837891" xlink:href="#ArialMT-111"/>
     <use x="848.453125" xlink:href="#ArialMT-115"/>
     <use x="898.453125" xlink:href="#ArialMT-115"/>
     <use x="948.453125" xlink:href="#ArialMT-32"/>
     <use x="976.236328" xlink:href="#ArialMT-102"/>
     <use x="1004.019531" xlink:href="#ArialMT-111"/>
     <use x="1059.634766" xlink:href="#ArialMT-114"/>
     <use x="1092.935547" xlink:href="#ArialMT-32"/>
     <use x="1120.71875" xlink:href="#ArialMT-97"/>
     <use x="1176.333984" xlink:href="#ArialMT-108"/>
     <use x="1198.550781" xlink:href="#ArialMT-108"/>
     <use x="1220.767578" xlink:href="#ArialMT-32"/>
     <use x="1248.550781" xlink:href="#ArialMT-102"/>
     <use x="1276.333984" xlink:href="#ArialMT-105"/>
     <use x="1298.550781" xlink:href="#ArialMT-108"/>
     <use x="1320.767578" xlink:href="#ArialMT-109"/>
     <use x="1404.068359" xlink:href="#ArialMT-115"/>
     <use x="1454.068359" xlink:href="#ArialMT-32"/>
     <use x="1481.851562" xlink:href="#ArialMT-49"/>
     <use x="1537.466797" xlink:href="#ArialMT-57"/>
     <use x="1593.082031" xlink:href="#ArialMT-56"/>
     <use x="1648.697266" xlink:href="#ArialMT-48"/>
     <use x="1704.3125" xlink:href="#ArialMT-45"/>
     <use x="1737.613281" xlink:href="#ArialMT-50"/>
     <use x="1793.228516" xlink:href="#ArialMT-48"/>
     <use x="1848.84375" xlink:href="#ArialMT-50"/>
     <use x="1904.458984" xlink:href="#ArialMT-48"/>
    </g>
   </g>
  </g>
 </g>
 <defs>
  <clipPath id="pd79b4310b1">
   <rect height="326.16" width="446.4" x="55.245156" y="23.220937"/>
  </clipPath>
 </defs>
</svg>
