<?xml version="1.0" encoding="utf-8" standalone="no"?>
<!DOCTYPE svg PUBLIC "-//W3C//DTD SVG 1.1//EN"
  "http://www.w3.org/Graphics/SVG/1.1/DTD/svg11.dtd">
<!-- Created with matplotlib (https://matplotlib.org/) -->
<svg height="576pt" version="1.1" viewBox="0 0 864 576" width="864pt" xmlns="http://www.w3.org/2000/svg" xmlns:xlink="http://www.w3.org/1999/xlink">
 <defs>
  <style type="text/css">
*{stroke-linecap:butt;stroke-linejoin:round;}
  </style>
 </defs>
 <g id="figure_1">
  <g id="patch_1">
   <path d="M 0 576 
L 864 576 
L 864 0 
L 0 0 
z
" style="fill:#ffffff;"/>
  </g>
  <g id="axes_1">
   <g id="patch_2">
    <path d="M 108 504 
L 777.6 504 
L 777.6 69.12 
L 108 69.12 
z
" style="fill:#ffffff;"/>
   </g>
   <g id="PathCollection_1">
    <defs>
     <path d="M 0 3 
C 0.795609 3 1.55874 2.683901 2.12132 2.12132 
C 2.683901 1.55874 3 0.795609 3 0 
C 3 -0.795609 2.683901 -1.55874 2.12132 -2.12132 
C 1.55874 -2.683901 0.795609 -3 0 -3 
C -0.795609 -3 -1.55874 -2.683901 -2.12132 -2.12132 
C -2.683901 -1.55874 -3 -0.795609 -3 0 
C -3 0.795609 -2.683901 1.55874 -2.12132 2.12132 
C -1.55874 2.683901 -0.795609 3 0 3 
z
" id="m03e4084061" style="stroke:#ffffff;stroke-width:0.75;"/>
    </defs>
    <g clip-path="url(#p2cff5932f3)">
     <use style="fill:#1f77b4;stroke:#ffffff;stroke-width:0.75;" x="747.163636" xlink:href="#m03e4084061" y="88.887273"/>
     <use style="fill:#1f77b4;stroke:#ffffff;stroke-width:0.75;" x="383.623753" xlink:href="#m03e4084061" y="99.024336"/>
     <use style="fill:#1f77b4;stroke:#ffffff;stroke-width:0.75;" x="374.835233" xlink:href="#m03e4084061" y="109.161399"/>
     <use style="fill:#1f77b4;stroke:#ffffff;stroke-width:0.75;" x="359.076339" xlink:href="#m03e4084061" y="119.298462"/>
     <use style="fill:#1f77b4;stroke:#ffffff;stroke-width:0.75;" x="346.574944" xlink:href="#m03e4084061" y="129.435524"/>
     <use style="fill:#1f77b4;stroke:#ffffff;stroke-width:0.75;" x="342.652233" xlink:href="#m03e4084061" y="139.572587"/>
     <use style="fill:#1f77b4;stroke:#ffffff;stroke-width:0.75;" x="338.427041" xlink:href="#m03e4084061" y="149.70965"/>
     <use style="fill:#1f77b4;stroke:#ffffff;stroke-width:0.75;" x="321.849399" xlink:href="#m03e4084061" y="159.846713"/>
     <use style="fill:#1f77b4;stroke:#ffffff;stroke-width:0.75;" x="315.936511" xlink:href="#m03e4084061" y="169.983776"/>
     <use style="fill:#1f77b4;stroke:#ffffff;stroke-width:0.75;" x="312.016924" xlink:href="#m03e4084061" y="180.120839"/>
     <use style="fill:#1f77b4;stroke:#ffffff;stroke-width:0.75;" x="297.337272" xlink:href="#m03e4084061" y="190.257902"/>
     <use style="fill:#1f77b4;stroke:#ffffff;stroke-width:0.75;" x="297.299902" xlink:href="#m03e4084061" y="200.394965"/>
     <use style="fill:#1f77b4;stroke:#ffffff;stroke-width:0.75;" x="280.519136" xlink:href="#m03e4084061" y="210.532028"/>
     <use style="fill:#1f77b4;stroke:#ffffff;stroke-width:0.75;" x="272.518936" xlink:href="#m03e4084061" y="220.669091"/>
     <use style="fill:#1f77b4;stroke:#ffffff;stroke-width:0.75;" x="255.275468" xlink:href="#m03e4084061" y="230.806154"/>
     <use style="fill:#1f77b4;stroke:#ffffff;stroke-width:0.75;" x="248.428038" xlink:href="#m03e4084061" y="240.943217"/>
     <use style="fill:#1f77b4;stroke:#ffffff;stroke-width:0.75;" x="229.678774" xlink:href="#m03e4084061" y="251.08028"/>
     <use style="fill:#1f77b4;stroke:#ffffff;stroke-width:0.75;" x="229.330337" xlink:href="#m03e4084061" y="261.217343"/>
     <use style="fill:#1f77b4;stroke:#ffffff;stroke-width:0.75;" x="220.422184" xlink:href="#m03e4084061" y="271.354406"/>
     <use style="fill:#1f77b4;stroke:#ffffff;stroke-width:0.75;" x="205.161084" xlink:href="#m03e4084061" y="281.491469"/>
     <use style="fill:#1f77b4;stroke:#ffffff;stroke-width:0.75;" x="199.582014" xlink:href="#m03e4084061" y="291.628531"/>
     <use style="fill:#1f77b4;stroke:#ffffff;stroke-width:0.75;" x="196.688569" xlink:href="#m03e4084061" y="301.765594"/>
     <use style="fill:#1f77b4;stroke:#ffffff;stroke-width:0.75;" x="194.848258" xlink:href="#m03e4084061" y="311.902657"/>
     <use style="fill:#1f77b4;stroke:#ffffff;stroke-width:0.75;" x="193.985376" xlink:href="#m03e4084061" y="322.03972"/>
     <use style="fill:#1f77b4;stroke:#ffffff;stroke-width:0.75;" x="189.166223" xlink:href="#m03e4084061" y="332.176783"/>
     <use style="fill:#1f77b4;stroke:#ffffff;stroke-width:0.75;" x="175.674863" xlink:href="#m03e4084061" y="342.313846"/>
     <use style="fill:#1f77b4;stroke:#ffffff;stroke-width:0.75;" x="159.111403" xlink:href="#m03e4084061" y="352.450909"/>
     <use style="fill:#1f77b4;stroke:#ffffff;stroke-width:0.75;" x="157.317828" xlink:href="#m03e4084061" y="362.587972"/>
     <use style="fill:#1f77b4;stroke:#ffffff;stroke-width:0.75;" x="155.992945" xlink:href="#m03e4084061" y="372.725035"/>
     <use style="fill:#1f77b4;stroke:#ffffff;stroke-width:0.75;" x="152.68915" xlink:href="#m03e4084061" y="382.862098"/>
     <use style="fill:#1f77b4;stroke:#ffffff;stroke-width:0.75;" x="152.604078" xlink:href="#m03e4084061" y="392.999161"/>
     <use style="fill:#1f77b4;stroke:#ffffff;stroke-width:0.75;" x="151.996118" xlink:href="#m03e4084061" y="403.136224"/>
     <use style="fill:#1f77b4;stroke:#ffffff;stroke-width:0.75;" x="149.103726" xlink:href="#m03e4084061" y="413.273287"/>
     <use style="fill:#1f77b4;stroke:#ffffff;stroke-width:0.75;" x="146.115526" xlink:href="#m03e4084061" y="423.41035"/>
     <use style="fill:#1f77b4;stroke:#ffffff;stroke-width:0.75;" x="145.319598" xlink:href="#m03e4084061" y="433.547413"/>
     <use style="fill:#1f77b4;stroke:#ffffff;stroke-width:0.75;" x="143.195244" xlink:href="#m03e4084061" y="443.684476"/>
     <use style="fill:#1f77b4;stroke:#ffffff;stroke-width:0.75;" x="142.744708" xlink:href="#m03e4084061" y="453.821538"/>
     <use style="fill:#1f77b4;stroke:#ffffff;stroke-width:0.75;" x="141.564225" xlink:href="#m03e4084061" y="463.958601"/>
     <use style="fill:#1f77b4;stroke:#ffffff;stroke-width:0.75;" x="140.311928" xlink:href="#m03e4084061" y="474.095664"/>
     <use style="fill:#1f77b4;stroke:#ffffff;stroke-width:0.75;" x="138.436364" xlink:href="#m03e4084061" y="484.232727"/>
    </g>
   </g>
   <g id="matplotlib.axis_1">
    <g id="xtick_1">
     <g id="line2d_1">
      <defs>
       <path d="M 0 0 
L 0 3.5 
" id="m926faf4a54" style="stroke:#000000;stroke-width:0.8;"/>
      </defs>
      <g>
       <use style="stroke:#000000;stroke-width:0.8;" x="127.432993" xlink:href="#m926faf4a54" y="504"/>
      </g>
     </g>
     <g id="text_1">
      <!-- 1.0 -->
      <defs>
       <path d="M 12.40625 8.296875 
L 28.515625 8.296875 
L 28.515625 63.921875 
L 10.984375 60.40625 
L 10.984375 69.390625 
L 28.421875 72.90625 
L 38.28125 72.90625 
L 38.28125 8.296875 
L 54.390625 8.296875 
L 54.390625 0 
L 12.40625 0 
z
" id="DejaVuSans-49"/>
       <path d="M 10.6875 12.40625 
L 21 12.40625 
L 21 0 
L 10.6875 0 
z
" id="DejaVuSans-46"/>
       <path d="M 31.78125 66.40625 
Q 24.171875 66.40625 20.328125 58.90625 
Q 16.5 51.421875 16.5 36.375 
Q 16.5 21.390625 20.328125 13.890625 
Q 24.171875 6.390625 31.78125 6.390625 
Q 39.453125 6.390625 43.28125 13.890625 
Q 47.125 21.390625 47.125 36.375 
Q 47.125 51.421875 43.28125 58.90625 
Q 39.453125 66.40625 31.78125 66.40625 
z
M 31.78125 74.21875 
Q 44.046875 74.21875 50.515625 64.515625 
Q 56.984375 54.828125 56.984375 36.375 
Q 56.984375 17.96875 50.515625 8.265625 
Q 44.046875 -1.421875 31.78125 -1.421875 
Q 19.53125 -1.421875 13.0625 8.265625 
Q 6.59375 17.96875 6.59375 36.375 
Q 6.59375 54.828125 13.0625 64.515625 
Q 19.53125 74.21875 31.78125 74.21875 
z
" id="DejaVuSans-48"/>
      </defs>
      <g transform="translate(116.300806 521.637812)scale(0.14 -0.14)">
       <use xlink:href="#DejaVuSans-49"/>
       <use x="63.623047" xlink:href="#DejaVuSans-46"/>
       <use x="95.410156" xlink:href="#DejaVuSans-48"/>
      </g>
     </g>
    </g>
    <g id="xtick_2">
     <g id="line2d_2">
      <g>
       <use style="stroke:#000000;stroke-width:0.8;" x="223.998739" xlink:href="#m926faf4a54" y="504"/>
      </g>
     </g>
     <g id="text_2">
      <!-- 1.5 -->
      <defs>
       <path d="M 10.796875 72.90625 
L 49.515625 72.90625 
L 49.515625 64.59375 
L 19.828125 64.59375 
L 19.828125 46.734375 
Q 21.96875 47.46875 24.109375 47.828125 
Q 26.265625 48.1875 28.421875 48.1875 
Q 40.625 48.1875 47.75 41.5 
Q 54.890625 34.8125 54.890625 23.390625 
Q 54.890625 11.625 47.5625 5.09375 
Q 40.234375 -1.421875 26.90625 -1.421875 
Q 22.3125 -1.421875 17.546875 -0.640625 
Q 12.796875 0.140625 7.71875 1.703125 
L 7.71875 11.625 
Q 12.109375 9.234375 16.796875 8.0625 
Q 21.484375 6.890625 26.703125 6.890625 
Q 35.15625 6.890625 40.078125 11.328125 
Q 45.015625 15.765625 45.015625 23.390625 
Q 45.015625 31 40.078125 35.4375 
Q 35.15625 39.890625 26.703125 39.890625 
Q 22.75 39.890625 18.8125 39.015625 
Q 14.890625 38.140625 10.796875 36.28125 
z
" id="DejaVuSans-53"/>
      </defs>
      <g transform="translate(212.866552 521.637812)scale(0.14 -0.14)">
       <use xlink:href="#DejaVuSans-49"/>
       <use x="63.623047" xlink:href="#DejaVuSans-46"/>
       <use x="95.410156" xlink:href="#DejaVuSans-53"/>
      </g>
     </g>
    </g>
    <g id="xtick_3">
     <g id="line2d_3">
      <g>
       <use style="stroke:#000000;stroke-width:0.8;" x="320.564485" xlink:href="#m926faf4a54" y="504"/>
      </g>
     </g>
     <g id="text_3">
      <!-- 2.0 -->
      <defs>
       <path d="M 19.1875 8.296875 
L 53.609375 8.296875 
L 53.609375 0 
L 7.328125 0 
L 7.328125 8.296875 
Q 12.9375 14.109375 22.625 23.890625 
Q 32.328125 33.6875 34.8125 36.53125 
Q 39.546875 41.84375 41.421875 45.53125 
Q 43.3125 49.21875 43.3125 52.78125 
Q 43.3125 58.59375 39.234375 62.25 
Q 35.15625 65.921875 28.609375 65.921875 
Q 23.96875 65.921875 18.8125 64.3125 
Q 13.671875 62.703125 7.8125 59.421875 
L 7.8125 69.390625 
Q 13.765625 71.78125 18.9375 73 
Q 24.125 74.21875 28.421875 74.21875 
Q 39.75 74.21875 46.484375 68.546875 
Q 53.21875 62.890625 53.21875 53.421875 
Q 53.21875 48.921875 51.53125 44.890625 
Q 49.859375 40.875 45.40625 35.40625 
Q 44.1875 33.984375 37.640625 27.21875 
Q 31.109375 20.453125 19.1875 8.296875 
z
" id="DejaVuSans-50"/>
      </defs>
      <g transform="translate(309.432298 521.637812)scale(0.14 -0.14)">
       <use xlink:href="#DejaVuSans-50"/>
       <use x="63.623047" xlink:href="#DejaVuSans-46"/>
       <use x="95.410156" xlink:href="#DejaVuSans-48"/>
      </g>
     </g>
    </g>
    <g id="xtick_4">
     <g id="line2d_4">
      <g>
       <use style="stroke:#000000;stroke-width:0.8;" x="417.130231" xlink:href="#m926faf4a54" y="504"/>
      </g>
     </g>
     <g id="text_4">
      <!-- 2.5 -->
      <g transform="translate(405.998044 521.637812)scale(0.14 -0.14)">
       <use xlink:href="#DejaVuSans-50"/>
       <use x="63.623047" xlink:href="#DejaVuSans-46"/>
       <use x="95.410156" xlink:href="#DejaVuSans-53"/>
      </g>
     </g>
    </g>
    <g id="xtick_5">
     <g id="line2d_5">
      <g>
       <use style="stroke:#000000;stroke-width:0.8;" x="513.695977" xlink:href="#m926faf4a54" y="504"/>
      </g>
     </g>
     <g id="text_5">
      <!-- 3.0 -->
      <defs>
       <path d="M 40.578125 39.3125 
Q 47.65625 37.796875 51.625 33 
Q 55.609375 28.21875 55.609375 21.1875 
Q 55.609375 10.40625 48.1875 4.484375 
Q 40.765625 -1.421875 27.09375 -1.421875 
Q 22.515625 -1.421875 17.65625 -0.515625 
Q 12.796875 0.390625 7.625 2.203125 
L 7.625 11.71875 
Q 11.71875 9.328125 16.59375 8.109375 
Q 21.484375 6.890625 26.8125 6.890625 
Q 36.078125 6.890625 40.9375 10.546875 
Q 45.796875 14.203125 45.796875 21.1875 
Q 45.796875 27.640625 41.28125 31.265625 
Q 36.765625 34.90625 28.71875 34.90625 
L 20.21875 34.90625 
L 20.21875 43.015625 
L 29.109375 43.015625 
Q 36.375 43.015625 40.234375 45.921875 
Q 44.09375 48.828125 44.09375 54.296875 
Q 44.09375 59.90625 40.109375 62.90625 
Q 36.140625 65.921875 28.71875 65.921875 
Q 24.65625 65.921875 20.015625 65.03125 
Q 15.375 64.15625 9.8125 62.3125 
L 9.8125 71.09375 
Q 15.4375 72.65625 20.34375 73.4375 
Q 25.25 74.21875 29.59375 74.21875 
Q 40.828125 74.21875 47.359375 69.109375 
Q 53.90625 64.015625 53.90625 55.328125 
Q 53.90625 49.265625 50.4375 45.09375 
Q 46.96875 40.921875 40.578125 39.3125 
z
" id="DejaVuSans-51"/>
      </defs>
      <g transform="translate(502.56379 521.637812)scale(0.14 -0.14)">
       <use xlink:href="#DejaVuSans-51"/>
       <use x="63.623047" xlink:href="#DejaVuSans-46"/>
       <use x="95.410156" xlink:href="#DejaVuSans-48"/>
      </g>
     </g>
    </g>
    <g id="xtick_6">
     <g id="line2d_6">
      <g>
       <use style="stroke:#000000;stroke-width:0.8;" x="610.261723" xlink:href="#m926faf4a54" y="504"/>
      </g>
     </g>
     <g id="text_6">
      <!-- 3.5 -->
      <g transform="translate(599.129536 521.637812)scale(0.14 -0.14)">
       <use xlink:href="#DejaVuSans-51"/>
       <use x="63.623047" xlink:href="#DejaVuSans-46"/>
       <use x="95.410156" xlink:href="#DejaVuSans-53"/>
      </g>
     </g>
    </g>
    <g id="xtick_7">
     <g id="line2d_7">
      <g>
       <use style="stroke:#000000;stroke-width:0.8;" x="706.827469" xlink:href="#m926faf4a54" y="504"/>
      </g>
     </g>
     <g id="text_7">
      <!-- 4.0 -->
      <defs>
       <path d="M 37.796875 64.3125 
L 12.890625 25.390625 
L 37.796875 25.390625 
z
M 35.203125 72.90625 
L 47.609375 72.90625 
L 47.609375 25.390625 
L 58.015625 25.390625 
L 58.015625 17.1875 
L 47.609375 17.1875 
L 47.609375 0 
L 37.796875 0 
L 37.796875 17.1875 
L 4.890625 17.1875 
L 4.890625 26.703125 
z
" id="DejaVuSans-52"/>
      </defs>
      <g transform="translate(695.695281 521.637812)scale(0.14 -0.14)">
       <use xlink:href="#DejaVuSans-52"/>
       <use x="63.623047" xlink:href="#DejaVuSans-46"/>
       <use x="95.410156" xlink:href="#DejaVuSans-48"/>
      </g>
     </g>
    </g>
    <g id="text_8">
     <!-- Domestic Gross [$] -->
     <defs>
      <path d="M 19.671875 64.796875 
L 19.671875 8.109375 
L 31.59375 8.109375 
Q 46.6875 8.109375 53.6875 14.9375 
Q 60.6875 21.78125 60.6875 36.53125 
Q 60.6875 51.171875 53.6875 57.984375 
Q 46.6875 64.796875 31.59375 64.796875 
z
M 9.8125 72.90625 
L 30.078125 72.90625 
Q 51.265625 72.90625 61.171875 64.09375 
Q 71.09375 55.28125 71.09375 36.53125 
Q 71.09375 17.671875 61.125 8.828125 
Q 51.171875 0 30.078125 0 
L 9.8125 0 
z
" id="DejaVuSans-68"/>
      <path d="M 30.609375 48.390625 
Q 23.390625 48.390625 19.1875 42.75 
Q 14.984375 37.109375 14.984375 27.296875 
Q 14.984375 17.484375 19.15625 11.84375 
Q 23.34375 6.203125 30.609375 6.203125 
Q 37.796875 6.203125 41.984375 11.859375 
Q 46.1875 17.53125 46.1875 27.296875 
Q 46.1875 37.015625 41.984375 42.703125 
Q 37.796875 48.390625 30.609375 48.390625 
z
M 30.609375 56 
Q 42.328125 56 49.015625 48.375 
Q 55.71875 40.765625 55.71875 27.296875 
Q 55.71875 13.875 49.015625 6.21875 
Q 42.328125 -1.421875 30.609375 -1.421875 
Q 18.84375 -1.421875 12.171875 6.21875 
Q 5.515625 13.875 5.515625 27.296875 
Q 5.515625 40.765625 12.171875 48.375 
Q 18.84375 56 30.609375 56 
z
" id="DejaVuSans-111"/>
      <path d="M 52 44.1875 
Q 55.375 50.25 60.0625 53.125 
Q 64.75 56 71.09375 56 
Q 79.640625 56 84.28125 50.015625 
Q 88.921875 44.046875 88.921875 33.015625 
L 88.921875 0 
L 79.890625 0 
L 79.890625 32.71875 
Q 79.890625 40.578125 77.09375 44.375 
Q 74.3125 48.1875 68.609375 48.1875 
Q 61.625 48.1875 57.5625 43.546875 
Q 53.515625 38.921875 53.515625 30.90625 
L 53.515625 0 
L 44.484375 0 
L 44.484375 32.71875 
Q 44.484375 40.625 41.703125 44.40625 
Q 38.921875 48.1875 33.109375 48.1875 
Q 26.21875 48.1875 22.15625 43.53125 
Q 18.109375 38.875 18.109375 30.90625 
L 18.109375 0 
L 9.078125 0 
L 9.078125 54.6875 
L 18.109375 54.6875 
L 18.109375 46.1875 
Q 21.1875 51.21875 25.484375 53.609375 
Q 29.78125 56 35.6875 56 
Q 41.65625 56 45.828125 52.96875 
Q 50 49.953125 52 44.1875 
z
" id="DejaVuSans-109"/>
      <path d="M 56.203125 29.59375 
L 56.203125 25.203125 
L 14.890625 25.203125 
Q 15.484375 15.921875 20.484375 11.0625 
Q 25.484375 6.203125 34.421875 6.203125 
Q 39.59375 6.203125 44.453125 7.46875 
Q 49.3125 8.734375 54.109375 11.28125 
L 54.109375 2.78125 
Q 49.265625 0.734375 44.1875 -0.34375 
Q 39.109375 -1.421875 33.890625 -1.421875 
Q 20.796875 -1.421875 13.15625 6.1875 
Q 5.515625 13.8125 5.515625 26.8125 
Q 5.515625 40.234375 12.765625 48.109375 
Q 20.015625 56 32.328125 56 
Q 43.359375 56 49.78125 48.890625 
Q 56.203125 41.796875 56.203125 29.59375 
z
M 47.21875 32.234375 
Q 47.125 39.59375 43.09375 43.984375 
Q 39.0625 48.390625 32.421875 48.390625 
Q 24.90625 48.390625 20.390625 44.140625 
Q 15.875 39.890625 15.1875 32.171875 
z
" id="DejaVuSans-101"/>
      <path d="M 44.28125 53.078125 
L 44.28125 44.578125 
Q 40.484375 46.53125 36.375 47.5 
Q 32.28125 48.484375 27.875 48.484375 
Q 21.1875 48.484375 17.84375 46.4375 
Q 14.5 44.390625 14.5 40.28125 
Q 14.5 37.15625 16.890625 35.375 
Q 19.28125 33.59375 26.515625 31.984375 
L 29.59375 31.296875 
Q 39.15625 29.25 43.1875 25.515625 
Q 47.21875 21.78125 47.21875 15.09375 
Q 47.21875 7.46875 41.1875 3.015625 
Q 35.15625 -1.421875 24.609375 -1.421875 
Q 20.21875 -1.421875 15.453125 -0.5625 
Q 10.6875 0.296875 5.421875 2 
L 5.421875 11.28125 
Q 10.40625 8.6875 15.234375 7.390625 
Q 20.0625 6.109375 24.8125 6.109375 
Q 31.15625 6.109375 34.5625 8.28125 
Q 37.984375 10.453125 37.984375 14.40625 
Q 37.984375 18.0625 35.515625 20.015625 
Q 33.0625 21.96875 24.703125 23.78125 
L 21.578125 24.515625 
Q 13.234375 26.265625 9.515625 29.90625 
Q 5.8125 33.546875 5.8125 39.890625 
Q 5.8125 47.609375 11.28125 51.796875 
Q 16.75 56 26.8125 56 
Q 31.78125 56 36.171875 55.265625 
Q 40.578125 54.546875 44.28125 53.078125 
z
" id="DejaVuSans-115"/>
      <path d="M 18.3125 70.21875 
L 18.3125 54.6875 
L 36.8125 54.6875 
L 36.8125 47.703125 
L 18.3125 47.703125 
L 18.3125 18.015625 
Q 18.3125 11.328125 20.140625 9.421875 
Q 21.96875 7.515625 27.59375 7.515625 
L 36.8125 7.515625 
L 36.8125 0 
L 27.59375 0 
Q 17.1875 0 13.234375 3.875 
Q 9.28125 7.765625 9.28125 18.015625 
L 9.28125 47.703125 
L 2.6875 47.703125 
L 2.6875 54.6875 
L 9.28125 54.6875 
L 9.28125 70.21875 
z
" id="DejaVuSans-116"/>
      <path d="M 9.421875 54.6875 
L 18.40625 54.6875 
L 18.40625 0 
L 9.421875 0 
z
M 9.421875 75.984375 
L 18.40625 75.984375 
L 18.40625 64.59375 
L 9.421875 64.59375 
z
" id="DejaVuSans-105"/>
      <path d="M 48.78125 52.59375 
L 48.78125 44.1875 
Q 44.96875 46.296875 41.140625 47.34375 
Q 37.3125 48.390625 33.40625 48.390625 
Q 24.65625 48.390625 19.8125 42.84375 
Q 14.984375 37.3125 14.984375 27.296875 
Q 14.984375 17.28125 19.8125 11.734375 
Q 24.65625 6.203125 33.40625 6.203125 
Q 37.3125 6.203125 41.140625 7.25 
Q 44.96875 8.296875 48.78125 10.40625 
L 48.78125 2.09375 
Q 45.015625 0.34375 40.984375 -0.53125 
Q 36.96875 -1.421875 32.421875 -1.421875 
Q 20.0625 -1.421875 12.78125 6.34375 
Q 5.515625 14.109375 5.515625 27.296875 
Q 5.515625 40.671875 12.859375 48.328125 
Q 20.21875 56 33.015625 56 
Q 37.15625 56 41.109375 55.140625 
Q 45.0625 54.296875 48.78125 52.59375 
z
" id="DejaVuSans-99"/>
      <path id="DejaVuSans-32"/>
      <path d="M 59.515625 10.40625 
L 59.515625 29.984375 
L 43.40625 29.984375 
L 43.40625 38.09375 
L 69.28125 38.09375 
L 69.28125 6.78125 
Q 63.578125 2.734375 56.6875 0.65625 
Q 49.8125 -1.421875 42 -1.421875 
Q 24.90625 -1.421875 15.25 8.5625 
Q 5.609375 18.5625 5.609375 36.375 
Q 5.609375 54.25 15.25 64.234375 
Q 24.90625 74.21875 42 74.21875 
Q 49.125 74.21875 55.546875 72.453125 
Q 61.96875 70.703125 67.390625 67.28125 
L 67.390625 56.78125 
Q 61.921875 61.421875 55.765625 63.765625 
Q 49.609375 66.109375 42.828125 66.109375 
Q 29.4375 66.109375 22.71875 58.640625 
Q 16.015625 51.171875 16.015625 36.375 
Q 16.015625 21.625 22.71875 14.15625 
Q 29.4375 6.6875 42.828125 6.6875 
Q 48.046875 6.6875 52.140625 7.59375 
Q 56.25 8.5 59.515625 10.40625 
z
" id="DejaVuSans-71"/>
      <path d="M 41.109375 46.296875 
Q 39.59375 47.171875 37.8125 47.578125 
Q 36.03125 48 33.890625 48 
Q 26.265625 48 22.1875 43.046875 
Q 18.109375 38.09375 18.109375 28.8125 
L 18.109375 0 
L 9.078125 0 
L 9.078125 54.6875 
L 18.109375 54.6875 
L 18.109375 46.1875 
Q 20.953125 51.171875 25.484375 53.578125 
Q 30.03125 56 36.53125 56 
Q 37.453125 56 38.578125 55.875 
Q 39.703125 55.765625 41.0625 55.515625 
z
" id="DejaVuSans-114"/>
      <path d="M 8.59375 75.984375 
L 29.296875 75.984375 
L 29.296875 69 
L 17.578125 69 
L 17.578125 -6.203125 
L 29.296875 -6.203125 
L 29.296875 -13.1875 
L 8.59375 -13.1875 
z
" id="DejaVuSans-91"/>
      <path d="M 33.796875 -14.703125 
L 28.90625 -14.703125 
L 28.859375 0 
Q 23.734375 0.09375 18.609375 1.1875 
Q 13.484375 2.296875 8.296875 4.5 
L 8.296875 13.28125 
Q 13.28125 10.15625 18.375 8.5625 
Q 23.484375 6.984375 28.90625 6.9375 
L 28.90625 29.203125 
Q 18.109375 30.953125 13.203125 35.15625 
Q 8.296875 39.359375 8.296875 46.6875 
Q 8.296875 54.640625 13.625 59.21875 
Q 18.953125 63.8125 28.90625 64.5 
L 28.90625 75.984375 
L 33.796875 75.984375 
L 33.796875 64.65625 
Q 38.328125 64.453125 42.578125 63.6875 
Q 46.828125 62.9375 50.875 61.625 
L 50.875 53.078125 
Q 46.828125 55.125 42.546875 56.25 
Q 38.28125 57.375 33.796875 57.5625 
L 33.796875 36.71875 
Q 44.875 35.015625 50.09375 30.609375 
Q 55.328125 26.21875 55.328125 18.609375 
Q 55.328125 10.359375 49.78125 5.59375 
Q 44.234375 0.828125 33.796875 0.09375 
z
M 28.90625 37.59375 
L 28.90625 57.625 
Q 23.25 56.984375 20.265625 54.390625 
Q 17.28125 51.8125 17.28125 47.515625 
Q 17.28125 43.3125 20.03125 40.96875 
Q 22.796875 38.625 28.90625 37.59375 
z
M 33.796875 28.21875 
L 33.796875 7.078125 
Q 39.984375 7.90625 43.140625 10.59375 
Q 46.296875 13.28125 46.296875 17.671875 
Q 46.296875 21.96875 43.28125 24.5 
Q 40.28125 27.046875 33.796875 28.21875 
z
" id="DejaVuSans-36"/>
      <path d="M 30.421875 75.984375 
L 30.421875 -13.1875 
L 9.71875 -13.1875 
L 9.71875 -6.203125 
L 21.390625 -6.203125 
L 21.390625 69 
L 9.71875 69 
L 9.71875 75.984375 
z
" id="DejaVuSans-93"/>
     </defs>
     <g transform="translate(375.73125 539.187188)scale(0.14 -0.14)">
      <use xlink:href="#DejaVuSans-68"/>
      <use x="77.001953" xlink:href="#DejaVuSans-111"/>
      <use x="138.183594" xlink:href="#DejaVuSans-109"/>
      <use x="235.595703" xlink:href="#DejaVuSans-101"/>
      <use x="297.119141" xlink:href="#DejaVuSans-115"/>
      <use x="349.21875" xlink:href="#DejaVuSans-116"/>
      <use x="388.427734" xlink:href="#DejaVuSans-105"/>
      <use x="416.210938" xlink:href="#DejaVuSans-99"/>
      <use x="471.191406" xlink:href="#DejaVuSans-32"/>
      <use x="502.978516" xlink:href="#DejaVuSans-71"/>
      <use x="580.46875" xlink:href="#DejaVuSans-114"/>
      <use x="619.332031" xlink:href="#DejaVuSans-111"/>
      <use x="680.513672" xlink:href="#DejaVuSans-115"/>
      <use x="732.613281" xlink:href="#DejaVuSans-115"/>
      <use x="784.712891" xlink:href="#DejaVuSans-32"/>
      <use x="816.5" xlink:href="#DejaVuSans-91"/>
      <use x="855.513672" xlink:href="#DejaVuSans-36"/>
      <use x="919.136719" xlink:href="#DejaVuSans-93"/>
     </g>
    </g>
    <g id="text_9">
     <!-- 1e9 -->
     <defs>
      <path d="M 10.984375 1.515625 
L 10.984375 10.5 
Q 14.703125 8.734375 18.5 7.8125 
Q 22.3125 6.890625 25.984375 6.890625 
Q 35.75 6.890625 40.890625 13.453125 
Q 46.046875 20.015625 46.78125 33.40625 
Q 43.953125 29.203125 39.59375 26.953125 
Q 35.25 24.703125 29.984375 24.703125 
Q 19.046875 24.703125 12.671875 31.3125 
Q 6.296875 37.9375 6.296875 49.421875 
Q 6.296875 60.640625 12.9375 67.421875 
Q 19.578125 74.21875 30.609375 74.21875 
Q 43.265625 74.21875 49.921875 64.515625 
Q 56.59375 54.828125 56.59375 36.375 
Q 56.59375 19.140625 48.40625 8.859375 
Q 40.234375 -1.421875 26.421875 -1.421875 
Q 22.703125 -1.421875 18.890625 -0.6875 
Q 15.09375 0.046875 10.984375 1.515625 
z
M 30.609375 32.421875 
Q 37.25 32.421875 41.125 36.953125 
Q 45.015625 41.5 45.015625 49.421875 
Q 45.015625 57.28125 41.125 61.84375 
Q 37.25 66.40625 30.609375 66.40625 
Q 23.96875 66.40625 20.09375 61.84375 
Q 16.21875 57.28125 16.21875 49.421875 
Q 16.21875 41.5 20.09375 36.953125 
Q 23.96875 32.421875 30.609375 32.421875 
z
" id="DejaVuSans-57"/>
     </defs>
     <g transform="translate(758.721875 535.147812)scale(0.1 -0.1)">
      <use xlink:href="#DejaVuSans-49"/>
      <use x="63.623047" xlink:href="#DejaVuSans-101"/>
      <use x="125.146484" xlink:href="#DejaVuSans-57"/>
     </g>
    </g>
   </g>
   <g id="matplotlib.axis_2">
    <g id="ytick_1">
     <g id="line2d_8">
      <defs>
       <path d="M 0 0 
L -3.5 0 
" id="m6b8f888987" style="stroke:#000000;stroke-width:0.8;"/>
      </defs>
      <g>
       <use style="stroke:#000000;stroke-width:0.8;" x="108" xlink:href="#m6b8f888987" y="88.887273"/>
      </g>
     </g>
     <g id="text_10">
      <!-- Steven Spielberg -->
      <defs>
       <path d="M 53.515625 70.515625 
L 53.515625 60.890625 
Q 47.90625 63.578125 42.921875 64.890625 
Q 37.9375 66.21875 33.296875 66.21875 
Q 25.25 66.21875 20.875 63.09375 
Q 16.5 59.96875 16.5 54.203125 
Q 16.5 49.359375 19.40625 46.890625 
Q 22.3125 44.4375 30.421875 42.921875 
L 36.375 41.703125 
Q 47.40625 39.59375 52.65625 34.296875 
Q 57.90625 29 57.90625 20.125 
Q 57.90625 9.515625 50.796875 4.046875 
Q 43.703125 -1.421875 29.984375 -1.421875 
Q 24.8125 -1.421875 18.96875 -0.25 
Q 13.140625 0.921875 6.890625 3.21875 
L 6.890625 13.375 
Q 12.890625 10.015625 18.65625 8.296875 
Q 24.421875 6.59375 29.984375 6.59375 
Q 38.421875 6.59375 43.015625 9.90625 
Q 47.609375 13.234375 47.609375 19.390625 
Q 47.609375 24.75 44.3125 27.78125 
Q 41.015625 30.8125 33.5 32.328125 
L 27.484375 33.5 
Q 16.453125 35.6875 11.515625 40.375 
Q 6.59375 45.0625 6.59375 53.421875 
Q 6.59375 63.09375 13.40625 68.65625 
Q 20.21875 74.21875 32.171875 74.21875 
Q 37.3125 74.21875 42.625 73.28125 
Q 47.953125 72.359375 53.515625 70.515625 
z
" id="DejaVuSans-83"/>
       <path d="M 2.984375 54.6875 
L 12.5 54.6875 
L 29.59375 8.796875 
L 46.6875 54.6875 
L 56.203125 54.6875 
L 35.6875 0 
L 23.484375 0 
z
" id="DejaVuSans-118"/>
       <path d="M 54.890625 33.015625 
L 54.890625 0 
L 45.90625 0 
L 45.90625 32.71875 
Q 45.90625 40.484375 42.875 44.328125 
Q 39.84375 48.1875 33.796875 48.1875 
Q 26.515625 48.1875 22.3125 43.546875 
Q 18.109375 38.921875 18.109375 30.90625 
L 18.109375 0 
L 9.078125 0 
L 9.078125 54.6875 
L 18.109375 54.6875 
L 18.109375 46.1875 
Q 21.34375 51.125 25.703125 53.5625 
Q 30.078125 56 35.796875 56 
Q 45.21875 56 50.046875 50.171875 
Q 54.890625 44.34375 54.890625 33.015625 
z
" id="DejaVuSans-110"/>
       <path d="M 18.109375 8.203125 
L 18.109375 -20.796875 
L 9.078125 -20.796875 
L 9.078125 54.6875 
L 18.109375 54.6875 
L 18.109375 46.390625 
Q 20.953125 51.265625 25.265625 53.625 
Q 29.59375 56 35.59375 56 
Q 45.5625 56 51.78125 48.09375 
Q 58.015625 40.1875 58.015625 27.296875 
Q 58.015625 14.40625 51.78125 6.484375 
Q 45.5625 -1.421875 35.59375 -1.421875 
Q 29.59375 -1.421875 25.265625 0.953125 
Q 20.953125 3.328125 18.109375 8.203125 
z
M 48.6875 27.296875 
Q 48.6875 37.203125 44.609375 42.84375 
Q 40.53125 48.484375 33.40625 48.484375 
Q 26.265625 48.484375 22.1875 42.84375 
Q 18.109375 37.203125 18.109375 27.296875 
Q 18.109375 17.390625 22.1875 11.75 
Q 26.265625 6.109375 33.40625 6.109375 
Q 40.53125 6.109375 44.609375 11.75 
Q 48.6875 17.390625 48.6875 27.296875 
z
" id="DejaVuSans-112"/>
       <path d="M 9.421875 75.984375 
L 18.40625 75.984375 
L 18.40625 0 
L 9.421875 0 
z
" id="DejaVuSans-108"/>
       <path d="M 48.6875 27.296875 
Q 48.6875 37.203125 44.609375 42.84375 
Q 40.53125 48.484375 33.40625 48.484375 
Q 26.265625 48.484375 22.1875 42.84375 
Q 18.109375 37.203125 18.109375 27.296875 
Q 18.109375 17.390625 22.1875 11.75 
Q 26.265625 6.109375 33.40625 6.109375 
Q 40.53125 6.109375 44.609375 11.75 
Q 48.6875 17.390625 48.6875 27.296875 
z
M 18.109375 46.390625 
Q 20.953125 51.265625 25.265625 53.625 
Q 29.59375 56 35.59375 56 
Q 45.5625 56 51.78125 48.09375 
Q 58.015625 40.1875 58.015625 27.296875 
Q 58.015625 14.40625 51.78125 6.484375 
Q 45.5625 -1.421875 35.59375 -1.421875 
Q 29.59375 -1.421875 25.265625 0.953125 
Q 20.953125 3.328125 18.109375 8.203125 
L 18.109375 0 
L 9.078125 0 
L 9.078125 75.984375 
L 18.109375 75.984375 
z
" id="DejaVuSans-98"/>
       <path d="M 45.40625 27.984375 
Q 45.40625 37.75 41.375 43.109375 
Q 37.359375 48.484375 30.078125 48.484375 
Q 22.859375 48.484375 18.828125 43.109375 
Q 14.796875 37.75 14.796875 27.984375 
Q 14.796875 18.265625 18.828125 12.890625 
Q 22.859375 7.515625 30.078125 7.515625 
Q 37.359375 7.515625 41.375 12.890625 
Q 45.40625 18.265625 45.40625 27.984375 
z
M 54.390625 6.78125 
Q 54.390625 -7.171875 48.1875 -13.984375 
Q 42 -20.796875 29.203125 -20.796875 
Q 24.46875 -20.796875 20.265625 -20.09375 
Q 16.0625 -19.390625 12.109375 -17.921875 
L 12.109375 -9.1875 
Q 16.0625 -11.328125 19.921875 -12.34375 
Q 23.78125 -13.375 27.78125 -13.375 
Q 36.625 -13.375 41.015625 -8.765625 
Q 45.40625 -4.15625 45.40625 5.171875 
L 45.40625 9.625 
Q 42.625 4.78125 38.28125 2.390625 
Q 33.9375 0 27.875 0 
Q 17.828125 0 11.671875 7.65625 
Q 5.515625 15.328125 5.515625 27.984375 
Q 5.515625 40.671875 11.671875 48.328125 
Q 17.828125 56 27.875 56 
Q 33.9375 56 38.28125 53.609375 
Q 42.625 51.21875 45.40625 46.390625 
L 45.40625 54.6875 
L 54.390625 54.6875 
z
" id="DejaVuSans-103"/>
      </defs>
      <g transform="translate(15.798437 92.686491)scale(0.1 -0.1)">
       <use xlink:href="#DejaVuSans-83"/>
       <use x="63.476562" xlink:href="#DejaVuSans-116"/>
       <use x="102.685547" xlink:href="#DejaVuSans-101"/>
       <use x="164.208984" xlink:href="#DejaVuSans-118"/>
       <use x="223.388672" xlink:href="#DejaVuSans-101"/>
       <use x="284.912109" xlink:href="#DejaVuSans-110"/>
       <use x="348.291016" xlink:href="#DejaVuSans-32"/>
       <use x="380.078125" xlink:href="#DejaVuSans-83"/>
       <use x="443.554688" xlink:href="#DejaVuSans-112"/>
       <use x="507.03125" xlink:href="#DejaVuSans-105"/>
       <use x="534.814453" xlink:href="#DejaVuSans-101"/>
       <use x="596.337891" xlink:href="#DejaVuSans-108"/>
       <use x="624.121094" xlink:href="#DejaVuSans-98"/>
       <use x="687.597656" xlink:href="#DejaVuSans-101"/>
       <use x="749.121094" xlink:href="#DejaVuSans-114"/>
       <use x="788.484375" xlink:href="#DejaVuSans-103"/>
      </g>
     </g>
    </g>
    <g id="ytick_2">
     <g id="line2d_9">
      <g>
       <use style="stroke:#000000;stroke-width:0.8;" x="108" xlink:href="#m6b8f888987" y="99.024336"/>
      </g>
     </g>
     <g id="text_11">
      <!-- Michael Bay -->
      <defs>
       <path d="M 9.8125 72.90625 
L 24.515625 72.90625 
L 43.109375 23.296875 
L 61.8125 72.90625 
L 76.515625 72.90625 
L 76.515625 0 
L 66.890625 0 
L 66.890625 64.015625 
L 48.09375 14.015625 
L 38.1875 14.015625 
L 19.390625 64.015625 
L 19.390625 0 
L 9.8125 0 
z
" id="DejaVuSans-77"/>
       <path d="M 54.890625 33.015625 
L 54.890625 0 
L 45.90625 0 
L 45.90625 32.71875 
Q 45.90625 40.484375 42.875 44.328125 
Q 39.84375 48.1875 33.796875 48.1875 
Q 26.515625 48.1875 22.3125 43.546875 
Q 18.109375 38.921875 18.109375 30.90625 
L 18.109375 0 
L 9.078125 0 
L 9.078125 75.984375 
L 18.109375 75.984375 
L 18.109375 46.1875 
Q 21.34375 51.125 25.703125 53.5625 
Q 30.078125 56 35.796875 56 
Q 45.21875 56 50.046875 50.171875 
Q 54.890625 44.34375 54.890625 33.015625 
z
" id="DejaVuSans-104"/>
       <path d="M 34.28125 27.484375 
Q 23.390625 27.484375 19.1875 25 
Q 14.984375 22.515625 14.984375 16.5 
Q 14.984375 11.71875 18.140625 8.90625 
Q 21.296875 6.109375 26.703125 6.109375 
Q 34.1875 6.109375 38.703125 11.40625 
Q 43.21875 16.703125 43.21875 25.484375 
L 43.21875 27.484375 
z
M 52.203125 31.203125 
L 52.203125 0 
L 43.21875 0 
L 43.21875 8.296875 
Q 40.140625 3.328125 35.546875 0.953125 
Q 30.953125 -1.421875 24.3125 -1.421875 
Q 15.921875 -1.421875 10.953125 3.296875 
Q 6 8.015625 6 15.921875 
Q 6 25.140625 12.171875 29.828125 
Q 18.359375 34.515625 30.609375 34.515625 
L 43.21875 34.515625 
L 43.21875 35.40625 
Q 43.21875 41.609375 39.140625 45 
Q 35.0625 48.390625 27.6875 48.390625 
Q 23 48.390625 18.546875 47.265625 
Q 14.109375 46.140625 10.015625 43.890625 
L 10.015625 52.203125 
Q 14.9375 54.109375 19.578125 55.046875 
Q 24.21875 56 28.609375 56 
Q 40.484375 56 46.34375 49.84375 
Q 52.203125 43.703125 52.203125 31.203125 
z
" id="DejaVuSans-97"/>
       <path d="M 19.671875 34.8125 
L 19.671875 8.109375 
L 35.5 8.109375 
Q 43.453125 8.109375 47.28125 11.40625 
Q 51.125 14.703125 51.125 21.484375 
Q 51.125 28.328125 47.28125 31.5625 
Q 43.453125 34.8125 35.5 34.8125 
z
M 19.671875 64.796875 
L 19.671875 42.828125 
L 34.28125 42.828125 
Q 41.5 42.828125 45.03125 45.53125 
Q 48.578125 48.25 48.578125 53.8125 
Q 48.578125 59.328125 45.03125 62.0625 
Q 41.5 64.796875 34.28125 64.796875 
z
M 9.8125 72.90625 
L 35.015625 72.90625 
Q 46.296875 72.90625 52.390625 68.21875 
Q 58.5 63.53125 58.5 54.890625 
Q 58.5 48.1875 55.375 44.234375 
Q 52.25 40.28125 46.1875 39.3125 
Q 53.46875 37.75 57.5 32.78125 
Q 61.53125 27.828125 61.53125 20.40625 
Q 61.53125 10.640625 54.890625 5.3125 
Q 48.25 0 35.984375 0 
L 9.8125 0 
z
" id="DejaVuSans-66"/>
       <path d="M 32.171875 -5.078125 
Q 28.375 -14.84375 24.75 -17.8125 
Q 21.140625 -20.796875 15.09375 -20.796875 
L 7.90625 -20.796875 
L 7.90625 -13.28125 
L 13.1875 -13.28125 
Q 16.890625 -13.28125 18.9375 -11.515625 
Q 21 -9.765625 23.484375 -3.21875 
L 25.09375 0.875 
L 2.984375 54.6875 
L 12.5 54.6875 
L 29.59375 11.921875 
L 46.6875 54.6875 
L 56.203125 54.6875 
z
" id="DejaVuSans-121"/>
      </defs>
      <g transform="translate(40.6125 102.823554)scale(0.1 -0.1)">
       <use xlink:href="#DejaVuSans-77"/>
       <use x="86.279297" xlink:href="#DejaVuSans-105"/>
       <use x="114.0625" xlink:href="#DejaVuSans-99"/>
       <use x="169.042969" xlink:href="#DejaVuSans-104"/>
       <use x="232.421875" xlink:href="#DejaVuSans-97"/>
       <use x="293.701172" xlink:href="#DejaVuSans-101"/>
       <use x="355.224609" xlink:href="#DejaVuSans-108"/>
       <use x="383.007812" xlink:href="#DejaVuSans-32"/>
       <use x="414.794922" xlink:href="#DejaVuSans-66"/>
       <use x="483.398438" xlink:href="#DejaVuSans-97"/>
       <use x="544.677734" xlink:href="#DejaVuSans-121"/>
      </g>
     </g>
    </g>
    <g id="ytick_3">
     <g id="line2d_10">
      <g>
       <use style="stroke:#000000;stroke-width:0.8;" x="108" xlink:href="#m6b8f888987" y="109.161399"/>
      </g>
     </g>
     <g id="text_12">
      <!-- Anthony Russo -->
      <defs>
       <path d="M 34.1875 63.1875 
L 20.796875 26.90625 
L 47.609375 26.90625 
z
M 28.609375 72.90625 
L 39.796875 72.90625 
L 67.578125 0 
L 57.328125 0 
L 50.6875 18.703125 
L 17.828125 18.703125 
L 11.1875 0 
L 0.78125 0 
z
" id="DejaVuSans-65"/>
       <path d="M 44.390625 34.1875 
Q 47.5625 33.109375 50.5625 29.59375 
Q 53.5625 26.078125 56.59375 19.921875 
L 66.609375 0 
L 56 0 
L 46.6875 18.703125 
Q 43.0625 26.03125 39.671875 28.421875 
Q 36.28125 30.8125 30.421875 30.8125 
L 19.671875 30.8125 
L 19.671875 0 
L 9.8125 0 
L 9.8125 72.90625 
L 32.078125 72.90625 
Q 44.578125 72.90625 50.734375 67.671875 
Q 56.890625 62.453125 56.890625 51.90625 
Q 56.890625 45.015625 53.6875 40.46875 
Q 50.484375 35.9375 44.390625 34.1875 
z
M 19.671875 64.796875 
L 19.671875 38.921875 
L 32.078125 38.921875 
Q 39.203125 38.921875 42.84375 42.21875 
Q 46.484375 45.515625 46.484375 51.90625 
Q 46.484375 58.296875 42.84375 61.546875 
Q 39.203125 64.796875 32.078125 64.796875 
z
" id="DejaVuSans-82"/>
       <path d="M 8.5 21.578125 
L 8.5 54.6875 
L 17.484375 54.6875 
L 17.484375 21.921875 
Q 17.484375 14.15625 20.5 10.265625 
Q 23.53125 6.390625 29.59375 6.390625 
Q 36.859375 6.390625 41.078125 11.03125 
Q 45.3125 15.671875 45.3125 23.6875 
L 45.3125 54.6875 
L 54.296875 54.6875 
L 54.296875 0 
L 45.3125 0 
L 45.3125 8.40625 
Q 42.046875 3.421875 37.71875 1 
Q 33.40625 -1.421875 27.6875 -1.421875 
Q 18.265625 -1.421875 13.375 4.4375 
Q 8.5 10.296875 8.5 21.578125 
z
M 31.109375 56 
z
" id="DejaVuSans-117"/>
      </defs>
      <g transform="translate(26.6375 112.960617)scale(0.1 -0.1)">
       <use xlink:href="#DejaVuSans-65"/>
       <use x="68.408203" xlink:href="#DejaVuSans-110"/>
       <use x="131.787109" xlink:href="#DejaVuSans-116"/>
       <use x="170.996094" xlink:href="#DejaVuSans-104"/>
       <use x="234.375" xlink:href="#DejaVuSans-111"/>
       <use x="295.556641" xlink:href="#DejaVuSans-110"/>
       <use x="358.935547" xlink:href="#DejaVuSans-121"/>
       <use x="418.115234" xlink:href="#DejaVuSans-32"/>
       <use x="449.902344" xlink:href="#DejaVuSans-82"/>
       <use x="514.884766" xlink:href="#DejaVuSans-117"/>
       <use x="578.263672" xlink:href="#DejaVuSans-115"/>
       <use x="630.363281" xlink:href="#DejaVuSans-115"/>
       <use x="682.462891" xlink:href="#DejaVuSans-111"/>
      </g>
     </g>
    </g>
    <g id="ytick_4">
     <g id="line2d_11">
      <g>
       <use style="stroke:#000000;stroke-width:0.8;" x="108" xlink:href="#m6b8f888987" y="119.298462"/>
      </g>
     </g>
     <g id="text_13">
      <!-- J.J. Abrams -->
      <defs>
       <path d="M 9.8125 72.90625 
L 19.671875 72.90625 
L 19.671875 5.078125 
Q 19.671875 -8.109375 14.671875 -14.0625 
Q 9.671875 -20.015625 -1.421875 -20.015625 
L -5.171875 -20.015625 
L -5.171875 -11.71875 
L -2.09375 -11.71875 
Q 4.4375 -11.71875 7.125 -8.046875 
Q 9.8125 -4.390625 9.8125 5.078125 
z
" id="DejaVuSans-74"/>
      </defs>
      <g transform="translate(47.1875 123.09768)scale(0.1 -0.1)">
       <use xlink:href="#DejaVuSans-74"/>
       <use x="29.492188" xlink:href="#DejaVuSans-46"/>
       <use x="61.279297" xlink:href="#DejaVuSans-74"/>
       <use x="90.771484" xlink:href="#DejaVuSans-46"/>
       <use x="122.558594" xlink:href="#DejaVuSans-32"/>
       <use x="154.345703" xlink:href="#DejaVuSans-65"/>
       <use x="222.753906" xlink:href="#DejaVuSans-98"/>
       <use x="286.230469" xlink:href="#DejaVuSans-114"/>
       <use x="327.34375" xlink:href="#DejaVuSans-97"/>
       <use x="388.623047" xlink:href="#DejaVuSans-109"/>
       <use x="486.035156" xlink:href="#DejaVuSans-115"/>
      </g>
     </g>
    </g>
    <g id="ytick_5">
     <g id="line2d_12">
      <g>
       <use style="stroke:#000000;stroke-width:0.8;" x="108" xlink:href="#m6b8f888987" y="129.435524"/>
      </g>
     </g>
     <g id="text_14">
      <!-- Peter Jackson -->
      <defs>
       <path d="M 19.671875 64.796875 
L 19.671875 37.40625 
L 32.078125 37.40625 
Q 38.96875 37.40625 42.71875 40.96875 
Q 46.484375 44.53125 46.484375 51.125 
Q 46.484375 57.671875 42.71875 61.234375 
Q 38.96875 64.796875 32.078125 64.796875 
z
M 9.8125 72.90625 
L 32.078125 72.90625 
Q 44.34375 72.90625 50.609375 67.359375 
Q 56.890625 61.8125 56.890625 51.125 
Q 56.890625 40.328125 50.609375 34.8125 
Q 44.34375 29.296875 32.078125 29.296875 
L 19.671875 29.296875 
L 19.671875 0 
L 9.8125 0 
z
" id="DejaVuSans-80"/>
       <path d="M 9.078125 75.984375 
L 18.109375 75.984375 
L 18.109375 31.109375 
L 44.921875 54.6875 
L 56.390625 54.6875 
L 27.390625 29.109375 
L 57.625 0 
L 45.90625 0 
L 18.109375 26.703125 
L 18.109375 0 
L 9.078125 0 
z
" id="DejaVuSans-107"/>
      </defs>
      <g transform="translate(33.784375 133.234743)scale(0.1 -0.1)">
       <use xlink:href="#DejaVuSans-80"/>
       <use x="56.677734" xlink:href="#DejaVuSans-101"/>
       <use x="118.201172" xlink:href="#DejaVuSans-116"/>
       <use x="157.410156" xlink:href="#DejaVuSans-101"/>
       <use x="218.933594" xlink:href="#DejaVuSans-114"/>
       <use x="260.046875" xlink:href="#DejaVuSans-32"/>
       <use x="291.833984" xlink:href="#DejaVuSans-74"/>
       <use x="321.326172" xlink:href="#DejaVuSans-97"/>
       <use x="382.605469" xlink:href="#DejaVuSans-99"/>
       <use x="437.585938" xlink:href="#DejaVuSans-107"/>
       <use x="495.496094" xlink:href="#DejaVuSans-115"/>
       <use x="547.595703" xlink:href="#DejaVuSans-111"/>
       <use x="608.777344" xlink:href="#DejaVuSans-110"/>
      </g>
     </g>
    </g>
    <g id="ytick_6">
     <g id="line2d_13">
      <g>
       <use style="stroke:#000000;stroke-width:0.8;" x="108" xlink:href="#m6b8f888987" y="139.572587"/>
      </g>
     </g>
     <g id="text_15">
      <!-- Ron Howard -->
      <defs>
       <path d="M 9.8125 72.90625 
L 19.671875 72.90625 
L 19.671875 43.015625 
L 55.515625 43.015625 
L 55.515625 72.90625 
L 65.375 72.90625 
L 65.375 0 
L 55.515625 0 
L 55.515625 34.71875 
L 19.671875 34.71875 
L 19.671875 0 
L 9.8125 0 
z
" id="DejaVuSans-72"/>
       <path d="M 4.203125 54.6875 
L 13.1875 54.6875 
L 24.421875 12.015625 
L 35.59375 54.6875 
L 46.1875 54.6875 
L 57.421875 12.015625 
L 68.609375 54.6875 
L 77.59375 54.6875 
L 63.28125 0 
L 52.6875 0 
L 40.921875 44.828125 
L 29.109375 0 
L 18.5 0 
z
" id="DejaVuSans-119"/>
       <path d="M 45.40625 46.390625 
L 45.40625 75.984375 
L 54.390625 75.984375 
L 54.390625 0 
L 45.40625 0 
L 45.40625 8.203125 
Q 42.578125 3.328125 38.25 0.953125 
Q 33.9375 -1.421875 27.875 -1.421875 
Q 17.96875 -1.421875 11.734375 6.484375 
Q 5.515625 14.40625 5.515625 27.296875 
Q 5.515625 40.1875 11.734375 48.09375 
Q 17.96875 56 27.875 56 
Q 33.9375 56 38.25 53.625 
Q 42.578125 51.265625 45.40625 46.390625 
z
M 14.796875 27.296875 
Q 14.796875 17.390625 18.875 11.75 
Q 22.953125 6.109375 30.078125 6.109375 
Q 37.203125 6.109375 41.296875 11.75 
Q 45.40625 17.390625 45.40625 27.296875 
Q 45.40625 37.203125 41.296875 42.84375 
Q 37.203125 48.484375 30.078125 48.484375 
Q 22.953125 48.484375 18.875 42.84375 
Q 14.796875 37.203125 14.796875 27.296875 
z
" id="DejaVuSans-100"/>
      </defs>
      <g transform="translate(40.6375 143.371806)scale(0.1 -0.1)">
       <use xlink:href="#DejaVuSans-82"/>
       <use x="64.982422" xlink:href="#DejaVuSans-111"/>
       <use x="126.164062" xlink:href="#DejaVuSans-110"/>
       <use x="189.542969" xlink:href="#DejaVuSans-32"/>
       <use x="221.330078" xlink:href="#DejaVuSans-72"/>
       <use x="296.525391" xlink:href="#DejaVuSans-111"/>
       <use x="357.707031" xlink:href="#DejaVuSans-119"/>
       <use x="439.494141" xlink:href="#DejaVuSans-97"/>
       <use x="500.773438" xlink:href="#DejaVuSans-114"/>
       <use x="540.136719" xlink:href="#DejaVuSans-100"/>
      </g>
     </g>
    </g>
    <g id="ytick_7">
     <g id="line2d_14">
      <g>
       <use style="stroke:#000000;stroke-width:0.8;" x="108" xlink:href="#m6b8f888987" y="149.70965"/>
      </g>
     </g>
     <g id="text_16">
      <!-- Robert Zemeckis -->
      <defs>
       <path d="M 5.609375 72.90625 
L 62.890625 72.90625 
L 62.890625 65.375 
L 16.796875 8.296875 
L 64.015625 8.296875 
L 64.015625 0 
L 4.5 0 
L 4.5 7.515625 
L 50.59375 64.59375 
L 5.609375 64.59375 
z
" id="DejaVuSans-90"/>
      </defs>
      <g transform="translate(16.498437 153.508869)scale(0.1 -0.1)">
       <use xlink:href="#DejaVuSans-82"/>
       <use x="64.982422" xlink:href="#DejaVuSans-111"/>
       <use x="126.164062" xlink:href="#DejaVuSans-98"/>
       <use x="189.640625" xlink:href="#DejaVuSans-101"/>
       <use x="251.164062" xlink:href="#DejaVuSans-114"/>
       <use x="292.277344" xlink:href="#DejaVuSans-116"/>
       <use x="331.486328" xlink:href="#DejaVuSans-32"/>
       <use x="363.273438" xlink:href="#DejaVuSans-90"/>
       <use x="431.779297" xlink:href="#DejaVuSans-101"/>
       <use x="493.302734" xlink:href="#DejaVuSans-109"/>
       <use x="590.714844" xlink:href="#DejaVuSans-101"/>
       <use x="652.238281" xlink:href="#DejaVuSans-99"/>
       <use x="707.21875" xlink:href="#DejaVuSans-107"/>
       <use x="765.128906" xlink:href="#DejaVuSans-105"/>
       <use x="792.912109" xlink:href="#DejaVuSans-115"/>
      </g>
     </g>
    </g>
    <g id="ytick_8">
     <g id="line2d_15">
      <g>
       <use style="stroke:#000000;stroke-width:0.8;" x="108" xlink:href="#m6b8f888987" y="159.846713"/>
      </g>
     </g>
     <g id="text_17">
      <!-- Christopher Nolan -->
      <defs>
       <path d="M 64.40625 67.28125 
L 64.40625 56.890625 
Q 59.421875 61.53125 53.78125 63.8125 
Q 48.140625 66.109375 41.796875 66.109375 
Q 29.296875 66.109375 22.65625 58.46875 
Q 16.015625 50.828125 16.015625 36.375 
Q 16.015625 21.96875 22.65625 14.328125 
Q 29.296875 6.6875 41.796875 6.6875 
Q 48.140625 6.6875 53.78125 8.984375 
Q 59.421875 11.28125 64.40625 15.921875 
L 64.40625 5.609375 
Q 59.234375 2.09375 53.4375 0.328125 
Q 47.65625 -1.421875 41.21875 -1.421875 
Q 24.65625 -1.421875 15.125 8.703125 
Q 5.609375 18.84375 5.609375 36.375 
Q 5.609375 53.953125 15.125 64.078125 
Q 24.65625 74.21875 41.21875 74.21875 
Q 47.75 74.21875 53.53125 72.484375 
Q 59.328125 70.75 64.40625 67.28125 
z
" id="DejaVuSans-67"/>
       <path d="M 9.8125 72.90625 
L 23.09375 72.90625 
L 55.421875 11.921875 
L 55.421875 72.90625 
L 64.984375 72.90625 
L 64.984375 0 
L 51.703125 0 
L 19.390625 60.984375 
L 19.390625 0 
L 9.8125 0 
z
" id="DejaVuSans-78"/>
      </defs>
      <g transform="translate(10.570312 163.645932)scale(0.1 -0.1)">
       <use xlink:href="#DejaVuSans-67"/>
       <use x="69.824219" xlink:href="#DejaVuSans-104"/>
       <use x="133.203125" xlink:href="#DejaVuSans-114"/>
       <use x="174.316406" xlink:href="#DejaVuSans-105"/>
       <use x="202.099609" xlink:href="#DejaVuSans-115"/>
       <use x="254.199219" xlink:href="#DejaVuSans-116"/>
       <use x="293.408203" xlink:href="#DejaVuSans-111"/>
       <use x="354.589844" xlink:href="#DejaVuSans-112"/>
       <use x="418.066406" xlink:href="#DejaVuSans-104"/>
       <use x="481.445312" xlink:href="#DejaVuSans-101"/>
       <use x="542.96875" xlink:href="#DejaVuSans-114"/>
       <use x="584.082031" xlink:href="#DejaVuSans-32"/>
       <use x="615.869141" xlink:href="#DejaVuSans-78"/>
       <use x="690.673828" xlink:href="#DejaVuSans-111"/>
       <use x="751.855469" xlink:href="#DejaVuSans-108"/>
       <use x="779.638672" xlink:href="#DejaVuSans-97"/>
       <use x="840.917969" xlink:href="#DejaVuSans-110"/>
      </g>
     </g>
    </g>
    <g id="ytick_9">
     <g id="line2d_16">
      <g>
       <use style="stroke:#000000;stroke-width:0.8;" x="108" xlink:href="#m6b8f888987" y="169.983776"/>
      </g>
     </g>
     <g id="text_18">
      <!-- James Cameron -->
      <g transform="translate(22.29375 173.782995)scale(0.1 -0.1)">
       <use xlink:href="#DejaVuSans-74"/>
       <use x="29.492188" xlink:href="#DejaVuSans-97"/>
       <use x="90.771484" xlink:href="#DejaVuSans-109"/>
       <use x="188.183594" xlink:href="#DejaVuSans-101"/>
       <use x="249.707031" xlink:href="#DejaVuSans-115"/>
       <use x="301.806641" xlink:href="#DejaVuSans-32"/>
       <use x="333.59375" xlink:href="#DejaVuSans-67"/>
       <use x="403.417969" xlink:href="#DejaVuSans-97"/>
       <use x="464.697266" xlink:href="#DejaVuSans-109"/>
       <use x="562.109375" xlink:href="#DejaVuSans-101"/>
       <use x="623.632812" xlink:href="#DejaVuSans-114"/>
       <use x="662.496094" xlink:href="#DejaVuSans-111"/>
       <use x="723.677734" xlink:href="#DejaVuSans-110"/>
      </g>
     </g>
    </g>
    <g id="ytick_10">
     <g id="line2d_17">
      <g>
       <use style="stroke:#000000;stroke-width:0.8;" x="108" xlink:href="#m6b8f888987" y="180.120839"/>
      </g>
     </g>
     <g id="text_19">
      <!-- Tim Burton -->
      <defs>
       <path d="M -0.296875 72.90625 
L 61.375 72.90625 
L 61.375 64.59375 
L 35.5 64.59375 
L 35.5 0 
L 25.59375 0 
L 25.59375 64.59375 
L -0.296875 64.59375 
z
" id="DejaVuSans-84"/>
      </defs>
      <g transform="translate(45.821875 183.920058)scale(0.1 -0.1)">
       <use xlink:href="#DejaVuSans-84"/>
       <use x="57.958984" xlink:href="#DejaVuSans-105"/>
       <use x="85.742188" xlink:href="#DejaVuSans-109"/>
       <use x="183.154297" xlink:href="#DejaVuSans-32"/>
       <use x="214.941406" xlink:href="#DejaVuSans-66"/>
       <use x="283.544922" xlink:href="#DejaVuSans-117"/>
       <use x="346.923828" xlink:href="#DejaVuSans-114"/>
       <use x="388.037109" xlink:href="#DejaVuSans-116"/>
       <use x="427.246094" xlink:href="#DejaVuSans-111"/>
       <use x="488.427734" xlink:href="#DejaVuSans-110"/>
      </g>
     </g>
    </g>
    <g id="ytick_11">
     <g id="line2d_18">
      <g>
       <use style="stroke:#000000;stroke-width:0.8;" x="108" xlink:href="#m6b8f888987" y="190.257902"/>
      </g>
     </g>
     <g id="text_20">
      <!-- Clint Eastwood -->
      <defs>
       <path d="M 9.8125 72.90625 
L 55.90625 72.90625 
L 55.90625 64.59375 
L 19.671875 64.59375 
L 19.671875 43.015625 
L 54.390625 43.015625 
L 54.390625 34.71875 
L 19.671875 34.71875 
L 19.671875 8.296875 
L 56.78125 8.296875 
L 56.78125 0 
L 9.8125 0 
z
" id="DejaVuSans-69"/>
      </defs>
      <g transform="translate(26.684375 194.057121)scale(0.1 -0.1)">
       <use xlink:href="#DejaVuSans-67"/>
       <use x="69.824219" xlink:href="#DejaVuSans-108"/>
       <use x="97.607422" xlink:href="#DejaVuSans-105"/>
       <use x="125.390625" xlink:href="#DejaVuSans-110"/>
       <use x="188.769531" xlink:href="#DejaVuSans-116"/>
       <use x="227.978516" xlink:href="#DejaVuSans-32"/>
       <use x="259.765625" xlink:href="#DejaVuSans-69"/>
       <use x="322.949219" xlink:href="#DejaVuSans-97"/>
       <use x="384.228516" xlink:href="#DejaVuSans-115"/>
       <use x="436.328125" xlink:href="#DejaVuSans-116"/>
       <use x="475.537109" xlink:href="#DejaVuSans-119"/>
       <use x="557.324219" xlink:href="#DejaVuSans-111"/>
       <use x="618.505859" xlink:href="#DejaVuSans-111"/>
       <use x="679.6875" xlink:href="#DejaVuSans-100"/>
      </g>
     </g>
    </g>
    <g id="ytick_12">
     <g id="line2d_19">
      <g>
       <use style="stroke:#000000;stroke-width:0.8;" x="108" xlink:href="#m6b8f888987" y="200.394965"/>
      </g>
     </g>
     <g id="text_21">
      <!-- Jon Favreau -->
      <defs>
       <path d="M 9.8125 72.90625 
L 51.703125 72.90625 
L 51.703125 64.59375 
L 19.671875 64.59375 
L 19.671875 43.109375 
L 48.578125 43.109375 
L 48.578125 34.8125 
L 19.671875 34.8125 
L 19.671875 0 
L 9.8125 0 
z
" id="DejaVuSans-70"/>
      </defs>
      <g transform="translate(43.025 204.194184)scale(0.1 -0.1)">
       <use xlink:href="#DejaVuSans-74"/>
       <use x="29.492188" xlink:href="#DejaVuSans-111"/>
       <use x="90.673828" xlink:href="#DejaVuSans-110"/>
       <use x="154.052734" xlink:href="#DejaVuSans-32"/>
       <use x="185.839844" xlink:href="#DejaVuSans-70"/>
       <use x="234.234375" xlink:href="#DejaVuSans-97"/>
       <use x="295.513672" xlink:href="#DejaVuSans-118"/>
       <use x="354.693359" xlink:href="#DejaVuSans-114"/>
       <use x="393.556641" xlink:href="#DejaVuSans-101"/>
       <use x="455.080078" xlink:href="#DejaVuSans-97"/>
       <use x="516.359375" xlink:href="#DejaVuSans-117"/>
      </g>
     </g>
    </g>
    <g id="ytick_13">
     <g id="line2d_20">
      <g>
       <use style="stroke:#000000;stroke-width:0.8;" x="108" xlink:href="#m6b8f888987" y="210.532028"/>
      </g>
     </g>
     <g id="text_22">
      <!-- David Yates -->
      <defs>
       <path d="M -0.203125 72.90625 
L 10.40625 72.90625 
L 30.609375 42.921875 
L 50.6875 72.90625 
L 61.28125 72.90625 
L 35.5 34.71875 
L 35.5 0 
L 25.59375 0 
L 25.59375 34.71875 
z
" id="DejaVuSans-89"/>
      </defs>
      <g transform="translate(42.804688 214.331247)scale(0.1 -0.1)">
       <use xlink:href="#DejaVuSans-68"/>
       <use x="77.001953" xlink:href="#DejaVuSans-97"/>
       <use x="138.28125" xlink:href="#DejaVuSans-118"/>
       <use x="197.460938" xlink:href="#DejaVuSans-105"/>
       <use x="225.244141" xlink:href="#DejaVuSans-100"/>
       <use x="288.720703" xlink:href="#DejaVuSans-32"/>
       <use x="320.507812" xlink:href="#DejaVuSans-89"/>
       <use x="367.841797" xlink:href="#DejaVuSans-97"/>
       <use x="429.121094" xlink:href="#DejaVuSans-116"/>
       <use x="468.330078" xlink:href="#DejaVuSans-101"/>
       <use x="529.853516" xlink:href="#DejaVuSans-115"/>
      </g>
     </g>
    </g>
    <g id="ytick_14">
     <g id="line2d_21">
      <g>
       <use style="stroke:#000000;stroke-width:0.8;" x="108" xlink:href="#m6b8f888987" y="220.669091"/>
      </g>
     </g>
     <g id="text_23">
      <!-- Chris Columbus -->
      <g transform="translate(22.55 224.46831)scale(0.1 -0.1)">
       <use xlink:href="#DejaVuSans-67"/>
       <use x="69.824219" xlink:href="#DejaVuSans-104"/>
       <use x="133.203125" xlink:href="#DejaVuSans-114"/>
       <use x="174.316406" xlink:href="#DejaVuSans-105"/>
       <use x="202.099609" xlink:href="#DejaVuSans-115"/>
       <use x="254.199219" xlink:href="#DejaVuSans-32"/>
       <use x="285.986328" xlink:href="#DejaVuSans-67"/>
       <use x="355.810547" xlink:href="#DejaVuSans-111"/>
       <use x="416.992188" xlink:href="#DejaVuSans-108"/>
       <use x="444.775391" xlink:href="#DejaVuSans-117"/>
       <use x="508.154297" xlink:href="#DejaVuSans-109"/>
       <use x="605.566406" xlink:href="#DejaVuSans-98"/>
       <use x="669.042969" xlink:href="#DejaVuSans-117"/>
       <use x="732.421875" xlink:href="#DejaVuSans-115"/>
      </g>
     </g>
    </g>
    <g id="ytick_15">
     <g id="line2d_22">
      <g>
       <use style="stroke:#000000;stroke-width:0.8;" x="108" xlink:href="#m6b8f888987" y="230.806154"/>
      </g>
     </g>
     <g id="text_24">
      <!-- Ridley Scott -->
      <g transform="translate(41.090625 234.605373)scale(0.1 -0.1)">
       <use xlink:href="#DejaVuSans-82"/>
       <use x="69.482422" xlink:href="#DejaVuSans-105"/>
       <use x="97.265625" xlink:href="#DejaVuSans-100"/>
       <use x="160.742188" xlink:href="#DejaVuSans-108"/>
       <use x="188.525391" xlink:href="#DejaVuSans-101"/>
       <use x="250.048828" xlink:href="#DejaVuSans-121"/>
       <use x="309.228516" xlink:href="#DejaVuSans-32"/>
       <use x="341.015625" xlink:href="#DejaVuSans-83"/>
       <use x="404.492188" xlink:href="#DejaVuSans-99"/>
       <use x="459.472656" xlink:href="#DejaVuSans-111"/>
       <use x="520.654297" xlink:href="#DejaVuSans-116"/>
       <use x="559.863281" xlink:href="#DejaVuSans-116"/>
      </g>
     </g>
    </g>
    <g id="ytick_16">
     <g id="line2d_23">
      <g>
       <use style="stroke:#000000;stroke-width:0.8;" x="108" xlink:href="#m6b8f888987" y="240.943217"/>
      </g>
     </g>
     <g id="text_25">
      <!-- George Lucas -->
      <defs>
       <path d="M 9.8125 72.90625 
L 19.671875 72.90625 
L 19.671875 8.296875 
L 55.171875 8.296875 
L 55.171875 0 
L 9.8125 0 
z
" id="DejaVuSans-76"/>
      </defs>
      <g transform="translate(32.79375 244.742436)scale(0.1 -0.1)">
       <use xlink:href="#DejaVuSans-71"/>
       <use x="77.490234" xlink:href="#DejaVuSans-101"/>
       <use x="139.013672" xlink:href="#DejaVuSans-111"/>
       <use x="200.195312" xlink:href="#DejaVuSans-114"/>
       <use x="239.558594" xlink:href="#DejaVuSans-103"/>
       <use x="303.035156" xlink:href="#DejaVuSans-101"/>
       <use x="364.558594" xlink:href="#DejaVuSans-32"/>
       <use x="396.345703" xlink:href="#DejaVuSans-76"/>
       <use x="450.308594" xlink:href="#DejaVuSans-117"/>
       <use x="513.6875" xlink:href="#DejaVuSans-99"/>
       <use x="568.667969" xlink:href="#DejaVuSans-97"/>
       <use x="629.947266" xlink:href="#DejaVuSans-115"/>
      </g>
     </g>
    </g>
    <g id="ytick_17">
     <g id="line2d_24">
      <g>
       <use style="stroke:#000000;stroke-width:0.8;" x="108" xlink:href="#m6b8f888987" y="251.08028"/>
      </g>
     </g>
     <g id="text_26">
      <!-- Gore Verbinski -->
      <defs>
       <path d="M 28.609375 0 
L 0.78125 72.90625 
L 11.078125 72.90625 
L 34.1875 11.53125 
L 57.328125 72.90625 
L 67.578125 72.90625 
L 39.796875 0 
z
" id="DejaVuSans-86"/>
      </defs>
      <g transform="translate(28.34375 254.879498)scale(0.1 -0.1)">
       <use xlink:href="#DejaVuSans-71"/>
       <use x="77.490234" xlink:href="#DejaVuSans-111"/>
       <use x="138.671875" xlink:href="#DejaVuSans-114"/>
       <use x="177.535156" xlink:href="#DejaVuSans-101"/>
       <use x="239.058594" xlink:href="#DejaVuSans-32"/>
       <use x="270.845703" xlink:href="#DejaVuSans-86"/>
       <use x="331.503906" xlink:href="#DejaVuSans-101"/>
       <use x="393.027344" xlink:href="#DejaVuSans-114"/>
       <use x="434.140625" xlink:href="#DejaVuSans-98"/>
       <use x="497.617188" xlink:href="#DejaVuSans-105"/>
       <use x="525.400391" xlink:href="#DejaVuSans-110"/>
       <use x="588.779297" xlink:href="#DejaVuSans-115"/>
       <use x="640.878906" xlink:href="#DejaVuSans-107"/>
       <use x="698.789062" xlink:href="#DejaVuSans-105"/>
      </g>
     </g>
    </g>
    <g id="ytick_18">
     <g id="line2d_25">
      <g>
       <use style="stroke:#000000;stroke-width:0.8;" x="108" xlink:href="#m6b8f888987" y="261.217343"/>
      </g>
     </g>
     <g id="text_27">
      <!-- Sam Raimi -->
      <g transform="translate(47.45625 265.016561)scale(0.1 -0.1)">
       <use xlink:href="#DejaVuSans-83"/>
       <use x="63.476562" xlink:href="#DejaVuSans-97"/>
       <use x="124.755859" xlink:href="#DejaVuSans-109"/>
       <use x="222.167969" xlink:href="#DejaVuSans-32"/>
       <use x="253.955078" xlink:href="#DejaVuSans-82"/>
       <use x="321.1875" xlink:href="#DejaVuSans-97"/>
       <use x="382.466797" xlink:href="#DejaVuSans-105"/>
       <use x="410.25" xlink:href="#DejaVuSans-109"/>
       <use x="507.662109" xlink:href="#DejaVuSans-105"/>
      </g>
     </g>
    </g>
    <g id="ytick_19">
     <g id="line2d_26">
      <g>
       <use style="stroke:#000000;stroke-width:0.8;" x="108" xlink:href="#m6b8f888987" y="271.354406"/>
      </g>
     </g>
     <g id="text_28">
      <!-- Francis Lawrence -->
      <g transform="translate(14.826562 275.153624)scale(0.1 -0.1)">
       <use xlink:href="#DejaVuSans-70"/>
       <use x="50.269531" xlink:href="#DejaVuSans-114"/>
       <use x="91.382812" xlink:href="#DejaVuSans-97"/>
       <use x="152.662109" xlink:href="#DejaVuSans-110"/>
       <use x="216.041016" xlink:href="#DejaVuSans-99"/>
       <use x="271.021484" xlink:href="#DejaVuSans-105"/>
       <use x="298.804688" xlink:href="#DejaVuSans-115"/>
       <use x="350.904297" xlink:href="#DejaVuSans-32"/>
       <use x="382.691406" xlink:href="#DejaVuSans-76"/>
       <use x="438.404297" xlink:href="#DejaVuSans-97"/>
       <use x="499.683594" xlink:href="#DejaVuSans-119"/>
       <use x="581.470703" xlink:href="#DejaVuSans-114"/>
       <use x="620.333984" xlink:href="#DejaVuSans-101"/>
       <use x="681.857422" xlink:href="#DejaVuSans-110"/>
       <use x="745.236328" xlink:href="#DejaVuSans-99"/>
       <use x="800.216797" xlink:href="#DejaVuSans-101"/>
      </g>
     </g>
    </g>
    <g id="ytick_20">
     <g id="line2d_27">
      <g>
       <use style="stroke:#000000;stroke-width:0.8;" x="108" xlink:href="#m6b8f888987" y="281.491469"/>
      </g>
     </g>
     <g id="text_29">
      <!-- Brad Bird -->
      <g transform="translate(54.45 285.290687)scale(0.1 -0.1)">
       <use xlink:href="#DejaVuSans-66"/>
       <use x="68.603516" xlink:href="#DejaVuSans-114"/>
       <use x="109.716797" xlink:href="#DejaVuSans-97"/>
       <use x="170.996094" xlink:href="#DejaVuSans-100"/>
       <use x="234.472656" xlink:href="#DejaVuSans-32"/>
       <use x="266.259766" xlink:href="#DejaVuSans-66"/>
       <use x="334.863281" xlink:href="#DejaVuSans-105"/>
       <use x="362.646484" xlink:href="#DejaVuSans-114"/>
       <use x="402.009766" xlink:href="#DejaVuSans-100"/>
      </g>
     </g>
    </g>
    <g id="ytick_21">
     <g id="line2d_28">
      <g>
       <use style="stroke:#000000;stroke-width:0.8;" x="108" xlink:href="#m6b8f888987" y="291.628531"/>
      </g>
     </g>
     <g id="text_30">
      <!-- Todd Phillips -->
      <g transform="translate(39.560937 295.42775)scale(0.1 -0.1)">
       <use xlink:href="#DejaVuSans-84"/>
       <use x="44.083984" xlink:href="#DejaVuSans-111"/>
       <use x="105.265625" xlink:href="#DejaVuSans-100"/>
       <use x="168.742188" xlink:href="#DejaVuSans-100"/>
       <use x="232.21875" xlink:href="#DejaVuSans-32"/>
       <use x="264.005859" xlink:href="#DejaVuSans-80"/>
       <use x="324.308594" xlink:href="#DejaVuSans-104"/>
       <use x="387.6875" xlink:href="#DejaVuSans-105"/>
       <use x="415.470703" xlink:href="#DejaVuSans-108"/>
       <use x="443.253906" xlink:href="#DejaVuSans-108"/>
       <use x="471.037109" xlink:href="#DejaVuSans-105"/>
       <use x="498.820312" xlink:href="#DejaVuSans-112"/>
       <use x="562.296875" xlink:href="#DejaVuSans-115"/>
      </g>
     </g>
    </g>
    <g id="ytick_22">
     <g id="line2d_29">
      <g>
       <use style="stroke:#000000;stroke-width:0.8;" x="108" xlink:href="#m6b8f888987" y="301.765594"/>
      </g>
     </g>
     <g id="text_31">
      <!-- Bryan Singer -->
      <g transform="translate(36.389062 305.564813)scale(0.1 -0.1)">
       <use xlink:href="#DejaVuSans-66"/>
       <use x="68.603516" xlink:href="#DejaVuSans-114"/>
       <use x="109.716797" xlink:href="#DejaVuSans-121"/>
       <use x="168.896484" xlink:href="#DejaVuSans-97"/>
       <use x="230.175781" xlink:href="#DejaVuSans-110"/>
       <use x="293.554688" xlink:href="#DejaVuSans-32"/>
       <use x="325.341797" xlink:href="#DejaVuSans-83"/>
       <use x="388.818359" xlink:href="#DejaVuSans-105"/>
       <use x="416.601562" xlink:href="#DejaVuSans-110"/>
       <use x="479.980469" xlink:href="#DejaVuSans-103"/>
       <use x="543.457031" xlink:href="#DejaVuSans-101"/>
       <use x="604.980469" xlink:href="#DejaVuSans-114"/>
      </g>
     </g>
    </g>
    <g id="ytick_23">
     <g id="line2d_30">
      <g>
       <use style="stroke:#000000;stroke-width:0.8;" x="108" xlink:href="#m6b8f888987" y="311.902657"/>
      </g>
     </g>
     <g id="text_32">
      <!-- Roland Emmerich -->
      <g transform="translate(12.934375 315.701876)scale(0.1 -0.1)">
       <use xlink:href="#DejaVuSans-82"/>
       <use x="64.982422" xlink:href="#DejaVuSans-111"/>
       <use x="126.164062" xlink:href="#DejaVuSans-108"/>
       <use x="153.947266" xlink:href="#DejaVuSans-97"/>
       <use x="215.226562" xlink:href="#DejaVuSans-110"/>
       <use x="278.605469" xlink:href="#DejaVuSans-100"/>
       <use x="342.082031" xlink:href="#DejaVuSans-32"/>
       <use x="373.869141" xlink:href="#DejaVuSans-69"/>
       <use x="437.052734" xlink:href="#DejaVuSans-109"/>
       <use x="534.464844" xlink:href="#DejaVuSans-109"/>
       <use x="631.876953" xlink:href="#DejaVuSans-101"/>
       <use x="693.400391" xlink:href="#DejaVuSans-114"/>
       <use x="734.513672" xlink:href="#DejaVuSans-105"/>
       <use x="762.296875" xlink:href="#DejaVuSans-99"/>
       <use x="817.277344" xlink:href="#DejaVuSans-104"/>
      </g>
     </g>
    </g>
    <g id="ytick_24">
     <g id="line2d_31">
      <g>
       <use style="stroke:#000000;stroke-width:0.8;" x="108" xlink:href="#m6b8f888987" y="322.03972"/>
      </g>
     </g>
     <g id="text_33">
      <!-- M. Night Shyamalan -->
      <g transform="translate(0.126562 325.838939)scale(0.1 -0.1)">
       <use xlink:href="#DejaVuSans-77"/>
       <use x="86.279297" xlink:href="#DejaVuSans-46"/>
       <use x="118.066406" xlink:href="#DejaVuSans-32"/>
       <use x="149.853516" xlink:href="#DejaVuSans-78"/>
       <use x="224.658203" xlink:href="#DejaVuSans-105"/>
       <use x="252.441406" xlink:href="#DejaVuSans-103"/>
       <use x="315.917969" xlink:href="#DejaVuSans-104"/>
       <use x="379.296875" xlink:href="#DejaVuSans-116"/>
       <use x="418.505859" xlink:href="#DejaVuSans-32"/>
       <use x="450.292969" xlink:href="#DejaVuSans-83"/>
       <use x="513.769531" xlink:href="#DejaVuSans-104"/>
       <use x="577.148438" xlink:href="#DejaVuSans-121"/>
       <use x="636.328125" xlink:href="#DejaVuSans-97"/>
       <use x="697.607422" xlink:href="#DejaVuSans-109"/>
       <use x="795.019531" xlink:href="#DejaVuSans-97"/>
       <use x="856.298828" xlink:href="#DejaVuSans-108"/>
       <use x="884.082031" xlink:href="#DejaVuSans-97"/>
       <use x="945.361328" xlink:href="#DejaVuSans-110"/>
      </g>
     </g>
    </g>
    <g id="ytick_25">
     <g id="line2d_32">
      <g>
       <use style="stroke:#000000;stroke-width:0.8;" x="108" xlink:href="#m6b8f888987" y="332.176783"/>
      </g>
     </g>
     <g id="text_34">
      <!-- Zack Snyder -->
      <g transform="translate(38.3375 335.976002)scale(0.1 -0.1)">
       <use xlink:href="#DejaVuSans-90"/>
       <use x="68.505859" xlink:href="#DejaVuSans-97"/>
       <use x="129.785156" xlink:href="#DejaVuSans-99"/>
       <use x="184.765625" xlink:href="#DejaVuSans-107"/>
       <use x="242.675781" xlink:href="#DejaVuSans-32"/>
       <use x="274.462891" xlink:href="#DejaVuSans-83"/>
       <use x="337.939453" xlink:href="#DejaVuSans-110"/>
       <use x="401.318359" xlink:href="#DejaVuSans-121"/>
       <use x="460.498047" xlink:href="#DejaVuSans-100"/>
       <use x="523.974609" xlink:href="#DejaVuSans-101"/>
       <use x="585.498047" xlink:href="#DejaVuSans-114"/>
      </g>
     </g>
    </g>
    <g id="ytick_26">
     <g id="line2d_33">
      <g>
       <use style="stroke:#000000;stroke-width:0.8;" x="108" xlink:href="#m6b8f888987" y="342.313846"/>
      </g>
     </g>
     <g id="text_35">
      <!-- Bill Condon -->
      <g transform="translate(44.382812 346.113065)scale(0.1 -0.1)">
       <use xlink:href="#DejaVuSans-66"/>
       <use x="68.603516" xlink:href="#DejaVuSans-105"/>
       <use x="96.386719" xlink:href="#DejaVuSans-108"/>
       <use x="124.169922" xlink:href="#DejaVuSans-108"/>
       <use x="151.953125" xlink:href="#DejaVuSans-32"/>
       <use x="183.740234" xlink:href="#DejaVuSans-67"/>
       <use x="253.564453" xlink:href="#DejaVuSans-111"/>
       <use x="314.746094" xlink:href="#DejaVuSans-110"/>
       <use x="378.125" xlink:href="#DejaVuSans-100"/>
       <use x="441.601562" xlink:href="#DejaVuSans-111"/>
       <use x="502.783203" xlink:href="#DejaVuSans-110"/>
      </g>
     </g>
    </g>
    <g id="ytick_27">
     <g id="line2d_34">
      <g>
       <use style="stroke:#000000;stroke-width:0.8;" x="108" xlink:href="#m6b8f888987" y="352.450909"/>
      </g>
     </g>
     <g id="text_36">
      <!-- Andrew Stanton -->
      <g transform="translate(20.967187 356.250128)scale(0.1 -0.1)">
       <use xlink:href="#DejaVuSans-65"/>
       <use x="68.408203" xlink:href="#DejaVuSans-110"/>
       <use x="131.787109" xlink:href="#DejaVuSans-100"/>
       <use x="195.263672" xlink:href="#DejaVuSans-114"/>
       <use x="234.126953" xlink:href="#DejaVuSans-101"/>
       <use x="295.650391" xlink:href="#DejaVuSans-119"/>
       <use x="377.4375" xlink:href="#DejaVuSans-32"/>
       <use x="409.224609" xlink:href="#DejaVuSans-83"/>
       <use x="472.701172" xlink:href="#DejaVuSans-116"/>
       <use x="511.910156" xlink:href="#DejaVuSans-97"/>
       <use x="573.189453" xlink:href="#DejaVuSans-110"/>
       <use x="636.568359" xlink:href="#DejaVuSans-116"/>
       <use x="675.777344" xlink:href="#DejaVuSans-111"/>
       <use x="736.958984" xlink:href="#DejaVuSans-110"/>
      </g>
     </g>
    </g>
    <g id="ytick_28">
     <g id="line2d_35">
      <g>
       <use style="stroke:#000000;stroke-width:0.8;" x="108" xlink:href="#m6b8f888987" y="362.587972"/>
      </g>
     </g>
     <g id="text_37">
      <!-- Andrew Adamson -->
      <g transform="translate(13.529687 366.387191)scale(0.1 -0.1)">
       <use xlink:href="#DejaVuSans-65"/>
       <use x="68.408203" xlink:href="#DejaVuSans-110"/>
       <use x="131.787109" xlink:href="#DejaVuSans-100"/>
       <use x="195.263672" xlink:href="#DejaVuSans-114"/>
       <use x="234.126953" xlink:href="#DejaVuSans-101"/>
       <use x="295.650391" xlink:href="#DejaVuSans-119"/>
       <use x="377.4375" xlink:href="#DejaVuSans-32"/>
       <use x="409.224609" xlink:href="#DejaVuSans-65"/>
       <use x="475.882812" xlink:href="#DejaVuSans-100"/>
       <use x="539.359375" xlink:href="#DejaVuSans-97"/>
       <use x="600.638672" xlink:href="#DejaVuSans-109"/>
       <use x="698.050781" xlink:href="#DejaVuSans-115"/>
       <use x="750.150391" xlink:href="#DejaVuSans-111"/>
       <use x="811.332031" xlink:href="#DejaVuSans-110"/>
      </g>
     </g>
    </g>
    <g id="ytick_29">
     <g id="line2d_36">
      <g>
       <use style="stroke:#000000;stroke-width:0.8;" x="108" xlink:href="#m6b8f888987" y="372.725035"/>
      </g>
     </g>
     <g id="text_38">
      <!-- James Wan -->
      <defs>
       <path d="M 3.328125 72.90625 
L 13.28125 72.90625 
L 28.609375 11.28125 
L 43.890625 72.90625 
L 54.984375 72.90625 
L 70.3125 11.28125 
L 85.59375 72.90625 
L 95.609375 72.90625 
L 77.296875 0 
L 64.890625 0 
L 49.515625 63.28125 
L 33.984375 0 
L 21.578125 0 
z
" id="DejaVuSans-87"/>
      </defs>
      <g transform="translate(45.925 376.524254)scale(0.1 -0.1)">
       <use xlink:href="#DejaVuSans-74"/>
       <use x="29.492188" xlink:href="#DejaVuSans-97"/>
       <use x="90.771484" xlink:href="#DejaVuSans-109"/>
       <use x="188.183594" xlink:href="#DejaVuSans-101"/>
       <use x="249.707031" xlink:href="#DejaVuSans-115"/>
       <use x="301.806641" xlink:href="#DejaVuSans-32"/>
       <use x="333.59375" xlink:href="#DejaVuSans-87"/>
       <use x="426.095703" xlink:href="#DejaVuSans-97"/>
       <use x="487.375" xlink:href="#DejaVuSans-110"/>
      </g>
     </g>
    </g>
    <g id="ytick_30">
     <g id="line2d_37">
      <g>
       <use style="stroke:#000000;stroke-width:0.8;" x="108" xlink:href="#m6b8f888987" y="382.862098"/>
      </g>
     </g>
     <g id="text_39">
      <!-- Brett Ratner -->
      <g transform="translate(39.707812 386.661317)scale(0.1 -0.1)">
       <use xlink:href="#DejaVuSans-66"/>
       <use x="68.603516" xlink:href="#DejaVuSans-114"/>
       <use x="107.466797" xlink:href="#DejaVuSans-101"/>
       <use x="168.990234" xlink:href="#DejaVuSans-116"/>
       <use x="208.199219" xlink:href="#DejaVuSans-116"/>
       <use x="247.408203" xlink:href="#DejaVuSans-32"/>
       <use x="279.195312" xlink:href="#DejaVuSans-82"/>
       <use x="346.427734" xlink:href="#DejaVuSans-97"/>
       <use x="407.707031" xlink:href="#DejaVuSans-116"/>
       <use x="446.916016" xlink:href="#DejaVuSans-110"/>
       <use x="510.294922" xlink:href="#DejaVuSans-101"/>
       <use x="571.818359" xlink:href="#DejaVuSans-114"/>
      </g>
     </g>
    </g>
    <g id="ytick_31">
     <g id="line2d_38">
      <g>
       <use style="stroke:#000000;stroke-width:0.8;" x="108" xlink:href="#m6b8f888987" y="392.999161"/>
      </g>
     </g>
     <g id="text_40">
      <!-- Shawn Levy -->
      <g transform="translate(41.104687 396.79838)scale(0.1 -0.1)">
       <use xlink:href="#DejaVuSans-83"/>
       <use x="63.476562" xlink:href="#DejaVuSans-104"/>
       <use x="126.855469" xlink:href="#DejaVuSans-97"/>
       <use x="188.134766" xlink:href="#DejaVuSans-119"/>
       <use x="269.921875" xlink:href="#DejaVuSans-110"/>
       <use x="333.300781" xlink:href="#DejaVuSans-32"/>
       <use x="365.087891" xlink:href="#DejaVuSans-76"/>
       <use x="419.050781" xlink:href="#DejaVuSans-101"/>
       <use x="480.574219" xlink:href="#DejaVuSans-118"/>
       <use x="539.753906" xlink:href="#DejaVuSans-121"/>
      </g>
     </g>
    </g>
    <g id="ytick_32">
     <g id="line2d_39">
      <g>
       <use style="stroke:#000000;stroke-width:0.8;" x="108" xlink:href="#m6b8f888987" y="403.136224"/>
      </g>
     </g>
     <g id="text_41">
      <!-- Jay Roach -->
      <g transform="translate(52.24375 406.935443)scale(0.1 -0.1)">
       <use xlink:href="#DejaVuSans-74"/>
       <use x="29.492188" xlink:href="#DejaVuSans-97"/>
       <use x="90.771484" xlink:href="#DejaVuSans-121"/>
       <use x="149.951172" xlink:href="#DejaVuSans-32"/>
       <use x="181.738281" xlink:href="#DejaVuSans-82"/>
       <use x="246.720703" xlink:href="#DejaVuSans-111"/>
       <use x="307.902344" xlink:href="#DejaVuSans-97"/>
       <use x="369.181641" xlink:href="#DejaVuSans-99"/>
       <use x="424.162109" xlink:href="#DejaVuSans-104"/>
      </g>
     </g>
    </g>
    <g id="ytick_33">
     <g id="line2d_40">
      <g>
       <use style="stroke:#000000;stroke-width:0.8;" x="108" xlink:href="#m6b8f888987" y="413.273287"/>
      </g>
     </g>
     <g id="text_42">
      <!-- Joss Whedon -->
      <g transform="translate(37.151562 417.072505)scale(0.1 -0.1)">
       <use xlink:href="#DejaVuSans-74"/>
       <use x="29.492188" xlink:href="#DejaVuSans-111"/>
       <use x="90.673828" xlink:href="#DejaVuSans-115"/>
       <use x="142.773438" xlink:href="#DejaVuSans-115"/>
       <use x="194.873047" xlink:href="#DejaVuSans-32"/>
       <use x="226.660156" xlink:href="#DejaVuSans-87"/>
       <use x="325.537109" xlink:href="#DejaVuSans-104"/>
       <use x="388.916016" xlink:href="#DejaVuSans-101"/>
       <use x="450.439453" xlink:href="#DejaVuSans-100"/>
       <use x="513.916016" xlink:href="#DejaVuSans-111"/>
       <use x="575.097656" xlink:href="#DejaVuSans-110"/>
      </g>
     </g>
    </g>
    <g id="ytick_34">
     <g id="line2d_41">
      <g>
       <use style="stroke:#000000;stroke-width:0.8;" x="108" xlink:href="#m6b8f888987" y="423.41035"/>
      </g>
     </g>
     <g id="text_43">
      <!-- Dennis Dugan -->
      <g transform="translate(30.454687 427.209568)scale(0.1 -0.1)">
       <use xlink:href="#DejaVuSans-68"/>
       <use x="77.001953" xlink:href="#DejaVuSans-101"/>
       <use x="138.525391" xlink:href="#DejaVuSans-110"/>
       <use x="201.904297" xlink:href="#DejaVuSans-110"/>
       <use x="265.283203" xlink:href="#DejaVuSans-105"/>
       <use x="293.066406" xlink:href="#DejaVuSans-115"/>
       <use x="345.166016" xlink:href="#DejaVuSans-32"/>
       <use x="376.953125" xlink:href="#DejaVuSans-68"/>
       <use x="453.955078" xlink:href="#DejaVuSans-117"/>
       <use x="517.333984" xlink:href="#DejaVuSans-103"/>
       <use x="580.810547" xlink:href="#DejaVuSans-97"/>
       <use x="642.089844" xlink:href="#DejaVuSans-110"/>
      </g>
     </g>
    </g>
    <g id="ytick_35">
     <g id="line2d_42">
      <g>
       <use style="stroke:#000000;stroke-width:0.8;" x="108" xlink:href="#m6b8f888987" y="433.547413"/>
      </g>
     </g>
     <g id="text_44">
      <!-- Tony Scott -->
      <g transform="translate(49.232812 437.346631)scale(0.1 -0.1)">
       <use xlink:href="#DejaVuSans-84"/>
       <use x="44.083984" xlink:href="#DejaVuSans-111"/>
       <use x="105.265625" xlink:href="#DejaVuSans-110"/>
       <use x="168.644531" xlink:href="#DejaVuSans-121"/>
       <use x="227.824219" xlink:href="#DejaVuSans-32"/>
       <use x="259.611328" xlink:href="#DejaVuSans-83"/>
       <use x="323.087891" xlink:href="#DejaVuSans-99"/>
       <use x="378.068359" xlink:href="#DejaVuSans-111"/>
       <use x="439.25" xlink:href="#DejaVuSans-116"/>
       <use x="478.458984" xlink:href="#DejaVuSans-116"/>
      </g>
     </g>
    </g>
    <g id="ytick_36">
     <g id="line2d_43">
      <g>
       <use style="stroke:#000000;stroke-width:0.8;" x="108" xlink:href="#m6b8f888987" y="443.684476"/>
      </g>
     </g>
     <g id="text_45">
      <!-- Barry Sonnenfeld -->
      <defs>
       <path d="M 37.109375 75.984375 
L 37.109375 68.5 
L 28.515625 68.5 
Q 23.6875 68.5 21.796875 66.546875 
Q 19.921875 64.59375 19.921875 59.515625 
L 19.921875 54.6875 
L 34.71875 54.6875 
L 34.71875 47.703125 
L 19.921875 47.703125 
L 19.921875 0 
L 10.890625 0 
L 10.890625 47.703125 
L 2.296875 47.703125 
L 2.296875 54.6875 
L 10.890625 54.6875 
L 10.890625 58.5 
Q 10.890625 67.625 15.140625 71.796875 
Q 19.390625 75.984375 28.609375 75.984375 
z
" id="DejaVuSans-102"/>
      </defs>
      <g transform="translate(14.434375 447.483694)scale(0.1 -0.1)">
       <use xlink:href="#DejaVuSans-66"/>
       <use x="68.603516" xlink:href="#DejaVuSans-97"/>
       <use x="129.882812" xlink:href="#DejaVuSans-114"/>
       <use x="169.246094" xlink:href="#DejaVuSans-114"/>
       <use x="210.359375" xlink:href="#DejaVuSans-121"/>
       <use x="269.539062" xlink:href="#DejaVuSans-32"/>
       <use x="301.326172" xlink:href="#DejaVuSans-83"/>
       <use x="364.802734" xlink:href="#DejaVuSans-111"/>
       <use x="425.984375" xlink:href="#DejaVuSans-110"/>
       <use x="489.363281" xlink:href="#DejaVuSans-110"/>
       <use x="552.742188" xlink:href="#DejaVuSans-101"/>
       <use x="614.265625" xlink:href="#DejaVuSans-110"/>
       <use x="677.644531" xlink:href="#DejaVuSans-102"/>
       <use x="712.849609" xlink:href="#DejaVuSans-101"/>
       <use x="774.373047" xlink:href="#DejaVuSans-108"/>
       <use x="802.15625" xlink:href="#DejaVuSans-100"/>
      </g>
     </g>
    </g>
    <g id="ytick_37">
     <g id="line2d_44">
      <g>
       <use style="stroke:#000000;stroke-width:0.8;" x="108" xlink:href="#m6b8f888987" y="453.821538"/>
      </g>
     </g>
     <g id="text_46">
      <!-- Richard Donner -->
      <g transform="translate(23.089062 457.620757)scale(0.1 -0.1)">
       <use xlink:href="#DejaVuSans-82"/>
       <use x="69.482422" xlink:href="#DejaVuSans-105"/>
       <use x="97.265625" xlink:href="#DejaVuSans-99"/>
       <use x="152.246094" xlink:href="#DejaVuSans-104"/>
       <use x="215.625" xlink:href="#DejaVuSans-97"/>
       <use x="276.904297" xlink:href="#DejaVuSans-114"/>
       <use x="316.267578" xlink:href="#DejaVuSans-100"/>
       <use x="379.744141" xlink:href="#DejaVuSans-32"/>
       <use x="411.53125" xlink:href="#DejaVuSans-68"/>
       <use x="488.533203" xlink:href="#DejaVuSans-111"/>
       <use x="549.714844" xlink:href="#DejaVuSans-110"/>
       <use x="613.09375" xlink:href="#DejaVuSans-110"/>
       <use x="676.472656" xlink:href="#DejaVuSans-101"/>
       <use x="737.996094" xlink:href="#DejaVuSans-114"/>
      </g>
     </g>
    </g>
    <g id="ytick_38">
     <g id="line2d_45">
      <g>
       <use style="stroke:#000000;stroke-width:0.8;" x="108" xlink:href="#m6b8f888987" y="463.958601"/>
      </g>
     </g>
     <g id="text_47">
      <!-- Steven Soderbergh -->
      <g transform="translate(4.7875 467.75782)scale(0.1 -0.1)">
       <use xlink:href="#DejaVuSans-83"/>
       <use x="63.476562" xlink:href="#DejaVuSans-116"/>
       <use x="102.685547" xlink:href="#DejaVuSans-101"/>
       <use x="164.208984" xlink:href="#DejaVuSans-118"/>
       <use x="223.388672" xlink:href="#DejaVuSans-101"/>
       <use x="284.912109" xlink:href="#DejaVuSans-110"/>
       <use x="348.291016" xlink:href="#DejaVuSans-32"/>
       <use x="380.078125" xlink:href="#DejaVuSans-83"/>
       <use x="443.554688" xlink:href="#DejaVuSans-111"/>
       <use x="504.736328" xlink:href="#DejaVuSans-100"/>
       <use x="568.212891" xlink:href="#DejaVuSans-101"/>
       <use x="629.736328" xlink:href="#DejaVuSans-114"/>
       <use x="670.849609" xlink:href="#DejaVuSans-98"/>
       <use x="734.326172" xlink:href="#DejaVuSans-101"/>
       <use x="795.849609" xlink:href="#DejaVuSans-114"/>
       <use x="835.212891" xlink:href="#DejaVuSans-103"/>
       <use x="898.689453" xlink:href="#DejaVuSans-104"/>
      </g>
     </g>
    </g>
    <g id="ytick_39">
     <g id="line2d_46">
      <g>
       <use style="stroke:#000000;stroke-width:0.8;" x="108" xlink:href="#m6b8f888987" y="474.095664"/>
      </g>
     </g>
     <g id="text_48">
      <!-- John Lasseter -->
      <g transform="translate(33.621875 477.894883)scale(0.1 -0.1)">
       <use xlink:href="#DejaVuSans-74"/>
       <use x="29.492188" xlink:href="#DejaVuSans-111"/>
       <use x="90.673828" xlink:href="#DejaVuSans-104"/>
       <use x="154.052734" xlink:href="#DejaVuSans-110"/>
       <use x="217.431641" xlink:href="#DejaVuSans-32"/>
       <use x="249.21875" xlink:href="#DejaVuSans-76"/>
       <use x="304.931641" xlink:href="#DejaVuSans-97"/>
       <use x="366.210938" xlink:href="#DejaVuSans-115"/>
       <use x="418.310547" xlink:href="#DejaVuSans-115"/>
       <use x="470.410156" xlink:href="#DejaVuSans-101"/>
       <use x="531.933594" xlink:href="#DejaVuSans-116"/>
       <use x="571.142578" xlink:href="#DejaVuSans-101"/>
       <use x="632.666016" xlink:href="#DejaVuSans-114"/>
      </g>
     </g>
    </g>
    <g id="ytick_40">
     <g id="line2d_47">
      <g>
       <use style="stroke:#000000;stroke-width:0.8;" x="108" xlink:href="#m6b8f888987" y="484.232727"/>
      </g>
     </g>
     <g id="text_49">
      <!-- Ivan Reitman -->
      <defs>
       <path d="M 9.8125 72.90625 
L 19.671875 72.90625 
L 19.671875 0 
L 9.8125 0 
z
" id="DejaVuSans-73"/>
      </defs>
      <g transform="translate(34.93125 488.031946)scale(0.1 -0.1)">
       <use xlink:href="#DejaVuSans-73"/>
       <use x="29.492188" xlink:href="#DejaVuSans-118"/>
       <use x="88.671875" xlink:href="#DejaVuSans-97"/>
       <use x="149.951172" xlink:href="#DejaVuSans-110"/>
       <use x="213.330078" xlink:href="#DejaVuSans-32"/>
       <use x="245.117188" xlink:href="#DejaVuSans-82"/>
       <use x="310.099609" xlink:href="#DejaVuSans-101"/>
       <use x="371.623047" xlink:href="#DejaVuSans-105"/>
       <use x="399.40625" xlink:href="#DejaVuSans-116"/>
       <use x="438.615234" xlink:href="#DejaVuSans-109"/>
       <use x="536.027344" xlink:href="#DejaVuSans-97"/>
       <use x="597.306641" xlink:href="#DejaVuSans-110"/>
      </g>
     </g>
    </g>
    <g id="text_50">
     <!-- Director -->
     <g transform="translate(-6.785 314.675938)rotate(-90)scale(0.14 -0.14)">
      <use xlink:href="#DejaVuSans-68"/>
      <use x="77.001953" xlink:href="#DejaVuSans-105"/>
      <use x="104.785156" xlink:href="#DejaVuSans-114"/>
      <use x="143.648438" xlink:href="#DejaVuSans-101"/>
      <use x="205.171875" xlink:href="#DejaVuSans-99"/>
      <use x="260.152344" xlink:href="#DejaVuSans-116"/>
      <use x="299.361328" xlink:href="#DejaVuSans-111"/>
      <use x="360.542969" xlink:href="#DejaVuSans-114"/>
     </g>
    </g>
   </g>
   <g id="patch_3">
    <path d="M 108 504 
L 108 69.12 
" style="fill:none;stroke:#000000;stroke-linecap:square;stroke-linejoin:miter;stroke-width:0.8;"/>
   </g>
   <g id="patch_4">
    <path d="M 777.6 504 
L 777.6 69.12 
" style="fill:none;stroke:#000000;stroke-linecap:square;stroke-linejoin:miter;stroke-width:0.8;"/>
   </g>
   <g id="patch_5">
    <path d="M 108 504 
L 777.6 504 
" style="fill:none;stroke:#000000;stroke-linecap:square;stroke-linejoin:miter;stroke-width:0.8;"/>
   </g>
   <g id="patch_6">
    <path d="M 108 69.12 
L 777.6 69.12 
" style="fill:none;stroke:#000000;stroke-linecap:square;stroke-linejoin:miter;stroke-width:0.8;"/>
   </g>
   <g id="text_51">
    <!-- Highest Total Gross: Directors 1980-2020 -->
    <defs>
     <path d="M 11.71875 12.40625 
L 22.015625 12.40625 
L 22.015625 0 
L 11.71875 0 
z
M 11.71875 51.703125 
L 22.015625 51.703125 
L 22.015625 39.3125 
L 11.71875 39.3125 
z
" id="DejaVuSans-58"/>
     <path d="M 31.78125 34.625 
Q 24.75 34.625 20.71875 30.859375 
Q 16.703125 27.09375 16.703125 20.515625 
Q 16.703125 13.921875 20.71875 10.15625 
Q 24.75 6.390625 31.78125 6.390625 
Q 38.8125 6.390625 42.859375 10.171875 
Q 46.921875 13.96875 46.921875 20.515625 
Q 46.921875 27.09375 42.890625 30.859375 
Q 38.875 34.625 31.78125 34.625 
z
M 21.921875 38.8125 
Q 15.578125 40.375 12.03125 44.71875 
Q 8.5 49.078125 8.5 55.328125 
Q 8.5 64.0625 14.71875 69.140625 
Q 20.953125 74.21875 31.78125 74.21875 
Q 42.671875 74.21875 48.875 69.140625 
Q 55.078125 64.0625 55.078125 55.328125 
Q 55.078125 49.078125 51.53125 44.71875 
Q 48 40.375 41.703125 38.8125 
Q 48.828125 37.15625 52.796875 32.3125 
Q 56.78125 27.484375 56.78125 20.515625 
Q 56.78125 9.90625 50.3125 4.234375 
Q 43.84375 -1.421875 31.78125 -1.421875 
Q 19.734375 -1.421875 13.25 4.234375 
Q 6.78125 9.90625 6.78125 20.515625 
Q 6.78125 27.484375 10.78125 32.3125 
Q 14.796875 37.15625 21.921875 38.8125 
z
M 18.3125 54.390625 
Q 18.3125 48.734375 21.84375 45.5625 
Q 25.390625 42.390625 31.78125 42.390625 
Q 38.140625 42.390625 41.71875 45.5625 
Q 45.3125 48.734375 45.3125 54.390625 
Q 45.3125 60.0625 41.71875 63.234375 
Q 38.140625 66.40625 31.78125 66.40625 
Q 25.390625 66.40625 21.84375 63.234375 
Q 18.3125 60.0625 18.3125 54.390625 
z
" id="DejaVuSans-56"/>
     <path d="M 4.890625 31.390625 
L 31.203125 31.390625 
L 31.203125 23.390625 
L 4.890625 23.390625 
z
" id="DejaVuSans-45"/>
    </defs>
    <g transform="translate(298.770625 63.12)scale(0.14 -0.14)">
     <use xlink:href="#DejaVuSans-72"/>
     <use x="75.195312" xlink:href="#DejaVuSans-105"/>
     <use x="102.978516" xlink:href="#DejaVuSans-103"/>
     <use x="166.455078" xlink:href="#DejaVuSans-104"/>
     <use x="229.833984" xlink:href="#DejaVuSans-101"/>
     <use x="291.357422" xlink:href="#DejaVuSans-115"/>
     <use x="343.457031" xlink:href="#DejaVuSans-116"/>
     <use x="382.666016" xlink:href="#DejaVuSans-32"/>
     <use x="414.453125" xlink:href="#DejaVuSans-84"/>
     <use x="458.537109" xlink:href="#DejaVuSans-111"/>
     <use x="519.71875" xlink:href="#DejaVuSans-116"/>
     <use x="558.927734" xlink:href="#DejaVuSans-97"/>
     <use x="620.207031" xlink:href="#DejaVuSans-108"/>
     <use x="647.990234" xlink:href="#DejaVuSans-32"/>
     <use x="679.777344" xlink:href="#DejaVuSans-71"/>
     <use x="757.267578" xlink:href="#DejaVuSans-114"/>
     <use x="796.130859" xlink:href="#DejaVuSans-111"/>
     <use x="857.3125" xlink:href="#DejaVuSans-115"/>
     <use x="909.412109" xlink:href="#DejaVuSans-115"/>
     <use x="961.511719" xlink:href="#DejaVuSans-58"/>
     <use x="995.203125" xlink:href="#DejaVuSans-32"/>
     <use x="1026.990234" xlink:href="#DejaVuSans-68"/>
     <use x="1103.992188" xlink:href="#DejaVuSans-105"/>
     <use x="1131.775391" xlink:href="#DejaVuSans-114"/>
     <use x="1170.638672" xlink:href="#DejaVuSans-101"/>
     <use x="1232.162109" xlink:href="#DejaVuSans-99"/>
     <use x="1287.142578" xlink:href="#DejaVuSans-116"/>
     <use x="1326.351562" xlink:href="#DejaVuSans-111"/>
     <use x="1387.533203" xlink:href="#DejaVuSans-114"/>
     <use x="1428.646484" xlink:href="#DejaVuSans-115"/>
     <use x="1480.746094" xlink:href="#DejaVuSans-32"/>
     <use x="1512.533203" xlink:href="#DejaVuSans-49"/>
     <use x="1576.15625" xlink:href="#DejaVuSans-57"/>
     <use x="1639.779297" xlink:href="#DejaVuSans-56"/>
     <use x="1703.402344" xlink:href="#DejaVuSans-48"/>
     <use x="1767.025391" xlink:href="#DejaVuSans-45"/>
     <use x="1803.109375" xlink:href="#DejaVuSans-50"/>
     <use x="1866.732422" xlink:href="#DejaVuSans-48"/>
     <use x="1930.355469" xlink:href="#DejaVuSans-50"/>
     <use x="1993.978516" xlink:href="#DejaVuSans-48"/>
    </g>
   </g>
  </g>
 </g>
 <defs>
  <clipPath id="p2cff5932f3">
   <rect height="434.88" width="669.6" x="108" y="69.12"/>
  </clipPath>
 </defs>
</svg>
