<?xml version="1.0" encoding="utf-8" standalone="no"?>
<!DOCTYPE svg PUBLIC "-//W3C//DTD SVG 1.1//EN"
  "http://www.w3.org/Graphics/SVG/1.1/DTD/svg11.dtd">
<!-- Created with matplotlib (https://matplotlib.org/) -->
<svg height="554.505312pt" version="1.1" viewBox="0 0 938.111875 554.505312" width="938.111875pt" xmlns="http://www.w3.org/2000/svg" xmlns:xlink="http://www.w3.org/1999/xlink">
 <defs>
  <style type="text/css">
*{stroke-linecap:butt;stroke-linejoin:round;}
  </style>
 </defs>
 <g id="figure_1">
  <g id="patch_1">
   <path d="M 0 554.505312 
L 938.111875 554.505312 
L 938.111875 0 
L 0 0 
z
" style="fill:#ffffff;"/>
  </g>
  <g id="axes_1">
   <g id="patch_2">
    <path d="M 38.111875 513.077812 
L 930.911875 513.077812 
L 930.911875 23.837812 
L 38.111875 23.837812 
z
" style="fill:#ffffff;"/>
   </g>
   <g id="PathCollection_1">
    <defs>
     <path d="M 0 3 
C 0.795609 3 1.55874 2.683901 2.12132 2.12132 
C 2.683901 1.55874 3 0.795609 3 0 
C 3 -0.795609 2.683901 -1.55874 2.12132 -2.12132 
C 1.55874 -2.683901 0.795609 -3 0 -3 
C -0.795609 -3 -1.55874 -2.683901 -2.12132 -2.12132 
C -2.683901 -1.55874 -3 -0.795609 -3 0 
C -3 0.795609 -2.683901 1.55874 -2.12132 2.12132 
C -1.55874 2.683901 -0.795609 3 0 3 
z
" id="C0_0_5c06e14f56"/>
    </defs>
    <g clip-path="url(#p70b1f4f70a)">
     <use style="fill:#1f77b4;stroke:#ffffff;stroke-width:0.75;" x="78.693693" xlink:href="#C0_0_5c06e14f56" y="46.075994"/>
    </g>
    <g clip-path="url(#p70b1f4f70a)">
     <use style="fill:#1f77b4;stroke:#ffffff;stroke-width:0.75;" x="86.89204" xlink:href="#C0_0_5c06e14f56" y="99.94469"/>
    </g>
    <g clip-path="url(#p70b1f4f70a)">
     <use style="fill:#1f77b4;stroke:#ffffff;stroke-width:0.75;" x="95.090387" xlink:href="#C0_0_5c06e14f56" y="167.283204"/>
    </g>
    <g clip-path="url(#p70b1f4f70a)">
     <use style="fill:#1f77b4;stroke:#ffffff;stroke-width:0.75;" x="103.288735" xlink:href="#C0_0_5c06e14f56" y="208.875877"/>
    </g>
    <g clip-path="url(#p70b1f4f70a)">
     <use style="fill:#1f77b4;stroke:#ffffff;stroke-width:0.75;" x="111.487082" xlink:href="#C0_0_5c06e14f56" y="223.493355"/>
    </g>
    <g clip-path="url(#p70b1f4f70a)">
     <use style="fill:#1f77b4;stroke:#ffffff;stroke-width:0.75;" x="119.685429" xlink:href="#C0_0_5c06e14f56" y="236.877432"/>
    </g>
    <g clip-path="url(#p70b1f4f70a)">
     <use style="fill:#1f77b4;stroke:#ffffff;stroke-width:0.75;" x="127.883776" xlink:href="#C0_0_5c06e14f56" y="241.758153"/>
    </g>
    <g clip-path="url(#p70b1f4f70a)">
     <use style="fill:#1f77b4;stroke:#ffffff;stroke-width:0.75;" x="136.082123" xlink:href="#C0_0_5c06e14f56" y="261.652209"/>
    </g>
    <g clip-path="url(#p70b1f4f70a)">
     <use style="fill:#1f77b4;stroke:#ffffff;stroke-width:0.75;" x="144.28047" xlink:href="#C0_0_5c06e14f56" y="263.837892"/>
    </g>
    <g clip-path="url(#p70b1f4f70a)">
     <use style="fill:#ff7f0e;stroke:#ffffff;stroke-width:0.75;" x="152.478817" xlink:href="#C0_0_5c06e14f56" y="271.819289"/>
    </g>
    <g clip-path="url(#p70b1f4f70a)">
     <use style="fill:#ff7f0e;stroke:#ffffff;stroke-width:0.75;" x="160.677164" xlink:href="#C0_0_5c06e14f56" y="316.50529"/>
    </g>
    <g clip-path="url(#p70b1f4f70a)">
     <use style="fill:#1f77b4;stroke:#ffffff;stroke-width:0.75;" x="168.875511" xlink:href="#C0_0_5c06e14f56" y="322.287862"/>
    </g>
    <g clip-path="url(#p70b1f4f70a)">
     <use style="fill:#1f77b4;stroke:#ffffff;stroke-width:0.75;" x="177.073858" xlink:href="#C0_0_5c06e14f56" y="324.391101"/>
    </g>
    <g clip-path="url(#p70b1f4f70a)">
     <use style="fill:#1f77b4;stroke:#ffffff;stroke-width:0.75;" x="185.272206" xlink:href="#C0_0_5c06e14f56" y="336.070989"/>
    </g>
    <g clip-path="url(#p70b1f4f70a)">
     <use style="fill:#ff7f0e;stroke:#ffffff;stroke-width:0.75;" x="193.470553" xlink:href="#C0_0_5c06e14f56" y="343.769408"/>
    </g>
    <g clip-path="url(#p70b1f4f70a)">
     <use style="fill:#ff7f0e;stroke:#ffffff;stroke-width:0.75;" x="201.6689" xlink:href="#C0_0_5c06e14f56" y="355.961099"/>
    </g>
    <g clip-path="url(#p70b1f4f70a)">
     <use style="fill:#ff7f0e;stroke:#ffffff;stroke-width:0.75;" x="209.867247" xlink:href="#C0_0_5c06e14f56" y="362.100074"/>
    </g>
    <g clip-path="url(#p70b1f4f70a)">
     <use style="fill:#ff7f0e;stroke:#ffffff;stroke-width:0.75;" x="218.065594" xlink:href="#C0_0_5c06e14f56" y="364.046564"/>
    </g>
    <g clip-path="url(#p70b1f4f70a)">
     <use style="fill:#ff7f0e;stroke:#ffffff;stroke-width:0.75;" x="226.263941" xlink:href="#C0_0_5c06e14f56" y="373.367317"/>
    </g>
    <g clip-path="url(#p70b1f4f70a)">
     <use style="fill:#1f77b4;stroke:#ffffff;stroke-width:0.75;" x="234.462288" xlink:href="#C0_0_5c06e14f56" y="374.738398"/>
    </g>
    <g clip-path="url(#p70b1f4f70a)">
     <use style="fill:#1f77b4;stroke:#ffffff;stroke-width:0.75;" x="242.660635" xlink:href="#C0_0_5c06e14f56" y="382.215528"/>
    </g>
    <g clip-path="url(#p70b1f4f70a)">
     <use style="fill:#ff7f0e;stroke:#ffffff;stroke-width:0.75;" x="250.858982" xlink:href="#C0_0_5c06e14f56" y="386.972074"/>
    </g>
    <g clip-path="url(#p70b1f4f70a)">
     <use style="fill:#ff7f0e;stroke:#ffffff;stroke-width:0.75;" x="259.05733" xlink:href="#C0_0_5c06e14f56" y="391.180117"/>
    </g>
    <g clip-path="url(#p70b1f4f70a)">
     <use style="fill:#2ca02c;stroke:#ffffff;stroke-width:0.75;" x="267.255677" xlink:href="#C0_0_5c06e14f56" y="391.918106"/>
    </g>
    <g clip-path="url(#p70b1f4f70a)">
     <use style="fill:#1f77b4;stroke:#ffffff;stroke-width:0.75;" x="275.454024" xlink:href="#C0_0_5c06e14f56" y="396.877852"/>
    </g>
    <g clip-path="url(#p70b1f4f70a)">
     <use style="fill:#1f77b4;stroke:#ffffff;stroke-width:0.75;" x="283.652371" xlink:href="#C0_0_5c06e14f56" y="398.365323"/>
    </g>
    <g clip-path="url(#p70b1f4f70a)">
     <use style="fill:#1f77b4;stroke:#ffffff;stroke-width:0.75;" x="291.850718" xlink:href="#C0_0_5c06e14f56" y="399.295759"/>
    </g>
    <g clip-path="url(#p70b1f4f70a)">
     <use style="fill:#2ca02c;stroke:#ffffff;stroke-width:0.75;" x="300.049065" xlink:href="#C0_0_5c06e14f56" y="399.661838"/>
    </g>
    <g clip-path="url(#p70b1f4f70a)">
     <use style="fill:#1f77b4;stroke:#ffffff;stroke-width:0.75;" x="308.247412" xlink:href="#C0_0_5c06e14f56" y="403.146251"/>
    </g>
    <g clip-path="url(#p70b1f4f70a)">
     <use style="fill:#1f77b4;stroke:#ffffff;stroke-width:0.75;" x="324.644106" xlink:href="#C0_0_5c06e14f56" y="406.694197"/>
    </g>
    <g clip-path="url(#p70b1f4f70a)">
     <use style="fill:#1f77b4;stroke:#ffffff;stroke-width:0.75;" x="332.842454" xlink:href="#C0_0_5c06e14f56" y="409.136453"/>
    </g>
    <g clip-path="url(#p70b1f4f70a)">
     <use style="fill:#1f77b4;stroke:#ffffff;stroke-width:0.75;" x="341.040801" xlink:href="#C0_0_5c06e14f56" y="409.776116"/>
    </g>
    <g clip-path="url(#p70b1f4f70a)">
     <use style="fill:#1f77b4;stroke:#ffffff;stroke-width:0.75;" x="349.239148" xlink:href="#C0_0_5c06e14f56" y="409.826798"/>
    </g>
    <g clip-path="url(#p70b1f4f70a)">
     <use style="fill:#1f77b4;stroke:#ffffff;stroke-width:0.75;" x="357.437495" xlink:href="#C0_0_5c06e14f56" y="410.506498"/>
    </g>
    <g clip-path="url(#p70b1f4f70a)">
     <use style="fill:#1f77b4;stroke:#ffffff;stroke-width:0.75;" x="365.635842" xlink:href="#C0_0_5c06e14f56" y="412.214769"/>
    </g>
    <g clip-path="url(#p70b1f4f70a)">
     <use style="fill:#1f77b4;stroke:#ffffff;stroke-width:0.75;" x="373.834189" xlink:href="#C0_0_5c06e14f56" y="413.392785"/>
    </g>
    <g clip-path="url(#p70b1f4f70a)">
     <use style="fill:#1f77b4;stroke:#ffffff;stroke-width:0.75;" x="382.032536" xlink:href="#C0_0_5c06e14f56" y="413.885617"/>
    </g>
    <g clip-path="url(#p70b1f4f70a)">
     <use style="fill:#ff7f0e;stroke:#ffffff;stroke-width:0.75;" x="390.230883" xlink:href="#C0_0_5c06e14f56" y="414.830934"/>
    </g>
    <g clip-path="url(#p70b1f4f70a)">
     <use style="fill:#1f77b4;stroke:#ffffff;stroke-width:0.75;" x="398.42923" xlink:href="#C0_0_5c06e14f56" y="421.853354"/>
    </g>
    <g clip-path="url(#p70b1f4f70a)">
     <use style="fill:#1f77b4;stroke:#ffffff;stroke-width:0.75;" x="406.627577" xlink:href="#C0_0_5c06e14f56" y="422.348067"/>
    </g>
    <g clip-path="url(#p70b1f4f70a)">
     <use style="fill:#1f77b4;stroke:#ffffff;stroke-width:0.75;" x="414.825925" xlink:href="#C0_0_5c06e14f56" y="428.130488"/>
    </g>
    <g clip-path="url(#p70b1f4f70a)">
     <use style="fill:#1f77b4;stroke:#ffffff;stroke-width:0.75;" x="431.222619" xlink:href="#C0_0_5c06e14f56" y="428.91402"/>
    </g>
    <g clip-path="url(#p70b1f4f70a)">
     <use style="fill:#1f77b4;stroke:#ffffff;stroke-width:0.75;" x="439.420966" xlink:href="#C0_0_5c06e14f56" y="430.582371"/>
    </g>
    <g clip-path="url(#p70b1f4f70a)">
     <use style="fill:#1f77b4;stroke:#ffffff;stroke-width:0.75;" x="447.619313" xlink:href="#C0_0_5c06e14f56" y="433.513616"/>
    </g>
    <g clip-path="url(#p70b1f4f70a)">
     <use style="fill:#d62728;stroke:#ffffff;stroke-width:0.75;" x="455.81766" xlink:href="#C0_0_5c06e14f56" y="435.442213"/>
    </g>
    <g clip-path="url(#p70b1f4f70a)">
     <use style="fill:#ff7f0e;stroke:#ffffff;stroke-width:0.75;" x="464.016007" xlink:href="#C0_0_5c06e14f56" y="437.092624"/>
    </g>
    <g clip-path="url(#p70b1f4f70a)">
     <use style="fill:#ff7f0e;stroke:#ffffff;stroke-width:0.75;" x="472.214354" xlink:href="#C0_0_5c06e14f56" y="437.312082"/>
    </g>
    <g clip-path="url(#p70b1f4f70a)">
     <use style="fill:#ff7f0e;stroke:#ffffff;stroke-width:0.75;" x="480.412701" xlink:href="#C0_0_5c06e14f56" y="440.10859"/>
    </g>
    <g clip-path="url(#p70b1f4f70a)">
     <use style="fill:#d62728;stroke:#ffffff;stroke-width:0.75;" x="488.611049" xlink:href="#C0_0_5c06e14f56" y="440.748783"/>
    </g>
    <g clip-path="url(#p70b1f4f70a)">
     <use style="fill:#ff7f0e;stroke:#ffffff;stroke-width:0.75;" x="496.809396" xlink:href="#C0_0_5c06e14f56" y="445.296256"/>
    </g>
    <g clip-path="url(#p70b1f4f70a)">
     <use style="fill:#ff7f0e;stroke:#ffffff;stroke-width:0.75;" x="505.007743" xlink:href="#C0_0_5c06e14f56" y="445.917238"/>
    </g>
    <g clip-path="url(#p70b1f4f70a)">
     <use style="fill:#1f77b4;stroke:#ffffff;stroke-width:0.75;" x="513.20609" xlink:href="#C0_0_5c06e14f56" y="447.673335"/>
    </g>
    <g clip-path="url(#p70b1f4f70a)">
     <use style="fill:#1f77b4;stroke:#ffffff;stroke-width:0.75;" x="521.404437" xlink:href="#C0_0_5c06e14f56" y="448.097516"/>
    </g>
    <g clip-path="url(#p70b1f4f70a)">
     <use style="fill:#d62728;stroke:#ffffff;stroke-width:0.75;" x="529.602784" xlink:href="#C0_0_5c06e14f56" y="449.655431"/>
    </g>
    <g clip-path="url(#p70b1f4f70a)">
     <use style="fill:#1f77b4;stroke:#ffffff;stroke-width:0.75;" x="537.801131" xlink:href="#C0_0_5c06e14f56" y="454.867588"/>
    </g>
    <g clip-path="url(#p70b1f4f70a)">
     <use style="fill:#ff7f0e;stroke:#ffffff;stroke-width:0.75;" x="545.999478" xlink:href="#C0_0_5c06e14f56" y="455.750466"/>
    </g>
    <g clip-path="url(#p70b1f4f70a)">
     <use style="fill:#1f77b4;stroke:#ffffff;stroke-width:0.75;" x="554.197825" xlink:href="#C0_0_5c06e14f56" y="458.593833"/>
    </g>
    <g clip-path="url(#p70b1f4f70a)">
     <use style="fill:#1f77b4;stroke:#ffffff;stroke-width:0.75;" x="562.396173" xlink:href="#C0_0_5c06e14f56" y="459.010518"/>
    </g>
    <g clip-path="url(#p70b1f4f70a)">
     <use style="fill:#ff7f0e;stroke:#ffffff;stroke-width:0.75;" x="570.59452" xlink:href="#C0_0_5c06e14f56" y="459.343912"/>
    </g>
    <g clip-path="url(#p70b1f4f70a)">
     <use style="fill:#d62728;stroke:#ffffff;stroke-width:0.75;" x="578.792867" xlink:href="#C0_0_5c06e14f56" y="459.752943"/>
    </g>
    <g clip-path="url(#p70b1f4f70a)">
     <use style="fill:#1f77b4;stroke:#ffffff;stroke-width:0.75;" x="586.991214" xlink:href="#C0_0_5c06e14f56" y="460.02095"/>
    </g>
    <g clip-path="url(#p70b1f4f70a)">
     <use style="fill:#1f77b4;stroke:#ffffff;stroke-width:0.75;" x="595.189561" xlink:href="#C0_0_5c06e14f56" y="460.613152"/>
    </g>
    <g clip-path="url(#p70b1f4f70a)">
     <use style="fill:#ff7f0e;stroke:#ffffff;stroke-width:0.75;" x="603.387908" xlink:href="#C0_0_5c06e14f56" y="460.620053"/>
    </g>
    <g clip-path="url(#p70b1f4f70a)">
     <use style="fill:#1f77b4;stroke:#ffffff;stroke-width:0.75;" x="611.586255" xlink:href="#C0_0_5c06e14f56" y="461.31811"/>
    </g>
    <g clip-path="url(#p70b1f4f70a)">
     <use style="fill:#1f77b4;stroke:#ffffff;stroke-width:0.75;" x="619.784602" xlink:href="#C0_0_5c06e14f56" y="463.190583"/>
    </g>
    <g clip-path="url(#p70b1f4f70a)">
     <use style="fill:#1f77b4;stroke:#ffffff;stroke-width:0.75;" x="627.982949" xlink:href="#C0_0_5c06e14f56" y="463.256003"/>
    </g>
    <g clip-path="url(#p70b1f4f70a)">
     <use style="fill:#d62728;stroke:#ffffff;stroke-width:0.75;" x="636.181296" xlink:href="#C0_0_5c06e14f56" y="464.309662"/>
    </g>
    <g clip-path="url(#p70b1f4f70a)">
     <use style="fill:#1f77b4;stroke:#ffffff;stroke-width:0.75;" x="644.379644" xlink:href="#C0_0_5c06e14f56" y="466.875362"/>
    </g>
    <g clip-path="url(#p70b1f4f70a)">
     <use style="fill:#d62728;stroke:#ffffff;stroke-width:0.75;" x="652.577991" xlink:href="#C0_0_5c06e14f56" y="467.225123"/>
    </g>
    <g clip-path="url(#p70b1f4f70a)">
     <use style="fill:#ff7f0e;stroke:#ffffff;stroke-width:0.75;" x="660.776338" xlink:href="#C0_0_5c06e14f56" y="468.513052"/>
    </g>
    <g clip-path="url(#p70b1f4f70a)">
     <use style="fill:#1f77b4;stroke:#ffffff;stroke-width:0.75;" x="668.974685" xlink:href="#C0_0_5c06e14f56" y="470.903246"/>
    </g>
    <g clip-path="url(#p70b1f4f70a)">
     <use style="fill:#1f77b4;stroke:#ffffff;stroke-width:0.75;" x="677.173032" xlink:href="#C0_0_5c06e14f56" y="471.345035"/>
    </g>
    <g clip-path="url(#p70b1f4f70a)">
     <use style="fill:#ff7f0e;stroke:#ffffff;stroke-width:0.75;" x="685.371379" xlink:href="#C0_0_5c06e14f56" y="471.700428"/>
    </g>
    <g clip-path="url(#p70b1f4f70a)">
     <use style="fill:#1f77b4;stroke:#ffffff;stroke-width:0.75;" x="693.569726" xlink:href="#C0_0_5c06e14f56" y="472.379213"/>
    </g>
    <g clip-path="url(#p70b1f4f70a)">
     <use style="fill:#1f77b4;stroke:#ffffff;stroke-width:0.75;" x="701.768073" xlink:href="#C0_0_5c06e14f56" y="472.564905"/>
    </g>
    <g clip-path="url(#p70b1f4f70a)">
     <use style="fill:#1f77b4;stroke:#ffffff;stroke-width:0.75;" x="709.96642" xlink:href="#C0_0_5c06e14f56" y="473.450108"/>
    </g>
    <g clip-path="url(#p70b1f4f70a)">
     <use style="fill:#1f77b4;stroke:#ffffff;stroke-width:0.75;" x="718.164768" xlink:href="#C0_0_5c06e14f56" y="473.784829"/>
    </g>
    <g clip-path="url(#p70b1f4f70a)">
     <use style="fill:#1f77b4;stroke:#ffffff;stroke-width:0.75;" x="726.363115" xlink:href="#C0_0_5c06e14f56" y="475.590991"/>
    </g>
    <g clip-path="url(#p70b1f4f70a)">
     <use style="fill:#ff7f0e;stroke:#ffffff;stroke-width:0.75;" x="734.561462" xlink:href="#C0_0_5c06e14f56" y="476.799654"/>
    </g>
    <g clip-path="url(#p70b1f4f70a)">
     <use style="fill:#1f77b4;stroke:#ffffff;stroke-width:0.75;" x="742.759809" xlink:href="#C0_0_5c06e14f56" y="477.66409"/>
    </g>
    <g clip-path="url(#p70b1f4f70a)">
     <use style="fill:#ff7f0e;stroke:#ffffff;stroke-width:0.75;" x="750.958156" xlink:href="#C0_0_5c06e14f56" y="477.742701"/>
    </g>
    <g clip-path="url(#p70b1f4f70a)">
     <use style="fill:#1f77b4;stroke:#ffffff;stroke-width:0.75;" x="759.156503" xlink:href="#C0_0_5c06e14f56" y="479.901124"/>
    </g>
    <g clip-path="url(#p70b1f4f70a)">
     <use style="fill:#1f77b4;stroke:#ffffff;stroke-width:0.75;" x="767.35485" xlink:href="#C0_0_5c06e14f56" y="480.420859"/>
    </g>
    <g clip-path="url(#p70b1f4f70a)">
     <use style="fill:#1f77b4;stroke:#ffffff;stroke-width:0.75;" x="775.553197" xlink:href="#C0_0_5c06e14f56" y="481.145841"/>
    </g>
    <g clip-path="url(#p70b1f4f70a)">
     <use style="fill:#1f77b4;stroke:#ffffff;stroke-width:0.75;" x="783.751544" xlink:href="#C0_0_5c06e14f56" y="482.079356"/>
    </g>
    <g clip-path="url(#p70b1f4f70a)">
     <use style="fill:#ff7f0e;stroke:#ffffff;stroke-width:0.75;" x="791.949892" xlink:href="#C0_0_5c06e14f56" y="482.559725"/>
    </g>
    <g clip-path="url(#p70b1f4f70a)">
     <use style="fill:#1f77b4;stroke:#ffffff;stroke-width:0.75;" x="800.148239" xlink:href="#C0_0_5c06e14f56" y="483.780146"/>
    </g>
    <g clip-path="url(#p70b1f4f70a)">
     <use style="fill:#1f77b4;stroke:#ffffff;stroke-width:0.75;" x="808.346586" xlink:href="#C0_0_5c06e14f56" y="485.648607"/>
    </g>
    <g clip-path="url(#p70b1f4f70a)">
     <use style="fill:#1f77b4;stroke:#ffffff;stroke-width:0.75;" x="816.544933" xlink:href="#C0_0_5c06e14f56" y="486.659064"/>
    </g>
    <g clip-path="url(#p70b1f4f70a)">
     <use style="fill:#1f77b4;stroke:#ffffff;stroke-width:0.75;" x="824.74328" xlink:href="#C0_0_5c06e14f56" y="488.614174"/>
    </g>
    <g clip-path="url(#p70b1f4f70a)">
     <use style="fill:#ff7f0e;stroke:#ffffff;stroke-width:0.75;" x="832.941627" xlink:href="#C0_0_5c06e14f56" y="488.959675"/>
    </g>
    <g clip-path="url(#p70b1f4f70a)">
     <use style="fill:#1f77b4;stroke:#ffffff;stroke-width:0.75;" x="841.139974" xlink:href="#C0_0_5c06e14f56" y="489.254149"/>
    </g>
    <g clip-path="url(#p70b1f4f70a)">
     <use style="fill:#1f77b4;stroke:#ffffff;stroke-width:0.75;" x="849.338321" xlink:href="#C0_0_5c06e14f56" y="489.407439"/>
    </g>
    <g clip-path="url(#p70b1f4f70a)">
     <use style="fill:#1f77b4;stroke:#ffffff;stroke-width:0.75;" x="857.536668" xlink:href="#C0_0_5c06e14f56" y="489.42717"/>
    </g>
    <g clip-path="url(#p70b1f4f70a)">
     <use style="fill:#ff7f0e;stroke:#ffffff;stroke-width:0.75;" x="865.735015" xlink:href="#C0_0_5c06e14f56" y="489.849496"/>
    </g>
    <g clip-path="url(#p70b1f4f70a)">
     <use style="fill:#1f77b4;stroke:#ffffff;stroke-width:0.75;" x="873.933363" xlink:href="#C0_0_5c06e14f56" y="490.307366"/>
    </g>
    <g clip-path="url(#p70b1f4f70a)">
     <use style="fill:#1f77b4;stroke:#ffffff;stroke-width:0.75;" x="882.13171" xlink:href="#C0_0_5c06e14f56" y="490.73921"/>
    </g>
    <g clip-path="url(#p70b1f4f70a)">
     <use style="fill:#ff7f0e;stroke:#ffffff;stroke-width:0.75;" x="890.330057" xlink:href="#C0_0_5c06e14f56" y="490.839631"/>
    </g>
   </g>
   <g id="PathCollection_2"/>
   <g id="PathCollection_3"/>
   <g id="PathCollection_4"/>
   <g id="PathCollection_5"/>
   <g id="PathCollection_6"/>
   <g id="matplotlib.axis_1">
    <g id="xtick_1">
     <g id="line2d_1">
      <defs>
       <path d="M 0 0 
L 0 3.5 
" id="mcb1a20bf47" style="stroke:#000000;stroke-width:0.8;"/>
      </defs>
      <g>
       <use style="stroke:#000000;stroke-width:0.8;" x="78.693693" xlink:href="#mcb1a20bf47" y="513.077812"/>
      </g>
     </g>
     <g id="text_1">
      <!-- 0 -->
      <defs>
       <path d="M 31.78125 66.40625 
Q 24.171875 66.40625 20.328125 58.90625 
Q 16.5 51.421875 16.5 36.375 
Q 16.5 21.390625 20.328125 13.890625 
Q 24.171875 6.390625 31.78125 6.390625 
Q 39.453125 6.390625 43.28125 13.890625 
Q 47.125 21.390625 47.125 36.375 
Q 47.125 51.421875 43.28125 58.90625 
Q 39.453125 66.40625 31.78125 66.40625 
z
M 31.78125 74.21875 
Q 44.046875 74.21875 50.515625 64.515625 
Q 56.984375 54.828125 56.984375 36.375 
Q 56.984375 17.96875 50.515625 8.265625 
Q 44.046875 -1.421875 31.78125 -1.421875 
Q 19.53125 -1.421875 13.0625 8.265625 
Q 6.59375 17.96875 6.59375 36.375 
Q 6.59375 54.828125 13.0625 64.515625 
Q 19.53125 74.21875 31.78125 74.21875 
z
" id="DejaVuSans-48"/>
      </defs>
      <g transform="translate(75.512443 527.67625)scale(0.1 -0.1)">
       <use xlink:href="#DejaVuSans-48"/>
      </g>
     </g>
    </g>
    <g id="xtick_2">
     <g id="line2d_2">
      <g>
       <use style="stroke:#000000;stroke-width:0.8;" x="242.660635" xlink:href="#mcb1a20bf47" y="513.077812"/>
      </g>
     </g>
     <g id="text_2">
      <!-- 20 -->
      <defs>
       <path d="M 19.1875 8.296875 
L 53.609375 8.296875 
L 53.609375 0 
L 7.328125 0 
L 7.328125 8.296875 
Q 12.9375 14.109375 22.625 23.890625 
Q 32.328125 33.6875 34.8125 36.53125 
Q 39.546875 41.84375 41.421875 45.53125 
Q 43.3125 49.21875 43.3125 52.78125 
Q 43.3125 58.59375 39.234375 62.25 
Q 35.15625 65.921875 28.609375 65.921875 
Q 23.96875 65.921875 18.8125 64.3125 
Q 13.671875 62.703125 7.8125 59.421875 
L 7.8125 69.390625 
Q 13.765625 71.78125 18.9375 73 
Q 24.125 74.21875 28.421875 74.21875 
Q 39.75 74.21875 46.484375 68.546875 
Q 53.21875 62.890625 53.21875 53.421875 
Q 53.21875 48.921875 51.53125 44.890625 
Q 49.859375 40.875 45.40625 35.40625 
Q 44.1875 33.984375 37.640625 27.21875 
Q 31.109375 20.453125 19.1875 8.296875 
z
" id="DejaVuSans-50"/>
      </defs>
      <g transform="translate(236.298135 527.67625)scale(0.1 -0.1)">
       <use xlink:href="#DejaVuSans-50"/>
       <use x="63.623047" xlink:href="#DejaVuSans-48"/>
      </g>
     </g>
    </g>
    <g id="xtick_3">
     <g id="line2d_3">
      <g>
       <use style="stroke:#000000;stroke-width:0.8;" x="406.627577" xlink:href="#mcb1a20bf47" y="513.077812"/>
      </g>
     </g>
     <g id="text_3">
      <!-- 40 -->
      <defs>
       <path d="M 37.796875 64.3125 
L 12.890625 25.390625 
L 37.796875 25.390625 
z
M 35.203125 72.90625 
L 47.609375 72.90625 
L 47.609375 25.390625 
L 58.015625 25.390625 
L 58.015625 17.1875 
L 47.609375 17.1875 
L 47.609375 0 
L 37.796875 0 
L 37.796875 17.1875 
L 4.890625 17.1875 
L 4.890625 26.703125 
z
" id="DejaVuSans-52"/>
      </defs>
      <g transform="translate(400.265077 527.67625)scale(0.1 -0.1)">
       <use xlink:href="#DejaVuSans-52"/>
       <use x="63.623047" xlink:href="#DejaVuSans-48"/>
      </g>
     </g>
    </g>
    <g id="xtick_4">
     <g id="line2d_4">
      <g>
       <use style="stroke:#000000;stroke-width:0.8;" x="570.59452" xlink:href="#mcb1a20bf47" y="513.077812"/>
      </g>
     </g>
     <g id="text_4">
      <!-- 60 -->
      <defs>
       <path d="M 33.015625 40.375 
Q 26.375 40.375 22.484375 35.828125 
Q 18.609375 31.296875 18.609375 23.390625 
Q 18.609375 15.53125 22.484375 10.953125 
Q 26.375 6.390625 33.015625 6.390625 
Q 39.65625 6.390625 43.53125 10.953125 
Q 47.40625 15.53125 47.40625 23.390625 
Q 47.40625 31.296875 43.53125 35.828125 
Q 39.65625 40.375 33.015625 40.375 
z
M 52.59375 71.296875 
L 52.59375 62.3125 
Q 48.875 64.0625 45.09375 64.984375 
Q 41.3125 65.921875 37.59375 65.921875 
Q 27.828125 65.921875 22.671875 59.328125 
Q 17.53125 52.734375 16.796875 39.40625 
Q 19.671875 43.65625 24.015625 45.921875 
Q 28.375 48.1875 33.59375 48.1875 
Q 44.578125 48.1875 50.953125 41.515625 
Q 57.328125 34.859375 57.328125 23.390625 
Q 57.328125 12.15625 50.6875 5.359375 
Q 44.046875 -1.421875 33.015625 -1.421875 
Q 20.359375 -1.421875 13.671875 8.265625 
Q 6.984375 17.96875 6.984375 36.375 
Q 6.984375 53.65625 15.1875 63.9375 
Q 23.390625 74.21875 37.203125 74.21875 
Q 40.921875 74.21875 44.703125 73.484375 
Q 48.484375 72.75 52.59375 71.296875 
z
" id="DejaVuSans-54"/>
      </defs>
      <g transform="translate(564.23202 527.67625)scale(0.1 -0.1)">
       <use xlink:href="#DejaVuSans-54"/>
       <use x="63.623047" xlink:href="#DejaVuSans-48"/>
      </g>
     </g>
    </g>
    <g id="xtick_5">
     <g id="line2d_5">
      <g>
       <use style="stroke:#000000;stroke-width:0.8;" x="734.561462" xlink:href="#mcb1a20bf47" y="513.077812"/>
      </g>
     </g>
     <g id="text_5">
      <!-- 80 -->
      <defs>
       <path d="M 31.78125 34.625 
Q 24.75 34.625 20.71875 30.859375 
Q 16.703125 27.09375 16.703125 20.515625 
Q 16.703125 13.921875 20.71875 10.15625 
Q 24.75 6.390625 31.78125 6.390625 
Q 38.8125 6.390625 42.859375 10.171875 
Q 46.921875 13.96875 46.921875 20.515625 
Q 46.921875 27.09375 42.890625 30.859375 
Q 38.875 34.625 31.78125 34.625 
z
M 21.921875 38.8125 
Q 15.578125 40.375 12.03125 44.71875 
Q 8.5 49.078125 8.5 55.328125 
Q 8.5 64.0625 14.71875 69.140625 
Q 20.953125 74.21875 31.78125 74.21875 
Q 42.671875 74.21875 48.875 69.140625 
Q 55.078125 64.0625 55.078125 55.328125 
Q 55.078125 49.078125 51.53125 44.71875 
Q 48 40.375 41.703125 38.8125 
Q 48.828125 37.15625 52.796875 32.3125 
Q 56.78125 27.484375 56.78125 20.515625 
Q 56.78125 9.90625 50.3125 4.234375 
Q 43.84375 -1.421875 31.78125 -1.421875 
Q 19.734375 -1.421875 13.25 4.234375 
Q 6.78125 9.90625 6.78125 20.515625 
Q 6.78125 27.484375 10.78125 32.3125 
Q 14.796875 37.15625 21.921875 38.8125 
z
M 18.3125 54.390625 
Q 18.3125 48.734375 21.84375 45.5625 
Q 25.390625 42.390625 31.78125 42.390625 
Q 38.140625 42.390625 41.71875 45.5625 
Q 45.3125 48.734375 45.3125 54.390625 
Q 45.3125 60.0625 41.71875 63.234375 
Q 38.140625 66.40625 31.78125 66.40625 
Q 25.390625 66.40625 21.84375 63.234375 
Q 18.3125 60.0625 18.3125 54.390625 
z
" id="DejaVuSans-56"/>
      </defs>
      <g transform="translate(728.198962 527.67625)scale(0.1 -0.1)">
       <use xlink:href="#DejaVuSans-56"/>
       <use x="63.623047" xlink:href="#DejaVuSans-48"/>
      </g>
     </g>
    </g>
    <g id="xtick_6">
     <g id="line2d_6">
      <g>
       <use style="stroke:#000000;stroke-width:0.8;" x="898.528404" xlink:href="#mcb1a20bf47" y="513.077812"/>
      </g>
     </g>
     <g id="text_6">
      <!-- 100 -->
      <defs>
       <path d="M 12.40625 8.296875 
L 28.515625 8.296875 
L 28.515625 63.921875 
L 10.984375 60.40625 
L 10.984375 69.390625 
L 28.421875 72.90625 
L 38.28125 72.90625 
L 38.28125 8.296875 
L 54.390625 8.296875 
L 54.390625 0 
L 12.40625 0 
z
" id="DejaVuSans-49"/>
      </defs>
      <g transform="translate(888.984654 527.67625)scale(0.1 -0.1)">
       <use xlink:href="#DejaVuSans-49"/>
       <use x="63.623047" xlink:href="#DejaVuSans-48"/>
       <use x="127.246094" xlink:href="#DejaVuSans-48"/>
      </g>
     </g>
    </g>
    <g id="text_7">
     <!-- Movie Ranking -->
     <defs>
      <path d="M 9.8125 72.90625 
L 24.515625 72.90625 
L 43.109375 23.296875 
L 61.8125 72.90625 
L 76.515625 72.90625 
L 76.515625 0 
L 66.890625 0 
L 66.890625 64.015625 
L 48.09375 14.015625 
L 38.1875 14.015625 
L 19.390625 64.015625 
L 19.390625 0 
L 9.8125 0 
z
" id="DejaVuSans-77"/>
      <path d="M 30.609375 48.390625 
Q 23.390625 48.390625 19.1875 42.75 
Q 14.984375 37.109375 14.984375 27.296875 
Q 14.984375 17.484375 19.15625 11.84375 
Q 23.34375 6.203125 30.609375 6.203125 
Q 37.796875 6.203125 41.984375 11.859375 
Q 46.1875 17.53125 46.1875 27.296875 
Q 46.1875 37.015625 41.984375 42.703125 
Q 37.796875 48.390625 30.609375 48.390625 
z
M 30.609375 56 
Q 42.328125 56 49.015625 48.375 
Q 55.71875 40.765625 55.71875 27.296875 
Q 55.71875 13.875 49.015625 6.21875 
Q 42.328125 -1.421875 30.609375 -1.421875 
Q 18.84375 -1.421875 12.171875 6.21875 
Q 5.515625 13.875 5.515625 27.296875 
Q 5.515625 40.765625 12.171875 48.375 
Q 18.84375 56 30.609375 56 
z
" id="DejaVuSans-111"/>
      <path d="M 2.984375 54.6875 
L 12.5 54.6875 
L 29.59375 8.796875 
L 46.6875 54.6875 
L 56.203125 54.6875 
L 35.6875 0 
L 23.484375 0 
z
" id="DejaVuSans-118"/>
      <path d="M 9.421875 54.6875 
L 18.40625 54.6875 
L 18.40625 0 
L 9.421875 0 
z
M 9.421875 75.984375 
L 18.40625 75.984375 
L 18.40625 64.59375 
L 9.421875 64.59375 
z
" id="DejaVuSans-105"/>
      <path d="M 56.203125 29.59375 
L 56.203125 25.203125 
L 14.890625 25.203125 
Q 15.484375 15.921875 20.484375 11.0625 
Q 25.484375 6.203125 34.421875 6.203125 
Q 39.59375 6.203125 44.453125 7.46875 
Q 49.3125 8.734375 54.109375 11.28125 
L 54.109375 2.78125 
Q 49.265625 0.734375 44.1875 -0.34375 
Q 39.109375 -1.421875 33.890625 -1.421875 
Q 20.796875 -1.421875 13.15625 6.1875 
Q 5.515625 13.8125 5.515625 26.8125 
Q 5.515625 40.234375 12.765625 48.109375 
Q 20.015625 56 32.328125 56 
Q 43.359375 56 49.78125 48.890625 
Q 56.203125 41.796875 56.203125 29.59375 
z
M 47.21875 32.234375 
Q 47.125 39.59375 43.09375 43.984375 
Q 39.0625 48.390625 32.421875 48.390625 
Q 24.90625 48.390625 20.390625 44.140625 
Q 15.875 39.890625 15.1875 32.171875 
z
" id="DejaVuSans-101"/>
      <path id="DejaVuSans-32"/>
      <path d="M 44.390625 34.1875 
Q 47.5625 33.109375 50.5625 29.59375 
Q 53.5625 26.078125 56.59375 19.921875 
L 66.609375 0 
L 56 0 
L 46.6875 18.703125 
Q 43.0625 26.03125 39.671875 28.421875 
Q 36.28125 30.8125 30.421875 30.8125 
L 19.671875 30.8125 
L 19.671875 0 
L 9.8125 0 
L 9.8125 72.90625 
L 32.078125 72.90625 
Q 44.578125 72.90625 50.734375 67.671875 
Q 56.890625 62.453125 56.890625 51.90625 
Q 56.890625 45.015625 53.6875 40.46875 
Q 50.484375 35.9375 44.390625 34.1875 
z
M 19.671875 64.796875 
L 19.671875 38.921875 
L 32.078125 38.921875 
Q 39.203125 38.921875 42.84375 42.21875 
Q 46.484375 45.515625 46.484375 51.90625 
Q 46.484375 58.296875 42.84375 61.546875 
Q 39.203125 64.796875 32.078125 64.796875 
z
" id="DejaVuSans-82"/>
      <path d="M 34.28125 27.484375 
Q 23.390625 27.484375 19.1875 25 
Q 14.984375 22.515625 14.984375 16.5 
Q 14.984375 11.71875 18.140625 8.90625 
Q 21.296875 6.109375 26.703125 6.109375 
Q 34.1875 6.109375 38.703125 11.40625 
Q 43.21875 16.703125 43.21875 25.484375 
L 43.21875 27.484375 
z
M 52.203125 31.203125 
L 52.203125 0 
L 43.21875 0 
L 43.21875 8.296875 
Q 40.140625 3.328125 35.546875 0.953125 
Q 30.953125 -1.421875 24.3125 -1.421875 
Q 15.921875 -1.421875 10.953125 3.296875 
Q 6 8.015625 6 15.921875 
Q 6 25.140625 12.171875 29.828125 
Q 18.359375 34.515625 30.609375 34.515625 
L 43.21875 34.515625 
L 43.21875 35.40625 
Q 43.21875 41.609375 39.140625 45 
Q 35.0625 48.390625 27.6875 48.390625 
Q 23 48.390625 18.546875 47.265625 
Q 14.109375 46.140625 10.015625 43.890625 
L 10.015625 52.203125 
Q 14.9375 54.109375 19.578125 55.046875 
Q 24.21875 56 28.609375 56 
Q 40.484375 56 46.34375 49.84375 
Q 52.203125 43.703125 52.203125 31.203125 
z
" id="DejaVuSans-97"/>
      <path d="M 54.890625 33.015625 
L 54.890625 0 
L 45.90625 0 
L 45.90625 32.71875 
Q 45.90625 40.484375 42.875 44.328125 
Q 39.84375 48.1875 33.796875 48.1875 
Q 26.515625 48.1875 22.3125 43.546875 
Q 18.109375 38.921875 18.109375 30.90625 
L 18.109375 0 
L 9.078125 0 
L 9.078125 54.6875 
L 18.109375 54.6875 
L 18.109375 46.1875 
Q 21.34375 51.125 25.703125 53.5625 
Q 30.078125 56 35.796875 56 
Q 45.21875 56 50.046875 50.171875 
Q 54.890625 44.34375 54.890625 33.015625 
z
" id="DejaVuSans-110"/>
      <path d="M 9.078125 75.984375 
L 18.109375 75.984375 
L 18.109375 31.109375 
L 44.921875 54.6875 
L 56.390625 54.6875 
L 27.390625 29.109375 
L 57.625 0 
L 45.90625 0 
L 18.109375 26.703125 
L 18.109375 0 
L 9.078125 0 
z
" id="DejaVuSans-107"/>
      <path d="M 45.40625 27.984375 
Q 45.40625 37.75 41.375 43.109375 
Q 37.359375 48.484375 30.078125 48.484375 
Q 22.859375 48.484375 18.828125 43.109375 
Q 14.796875 37.75 14.796875 27.984375 
Q 14.796875 18.265625 18.828125 12.890625 
Q 22.859375 7.515625 30.078125 7.515625 
Q 37.359375 7.515625 41.375 12.890625 
Q 45.40625 18.265625 45.40625 27.984375 
z
M 54.390625 6.78125 
Q 54.390625 -7.171875 48.1875 -13.984375 
Q 42 -20.796875 29.203125 -20.796875 
Q 24.46875 -20.796875 20.265625 -20.09375 
Q 16.0625 -19.390625 12.109375 -17.921875 
L 12.109375 -9.1875 
Q 16.0625 -11.328125 19.921875 -12.34375 
Q 23.78125 -13.375 27.78125 -13.375 
Q 36.625 -13.375 41.015625 -8.765625 
Q 45.40625 -4.15625 45.40625 5.171875 
L 45.40625 9.625 
Q 42.625 4.78125 38.28125 2.390625 
Q 33.9375 0 27.875 0 
Q 17.828125 0 11.671875 7.65625 
Q 5.515625 15.328125 5.515625 27.984375 
Q 5.515625 40.671875 11.671875 48.328125 
Q 17.828125 56 27.875 56 
Q 33.9375 56 38.28125 53.609375 
Q 42.625 51.21875 45.40625 46.390625 
L 45.40625 54.6875 
L 54.390625 54.6875 
z
" id="DejaVuSans-103"/>
     </defs>
     <g transform="translate(433.25875 544.39375)scale(0.14 -0.14)">
      <use xlink:href="#DejaVuSans-77"/>
      <use x="86.279297" xlink:href="#DejaVuSans-111"/>
      <use x="147.460938" xlink:href="#DejaVuSans-118"/>
      <use x="206.640625" xlink:href="#DejaVuSans-105"/>
      <use x="234.423828" xlink:href="#DejaVuSans-101"/>
      <use x="295.947266" xlink:href="#DejaVuSans-32"/>
      <use x="327.734375" xlink:href="#DejaVuSans-82"/>
      <use x="394.966797" xlink:href="#DejaVuSans-97"/>
      <use x="456.246094" xlink:href="#DejaVuSans-110"/>
      <use x="519.625" xlink:href="#DejaVuSans-107"/>
      <use x="577.535156" xlink:href="#DejaVuSans-105"/>
      <use x="605.318359" xlink:href="#DejaVuSans-110"/>
      <use x="668.697266" xlink:href="#DejaVuSans-103"/>
     </g>
    </g>
   </g>
   <g id="matplotlib.axis_2">
    <g id="ytick_1">
     <g id="line2d_7">
      <defs>
       <path d="M 0 0 
L -3.5 0 
" id="m198d17ebdc" style="stroke:#000000;stroke-width:0.8;"/>
      </defs>
      <g>
       <use style="stroke:#000000;stroke-width:0.8;" x="38.111875" xlink:href="#m198d17ebdc" y="484.14603"/>
      </g>
     </g>
     <g id="text_8">
      <!-- 3 -->
      <defs>
       <path d="M 40.578125 39.3125 
Q 47.65625 37.796875 51.625 33 
Q 55.609375 28.21875 55.609375 21.1875 
Q 55.609375 10.40625 48.1875 4.484375 
Q 40.765625 -1.421875 27.09375 -1.421875 
Q 22.515625 -1.421875 17.65625 -0.515625 
Q 12.796875 0.390625 7.625 2.203125 
L 7.625 11.71875 
Q 11.71875 9.328125 16.59375 8.109375 
Q 21.484375 6.890625 26.8125 6.890625 
Q 36.078125 6.890625 40.9375 10.546875 
Q 45.796875 14.203125 45.796875 21.1875 
Q 45.796875 27.640625 41.28125 31.265625 
Q 36.765625 34.90625 28.71875 34.90625 
L 20.21875 34.90625 
L 20.21875 43.015625 
L 29.109375 43.015625 
Q 36.375 43.015625 40.234375 45.921875 
Q 44.09375 48.828125 44.09375 54.296875 
Q 44.09375 59.90625 40.109375 62.90625 
Q 36.140625 65.921875 28.71875 65.921875 
Q 24.65625 65.921875 20.015625 65.03125 
Q 15.375 64.15625 9.8125 62.3125 
L 9.8125 71.09375 
Q 15.4375 72.65625 20.34375 73.4375 
Q 25.25 74.21875 29.59375 74.21875 
Q 40.828125 74.21875 47.359375 69.109375 
Q 53.90625 64.015625 53.90625 55.328125 
Q 53.90625 49.265625 50.4375 45.09375 
Q 46.96875 40.921875 40.578125 39.3125 
z
" id="DejaVuSans-51"/>
      </defs>
      <g transform="translate(24.749375 487.945249)scale(0.1 -0.1)">
       <use xlink:href="#DejaVuSans-51"/>
      </g>
     </g>
    </g>
    <g id="ytick_2">
     <g id="line2d_8">
      <g>
       <use style="stroke:#000000;stroke-width:0.8;" x="38.111875" xlink:href="#m198d17ebdc" y="415.338738"/>
      </g>
     </g>
     <g id="text_9">
      <!-- 4 -->
      <g transform="translate(24.749375 419.137957)scale(0.1 -0.1)">
       <use xlink:href="#DejaVuSans-52"/>
      </g>
     </g>
    </g>
    <g id="ytick_3">
     <g id="line2d_9">
      <g>
       <use style="stroke:#000000;stroke-width:0.8;" x="38.111875" xlink:href="#m198d17ebdc" y="346.531446"/>
      </g>
     </g>
     <g id="text_10">
      <!-- 5 -->
      <defs>
       <path d="M 10.796875 72.90625 
L 49.515625 72.90625 
L 49.515625 64.59375 
L 19.828125 64.59375 
L 19.828125 46.734375 
Q 21.96875 47.46875 24.109375 47.828125 
Q 26.265625 48.1875 28.421875 48.1875 
Q 40.625 48.1875 47.75 41.5 
Q 54.890625 34.8125 54.890625 23.390625 
Q 54.890625 11.625 47.5625 5.09375 
Q 40.234375 -1.421875 26.90625 -1.421875 
Q 22.3125 -1.421875 17.546875 -0.640625 
Q 12.796875 0.140625 7.71875 1.703125 
L 7.71875 11.625 
Q 12.109375 9.234375 16.796875 8.0625 
Q 21.484375 6.890625 26.703125 6.890625 
Q 35.15625 6.890625 40.078125 11.328125 
Q 45.015625 15.765625 45.015625 23.390625 
Q 45.015625 31 40.078125 35.4375 
Q 35.15625 39.890625 26.703125 39.890625 
Q 22.75 39.890625 18.8125 39.015625 
Q 14.890625 38.140625 10.796875 36.28125 
z
" id="DejaVuSans-53"/>
      </defs>
      <g transform="translate(24.749375 350.330665)scale(0.1 -0.1)">
       <use xlink:href="#DejaVuSans-53"/>
      </g>
     </g>
    </g>
    <g id="ytick_4">
     <g id="line2d_10">
      <g>
       <use style="stroke:#000000;stroke-width:0.8;" x="38.111875" xlink:href="#m198d17ebdc" y="277.724154"/>
      </g>
     </g>
     <g id="text_11">
      <!-- 6 -->
      <g transform="translate(24.749375 281.523373)scale(0.1 -0.1)">
       <use xlink:href="#DejaVuSans-54"/>
      </g>
     </g>
    </g>
    <g id="ytick_5">
     <g id="line2d_11">
      <g>
       <use style="stroke:#000000;stroke-width:0.8;" x="38.111875" xlink:href="#m198d17ebdc" y="208.916862"/>
      </g>
     </g>
     <g id="text_12">
      <!-- 7 -->
      <defs>
       <path d="M 8.203125 72.90625 
L 55.078125 72.90625 
L 55.078125 68.703125 
L 28.609375 0 
L 18.3125 0 
L 43.21875 64.59375 
L 8.203125 64.59375 
z
" id="DejaVuSans-55"/>
      </defs>
      <g transform="translate(24.749375 212.716081)scale(0.1 -0.1)">
       <use xlink:href="#DejaVuSans-55"/>
      </g>
     </g>
    </g>
    <g id="ytick_6">
     <g id="line2d_12">
      <g>
       <use style="stroke:#000000;stroke-width:0.8;" x="38.111875" xlink:href="#m198d17ebdc" y="140.10957"/>
      </g>
     </g>
     <g id="text_13">
      <!-- 8 -->
      <g transform="translate(24.749375 143.908789)scale(0.1 -0.1)">
       <use xlink:href="#DejaVuSans-56"/>
      </g>
     </g>
    </g>
    <g id="ytick_7">
     <g id="line2d_13">
      <g>
       <use style="stroke:#000000;stroke-width:0.8;" x="38.111875" xlink:href="#m198d17ebdc" y="71.302278"/>
      </g>
     </g>
     <g id="text_14">
      <!-- 9 -->
      <defs>
       <path d="M 10.984375 1.515625 
L 10.984375 10.5 
Q 14.703125 8.734375 18.5 7.8125 
Q 22.3125 6.890625 25.984375 6.890625 
Q 35.75 6.890625 40.890625 13.453125 
Q 46.046875 20.015625 46.78125 33.40625 
Q 43.953125 29.203125 39.59375 26.953125 
Q 35.25 24.703125 29.984375 24.703125 
Q 19.046875 24.703125 12.671875 31.3125 
Q 6.296875 37.9375 6.296875 49.421875 
Q 6.296875 60.640625 12.9375 67.421875 
Q 19.578125 74.21875 30.609375 74.21875 
Q 43.265625 74.21875 49.921875 64.515625 
Q 56.59375 54.828125 56.59375 36.375 
Q 56.59375 19.140625 48.40625 8.859375 
Q 40.234375 -1.421875 26.421875 -1.421875 
Q 22.703125 -1.421875 18.890625 -0.6875 
Q 15.09375 0.046875 10.984375 1.515625 
z
M 30.609375 32.421875 
Q 37.25 32.421875 41.125 36.953125 
Q 45.015625 41.5 45.015625 49.421875 
Q 45.015625 57.28125 41.125 61.84375 
Q 37.25 66.40625 30.609375 66.40625 
Q 23.96875 66.40625 20.09375 61.84375 
Q 16.21875 57.28125 16.21875 49.421875 
Q 16.21875 41.5 20.09375 36.953125 
Q 23.96875 32.421875 30.609375 32.421875 
z
" id="DejaVuSans-57"/>
      </defs>
      <g transform="translate(24.749375 75.101497)scale(0.1 -0.1)">
       <use xlink:href="#DejaVuSans-57"/>
      </g>
     </g>
    </g>
    <g id="text_15">
     <!-- Domestic Total Gross [$] -->
     <defs>
      <path d="M 19.671875 64.796875 
L 19.671875 8.109375 
L 31.59375 8.109375 
Q 46.6875 8.109375 53.6875 14.9375 
Q 60.6875 21.78125 60.6875 36.53125 
Q 60.6875 51.171875 53.6875 57.984375 
Q 46.6875 64.796875 31.59375 64.796875 
z
M 9.8125 72.90625 
L 30.078125 72.90625 
Q 51.265625 72.90625 61.171875 64.09375 
Q 71.09375 55.28125 71.09375 36.53125 
Q 71.09375 17.671875 61.125 8.828125 
Q 51.171875 0 30.078125 0 
L 9.8125 0 
z
" id="DejaVuSans-68"/>
      <path d="M 52 44.1875 
Q 55.375 50.25 60.0625 53.125 
Q 64.75 56 71.09375 56 
Q 79.640625 56 84.28125 50.015625 
Q 88.921875 44.046875 88.921875 33.015625 
L 88.921875 0 
L 79.890625 0 
L 79.890625 32.71875 
Q 79.890625 40.578125 77.09375 44.375 
Q 74.3125 48.1875 68.609375 48.1875 
Q 61.625 48.1875 57.5625 43.546875 
Q 53.515625 38.921875 53.515625 30.90625 
L 53.515625 0 
L 44.484375 0 
L 44.484375 32.71875 
Q 44.484375 40.625 41.703125 44.40625 
Q 38.921875 48.1875 33.109375 48.1875 
Q 26.21875 48.1875 22.15625 43.53125 
Q 18.109375 38.875 18.109375 30.90625 
L 18.109375 0 
L 9.078125 0 
L 9.078125 54.6875 
L 18.109375 54.6875 
L 18.109375 46.1875 
Q 21.1875 51.21875 25.484375 53.609375 
Q 29.78125 56 35.6875 56 
Q 41.65625 56 45.828125 52.96875 
Q 50 49.953125 52 44.1875 
z
" id="DejaVuSans-109"/>
      <path d="M 44.28125 53.078125 
L 44.28125 44.578125 
Q 40.484375 46.53125 36.375 47.5 
Q 32.28125 48.484375 27.875 48.484375 
Q 21.1875 48.484375 17.84375 46.4375 
Q 14.5 44.390625 14.5 40.28125 
Q 14.5 37.15625 16.890625 35.375 
Q 19.28125 33.59375 26.515625 31.984375 
L 29.59375 31.296875 
Q 39.15625 29.25 43.1875 25.515625 
Q 47.21875 21.78125 47.21875 15.09375 
Q 47.21875 7.46875 41.1875 3.015625 
Q 35.15625 -1.421875 24.609375 -1.421875 
Q 20.21875 -1.421875 15.453125 -0.5625 
Q 10.6875 0.296875 5.421875 2 
L 5.421875 11.28125 
Q 10.40625 8.6875 15.234375 7.390625 
Q 20.0625 6.109375 24.8125 6.109375 
Q 31.15625 6.109375 34.5625 8.28125 
Q 37.984375 10.453125 37.984375 14.40625 
Q 37.984375 18.0625 35.515625 20.015625 
Q 33.0625 21.96875 24.703125 23.78125 
L 21.578125 24.515625 
Q 13.234375 26.265625 9.515625 29.90625 
Q 5.8125 33.546875 5.8125 39.890625 
Q 5.8125 47.609375 11.28125 51.796875 
Q 16.75 56 26.8125 56 
Q 31.78125 56 36.171875 55.265625 
Q 40.578125 54.546875 44.28125 53.078125 
z
" id="DejaVuSans-115"/>
      <path d="M 18.3125 70.21875 
L 18.3125 54.6875 
L 36.8125 54.6875 
L 36.8125 47.703125 
L 18.3125 47.703125 
L 18.3125 18.015625 
Q 18.3125 11.328125 20.140625 9.421875 
Q 21.96875 7.515625 27.59375 7.515625 
L 36.8125 7.515625 
L 36.8125 0 
L 27.59375 0 
Q 17.1875 0 13.234375 3.875 
Q 9.28125 7.765625 9.28125 18.015625 
L 9.28125 47.703125 
L 2.6875 47.703125 
L 2.6875 54.6875 
L 9.28125 54.6875 
L 9.28125 70.21875 
z
" id="DejaVuSans-116"/>
      <path d="M 48.78125 52.59375 
L 48.78125 44.1875 
Q 44.96875 46.296875 41.140625 47.34375 
Q 37.3125 48.390625 33.40625 48.390625 
Q 24.65625 48.390625 19.8125 42.84375 
Q 14.984375 37.3125 14.984375 27.296875 
Q 14.984375 17.28125 19.8125 11.734375 
Q 24.65625 6.203125 33.40625 6.203125 
Q 37.3125 6.203125 41.140625 7.25 
Q 44.96875 8.296875 48.78125 10.40625 
L 48.78125 2.09375 
Q 45.015625 0.34375 40.984375 -0.53125 
Q 36.96875 -1.421875 32.421875 -1.421875 
Q 20.0625 -1.421875 12.78125 6.34375 
Q 5.515625 14.109375 5.515625 27.296875 
Q 5.515625 40.671875 12.859375 48.328125 
Q 20.21875 56 33.015625 56 
Q 37.15625 56 41.109375 55.140625 
Q 45.0625 54.296875 48.78125 52.59375 
z
" id="DejaVuSans-99"/>
      <path d="M -0.296875 72.90625 
L 61.375 72.90625 
L 61.375 64.59375 
L 35.5 64.59375 
L 35.5 0 
L 25.59375 0 
L 25.59375 64.59375 
L -0.296875 64.59375 
z
" id="DejaVuSans-84"/>
      <path d="M 9.421875 75.984375 
L 18.40625 75.984375 
L 18.40625 0 
L 9.421875 0 
z
" id="DejaVuSans-108"/>
      <path d="M 59.515625 10.40625 
L 59.515625 29.984375 
L 43.40625 29.984375 
L 43.40625 38.09375 
L 69.28125 38.09375 
L 69.28125 6.78125 
Q 63.578125 2.734375 56.6875 0.65625 
Q 49.8125 -1.421875 42 -1.421875 
Q 24.90625 -1.421875 15.25 8.5625 
Q 5.609375 18.5625 5.609375 36.375 
Q 5.609375 54.25 15.25 64.234375 
Q 24.90625 74.21875 42 74.21875 
Q 49.125 74.21875 55.546875 72.453125 
Q 61.96875 70.703125 67.390625 67.28125 
L 67.390625 56.78125 
Q 61.921875 61.421875 55.765625 63.765625 
Q 49.609375 66.109375 42.828125 66.109375 
Q 29.4375 66.109375 22.71875 58.640625 
Q 16.015625 51.171875 16.015625 36.375 
Q 16.015625 21.625 22.71875 14.15625 
Q 29.4375 6.6875 42.828125 6.6875 
Q 48.046875 6.6875 52.140625 7.59375 
Q 56.25 8.5 59.515625 10.40625 
z
" id="DejaVuSans-71"/>
      <path d="M 41.109375 46.296875 
Q 39.59375 47.171875 37.8125 47.578125 
Q 36.03125 48 33.890625 48 
Q 26.265625 48 22.1875 43.046875 
Q 18.109375 38.09375 18.109375 28.8125 
L 18.109375 0 
L 9.078125 0 
L 9.078125 54.6875 
L 18.109375 54.6875 
L 18.109375 46.1875 
Q 20.953125 51.171875 25.484375 53.578125 
Q 30.03125 56 36.53125 56 
Q 37.453125 56 38.578125 55.875 
Q 39.703125 55.765625 41.0625 55.515625 
z
" id="DejaVuSans-114"/>
      <path d="M 8.59375 75.984375 
L 29.296875 75.984375 
L 29.296875 69 
L 17.578125 69 
L 17.578125 -6.203125 
L 29.296875 -6.203125 
L 29.296875 -13.1875 
L 8.59375 -13.1875 
z
" id="DejaVuSans-91"/>
      <path d="M 33.796875 -14.703125 
L 28.90625 -14.703125 
L 28.859375 0 
Q 23.734375 0.09375 18.609375 1.1875 
Q 13.484375 2.296875 8.296875 4.5 
L 8.296875 13.28125 
Q 13.28125 10.15625 18.375 8.5625 
Q 23.484375 6.984375 28.90625 6.9375 
L 28.90625 29.203125 
Q 18.109375 30.953125 13.203125 35.15625 
Q 8.296875 39.359375 8.296875 46.6875 
Q 8.296875 54.640625 13.625 59.21875 
Q 18.953125 63.8125 28.90625 64.5 
L 28.90625 75.984375 
L 33.796875 75.984375 
L 33.796875 64.65625 
Q 38.328125 64.453125 42.578125 63.6875 
Q 46.828125 62.9375 50.875 61.625 
L 50.875 53.078125 
Q 46.828125 55.125 42.546875 56.25 
Q 38.28125 57.375 33.796875 57.5625 
L 33.796875 36.71875 
Q 44.875 35.015625 50.09375 30.609375 
Q 55.328125 26.21875 55.328125 18.609375 
Q 55.328125 10.359375 49.78125 5.59375 
Q 44.234375 0.828125 33.796875 0.09375 
z
M 28.90625 37.59375 
L 28.90625 57.625 
Q 23.25 56.984375 20.265625 54.390625 
Q 17.28125 51.8125 17.28125 47.515625 
Q 17.28125 43.3125 20.03125 40.96875 
Q 22.796875 38.625 28.90625 37.59375 
z
M 33.796875 28.21875 
L 33.796875 7.078125 
Q 39.984375 7.90625 43.140625 10.59375 
Q 46.296875 13.28125 46.296875 17.671875 
Q 46.296875 21.96875 43.28125 24.5 
Q 40.28125 27.046875 33.796875 28.21875 
z
" id="DejaVuSans-36"/>
      <path d="M 30.421875 75.984375 
L 30.421875 -13.1875 
L 9.71875 -13.1875 
L 9.71875 -6.203125 
L 21.390625 -6.203125 
L 21.390625 69 
L 9.71875 69 
L 9.71875 75.984375 
z
" id="DejaVuSans-93"/>
     </defs>
     <g transform="translate(17.837813 354.098437)rotate(-90)scale(0.14 -0.14)">
      <use xlink:href="#DejaVuSans-68"/>
      <use x="77.001953" xlink:href="#DejaVuSans-111"/>
      <use x="138.183594" xlink:href="#DejaVuSans-109"/>
      <use x="235.595703" xlink:href="#DejaVuSans-101"/>
      <use x="297.119141" xlink:href="#DejaVuSans-115"/>
      <use x="349.21875" xlink:href="#DejaVuSans-116"/>
      <use x="388.427734" xlink:href="#DejaVuSans-105"/>
      <use x="416.210938" xlink:href="#DejaVuSans-99"/>
      <use x="471.191406" xlink:href="#DejaVuSans-32"/>
      <use x="502.978516" xlink:href="#DejaVuSans-84"/>
      <use x="547.0625" xlink:href="#DejaVuSans-111"/>
      <use x="608.244141" xlink:href="#DejaVuSans-116"/>
      <use x="647.453125" xlink:href="#DejaVuSans-97"/>
      <use x="708.732422" xlink:href="#DejaVuSans-108"/>
      <use x="736.515625" xlink:href="#DejaVuSans-32"/>
      <use x="768.302734" xlink:href="#DejaVuSans-71"/>
      <use x="845.792969" xlink:href="#DejaVuSans-114"/>
      <use x="884.65625" xlink:href="#DejaVuSans-111"/>
      <use x="945.837891" xlink:href="#DejaVuSans-115"/>
      <use x="997.9375" xlink:href="#DejaVuSans-115"/>
      <use x="1050.037109" xlink:href="#DejaVuSans-32"/>
      <use x="1081.824219" xlink:href="#DejaVuSans-91"/>
      <use x="1120.837891" xlink:href="#DejaVuSans-36"/>
      <use x="1184.460938" xlink:href="#DejaVuSans-93"/>
     </g>
    </g>
    <g id="text_16">
     <!-- 1e8 -->
     <g transform="translate(38.111875 20.837812)scale(0.1 -0.1)">
      <use xlink:href="#DejaVuSans-49"/>
      <use x="63.623047" xlink:href="#DejaVuSans-101"/>
      <use x="125.146484" xlink:href="#DejaVuSans-56"/>
     </g>
    </g>
   </g>
   <g id="patch_3">
    <path d="M 38.111875 513.077812 
L 38.111875 23.837813 
" style="fill:none;stroke:#000000;stroke-linecap:square;stroke-linejoin:miter;stroke-width:0.8;"/>
   </g>
   <g id="patch_4">
    <path d="M 930.911875 513.077812 
L 930.911875 23.837813 
" style="fill:none;stroke:#000000;stroke-linecap:square;stroke-linejoin:miter;stroke-width:0.8;"/>
   </g>
   <g id="patch_5">
    <path d="M 38.111875 513.077812 
L 930.911875 513.077812 
" style="fill:none;stroke:#000000;stroke-linecap:square;stroke-linejoin:miter;stroke-width:0.8;"/>
   </g>
   <g id="patch_6">
    <path d="M 38.111875 23.837812 
L 930.911875 23.837812 
" style="fill:none;stroke:#000000;stroke-linecap:square;stroke-linejoin:miter;stroke-width:0.8;"/>
   </g>
   <g id="text_17">
    <!-- Star Wars: Episode VII -->
    <defs>
     <path d="M 53.515625 70.515625 
L 53.515625 60.890625 
Q 47.90625 63.578125 42.921875 64.890625 
Q 37.9375 66.21875 33.296875 66.21875 
Q 25.25 66.21875 20.875 63.09375 
Q 16.5 59.96875 16.5 54.203125 
Q 16.5 49.359375 19.40625 46.890625 
Q 22.3125 44.4375 30.421875 42.921875 
L 36.375 41.703125 
Q 47.40625 39.59375 52.65625 34.296875 
Q 57.90625 29 57.90625 20.125 
Q 57.90625 9.515625 50.796875 4.046875 
Q 43.703125 -1.421875 29.984375 -1.421875 
Q 24.8125 -1.421875 18.96875 -0.25 
Q 13.140625 0.921875 6.890625 3.21875 
L 6.890625 13.375 
Q 12.890625 10.015625 18.65625 8.296875 
Q 24.421875 6.59375 29.984375 6.59375 
Q 38.421875 6.59375 43.015625 9.90625 
Q 47.609375 13.234375 47.609375 19.390625 
Q 47.609375 24.75 44.3125 27.78125 
Q 41.015625 30.8125 33.5 32.328125 
L 27.484375 33.5 
Q 16.453125 35.6875 11.515625 40.375 
Q 6.59375 45.0625 6.59375 53.421875 
Q 6.59375 63.09375 13.40625 68.65625 
Q 20.21875 74.21875 32.171875 74.21875 
Q 37.3125 74.21875 42.625 73.28125 
Q 47.953125 72.359375 53.515625 70.515625 
z
" id="DejaVuSans-83"/>
     <path d="M 3.328125 72.90625 
L 13.28125 72.90625 
L 28.609375 11.28125 
L 43.890625 72.90625 
L 54.984375 72.90625 
L 70.3125 11.28125 
L 85.59375 72.90625 
L 95.609375 72.90625 
L 77.296875 0 
L 64.890625 0 
L 49.515625 63.28125 
L 33.984375 0 
L 21.578125 0 
z
" id="DejaVuSans-87"/>
     <path d="M 11.71875 12.40625 
L 22.015625 12.40625 
L 22.015625 0 
L 11.71875 0 
z
M 11.71875 51.703125 
L 22.015625 51.703125 
L 22.015625 39.3125 
L 11.71875 39.3125 
z
" id="DejaVuSans-58"/>
     <path d="M 9.8125 72.90625 
L 55.90625 72.90625 
L 55.90625 64.59375 
L 19.671875 64.59375 
L 19.671875 43.015625 
L 54.390625 43.015625 
L 54.390625 34.71875 
L 19.671875 34.71875 
L 19.671875 8.296875 
L 56.78125 8.296875 
L 56.78125 0 
L 9.8125 0 
z
" id="DejaVuSans-69"/>
     <path d="M 18.109375 8.203125 
L 18.109375 -20.796875 
L 9.078125 -20.796875 
L 9.078125 54.6875 
L 18.109375 54.6875 
L 18.109375 46.390625 
Q 20.953125 51.265625 25.265625 53.625 
Q 29.59375 56 35.59375 56 
Q 45.5625 56 51.78125 48.09375 
Q 58.015625 40.1875 58.015625 27.296875 
Q 58.015625 14.40625 51.78125 6.484375 
Q 45.5625 -1.421875 35.59375 -1.421875 
Q 29.59375 -1.421875 25.265625 0.953125 
Q 20.953125 3.328125 18.109375 8.203125 
z
M 48.6875 27.296875 
Q 48.6875 37.203125 44.609375 42.84375 
Q 40.53125 48.484375 33.40625 48.484375 
Q 26.265625 48.484375 22.1875 42.84375 
Q 18.109375 37.203125 18.109375 27.296875 
Q 18.109375 17.390625 22.1875 11.75 
Q 26.265625 6.109375 33.40625 6.109375 
Q 40.53125 6.109375 44.609375 11.75 
Q 48.6875 17.390625 48.6875 27.296875 
z
" id="DejaVuSans-112"/>
     <path d="M 45.40625 46.390625 
L 45.40625 75.984375 
L 54.390625 75.984375 
L 54.390625 0 
L 45.40625 0 
L 45.40625 8.203125 
Q 42.578125 3.328125 38.25 0.953125 
Q 33.9375 -1.421875 27.875 -1.421875 
Q 17.96875 -1.421875 11.734375 6.484375 
Q 5.515625 14.40625 5.515625 27.296875 
Q 5.515625 40.1875 11.734375 48.09375 
Q 17.96875 56 27.875 56 
Q 33.9375 56 38.25 53.625 
Q 42.578125 51.265625 45.40625 46.390625 
z
M 14.796875 27.296875 
Q 14.796875 17.390625 18.875 11.75 
Q 22.953125 6.109375 30.078125 6.109375 
Q 37.203125 6.109375 41.296875 11.75 
Q 45.40625 17.390625 45.40625 27.296875 
Q 45.40625 37.203125 41.296875 42.84375 
Q 37.203125 48.484375 30.078125 48.484375 
Q 22.953125 48.484375 18.875 42.84375 
Q 14.796875 37.203125 14.796875 27.296875 
z
" id="DejaVuSans-100"/>
     <path d="M 28.609375 0 
L 0.78125 72.90625 
L 11.078125 72.90625 
L 34.1875 11.53125 
L 57.328125 72.90625 
L 67.578125 72.90625 
L 39.796875 0 
z
" id="DejaVuSans-86"/>
     <path d="M 9.8125 72.90625 
L 19.671875 72.90625 
L 19.671875 0 
L 9.8125 0 
z
" id="DejaVuSans-73"/>
    </defs>
    <g transform="translate(88.941627 46.075994)scale(0.1 -0.1)">
     <use xlink:href="#DejaVuSans-83"/>
     <use x="63.476562" xlink:href="#DejaVuSans-116"/>
     <use x="102.685547" xlink:href="#DejaVuSans-97"/>
     <use x="163.964844" xlink:href="#DejaVuSans-114"/>
     <use x="205.078125" xlink:href="#DejaVuSans-32"/>
     <use x="236.865234" xlink:href="#DejaVuSans-87"/>
     <use x="329.367188" xlink:href="#DejaVuSans-97"/>
     <use x="390.646484" xlink:href="#DejaVuSans-114"/>
     <use x="431.759766" xlink:href="#DejaVuSans-115"/>
     <use x="483.859375" xlink:href="#DejaVuSans-58"/>
     <use x="517.550781" xlink:href="#DejaVuSans-32"/>
     <use x="549.337891" xlink:href="#DejaVuSans-69"/>
     <use x="612.521484" xlink:href="#DejaVuSans-112"/>
     <use x="675.998047" xlink:href="#DejaVuSans-105"/>
     <use x="703.78125" xlink:href="#DejaVuSans-115"/>
     <use x="755.880859" xlink:href="#DejaVuSans-111"/>
     <use x="817.0625" xlink:href="#DejaVuSans-100"/>
     <use x="880.539062" xlink:href="#DejaVuSans-101"/>
     <use x="942.0625" xlink:href="#DejaVuSans-32"/>
     <use x="973.849609" xlink:href="#DejaVuSans-86"/>
     <use x="1042.257812" xlink:href="#DejaVuSans-73"/>
     <use x="1071.75" xlink:href="#DejaVuSans-73"/>
    </g>
   </g>
   <g id="text_18">
    <!-- Avengers: Endgame -->
    <defs>
     <path d="M 34.1875 63.1875 
L 20.796875 26.90625 
L 47.609375 26.90625 
z
M 28.609375 72.90625 
L 39.796875 72.90625 
L 67.578125 0 
L 57.328125 0 
L 50.6875 18.703125 
L 17.828125 18.703125 
L 11.1875 0 
L 0.78125 0 
z
" id="DejaVuSans-65"/>
    </defs>
    <g transform="translate(97.139974 99.94469)scale(0.1 -0.1)">
     <use xlink:href="#DejaVuSans-65"/>
     <use x="62.533203" xlink:href="#DejaVuSans-118"/>
     <use x="121.712891" xlink:href="#DejaVuSans-101"/>
     <use x="183.236328" xlink:href="#DejaVuSans-110"/>
     <use x="246.615234" xlink:href="#DejaVuSans-103"/>
     <use x="310.091797" xlink:href="#DejaVuSans-101"/>
     <use x="371.615234" xlink:href="#DejaVuSans-114"/>
     <use x="412.728516" xlink:href="#DejaVuSans-115"/>
     <use x="464.828125" xlink:href="#DejaVuSans-58"/>
     <use x="498.519531" xlink:href="#DejaVuSans-32"/>
     <use x="530.306641" xlink:href="#DejaVuSans-69"/>
     <use x="593.490234" xlink:href="#DejaVuSans-110"/>
     <use x="656.869141" xlink:href="#DejaVuSans-100"/>
     <use x="720.345703" xlink:href="#DejaVuSans-103"/>
     <use x="783.822266" xlink:href="#DejaVuSans-97"/>
     <use x="845.101562" xlink:href="#DejaVuSans-109"/>
     <use x="942.513672" xlink:href="#DejaVuSans-101"/>
    </g>
   </g>
   <g id="text_19">
    <!-- Avatar -->
    <g transform="translate(105.338321 167.283204)scale(0.1 -0.1)">
     <use xlink:href="#DejaVuSans-65"/>
     <use x="62.533203" xlink:href="#DejaVuSans-118"/>
     <use x="121.712891" xlink:href="#DejaVuSans-97"/>
     <use x="182.992188" xlink:href="#DejaVuSans-116"/>
     <use x="222.201172" xlink:href="#DejaVuSans-97"/>
     <use x="283.480469" xlink:href="#DejaVuSans-114"/>
    </g>
   </g>
   <g id="text_20">
    <!-- Black Panther -->
    <defs>
     <path d="M 19.671875 34.8125 
L 19.671875 8.109375 
L 35.5 8.109375 
Q 43.453125 8.109375 47.28125 11.40625 
Q 51.125 14.703125 51.125 21.484375 
Q 51.125 28.328125 47.28125 31.5625 
Q 43.453125 34.8125 35.5 34.8125 
z
M 19.671875 64.796875 
L 19.671875 42.828125 
L 34.28125 42.828125 
Q 41.5 42.828125 45.03125 45.53125 
Q 48.578125 48.25 48.578125 53.8125 
Q 48.578125 59.328125 45.03125 62.0625 
Q 41.5 64.796875 34.28125 64.796875 
z
M 9.8125 72.90625 
L 35.015625 72.90625 
Q 46.296875 72.90625 52.390625 68.21875 
Q 58.5 63.53125 58.5 54.890625 
Q 58.5 48.1875 55.375 44.234375 
Q 52.25 40.28125 46.1875 39.3125 
Q 53.46875 37.75 57.5 32.78125 
Q 61.53125 27.828125 61.53125 20.40625 
Q 61.53125 10.640625 54.890625 5.3125 
Q 48.25 0 35.984375 0 
L 9.8125 0 
z
" id="DejaVuSans-66"/>
     <path d="M 19.671875 64.796875 
L 19.671875 37.40625 
L 32.078125 37.40625 
Q 38.96875 37.40625 42.71875 40.96875 
Q 46.484375 44.53125 46.484375 51.125 
Q 46.484375 57.671875 42.71875 61.234375 
Q 38.96875 64.796875 32.078125 64.796875 
z
M 9.8125 72.90625 
L 32.078125 72.90625 
Q 44.34375 72.90625 50.609375 67.359375 
Q 56.890625 61.8125 56.890625 51.125 
Q 56.890625 40.328125 50.609375 34.8125 
Q 44.34375 29.296875 32.078125 29.296875 
L 19.671875 29.296875 
L 19.671875 0 
L 9.8125 0 
z
" id="DejaVuSans-80"/>
     <path d="M 54.890625 33.015625 
L 54.890625 0 
L 45.90625 0 
L 45.90625 32.71875 
Q 45.90625 40.484375 42.875 44.328125 
Q 39.84375 48.1875 33.796875 48.1875 
Q 26.515625 48.1875 22.3125 43.546875 
Q 18.109375 38.921875 18.109375 30.90625 
L 18.109375 0 
L 9.078125 0 
L 9.078125 75.984375 
L 18.109375 75.984375 
L 18.109375 46.1875 
Q 21.34375 51.125 25.703125 53.5625 
Q 30.078125 56 35.796875 56 
Q 45.21875 56 50.046875 50.171875 
Q 54.890625 44.34375 54.890625 33.015625 
z
" id="DejaVuSans-104"/>
    </defs>
    <g transform="translate(113.536668 208.875877)scale(0.1 -0.1)">
     <use xlink:href="#DejaVuSans-66"/>
     <use x="68.603516" xlink:href="#DejaVuSans-108"/>
     <use x="96.386719" xlink:href="#DejaVuSans-97"/>
     <use x="157.666016" xlink:href="#DejaVuSans-99"/>
     <use x="212.646484" xlink:href="#DejaVuSans-107"/>
     <use x="270.556641" xlink:href="#DejaVuSans-32"/>
     <use x="302.34375" xlink:href="#DejaVuSans-80"/>
     <use x="358.146484" xlink:href="#DejaVuSans-97"/>
     <use x="419.425781" xlink:href="#DejaVuSans-110"/>
     <use x="482.804688" xlink:href="#DejaVuSans-116"/>
     <use x="522.013672" xlink:href="#DejaVuSans-104"/>
     <use x="585.392578" xlink:href="#DejaVuSans-101"/>
     <use x="646.916016" xlink:href="#DejaVuSans-114"/>
    </g>
   </g>
   <g id="text_21">
    <!-- Avengers: Infinity War -->
    <defs>
     <path d="M 37.109375 75.984375 
L 37.109375 68.5 
L 28.515625 68.5 
Q 23.6875 68.5 21.796875 66.546875 
Q 19.921875 64.59375 19.921875 59.515625 
L 19.921875 54.6875 
L 34.71875 54.6875 
L 34.71875 47.703125 
L 19.921875 47.703125 
L 19.921875 0 
L 10.890625 0 
L 10.890625 47.703125 
L 2.296875 47.703125 
L 2.296875 54.6875 
L 10.890625 54.6875 
L 10.890625 58.5 
Q 10.890625 67.625 15.140625 71.796875 
Q 19.390625 75.984375 28.609375 75.984375 
z
" id="DejaVuSans-102"/>
     <path d="M 32.171875 -5.078125 
Q 28.375 -14.84375 24.75 -17.8125 
Q 21.140625 -20.796875 15.09375 -20.796875 
L 7.90625 -20.796875 
L 7.90625 -13.28125 
L 13.1875 -13.28125 
Q 16.890625 -13.28125 18.9375 -11.515625 
Q 21 -9.765625 23.484375 -3.21875 
L 25.09375 0.875 
L 2.984375 54.6875 
L 12.5 54.6875 
L 29.59375 11.921875 
L 46.6875 54.6875 
L 56.203125 54.6875 
z
" id="DejaVuSans-121"/>
    </defs>
    <g transform="translate(121.735015 223.493355)scale(0.1 -0.1)">
     <use xlink:href="#DejaVuSans-65"/>
     <use x="62.533203" xlink:href="#DejaVuSans-118"/>
     <use x="121.712891" xlink:href="#DejaVuSans-101"/>
     <use x="183.236328" xlink:href="#DejaVuSans-110"/>
     <use x="246.615234" xlink:href="#DejaVuSans-103"/>
     <use x="310.091797" xlink:href="#DejaVuSans-101"/>
     <use x="371.615234" xlink:href="#DejaVuSans-114"/>
     <use x="412.728516" xlink:href="#DejaVuSans-115"/>
     <use x="464.828125" xlink:href="#DejaVuSans-58"/>
     <use x="498.519531" xlink:href="#DejaVuSans-32"/>
     <use x="530.306641" xlink:href="#DejaVuSans-73"/>
     <use x="559.798828" xlink:href="#DejaVuSans-110"/>
     <use x="623.177734" xlink:href="#DejaVuSans-102"/>
     <use x="658.382812" xlink:href="#DejaVuSans-105"/>
     <use x="686.166016" xlink:href="#DejaVuSans-110"/>
     <use x="749.544922" xlink:href="#DejaVuSans-105"/>
     <use x="777.328125" xlink:href="#DejaVuSans-116"/>
     <use x="816.537109" xlink:href="#DejaVuSans-121"/>
     <use x="875.716797" xlink:href="#DejaVuSans-32"/>
     <use x="907.503906" xlink:href="#DejaVuSans-87"/>
     <use x="1000.005859" xlink:href="#DejaVuSans-97"/>
     <use x="1061.285156" xlink:href="#DejaVuSans-114"/>
    </g>
   </g>
   <g id="text_22">
    <!-- Titanic -->
    <g transform="translate(129.933363 236.877432)scale(0.1 -0.1)">
     <use xlink:href="#DejaVuSans-84"/>
     <use x="57.958984" xlink:href="#DejaVuSans-105"/>
     <use x="85.742188" xlink:href="#DejaVuSans-116"/>
     <use x="124.951172" xlink:href="#DejaVuSans-97"/>
     <use x="186.230469" xlink:href="#DejaVuSans-110"/>
     <use x="249.609375" xlink:href="#DejaVuSans-105"/>
     <use x="277.392578" xlink:href="#DejaVuSans-99"/>
    </g>
   </g>
   <g id="text_23">
    <!-- Jurassic World -->
    <defs>
     <path d="M 9.8125 72.90625 
L 19.671875 72.90625 
L 19.671875 5.078125 
Q 19.671875 -8.109375 14.671875 -14.0625 
Q 9.671875 -20.015625 -1.421875 -20.015625 
L -5.171875 -20.015625 
L -5.171875 -11.71875 
L -2.09375 -11.71875 
Q 4.4375 -11.71875 7.125 -8.046875 
Q 9.8125 -4.390625 9.8125 5.078125 
z
" id="DejaVuSans-74"/>
     <path d="M 8.5 21.578125 
L 8.5 54.6875 
L 17.484375 54.6875 
L 17.484375 21.921875 
Q 17.484375 14.15625 20.5 10.265625 
Q 23.53125 6.390625 29.59375 6.390625 
Q 36.859375 6.390625 41.078125 11.03125 
Q 45.3125 15.671875 45.3125 23.6875 
L 45.3125 54.6875 
L 54.296875 54.6875 
L 54.296875 0 
L 45.3125 0 
L 45.3125 8.40625 
Q 42.046875 3.421875 37.71875 1 
Q 33.40625 -1.421875 27.6875 -1.421875 
Q 18.265625 -1.421875 13.375 4.4375 
Q 8.5 10.296875 8.5 21.578125 
z
M 31.109375 56 
z
" id="DejaVuSans-117"/>
    </defs>
    <g transform="translate(138.13171 241.758153)scale(0.1 -0.1)">
     <use xlink:href="#DejaVuSans-74"/>
     <use x="29.492188" xlink:href="#DejaVuSans-117"/>
     <use x="92.871094" xlink:href="#DejaVuSans-114"/>
     <use x="133.984375" xlink:href="#DejaVuSans-97"/>
     <use x="195.263672" xlink:href="#DejaVuSans-115"/>
     <use x="247.363281" xlink:href="#DejaVuSans-115"/>
     <use x="299.462891" xlink:href="#DejaVuSans-105"/>
     <use x="327.246094" xlink:href="#DejaVuSans-99"/>
     <use x="382.226562" xlink:href="#DejaVuSans-32"/>
     <use x="414.013672" xlink:href="#DejaVuSans-87"/>
     <use x="507.015625" xlink:href="#DejaVuSans-111"/>
     <use x="568.197266" xlink:href="#DejaVuSans-114"/>
     <use x="609.310547" xlink:href="#DejaVuSans-108"/>
     <use x="637.09375" xlink:href="#DejaVuSans-100"/>
    </g>
   </g>
   <g id="text_24">
    <!-- The Avengers -->
    <g transform="translate(57.573252 261.652209)scale(0.1 -0.1)">
     <use xlink:href="#DejaVuSans-84"/>
     <use x="61.083984" xlink:href="#DejaVuSans-104"/>
     <use x="124.462891" xlink:href="#DejaVuSans-101"/>
     <use x="185.986328" xlink:href="#DejaVuSans-32"/>
     <use x="217.773438" xlink:href="#DejaVuSans-65"/>
     <use x="280.306641" xlink:href="#DejaVuSans-118"/>
     <use x="339.486328" xlink:href="#DejaVuSans-101"/>
     <use x="401.009766" xlink:href="#DejaVuSans-110"/>
     <use x="464.388672" xlink:href="#DejaVuSans-103"/>
     <use x="527.865234" xlink:href="#DejaVuSans-101"/>
     <use x="589.388672" xlink:href="#DejaVuSans-114"/>
     <use x="630.501953" xlink:href="#DejaVuSans-115"/>
    </g>
   </g>
   <g id="text_25">
    <!-- Star Wars: Episode VIII -->
    <g transform="translate(154.528404 263.837892)scale(0.1 -0.1)">
     <use xlink:href="#DejaVuSans-83"/>
     <use x="63.476562" xlink:href="#DejaVuSans-116"/>
     <use x="102.685547" xlink:href="#DejaVuSans-97"/>
     <use x="163.964844" xlink:href="#DejaVuSans-114"/>
     <use x="205.078125" xlink:href="#DejaVuSans-32"/>
     <use x="236.865234" xlink:href="#DejaVuSans-87"/>
     <use x="329.367188" xlink:href="#DejaVuSans-97"/>
     <use x="390.646484" xlink:href="#DejaVuSans-114"/>
     <use x="431.759766" xlink:href="#DejaVuSans-115"/>
     <use x="483.859375" xlink:href="#DejaVuSans-58"/>
     <use x="517.550781" xlink:href="#DejaVuSans-32"/>
     <use x="549.337891" xlink:href="#DejaVuSans-69"/>
     <use x="612.521484" xlink:href="#DejaVuSans-112"/>
     <use x="675.998047" xlink:href="#DejaVuSans-105"/>
     <use x="703.78125" xlink:href="#DejaVuSans-115"/>
     <use x="755.880859" xlink:href="#DejaVuSans-111"/>
     <use x="817.0625" xlink:href="#DejaVuSans-100"/>
     <use x="880.539062" xlink:href="#DejaVuSans-101"/>
     <use x="942.0625" xlink:href="#DejaVuSans-32"/>
     <use x="973.849609" xlink:href="#DejaVuSans-86"/>
     <use x="1042.257812" xlink:href="#DejaVuSans-73"/>
     <use x="1071.75" xlink:href="#DejaVuSans-73"/>
     <use x="1101.242188" xlink:href="#DejaVuSans-73"/>
    </g>
   </g>
   <g id="text_26">
    <!-- Incredibles 2 -->
    <defs>
     <path d="M 48.6875 27.296875 
Q 48.6875 37.203125 44.609375 42.84375 
Q 40.53125 48.484375 33.40625 48.484375 
Q 26.265625 48.484375 22.1875 42.84375 
Q 18.109375 37.203125 18.109375 27.296875 
Q 18.109375 17.390625 22.1875 11.75 
Q 26.265625 6.109375 33.40625 6.109375 
Q 40.53125 6.109375 44.609375 11.75 
Q 48.6875 17.390625 48.6875 27.296875 
z
M 18.109375 46.390625 
Q 20.953125 51.265625 25.265625 53.625 
Q 29.59375 56 35.59375 56 
Q 45.5625 56 51.78125 48.09375 
Q 58.015625 40.1875 58.015625 27.296875 
Q 58.015625 14.40625 51.78125 6.484375 
Q 45.5625 -1.421875 35.59375 -1.421875 
Q 29.59375 -1.421875 25.265625 0.953125 
Q 20.953125 3.328125 18.109375 8.203125 
L 18.109375 0 
L 9.078125 0 
L 9.078125 75.984375 
L 18.109375 75.984375 
z
" id="DejaVuSans-98"/>
    </defs>
    <g transform="translate(78.249633 271.819289)scale(0.1 -0.1)">
     <use xlink:href="#DejaVuSans-73"/>
     <use x="29.492188" xlink:href="#DejaVuSans-110"/>
     <use x="92.871094" xlink:href="#DejaVuSans-99"/>
     <use x="147.851562" xlink:href="#DejaVuSans-114"/>
     <use x="186.714844" xlink:href="#DejaVuSans-101"/>
     <use x="248.238281" xlink:href="#DejaVuSans-100"/>
     <use x="311.714844" xlink:href="#DejaVuSans-105"/>
     <use x="339.498047" xlink:href="#DejaVuSans-98"/>
     <use x="402.974609" xlink:href="#DejaVuSans-108"/>
     <use x="430.757812" xlink:href="#DejaVuSans-101"/>
     <use x="492.28125" xlink:href="#DejaVuSans-115"/>
     <use x="544.380859" xlink:href="#DejaVuSans-32"/>
     <use x="576.167969" xlink:href="#DejaVuSans-50"/>
    </g>
   </g>
   <g id="text_27">
    <!-- The Lion King -->
    <defs>
     <path d="M 9.8125 72.90625 
L 19.671875 72.90625 
L 19.671875 8.296875 
L 55.171875 8.296875 
L 55.171875 0 
L 9.8125 0 
z
" id="DejaVuSans-76"/>
     <path d="M 9.8125 72.90625 
L 19.671875 72.90625 
L 19.671875 42.09375 
L 52.390625 72.90625 
L 65.09375 72.90625 
L 28.90625 38.921875 
L 67.671875 0 
L 54.6875 0 
L 19.671875 35.109375 
L 19.671875 0 
L 9.8125 0 
z
" id="DejaVuSans-75"/>
    </defs>
    <g transform="translate(170.925098 316.50529)scale(0.1 -0.1)">
     <use xlink:href="#DejaVuSans-84"/>
     <use x="61.083984" xlink:href="#DejaVuSans-104"/>
     <use x="124.462891" xlink:href="#DejaVuSans-101"/>
     <use x="185.986328" xlink:href="#DejaVuSans-32"/>
     <use x="217.773438" xlink:href="#DejaVuSans-76"/>
     <use x="273.486328" xlink:href="#DejaVuSans-105"/>
     <use x="301.269531" xlink:href="#DejaVuSans-111"/>
     <use x="362.451172" xlink:href="#DejaVuSans-110"/>
     <use x="425.830078" xlink:href="#DejaVuSans-32"/>
     <use x="457.617188" xlink:href="#DejaVuSans-75"/>
     <use x="523.193359" xlink:href="#DejaVuSans-105"/>
     <use x="550.976562" xlink:href="#DejaVuSans-110"/>
     <use x="614.355469" xlink:href="#DejaVuSans-103"/>
    </g>
   </g>
   <g id="text_28">
    <!-- The Dark Knight -->
    <g transform="translate(77.663515 322.287862)scale(0.1 -0.1)">
     <use xlink:href="#DejaVuSans-84"/>
     <use x="61.083984" xlink:href="#DejaVuSans-104"/>
     <use x="124.462891" xlink:href="#DejaVuSans-101"/>
     <use x="185.986328" xlink:href="#DejaVuSans-32"/>
     <use x="217.773438" xlink:href="#DejaVuSans-68"/>
     <use x="294.775391" xlink:href="#DejaVuSans-97"/>
     <use x="356.054688" xlink:href="#DejaVuSans-114"/>
     <use x="397.167969" xlink:href="#DejaVuSans-107"/>
     <use x="455.078125" xlink:href="#DejaVuSans-32"/>
     <use x="486.865234" xlink:href="#DejaVuSans-75"/>
     <use x="552.441406" xlink:href="#DejaVuSans-110"/>
     <use x="615.820312" xlink:href="#DejaVuSans-105"/>
     <use x="643.603516" xlink:href="#DejaVuSans-103"/>
     <use x="707.080078" xlink:href="#DejaVuSans-104"/>
     <use x="770.458984" xlink:href="#DejaVuSans-116"/>
    </g>
   </g>
   <g id="text_29">
    <!-- Rogue One: A Star Wars Story -->
    <defs>
     <path d="M 39.40625 66.21875 
Q 28.65625 66.21875 22.328125 58.203125 
Q 16.015625 50.203125 16.015625 36.375 
Q 16.015625 22.609375 22.328125 14.59375 
Q 28.65625 6.59375 39.40625 6.59375 
Q 50.140625 6.59375 56.421875 14.59375 
Q 62.703125 22.609375 62.703125 36.375 
Q 62.703125 50.203125 56.421875 58.203125 
Q 50.140625 66.21875 39.40625 66.21875 
z
M 39.40625 74.21875 
Q 54.734375 74.21875 63.90625 63.9375 
Q 73.09375 53.65625 73.09375 36.375 
Q 73.09375 19.140625 63.90625 8.859375 
Q 54.734375 -1.421875 39.40625 -1.421875 
Q 24.03125 -1.421875 14.8125 8.828125 
Q 5.609375 19.09375 5.609375 36.375 
Q 5.609375 53.65625 14.8125 63.9375 
Q 24.03125 74.21875 39.40625 74.21875 
z
" id="DejaVuSans-79"/>
    </defs>
    <g transform="translate(187.321792 324.391101)scale(0.1 -0.1)">
     <use xlink:href="#DejaVuSans-82"/>
     <use x="64.982422" xlink:href="#DejaVuSans-111"/>
     <use x="126.164062" xlink:href="#DejaVuSans-103"/>
     <use x="189.640625" xlink:href="#DejaVuSans-117"/>
     <use x="253.019531" xlink:href="#DejaVuSans-101"/>
     <use x="314.542969" xlink:href="#DejaVuSans-32"/>
     <use x="346.330078" xlink:href="#DejaVuSans-79"/>
     <use x="425.041016" xlink:href="#DejaVuSans-110"/>
     <use x="488.419922" xlink:href="#DejaVuSans-101"/>
     <use x="549.943359" xlink:href="#DejaVuSans-58"/>
     <use x="583.634766" xlink:href="#DejaVuSans-32"/>
     <use x="615.421875" xlink:href="#DejaVuSans-65"/>
     <use x="683.830078" xlink:href="#DejaVuSans-32"/>
     <use x="715.617188" xlink:href="#DejaVuSans-83"/>
     <use x="779.09375" xlink:href="#DejaVuSans-116"/>
     <use x="818.302734" xlink:href="#DejaVuSans-97"/>
     <use x="879.582031" xlink:href="#DejaVuSans-114"/>
     <use x="920.695312" xlink:href="#DejaVuSans-32"/>
     <use x="952.482422" xlink:href="#DejaVuSans-87"/>
     <use x="1044.984375" xlink:href="#DejaVuSans-97"/>
     <use x="1106.263672" xlink:href="#DejaVuSans-114"/>
     <use x="1147.376953" xlink:href="#DejaVuSans-115"/>
     <use x="1199.476562" xlink:href="#DejaVuSans-32"/>
     <use x="1231.263672" xlink:href="#DejaVuSans-83"/>
     <use x="1294.740234" xlink:href="#DejaVuSans-116"/>
     <use x="1333.949219" xlink:href="#DejaVuSans-111"/>
     <use x="1395.130859" xlink:href="#DejaVuSans-114"/>
     <use x="1436.244141" xlink:href="#DejaVuSans-121"/>
    </g>
   </g>
   <g id="text_30">
    <!-- Star Wars: Episode IX -->
    <defs>
     <path d="M 6.296875 72.90625 
L 16.890625 72.90625 
L 35.015625 45.796875 
L 53.21875 72.90625 
L 63.8125 72.90625 
L 40.375 37.890625 
L 65.375 0 
L 54.78125 0 
L 34.28125 31 
L 13.625 0 
L 2.984375 0 
L 29 38.921875 
z
" id="DejaVuSans-88"/>
    </defs>
    <g transform="translate(67.839897 336.070989)scale(0.1 -0.1)">
     <use xlink:href="#DejaVuSans-83"/>
     <use x="63.476562" xlink:href="#DejaVuSans-116"/>
     <use x="102.685547" xlink:href="#DejaVuSans-97"/>
     <use x="163.964844" xlink:href="#DejaVuSans-114"/>
     <use x="205.078125" xlink:href="#DejaVuSans-32"/>
     <use x="236.865234" xlink:href="#DejaVuSans-87"/>
     <use x="329.367188" xlink:href="#DejaVuSans-97"/>
     <use x="390.646484" xlink:href="#DejaVuSans-114"/>
     <use x="431.759766" xlink:href="#DejaVuSans-115"/>
     <use x="483.859375" xlink:href="#DejaVuSans-58"/>
     <use x="517.550781" xlink:href="#DejaVuSans-32"/>
     <use x="549.337891" xlink:href="#DejaVuSans-69"/>
     <use x="612.521484" xlink:href="#DejaVuSans-112"/>
     <use x="675.998047" xlink:href="#DejaVuSans-105"/>
     <use x="703.78125" xlink:href="#DejaVuSans-115"/>
     <use x="755.880859" xlink:href="#DejaVuSans-111"/>
     <use x="817.0625" xlink:href="#DejaVuSans-100"/>
     <use x="880.539062" xlink:href="#DejaVuSans-101"/>
     <use x="942.0625" xlink:href="#DejaVuSans-32"/>
     <use x="973.849609" xlink:href="#DejaVuSans-73"/>
     <use x="1003.341797" xlink:href="#DejaVuSans-88"/>
    </g>
   </g>
   <g id="text_31">
    <!-- Beauty and the Beast -->
    <g transform="translate(203.718487 343.769408)scale(0.1 -0.1)">
     <use xlink:href="#DejaVuSans-66"/>
     <use x="68.603516" xlink:href="#DejaVuSans-101"/>
     <use x="130.126953" xlink:href="#DejaVuSans-97"/>
     <use x="191.40625" xlink:href="#DejaVuSans-117"/>
     <use x="254.785156" xlink:href="#DejaVuSans-116"/>
     <use x="293.994141" xlink:href="#DejaVuSans-121"/>
     <use x="353.173828" xlink:href="#DejaVuSans-32"/>
     <use x="384.960938" xlink:href="#DejaVuSans-97"/>
     <use x="446.240234" xlink:href="#DejaVuSans-110"/>
     <use x="509.619141" xlink:href="#DejaVuSans-100"/>
     <use x="573.095703" xlink:href="#DejaVuSans-32"/>
     <use x="604.882812" xlink:href="#DejaVuSans-116"/>
     <use x="644.091797" xlink:href="#DejaVuSans-104"/>
     <use x="707.470703" xlink:href="#DejaVuSans-101"/>
     <use x="768.994141" xlink:href="#DejaVuSans-32"/>
     <use x="800.78125" xlink:href="#DejaVuSans-66"/>
     <use x="869.384766" xlink:href="#DejaVuSans-101"/>
     <use x="930.908203" xlink:href="#DejaVuSans-97"/>
     <use x="992.1875" xlink:href="#DejaVuSans-115"/>
     <use x="1044.287109" xlink:href="#DejaVuSans-116"/>
    </g>
   </g>
   <g id="text_32">
    <!-- Finding Dory -->
    <defs>
     <path d="M 9.8125 72.90625 
L 51.703125 72.90625 
L 51.703125 64.59375 
L 19.671875 64.59375 
L 19.671875 43.109375 
L 48.578125 43.109375 
L 48.578125 34.8125 
L 19.671875 34.8125 
L 19.671875 0 
L 9.8125 0 
z
" id="DejaVuSans-70"/>
    </defs>
    <g transform="translate(128.439716 355.961099)scale(0.1 -0.1)">
     <use xlink:href="#DejaVuSans-70"/>
     <use x="50.269531" xlink:href="#DejaVuSans-105"/>
     <use x="78.052734" xlink:href="#DejaVuSans-110"/>
     <use x="141.431641" xlink:href="#DejaVuSans-100"/>
     <use x="204.908203" xlink:href="#DejaVuSans-105"/>
     <use x="232.691406" xlink:href="#DejaVuSans-110"/>
     <use x="296.070312" xlink:href="#DejaVuSans-103"/>
     <use x="359.546875" xlink:href="#DejaVuSans-32"/>
     <use x="391.333984" xlink:href="#DejaVuSans-68"/>
     <use x="468.335938" xlink:href="#DejaVuSans-111"/>
     <use x="529.517578" xlink:href="#DejaVuSans-114"/>
     <use x="570.630859" xlink:href="#DejaVuSans-121"/>
    </g>
   </g>
   <g id="text_33">
    <!-- Frozen II -->
    <defs>
     <path d="M 5.515625 54.6875 
L 48.1875 54.6875 
L 48.1875 46.484375 
L 14.40625 7.171875 
L 48.1875 7.171875 
L 48.1875 0 
L 4.296875 0 
L 4.296875 8.203125 
L 38.09375 47.515625 
L 5.515625 47.515625 
z
" id="DejaVuSans-122"/>
    </defs>
    <g transform="translate(220.115181 362.100074)scale(0.1 -0.1)">
     <use xlink:href="#DejaVuSans-70"/>
     <use x="50.269531" xlink:href="#DejaVuSans-114"/>
     <use x="89.132812" xlink:href="#DejaVuSans-111"/>
     <use x="150.314453" xlink:href="#DejaVuSans-122"/>
     <use x="202.804688" xlink:href="#DejaVuSans-101"/>
     <use x="264.328125" xlink:href="#DejaVuSans-110"/>
     <use x="327.707031" xlink:href="#DejaVuSans-32"/>
     <use x="359.494141" xlink:href="#DejaVuSans-73"/>
     <use x="388.986328" xlink:href="#DejaVuSans-73"/>
    </g>
   </g>
   <g id="text_34">
    <!-- Star Wars: Episode I -->
    <g transform="translate(107.483285 364.046564)scale(0.1 -0.1)">
     <use xlink:href="#DejaVuSans-83"/>
     <use x="63.476562" xlink:href="#DejaVuSans-116"/>
     <use x="102.685547" xlink:href="#DejaVuSans-97"/>
     <use x="163.964844" xlink:href="#DejaVuSans-114"/>
     <use x="205.078125" xlink:href="#DejaVuSans-32"/>
     <use x="236.865234" xlink:href="#DejaVuSans-87"/>
     <use x="329.367188" xlink:href="#DejaVuSans-97"/>
     <use x="390.646484" xlink:href="#DejaVuSans-114"/>
     <use x="431.759766" xlink:href="#DejaVuSans-115"/>
     <use x="483.859375" xlink:href="#DejaVuSans-58"/>
     <use x="517.550781" xlink:href="#DejaVuSans-32"/>
     <use x="549.337891" xlink:href="#DejaVuSans-69"/>
     <use x="612.521484" xlink:href="#DejaVuSans-112"/>
     <use x="675.998047" xlink:href="#DejaVuSans-105"/>
     <use x="703.78125" xlink:href="#DejaVuSans-115"/>
     <use x="755.880859" xlink:href="#DejaVuSans-111"/>
     <use x="817.0625" xlink:href="#DejaVuSans-100"/>
     <use x="880.539062" xlink:href="#DejaVuSans-101"/>
     <use x="942.0625" xlink:href="#DejaVuSans-32"/>
     <use x="973.849609" xlink:href="#DejaVuSans-73"/>
    </g>
   </g>
   <g id="text_35">
    <!-- Star Wars: Episode IV -->
    <g transform="translate(236.511875 373.367317)scale(0.1 -0.1)">
     <use xlink:href="#DejaVuSans-83"/>
     <use x="63.476562" xlink:href="#DejaVuSans-116"/>
     <use x="102.685547" xlink:href="#DejaVuSans-97"/>
     <use x="163.964844" xlink:href="#DejaVuSans-114"/>
     <use x="205.078125" xlink:href="#DejaVuSans-32"/>
     <use x="236.865234" xlink:href="#DejaVuSans-87"/>
     <use x="329.367188" xlink:href="#DejaVuSans-97"/>
     <use x="390.646484" xlink:href="#DejaVuSans-114"/>
     <use x="431.759766" xlink:href="#DejaVuSans-115"/>
     <use x="483.859375" xlink:href="#DejaVuSans-58"/>
     <use x="517.550781" xlink:href="#DejaVuSans-32"/>
     <use x="549.337891" xlink:href="#DejaVuSans-69"/>
     <use x="612.521484" xlink:href="#DejaVuSans-112"/>
     <use x="675.998047" xlink:href="#DejaVuSans-105"/>
     <use x="703.78125" xlink:href="#DejaVuSans-115"/>
     <use x="755.880859" xlink:href="#DejaVuSans-111"/>
     <use x="817.0625" xlink:href="#DejaVuSans-100"/>
     <use x="880.539062" xlink:href="#DejaVuSans-101"/>
     <use x="942.0625" xlink:href="#DejaVuSans-32"/>
     <use x="973.849609" xlink:href="#DejaVuSans-73"/>
     <use x="1003.341797" xlink:href="#DejaVuSans-86"/>
    </g>
   </g>
   <g id="text_36">
    <!-- Avengers: Age of Ultron -->
    <defs>
     <path d="M 8.6875 72.90625 
L 18.609375 72.90625 
L 18.609375 28.609375 
Q 18.609375 16.890625 22.84375 11.734375 
Q 27.09375 6.59375 36.625 6.59375 
Q 46.09375 6.59375 50.34375 11.734375 
Q 54.59375 16.890625 54.59375 28.609375 
L 54.59375 72.90625 
L 64.5 72.90625 
L 64.5 27.390625 
Q 64.5 13.140625 57.4375 5.859375 
Q 50.390625 -1.421875 36.625 -1.421875 
Q 22.796875 -1.421875 15.734375 5.859375 
Q 8.6875 13.140625 8.6875 27.390625 
z
" id="DejaVuSans-85"/>
    </defs>
    <g transform="translate(105.486229 374.738398)scale(0.1 -0.1)">
     <use xlink:href="#DejaVuSans-65"/>
     <use x="62.533203" xlink:href="#DejaVuSans-118"/>
     <use x="121.712891" xlink:href="#DejaVuSans-101"/>
     <use x="183.236328" xlink:href="#DejaVuSans-110"/>
     <use x="246.615234" xlink:href="#DejaVuSans-103"/>
     <use x="310.091797" xlink:href="#DejaVuSans-101"/>
     <use x="371.615234" xlink:href="#DejaVuSans-114"/>
     <use x="412.728516" xlink:href="#DejaVuSans-115"/>
     <use x="464.828125" xlink:href="#DejaVuSans-58"/>
     <use x="498.519531" xlink:href="#DejaVuSans-32"/>
     <use x="530.306641" xlink:href="#DejaVuSans-65"/>
     <use x="598.714844" xlink:href="#DejaVuSans-103"/>
     <use x="662.191406" xlink:href="#DejaVuSans-101"/>
     <use x="723.714844" xlink:href="#DejaVuSans-32"/>
     <use x="755.501953" xlink:href="#DejaVuSans-111"/>
     <use x="816.683594" xlink:href="#DejaVuSans-102"/>
     <use x="851.888672" xlink:href="#DejaVuSans-32"/>
     <use x="883.675781" xlink:href="#DejaVuSans-85"/>
     <use x="956.869141" xlink:href="#DejaVuSans-108"/>
     <use x="984.652344" xlink:href="#DejaVuSans-116"/>
     <use x="1023.861328" xlink:href="#DejaVuSans-114"/>
     <use x="1062.724609" xlink:href="#DejaVuSans-111"/>
     <use x="1123.90625" xlink:href="#DejaVuSans-110"/>
    </g>
   </g>
   <g id="text_37">
    <!-- The Dark Knight Rises -->
    <g transform="translate(252.908569 382.215528)scale(0.1 -0.1)">
     <use xlink:href="#DejaVuSans-84"/>
     <use x="61.083984" xlink:href="#DejaVuSans-104"/>
     <use x="124.462891" xlink:href="#DejaVuSans-101"/>
     <use x="185.986328" xlink:href="#DejaVuSans-32"/>
     <use x="217.773438" xlink:href="#DejaVuSans-68"/>
     <use x="294.775391" xlink:href="#DejaVuSans-97"/>
     <use x="356.054688" xlink:href="#DejaVuSans-114"/>
     <use x="397.167969" xlink:href="#DejaVuSans-107"/>
     <use x="455.078125" xlink:href="#DejaVuSans-32"/>
     <use x="486.865234" xlink:href="#DejaVuSans-75"/>
     <use x="552.441406" xlink:href="#DejaVuSans-110"/>
     <use x="615.820312" xlink:href="#DejaVuSans-105"/>
     <use x="643.603516" xlink:href="#DejaVuSans-103"/>
     <use x="707.080078" xlink:href="#DejaVuSans-104"/>
     <use x="770.458984" xlink:href="#DejaVuSans-116"/>
     <use x="809.667969" xlink:href="#DejaVuSans-32"/>
     <use x="841.455078" xlink:href="#DejaVuSans-82"/>
     <use x="910.9375" xlink:href="#DejaVuSans-105"/>
     <use x="938.720703" xlink:href="#DejaVuSans-115"/>
     <use x="990.820312" xlink:href="#DejaVuSans-101"/>
     <use x="1052.34375" xlink:href="#DejaVuSans-115"/>
    </g>
   </g>
   <g id="text_38">
    <!-- Shrek 2 -->
    <g transform="translate(202.554799 386.972074)scale(0.1 -0.1)">
     <use xlink:href="#DejaVuSans-83"/>
     <use x="63.476562" xlink:href="#DejaVuSans-104"/>
     <use x="126.855469" xlink:href="#DejaVuSans-114"/>
     <use x="165.71875" xlink:href="#DejaVuSans-101"/>
     <use x="227.242188" xlink:href="#DejaVuSans-107"/>
     <use x="285.152344" xlink:href="#DejaVuSans-32"/>
     <use x="316.939453" xlink:href="#DejaVuSans-50"/>
    </g>
   </g>
   <g id="text_39">
    <!-- The Passion of the Christ -->
    <defs>
     <path d="M 64.40625 67.28125 
L 64.40625 56.890625 
Q 59.421875 61.53125 53.78125 63.8125 
Q 48.140625 66.109375 41.796875 66.109375 
Q 29.296875 66.109375 22.65625 58.46875 
Q 16.015625 50.828125 16.015625 36.375 
Q 16.015625 21.96875 22.65625 14.328125 
Q 29.296875 6.6875 41.796875 6.6875 
Q 48.140625 6.6875 53.78125 8.984375 
Q 59.421875 11.28125 64.40625 15.921875 
L 64.40625 5.609375 
Q 59.234375 2.09375 53.4375 0.328125 
Q 47.65625 -1.421875 41.21875 -1.421875 
Q 24.65625 -1.421875 15.125 8.703125 
Q 5.609375 18.84375 5.609375 36.375 
Q 5.609375 53.953125 15.125 64.078125 
Q 24.65625 74.21875 41.21875 74.21875 
Q 47.75 74.21875 53.53125 72.484375 
Q 59.328125 70.75 64.40625 67.28125 
z
" id="DejaVuSans-67"/>
    </defs>
    <g transform="translate(323.558376 443.011015)scale(0.1 -0.1)">
     <use xlink:href="#DejaVuSans-84"/>
     <use x="61.083984" xlink:href="#DejaVuSans-104"/>
     <use x="124.462891" xlink:href="#DejaVuSans-101"/>
     <use x="185.986328" xlink:href="#DejaVuSans-32"/>
     <use x="217.773438" xlink:href="#DejaVuSans-80"/>
     <use x="273.576172" xlink:href="#DejaVuSans-97"/>
     <use x="334.855469" xlink:href="#DejaVuSans-115"/>
     <use x="386.955078" xlink:href="#DejaVuSans-115"/>
     <use x="439.054688" xlink:href="#DejaVuSans-105"/>
     <use x="466.837891" xlink:href="#DejaVuSans-111"/>
     <use x="528.019531" xlink:href="#DejaVuSans-110"/>
     <use x="591.398438" xlink:href="#DejaVuSans-32"/>
     <use x="623.185547" xlink:href="#DejaVuSans-111"/>
     <use x="684.367188" xlink:href="#DejaVuSans-102"/>
     <use x="719.572266" xlink:href="#DejaVuSans-32"/>
     <use x="751.359375" xlink:href="#DejaVuSans-116"/>
     <use x="790.568359" xlink:href="#DejaVuSans-104"/>
     <use x="853.947266" xlink:href="#DejaVuSans-101"/>
     <use x="915.470703" xlink:href="#DejaVuSans-32"/>
     <use x="947.257812" xlink:href="#DejaVuSans-67"/>
     <use x="1017.082031" xlink:href="#DejaVuSans-104"/>
     <use x="1080.460938" xlink:href="#DejaVuSans-114"/>
     <use x="1121.574219" xlink:href="#DejaVuSans-105"/>
     <use x="1149.357422" xlink:href="#DejaVuSans-115"/>
     <use x="1201.457031" xlink:href="#DejaVuSans-116"/>
    </g>
   </g>
   <g id="text_40">
    <!-- Deadpool -->
    <g transform="translate(496.809396 440.748783)scale(0.1 -0.1)">
     <use xlink:href="#DejaVuSans-68"/>
     <use x="77.001953" xlink:href="#DejaVuSans-101"/>
     <use x="138.525391" xlink:href="#DejaVuSans-97"/>
     <use x="199.804688" xlink:href="#DejaVuSans-100"/>
     <use x="263.28125" xlink:href="#DejaVuSans-112"/>
     <use x="326.757812" xlink:href="#DejaVuSans-111"/>
     <use x="387.939453" xlink:href="#DejaVuSans-111"/>
     <use x="449.121094" xlink:href="#DejaVuSans-108"/>
    </g>
   </g>
   <g id="text_41">
    <!-- Top 100 Highest Grossing Movies, 1980-2020 -->
    <defs>
     <path d="M 9.8125 72.90625 
L 19.671875 72.90625 
L 19.671875 43.015625 
L 55.515625 43.015625 
L 55.515625 72.90625 
L 65.375 72.90625 
L 65.375 0 
L 55.515625 0 
L 55.515625 34.71875 
L 19.671875 34.71875 
L 19.671875 0 
L 9.8125 0 
z
" id="DejaVuSans-72"/>
     <path d="M 11.71875 12.40625 
L 22.015625 12.40625 
L 22.015625 4 
L 14.015625 -11.625 
L 7.71875 -11.625 
L 11.71875 4 
z
" id="DejaVuSans-44"/>
     <path d="M 4.890625 31.390625 
L 31.203125 31.390625 
L 31.203125 23.390625 
L 4.890625 23.390625 
z
" id="DejaVuSans-45"/>
    </defs>
    <g transform="translate(326.137969 17.837812)scale(0.14 -0.14)">
     <use xlink:href="#DejaVuSans-84"/>
     <use x="44.083984" xlink:href="#DejaVuSans-111"/>
     <use x="105.265625" xlink:href="#DejaVuSans-112"/>
     <use x="168.742188" xlink:href="#DejaVuSans-32"/>
     <use x="200.529297" xlink:href="#DejaVuSans-49"/>
     <use x="264.152344" xlink:href="#DejaVuSans-48"/>
     <use x="327.775391" xlink:href="#DejaVuSans-48"/>
     <use x="391.398438" xlink:href="#DejaVuSans-32"/>
     <use x="423.185547" xlink:href="#DejaVuSans-72"/>
     <use x="498.380859" xlink:href="#DejaVuSans-105"/>
     <use x="526.164062" xlink:href="#DejaVuSans-103"/>
     <use x="589.640625" xlink:href="#DejaVuSans-104"/>
     <use x="653.019531" xlink:href="#DejaVuSans-101"/>
     <use x="714.542969" xlink:href="#DejaVuSans-115"/>
     <use x="766.642578" xlink:href="#DejaVuSans-116"/>
     <use x="805.851562" xlink:href="#DejaVuSans-32"/>
     <use x="837.638672" xlink:href="#DejaVuSans-71"/>
     <use x="915.128906" xlink:href="#DejaVuSans-114"/>
     <use x="953.992188" xlink:href="#DejaVuSans-111"/>
     <use x="1015.173828" xlink:href="#DejaVuSans-115"/>
     <use x="1067.273438" xlink:href="#DejaVuSans-115"/>
     <use x="1119.373047" xlink:href="#DejaVuSans-105"/>
     <use x="1147.15625" xlink:href="#DejaVuSans-110"/>
     <use x="1210.535156" xlink:href="#DejaVuSans-103"/>
     <use x="1274.011719" xlink:href="#DejaVuSans-32"/>
     <use x="1305.798828" xlink:href="#DejaVuSans-77"/>
     <use x="1392.078125" xlink:href="#DejaVuSans-111"/>
     <use x="1453.259766" xlink:href="#DejaVuSans-118"/>
     <use x="1512.439453" xlink:href="#DejaVuSans-105"/>
     <use x="1540.222656" xlink:href="#DejaVuSans-101"/>
     <use x="1601.746094" xlink:href="#DejaVuSans-115"/>
     <use x="1653.845703" xlink:href="#DejaVuSans-44"/>
     <use x="1685.632812" xlink:href="#DejaVuSans-32"/>
     <use x="1717.419922" xlink:href="#DejaVuSans-49"/>
     <use x="1781.042969" xlink:href="#DejaVuSans-57"/>
     <use x="1844.666016" xlink:href="#DejaVuSans-56"/>
     <use x="1908.289062" xlink:href="#DejaVuSans-48"/>
     <use x="1971.912109" xlink:href="#DejaVuSans-45"/>
     <use x="2007.996094" xlink:href="#DejaVuSans-50"/>
     <use x="2071.619141" xlink:href="#DejaVuSans-48"/>
     <use x="2135.242188" xlink:href="#DejaVuSans-50"/>
     <use x="2198.865234" xlink:href="#DejaVuSans-48"/>
    </g>
   </g>
   <g id="legend_1">
    <g id="patch_7">
     <path d="M 452.393906 105.228437 
L 516.629844 105.228437 
Q 518.629844 105.228437 518.629844 103.228437 
L 518.629844 30.837812 
Q 518.629844 28.837812 516.629844 28.837812 
L 452.393906 28.837812 
Q 450.393906 28.837812 450.393906 30.837812 
L 450.393906 103.228437 
Q 450.393906 105.228437 452.393906 105.228437 
z
" style="fill:#ffffff;opacity:0.8;stroke:#cccccc;stroke-linejoin:miter;"/>
    </g>
    <g id="PathCollection_7">
     <defs>
      <path id="m5df4d578fb" style="stroke:#ffffff;stroke-width:1.5;"/>
     </defs>
     <g>
      <use style="fill:#ffffff;stroke:#ffffff;stroke-width:1.5;" x="464.393906" xlink:href="#m5df4d578fb" y="37.81125"/>
     </g>
    </g>
    <g id="text_42">
     <!-- Rating -->
     <g transform="translate(482.393906 40.43625)scale(0.1 -0.1)">
      <use xlink:href="#DejaVuSans-82"/>
      <use x="67.232422" xlink:href="#DejaVuSans-97"/>
      <use x="128.511719" xlink:href="#DejaVuSans-116"/>
      <use x="167.720703" xlink:href="#DejaVuSans-105"/>
      <use x="195.503906" xlink:href="#DejaVuSans-110"/>
      <use x="258.882812" xlink:href="#DejaVuSans-103"/>
     </g>
    </g>
    <g id="PathCollection_8">
     <defs>
      <path d="M 0 3 
C 0.795609 3 1.55874 2.683901 2.12132 2.12132 
C 2.683901 1.55874 3 0.795609 3 0 
C 3 -0.795609 2.683901 -1.55874 2.12132 -2.12132 
C 1.55874 -2.683901 0.795609 -3 0 -3 
C -0.795609 -3 -1.55874 -2.683901 -2.12132 -2.12132 
C -2.683901 -1.55874 -3 -0.795609 -3 0 
C -3 0.795609 -2.683901 1.55874 -2.12132 2.12132 
C -1.55874 2.683901 -0.795609 3 0 3 
z
" id="m38a92ae245" style="stroke:#1f77b4;"/>
     </defs>
     <g>
      <use style="fill:#1f77b4;stroke:#1f77b4;" x="464.393906" xlink:href="#m38a92ae245" y="52.489375"/>
     </g>
    </g>
    <g id="text_43">
     <!-- PG-13 -->
     <g transform="translate(482.393906 55.114375)scale(0.1 -0.1)">
      <use xlink:href="#DejaVuSans-80"/>
      <use x="60.302734" xlink:href="#DejaVuSans-71"/>
      <use x="137.792969" xlink:href="#DejaVuSans-45"/>
      <use x="173.876953" xlink:href="#DejaVuSans-49"/>
      <use x="237.5" xlink:href="#DejaVuSans-51"/>
     </g>
    </g>
    <g id="PathCollection_9">
     <defs>
      <path d="M 0 3 
C 0.795609 3 1.55874 2.683901 2.12132 2.12132 
C 2.683901 1.55874 3 0.795609 3 0 
C 3 -0.795609 2.683901 -1.55874 2.12132 -2.12132 
C 1.55874 -2.683901 0.795609 -3 0 -3 
C -0.795609 -3 -1.55874 -2.683901 -2.12132 -2.12132 
C -2.683901 -1.55874 -3 -0.795609 -3 0 
C -3 0.795609 -2.683901 1.55874 -2.12132 2.12132 
C -1.55874 2.683901 -0.795609 3 0 3 
z
" id="m44b46cdf42" style="stroke:#ff7f0e;"/>
     </defs>
     <g>
      <use style="fill:#ff7f0e;stroke:#ff7f0e;" x="464.393906" xlink:href="#m44b46cdf42" y="67.1675"/>
     </g>
    </g>
    <g id="text_44">
     <!-- PG -->
     <g transform="translate(482.393906 69.7925)scale(0.1 -0.1)">
      <use xlink:href="#DejaVuSans-80"/>
      <use x="60.302734" xlink:href="#DejaVuSans-71"/>
     </g>
    </g>
    <g id="PathCollection_10">
     <defs>
      <path d="M 0 3 
C 0.795609 3 1.55874 2.683901 2.12132 2.12132 
C 2.683901 1.55874 3 0.795609 3 0 
C 3 -0.795609 2.683901 -1.55874 2.12132 -2.12132 
C 1.55874 -2.683901 0.795609 -3 0 -3 
C -0.795609 -3 -1.55874 -2.683901 -2.12132 -2.12132 
C -2.683901 -1.55874 -3 -0.795609 -3 0 
C -3 0.795609 -2.683901 1.55874 -2.12132 2.12132 
C -1.55874 2.683901 -0.795609 3 0 3 
z
" id="m430bc39851" style="stroke:#2ca02c;"/>
     </defs>
     <g>
      <use style="fill:#2ca02c;stroke:#2ca02c;" x="464.393906" xlink:href="#m430bc39851" y="81.845625"/>
     </g>
    </g>
    <g id="text_45">
     <!-- G -->
     <g transform="translate(482.393906 84.470625)scale(0.1 -0.1)">
      <use xlink:href="#DejaVuSans-71"/>
     </g>
    </g>
    <g id="PathCollection_11">
     <defs>
      <path d="M 0 3 
C 0.795609 3 1.55874 2.683901 2.12132 2.12132 
C 2.683901 1.55874 3 0.795609 3 0 
C 3 -0.795609 2.683901 -1.55874 2.12132 -2.12132 
C 1.55874 -2.683901 0.795609 -3 0 -3 
C -0.795609 -3 -1.55874 -2.683901 -2.12132 -2.12132 
C -2.683901 -1.55874 -3 -0.795609 -3 0 
C -3 0.795609 -2.683901 1.55874 -2.12132 2.12132 
C -1.55874 2.683901 -0.795609 3 0 3 
z
" id="m42ec1ee3a6" style="stroke:#d62728;"/>
     </defs>
     <g>
      <use style="fill:#d62728;stroke:#d62728;" x="464.393906" xlink:href="#m42ec1ee3a6" y="96.52375"/>
     </g>
    </g>
    <g id="text_46">
     <!-- R -->
     <g transform="translate(482.393906 99.14875)scale(0.1 -0.1)">
      <use xlink:href="#DejaVuSans-82"/>
     </g>
    </g>
   </g>
  </g>
 </g>
 <defs>
  <clipPath id="p70b1f4f70a">
   <rect height="489.24" width="892.8" x="38.111875" y="23.837812"/>
  </clipPath>
 </defs>
</svg>
