<?xml version="1.0" encoding="utf-8" standalone="no"?>
<!DOCTYPE svg PUBLIC "-//W3C//DTD SVG 1.1//EN"
  "http://www.w3.org/Graphics/SVG/1.1/DTD/svg11.dtd">
<!-- Created with matplotlib (https://matplotlib.org/) -->
<svg height="576pt" version="1.1" viewBox="0 0 864 576" width="864pt" xmlns="http://www.w3.org/2000/svg" xmlns:xlink="http://www.w3.org/1999/xlink">
 <defs>
  <style type="text/css">
*{stroke-linecap:butt;stroke-linejoin:round;}
  </style>
 </defs>
 <g id="figure_1">
  <g id="patch_1">
   <path d="M 0 576 
L 864 576 
L 864 0 
L 0 0 
z
" style="fill:#ffffff;"/>
  </g>
  <g id="axes_1">
   <g id="patch_2">
    <path d="M 108 504 
L 777.6 504 
L 777.6 69.12 
L 108 69.12 
z
" style="fill:#ffffff;"/>
   </g>
   <g id="PathCollection_1">
    <defs>
     <path d="M 0 3 
C 0.795609 3 1.55874 2.683901 2.12132 2.12132 
C 2.683901 1.55874 3 0.795609 3 0 
C 3 -0.795609 2.683901 -1.55874 2.12132 -2.12132 
C 1.55874 -2.683901 0.795609 -3 0 -3 
C -0.795609 -3 -1.55874 -2.683901 -2.12132 -2.12132 
C -2.683901 -1.55874 -3 -0.795609 -3 0 
C -3 0.795609 -2.683901 1.55874 -2.12132 2.12132 
C -1.55874 2.683901 -0.795609 3 0 3 
z
" id="m9f080ac7c8" style="stroke:#ffffff;stroke-width:0.75;"/>
    </defs>
    <g clip-path="url(#p556c0a4b04)">
     <use style="fill:#1f77b4;stroke:#ffffff;stroke-width:0.75;" x="747.163636" xlink:href="#m9f080ac7c8" y="79.726829"/>
     <use style="fill:#1f77b4;stroke:#ffffff;stroke-width:0.75;" x="715.01964" xlink:href="#m9f080ac7c8" y="90.333659"/>
     <use style="fill:#1f77b4;stroke:#ffffff;stroke-width:0.75;" x="589.285945" xlink:href="#m9f080ac7c8" y="100.940488"/>
     <use style="fill:#1f77b4;stroke:#ffffff;stroke-width:0.75;" x="558.85906" xlink:href="#m9f080ac7c8" y="111.547317"/>
     <use style="fill:#1f77b4;stroke:#ffffff;stroke-width:0.75;" x="494.595164" xlink:href="#m9f080ac7c8" y="122.154146"/>
     <use style="fill:#1f77b4;stroke:#ffffff;stroke-width:0.75;" x="436.864506" xlink:href="#m9f080ac7c8" y="132.760976"/>
     <use style="fill:#1f77b4;stroke:#ffffff;stroke-width:0.75;" x="258.275207" xlink:href="#m9f080ac7c8" y="143.367805"/>
     <use style="fill:#1f77b4;stroke:#ffffff;stroke-width:0.75;" x="231.003476" xlink:href="#m9f080ac7c8" y="153.974634"/>
     <use style="fill:#1f77b4;stroke:#ffffff;stroke-width:0.75;" x="211.64209" xlink:href="#m9f080ac7c8" y="164.581463"/>
     <use style="fill:#1f77b4;stroke:#ffffff;stroke-width:0.75;" x="198.67281" xlink:href="#m9f080ac7c8" y="175.188293"/>
     <use style="fill:#1f77b4;stroke:#ffffff;stroke-width:0.75;" x="196.114272" xlink:href="#m9f080ac7c8" y="185.795122"/>
     <use style="fill:#1f77b4;stroke:#ffffff;stroke-width:0.75;" x="191.459646" xlink:href="#m9f080ac7c8" y="196.401951"/>
     <use style="fill:#1f77b4;stroke:#ffffff;stroke-width:0.75;" x="190.479857" xlink:href="#m9f080ac7c8" y="207.00878"/>
     <use style="fill:#1f77b4;stroke:#ffffff;stroke-width:0.75;" x="187.864517" xlink:href="#m9f080ac7c8" y="217.61561"/>
     <use style="fill:#1f77b4;stroke:#ffffff;stroke-width:0.75;" x="171.780435" xlink:href="#m9f080ac7c8" y="228.222439"/>
     <use style="fill:#1f77b4;stroke:#ffffff;stroke-width:0.75;" x="169.613776" xlink:href="#m9f080ac7c8" y="238.829268"/>
     <use style="fill:#1f77b4;stroke:#ffffff;stroke-width:0.75;" x="163.389953" xlink:href="#m9f080ac7c8" y="249.436098"/>
     <use style="fill:#1f77b4;stroke:#ffffff;stroke-width:0.75;" x="163.18167" xlink:href="#m9f080ac7c8" y="260.042927"/>
     <use style="fill:#1f77b4;stroke:#ffffff;stroke-width:0.75;" x="160.828568" xlink:href="#m9f080ac7c8" y="270.649756"/>
     <use style="fill:#1f77b4;stroke:#ffffff;stroke-width:0.75;" x="159.11378" xlink:href="#m9f080ac7c8" y="281.256585"/>
     <use style="fill:#1f77b4;stroke:#ffffff;stroke-width:0.75;" x="155.990188" xlink:href="#m9f080ac7c8" y="291.863415"/>
     <use style="fill:#1f77b4;stroke:#ffffff;stroke-width:0.75;" x="154.027456" xlink:href="#m9f080ac7c8" y="302.470244"/>
     <use style="fill:#1f77b4;stroke:#ffffff;stroke-width:0.75;" x="149.604948" xlink:href="#m9f080ac7c8" y="313.077073"/>
     <use style="fill:#1f77b4;stroke:#ffffff;stroke-width:0.75;" x="148.746284" xlink:href="#m9f080ac7c8" y="323.683902"/>
     <use style="fill:#1f77b4;stroke:#ffffff;stroke-width:0.75;" x="146.699515" xlink:href="#m9f080ac7c8" y="334.290732"/>
     <use style="fill:#1f77b4;stroke:#ffffff;stroke-width:0.75;" x="145.520249" xlink:href="#m9f080ac7c8" y="344.897561"/>
     <use style="fill:#1f77b4;stroke:#ffffff;stroke-width:0.75;" x="144.078413" xlink:href="#m9f080ac7c8" y="355.50439"/>
     <use style="fill:#1f77b4;stroke:#ffffff;stroke-width:0.75;" x="140.519445" xlink:href="#m9f080ac7c8" y="366.11122"/>
     <use style="fill:#1f77b4;stroke:#ffffff;stroke-width:0.75;" x="140.308913" xlink:href="#m9f080ac7c8" y="376.718049"/>
     <use style="fill:#1f77b4;stroke:#ffffff;stroke-width:0.75;" x="140.247842" xlink:href="#m9f080ac7c8" y="387.324878"/>
     <use style="fill:#1f77b4;stroke:#ffffff;stroke-width:0.75;" x="139.990009" xlink:href="#m9f080ac7c8" y="397.931707"/>
     <use style="fill:#1f77b4;stroke:#ffffff;stroke-width:0.75;" x="139.931092" xlink:href="#m9f080ac7c8" y="408.538537"/>
     <use style="fill:#1f77b4;stroke:#ffffff;stroke-width:0.75;" x="139.564254" xlink:href="#m9f080ac7c8" y="419.145366"/>
     <use style="fill:#1f77b4;stroke:#ffffff;stroke-width:0.75;" x="139.472847" xlink:href="#m9f080ac7c8" y="429.752195"/>
     <use style="fill:#1f77b4;stroke:#ffffff;stroke-width:0.75;" x="139.150972" xlink:href="#m9f080ac7c8" y="440.359024"/>
     <use style="fill:#1f77b4;stroke:#ffffff;stroke-width:0.75;" x="139.086932" xlink:href="#m9f080ac7c8" y="450.965854"/>
     <use style="fill:#1f77b4;stroke:#ffffff;stroke-width:0.75;" x="138.933432" xlink:href="#m9f080ac7c8" y="461.572683"/>
     <use style="fill:#1f77b4;stroke:#ffffff;stroke-width:0.75;" x="138.877753" xlink:href="#m9f080ac7c8" y="472.179512"/>
     <use style="fill:#1f77b4;stroke:#ffffff;stroke-width:0.75;" x="138.599476" xlink:href="#m9f080ac7c8" y="482.786341"/>
     <use style="fill:#1f77b4;stroke:#ffffff;stroke-width:0.75;" x="138.436364" xlink:href="#m9f080ac7c8" y="493.393171"/>
    </g>
   </g>
   <g id="matplotlib.axis_1">
    <g id="xtick_1">
     <g id="line2d_1">
      <defs>
       <path d="M 0 0 
L 0 3.5 
" id="ma7e4589bb6" style="stroke:#000000;stroke-width:0.8;"/>
      </defs>
      <g>
       <use style="stroke:#000000;stroke-width:0.8;" x="134.088726" xlink:href="#ma7e4589bb6" y="504"/>
      </g>
     </g>
     <g id="text_1">
      <!-- 0 -->
      <defs>
       <path d="M 31.78125 66.40625 
Q 24.171875 66.40625 20.328125 58.90625 
Q 16.5 51.421875 16.5 36.375 
Q 16.5 21.390625 20.328125 13.890625 
Q 24.171875 6.390625 31.78125 6.390625 
Q 39.453125 6.390625 43.28125 13.890625 
Q 47.125 21.390625 47.125 36.375 
Q 47.125 51.421875 43.28125 58.90625 
Q 39.453125 66.40625 31.78125 66.40625 
z
M 31.78125 74.21875 
Q 44.046875 74.21875 50.515625 64.515625 
Q 56.984375 54.828125 56.984375 36.375 
Q 56.984375 17.96875 50.515625 8.265625 
Q 44.046875 -1.421875 31.78125 -1.421875 
Q 19.53125 -1.421875 13.0625 8.265625 
Q 6.59375 17.96875 6.59375 36.375 
Q 6.59375 54.828125 13.0625 64.515625 
Q 19.53125 74.21875 31.78125 74.21875 
z
" id="DejaVuSans-48"/>
      </defs>
      <g transform="translate(130.907476 518.598438)scale(0.1 -0.1)">
       <use xlink:href="#DejaVuSans-48"/>
      </g>
     </g>
    </g>
    <g id="xtick_2">
     <g id="line2d_2">
      <g>
       <use style="stroke:#000000;stroke-width:0.8;" x="265.713058" xlink:href="#ma7e4589bb6" y="504"/>
      </g>
     </g>
     <g id="text_2">
      <!-- 1 -->
      <defs>
       <path d="M 12.40625 8.296875 
L 28.515625 8.296875 
L 28.515625 63.921875 
L 10.984375 60.40625 
L 10.984375 69.390625 
L 28.421875 72.90625 
L 38.28125 72.90625 
L 38.28125 8.296875 
L 54.390625 8.296875 
L 54.390625 0 
L 12.40625 0 
z
" id="DejaVuSans-49"/>
      </defs>
      <g transform="translate(262.531808 518.598438)scale(0.1 -0.1)">
       <use xlink:href="#DejaVuSans-49"/>
      </g>
     </g>
    </g>
    <g id="xtick_3">
     <g id="line2d_3">
      <g>
       <use style="stroke:#000000;stroke-width:0.8;" x="397.33739" xlink:href="#ma7e4589bb6" y="504"/>
      </g>
     </g>
     <g id="text_3">
      <!-- 2 -->
      <defs>
       <path d="M 19.1875 8.296875 
L 53.609375 8.296875 
L 53.609375 0 
L 7.328125 0 
L 7.328125 8.296875 
Q 12.9375 14.109375 22.625 23.890625 
Q 32.328125 33.6875 34.8125 36.53125 
Q 39.546875 41.84375 41.421875 45.53125 
Q 43.3125 49.21875 43.3125 52.78125 
Q 43.3125 58.59375 39.234375 62.25 
Q 35.15625 65.921875 28.609375 65.921875 
Q 23.96875 65.921875 18.8125 64.3125 
Q 13.671875 62.703125 7.8125 59.421875 
L 7.8125 69.390625 
Q 13.765625 71.78125 18.9375 73 
Q 24.125 74.21875 28.421875 74.21875 
Q 39.75 74.21875 46.484375 68.546875 
Q 53.21875 62.890625 53.21875 53.421875 
Q 53.21875 48.921875 51.53125 44.890625 
Q 49.859375 40.875 45.40625 35.40625 
Q 44.1875 33.984375 37.640625 27.21875 
Q 31.109375 20.453125 19.1875 8.296875 
z
" id="DejaVuSans-50"/>
      </defs>
      <g transform="translate(394.15614 518.598438)scale(0.1 -0.1)">
       <use xlink:href="#DejaVuSans-50"/>
      </g>
     </g>
    </g>
    <g id="xtick_4">
     <g id="line2d_4">
      <g>
       <use style="stroke:#000000;stroke-width:0.8;" x="528.961721" xlink:href="#ma7e4589bb6" y="504"/>
      </g>
     </g>
     <g id="text_4">
      <!-- 3 -->
      <defs>
       <path d="M 40.578125 39.3125 
Q 47.65625 37.796875 51.625 33 
Q 55.609375 28.21875 55.609375 21.1875 
Q 55.609375 10.40625 48.1875 4.484375 
Q 40.765625 -1.421875 27.09375 -1.421875 
Q 22.515625 -1.421875 17.65625 -0.515625 
Q 12.796875 0.390625 7.625 2.203125 
L 7.625 11.71875 
Q 11.71875 9.328125 16.59375 8.109375 
Q 21.484375 6.890625 26.8125 6.890625 
Q 36.078125 6.890625 40.9375 10.546875 
Q 45.796875 14.203125 45.796875 21.1875 
Q 45.796875 27.640625 41.28125 31.265625 
Q 36.765625 34.90625 28.71875 34.90625 
L 20.21875 34.90625 
L 20.21875 43.015625 
L 29.109375 43.015625 
Q 36.375 43.015625 40.234375 45.921875 
Q 44.09375 48.828125 44.09375 54.296875 
Q 44.09375 59.90625 40.109375 62.90625 
Q 36.140625 65.921875 28.71875 65.921875 
Q 24.65625 65.921875 20.015625 65.03125 
Q 15.375 64.15625 9.8125 62.3125 
L 9.8125 71.09375 
Q 15.4375 72.65625 20.34375 73.4375 
Q 25.25 74.21875 29.59375 74.21875 
Q 40.828125 74.21875 47.359375 69.109375 
Q 53.90625 64.015625 53.90625 55.328125 
Q 53.90625 49.265625 50.4375 45.09375 
Q 46.96875 40.921875 40.578125 39.3125 
z
" id="DejaVuSans-51"/>
      </defs>
      <g transform="translate(525.780471 518.598438)scale(0.1 -0.1)">
       <use xlink:href="#DejaVuSans-51"/>
      </g>
     </g>
    </g>
    <g id="xtick_5">
     <g id="line2d_5">
      <g>
       <use style="stroke:#000000;stroke-width:0.8;" x="660.586053" xlink:href="#ma7e4589bb6" y="504"/>
      </g>
     </g>
     <g id="text_5">
      <!-- 4 -->
      <defs>
       <path d="M 37.796875 64.3125 
L 12.890625 25.390625 
L 37.796875 25.390625 
z
M 35.203125 72.90625 
L 47.609375 72.90625 
L 47.609375 25.390625 
L 58.015625 25.390625 
L 58.015625 17.1875 
L 47.609375 17.1875 
L 47.609375 0 
L 37.796875 0 
L 37.796875 17.1875 
L 4.890625 17.1875 
L 4.890625 26.703125 
z
" id="DejaVuSans-52"/>
      </defs>
      <g transform="translate(657.404803 518.598438)scale(0.1 -0.1)">
       <use xlink:href="#DejaVuSans-52"/>
      </g>
     </g>
    </g>
    <g id="text_6">
     <!-- Domestic Gross [$] -->
     <defs>
      <path d="M 19.671875 64.796875 
L 19.671875 8.109375 
L 31.59375 8.109375 
Q 46.6875 8.109375 53.6875 14.9375 
Q 60.6875 21.78125 60.6875 36.53125 
Q 60.6875 51.171875 53.6875 57.984375 
Q 46.6875 64.796875 31.59375 64.796875 
z
M 9.8125 72.90625 
L 30.078125 72.90625 
Q 51.265625 72.90625 61.171875 64.09375 
Q 71.09375 55.28125 71.09375 36.53125 
Q 71.09375 17.671875 61.125 8.828125 
Q 51.171875 0 30.078125 0 
L 9.8125 0 
z
" id="DejaVuSans-68"/>
      <path d="M 30.609375 48.390625 
Q 23.390625 48.390625 19.1875 42.75 
Q 14.984375 37.109375 14.984375 27.296875 
Q 14.984375 17.484375 19.15625 11.84375 
Q 23.34375 6.203125 30.609375 6.203125 
Q 37.796875 6.203125 41.984375 11.859375 
Q 46.1875 17.53125 46.1875 27.296875 
Q 46.1875 37.015625 41.984375 42.703125 
Q 37.796875 48.390625 30.609375 48.390625 
z
M 30.609375 56 
Q 42.328125 56 49.015625 48.375 
Q 55.71875 40.765625 55.71875 27.296875 
Q 55.71875 13.875 49.015625 6.21875 
Q 42.328125 -1.421875 30.609375 -1.421875 
Q 18.84375 -1.421875 12.171875 6.21875 
Q 5.515625 13.875 5.515625 27.296875 
Q 5.515625 40.765625 12.171875 48.375 
Q 18.84375 56 30.609375 56 
z
" id="DejaVuSans-111"/>
      <path d="M 52 44.1875 
Q 55.375 50.25 60.0625 53.125 
Q 64.75 56 71.09375 56 
Q 79.640625 56 84.28125 50.015625 
Q 88.921875 44.046875 88.921875 33.015625 
L 88.921875 0 
L 79.890625 0 
L 79.890625 32.71875 
Q 79.890625 40.578125 77.09375 44.375 
Q 74.3125 48.1875 68.609375 48.1875 
Q 61.625 48.1875 57.5625 43.546875 
Q 53.515625 38.921875 53.515625 30.90625 
L 53.515625 0 
L 44.484375 0 
L 44.484375 32.71875 
Q 44.484375 40.625 41.703125 44.40625 
Q 38.921875 48.1875 33.109375 48.1875 
Q 26.21875 48.1875 22.15625 43.53125 
Q 18.109375 38.875 18.109375 30.90625 
L 18.109375 0 
L 9.078125 0 
L 9.078125 54.6875 
L 18.109375 54.6875 
L 18.109375 46.1875 
Q 21.1875 51.21875 25.484375 53.609375 
Q 29.78125 56 35.6875 56 
Q 41.65625 56 45.828125 52.96875 
Q 50 49.953125 52 44.1875 
z
" id="DejaVuSans-109"/>
      <path d="M 56.203125 29.59375 
L 56.203125 25.203125 
L 14.890625 25.203125 
Q 15.484375 15.921875 20.484375 11.0625 
Q 25.484375 6.203125 34.421875 6.203125 
Q 39.59375 6.203125 44.453125 7.46875 
Q 49.3125 8.734375 54.109375 11.28125 
L 54.109375 2.78125 
Q 49.265625 0.734375 44.1875 -0.34375 
Q 39.109375 -1.421875 33.890625 -1.421875 
Q 20.796875 -1.421875 13.15625 6.1875 
Q 5.515625 13.8125 5.515625 26.8125 
Q 5.515625 40.234375 12.765625 48.109375 
Q 20.015625 56 32.328125 56 
Q 43.359375 56 49.78125 48.890625 
Q 56.203125 41.796875 56.203125 29.59375 
z
M 47.21875 32.234375 
Q 47.125 39.59375 43.09375 43.984375 
Q 39.0625 48.390625 32.421875 48.390625 
Q 24.90625 48.390625 20.390625 44.140625 
Q 15.875 39.890625 15.1875 32.171875 
z
" id="DejaVuSans-101"/>
      <path d="M 44.28125 53.078125 
L 44.28125 44.578125 
Q 40.484375 46.53125 36.375 47.5 
Q 32.28125 48.484375 27.875 48.484375 
Q 21.1875 48.484375 17.84375 46.4375 
Q 14.5 44.390625 14.5 40.28125 
Q 14.5 37.15625 16.890625 35.375 
Q 19.28125 33.59375 26.515625 31.984375 
L 29.59375 31.296875 
Q 39.15625 29.25 43.1875 25.515625 
Q 47.21875 21.78125 47.21875 15.09375 
Q 47.21875 7.46875 41.1875 3.015625 
Q 35.15625 -1.421875 24.609375 -1.421875 
Q 20.21875 -1.421875 15.453125 -0.5625 
Q 10.6875 0.296875 5.421875 2 
L 5.421875 11.28125 
Q 10.40625 8.6875 15.234375 7.390625 
Q 20.0625 6.109375 24.8125 6.109375 
Q 31.15625 6.109375 34.5625 8.28125 
Q 37.984375 10.453125 37.984375 14.40625 
Q 37.984375 18.0625 35.515625 20.015625 
Q 33.0625 21.96875 24.703125 23.78125 
L 21.578125 24.515625 
Q 13.234375 26.265625 9.515625 29.90625 
Q 5.8125 33.546875 5.8125 39.890625 
Q 5.8125 47.609375 11.28125 51.796875 
Q 16.75 56 26.8125 56 
Q 31.78125 56 36.171875 55.265625 
Q 40.578125 54.546875 44.28125 53.078125 
z
" id="DejaVuSans-115"/>
      <path d="M 18.3125 70.21875 
L 18.3125 54.6875 
L 36.8125 54.6875 
L 36.8125 47.703125 
L 18.3125 47.703125 
L 18.3125 18.015625 
Q 18.3125 11.328125 20.140625 9.421875 
Q 21.96875 7.515625 27.59375 7.515625 
L 36.8125 7.515625 
L 36.8125 0 
L 27.59375 0 
Q 17.1875 0 13.234375 3.875 
Q 9.28125 7.765625 9.28125 18.015625 
L 9.28125 47.703125 
L 2.6875 47.703125 
L 2.6875 54.6875 
L 9.28125 54.6875 
L 9.28125 70.21875 
z
" id="DejaVuSans-116"/>
      <path d="M 9.421875 54.6875 
L 18.40625 54.6875 
L 18.40625 0 
L 9.421875 0 
z
M 9.421875 75.984375 
L 18.40625 75.984375 
L 18.40625 64.59375 
L 9.421875 64.59375 
z
" id="DejaVuSans-105"/>
      <path d="M 48.78125 52.59375 
L 48.78125 44.1875 
Q 44.96875 46.296875 41.140625 47.34375 
Q 37.3125 48.390625 33.40625 48.390625 
Q 24.65625 48.390625 19.8125 42.84375 
Q 14.984375 37.3125 14.984375 27.296875 
Q 14.984375 17.28125 19.8125 11.734375 
Q 24.65625 6.203125 33.40625 6.203125 
Q 37.3125 6.203125 41.140625 7.25 
Q 44.96875 8.296875 48.78125 10.40625 
L 48.78125 2.09375 
Q 45.015625 0.34375 40.984375 -0.53125 
Q 36.96875 -1.421875 32.421875 -1.421875 
Q 20.0625 -1.421875 12.78125 6.34375 
Q 5.515625 14.109375 5.515625 27.296875 
Q 5.515625 40.671875 12.859375 48.328125 
Q 20.21875 56 33.015625 56 
Q 37.15625 56 41.109375 55.140625 
Q 45.0625 54.296875 48.78125 52.59375 
z
" id="DejaVuSans-99"/>
      <path id="DejaVuSans-32"/>
      <path d="M 59.515625 10.40625 
L 59.515625 29.984375 
L 43.40625 29.984375 
L 43.40625 38.09375 
L 69.28125 38.09375 
L 69.28125 6.78125 
Q 63.578125 2.734375 56.6875 0.65625 
Q 49.8125 -1.421875 42 -1.421875 
Q 24.90625 -1.421875 15.25 8.5625 
Q 5.609375 18.5625 5.609375 36.375 
Q 5.609375 54.25 15.25 64.234375 
Q 24.90625 74.21875 42 74.21875 
Q 49.125 74.21875 55.546875 72.453125 
Q 61.96875 70.703125 67.390625 67.28125 
L 67.390625 56.78125 
Q 61.921875 61.421875 55.765625 63.765625 
Q 49.609375 66.109375 42.828125 66.109375 
Q 29.4375 66.109375 22.71875 58.640625 
Q 16.015625 51.171875 16.015625 36.375 
Q 16.015625 21.625 22.71875 14.15625 
Q 29.4375 6.6875 42.828125 6.6875 
Q 48.046875 6.6875 52.140625 7.59375 
Q 56.25 8.5 59.515625 10.40625 
z
" id="DejaVuSans-71"/>
      <path d="M 41.109375 46.296875 
Q 39.59375 47.171875 37.8125 47.578125 
Q 36.03125 48 33.890625 48 
Q 26.265625 48 22.1875 43.046875 
Q 18.109375 38.09375 18.109375 28.8125 
L 18.109375 0 
L 9.078125 0 
L 9.078125 54.6875 
L 18.109375 54.6875 
L 18.109375 46.1875 
Q 20.953125 51.171875 25.484375 53.578125 
Q 30.03125 56 36.53125 56 
Q 37.453125 56 38.578125 55.875 
Q 39.703125 55.765625 41.0625 55.515625 
z
" id="DejaVuSans-114"/>
      <path d="M 8.59375 75.984375 
L 29.296875 75.984375 
L 29.296875 69 
L 17.578125 69 
L 17.578125 -6.203125 
L 29.296875 -6.203125 
L 29.296875 -13.1875 
L 8.59375 -13.1875 
z
" id="DejaVuSans-91"/>
      <path d="M 33.796875 -14.703125 
L 28.90625 -14.703125 
L 28.859375 0 
Q 23.734375 0.09375 18.609375 1.1875 
Q 13.484375 2.296875 8.296875 4.5 
L 8.296875 13.28125 
Q 13.28125 10.15625 18.375 8.5625 
Q 23.484375 6.984375 28.90625 6.9375 
L 28.90625 29.203125 
Q 18.109375 30.953125 13.203125 35.15625 
Q 8.296875 39.359375 8.296875 46.6875 
Q 8.296875 54.640625 13.625 59.21875 
Q 18.953125 63.8125 28.90625 64.5 
L 28.90625 75.984375 
L 33.796875 75.984375 
L 33.796875 64.65625 
Q 38.328125 64.453125 42.578125 63.6875 
Q 46.828125 62.9375 50.875 61.625 
L 50.875 53.078125 
Q 46.828125 55.125 42.546875 56.25 
Q 38.28125 57.375 33.796875 57.5625 
L 33.796875 36.71875 
Q 44.875 35.015625 50.09375 30.609375 
Q 55.328125 26.21875 55.328125 18.609375 
Q 55.328125 10.359375 49.78125 5.59375 
Q 44.234375 0.828125 33.796875 0.09375 
z
M 28.90625 37.59375 
L 28.90625 57.625 
Q 23.25 56.984375 20.265625 54.390625 
Q 17.28125 51.8125 17.28125 47.515625 
Q 17.28125 43.3125 20.03125 40.96875 
Q 22.796875 38.625 28.90625 37.59375 
z
M 33.796875 28.21875 
L 33.796875 7.078125 
Q 39.984375 7.90625 43.140625 10.59375 
Q 46.296875 13.28125 46.296875 17.671875 
Q 46.296875 21.96875 43.28125 24.5 
Q 40.28125 27.046875 33.796875 28.21875 
z
" id="DejaVuSans-36"/>
      <path d="M 30.421875 75.984375 
L 30.421875 -13.1875 
L 9.71875 -13.1875 
L 9.71875 -6.203125 
L 21.390625 -6.203125 
L 21.390625 69 
L 9.71875 69 
L 9.71875 75.984375 
z
" id="DejaVuSans-93"/>
     </defs>
     <g transform="translate(375.73125 535.315938)scale(0.14 -0.14)">
      <use xlink:href="#DejaVuSans-68"/>
      <use x="77.001953" xlink:href="#DejaVuSans-111"/>
      <use x="138.183594" xlink:href="#DejaVuSans-109"/>
      <use x="235.595703" xlink:href="#DejaVuSans-101"/>
      <use x="297.119141" xlink:href="#DejaVuSans-115"/>
      <use x="349.21875" xlink:href="#DejaVuSans-116"/>
      <use x="388.427734" xlink:href="#DejaVuSans-105"/>
      <use x="416.210938" xlink:href="#DejaVuSans-99"/>
      <use x="471.191406" xlink:href="#DejaVuSans-32"/>
      <use x="502.978516" xlink:href="#DejaVuSans-71"/>
      <use x="580.46875" xlink:href="#DejaVuSans-114"/>
      <use x="619.332031" xlink:href="#DejaVuSans-111"/>
      <use x="680.513672" xlink:href="#DejaVuSans-115"/>
      <use x="732.613281" xlink:href="#DejaVuSans-115"/>
      <use x="784.712891" xlink:href="#DejaVuSans-32"/>
      <use x="816.5" xlink:href="#DejaVuSans-91"/>
      <use x="855.513672" xlink:href="#DejaVuSans-36"/>
      <use x="919.136719" xlink:href="#DejaVuSans-93"/>
     </g>
    </g>
    <g id="text_7">
     <!-- 1e10 -->
     <g transform="translate(752.359375 531.276562)scale(0.1 -0.1)">
      <use xlink:href="#DejaVuSans-49"/>
      <use x="63.623047" xlink:href="#DejaVuSans-101"/>
      <use x="125.146484" xlink:href="#DejaVuSans-49"/>
      <use x="188.769531" xlink:href="#DejaVuSans-48"/>
     </g>
    </g>
   </g>
   <g id="matplotlib.axis_2">
    <g id="ytick_1">
     <g id="line2d_6">
      <defs>
       <path d="M 0 0 
L -3.5 0 
" id="mf4ff45db58" style="stroke:#000000;stroke-width:0.8;"/>
      </defs>
      <g>
       <use style="stroke:#000000;stroke-width:0.8;" x="108" xlink:href="#mf4ff45db58" y="79.726829"/>
      </g>
     </g>
     <g id="text_8">
      <!-- Walt Disney Studios Motion Pictures -->
      <defs>
       <path d="M 3.328125 72.90625 
L 13.28125 72.90625 
L 28.609375 11.28125 
L 43.890625 72.90625 
L 54.984375 72.90625 
L 70.3125 11.28125 
L 85.59375 72.90625 
L 95.609375 72.90625 
L 77.296875 0 
L 64.890625 0 
L 49.515625 63.28125 
L 33.984375 0 
L 21.578125 0 
z
" id="DejaVuSans-87"/>
       <path d="M 34.28125 27.484375 
Q 23.390625 27.484375 19.1875 25 
Q 14.984375 22.515625 14.984375 16.5 
Q 14.984375 11.71875 18.140625 8.90625 
Q 21.296875 6.109375 26.703125 6.109375 
Q 34.1875 6.109375 38.703125 11.40625 
Q 43.21875 16.703125 43.21875 25.484375 
L 43.21875 27.484375 
z
M 52.203125 31.203125 
L 52.203125 0 
L 43.21875 0 
L 43.21875 8.296875 
Q 40.140625 3.328125 35.546875 0.953125 
Q 30.953125 -1.421875 24.3125 -1.421875 
Q 15.921875 -1.421875 10.953125 3.296875 
Q 6 8.015625 6 15.921875 
Q 6 25.140625 12.171875 29.828125 
Q 18.359375 34.515625 30.609375 34.515625 
L 43.21875 34.515625 
L 43.21875 35.40625 
Q 43.21875 41.609375 39.140625 45 
Q 35.0625 48.390625 27.6875 48.390625 
Q 23 48.390625 18.546875 47.265625 
Q 14.109375 46.140625 10.015625 43.890625 
L 10.015625 52.203125 
Q 14.9375 54.109375 19.578125 55.046875 
Q 24.21875 56 28.609375 56 
Q 40.484375 56 46.34375 49.84375 
Q 52.203125 43.703125 52.203125 31.203125 
z
" id="DejaVuSans-97"/>
       <path d="M 9.421875 75.984375 
L 18.40625 75.984375 
L 18.40625 0 
L 9.421875 0 
z
" id="DejaVuSans-108"/>
       <path d="M 54.890625 33.015625 
L 54.890625 0 
L 45.90625 0 
L 45.90625 32.71875 
Q 45.90625 40.484375 42.875 44.328125 
Q 39.84375 48.1875 33.796875 48.1875 
Q 26.515625 48.1875 22.3125 43.546875 
Q 18.109375 38.921875 18.109375 30.90625 
L 18.109375 0 
L 9.078125 0 
L 9.078125 54.6875 
L 18.109375 54.6875 
L 18.109375 46.1875 
Q 21.34375 51.125 25.703125 53.5625 
Q 30.078125 56 35.796875 56 
Q 45.21875 56 50.046875 50.171875 
Q 54.890625 44.34375 54.890625 33.015625 
z
" id="DejaVuSans-110"/>
       <path d="M 32.171875 -5.078125 
Q 28.375 -14.84375 24.75 -17.8125 
Q 21.140625 -20.796875 15.09375 -20.796875 
L 7.90625 -20.796875 
L 7.90625 -13.28125 
L 13.1875 -13.28125 
Q 16.890625 -13.28125 18.9375 -11.515625 
Q 21 -9.765625 23.484375 -3.21875 
L 25.09375 0.875 
L 2.984375 54.6875 
L 12.5 54.6875 
L 29.59375 11.921875 
L 46.6875 54.6875 
L 56.203125 54.6875 
z
" id="DejaVuSans-121"/>
       <path d="M 53.515625 70.515625 
L 53.515625 60.890625 
Q 47.90625 63.578125 42.921875 64.890625 
Q 37.9375 66.21875 33.296875 66.21875 
Q 25.25 66.21875 20.875 63.09375 
Q 16.5 59.96875 16.5 54.203125 
Q 16.5 49.359375 19.40625 46.890625 
Q 22.3125 44.4375 30.421875 42.921875 
L 36.375 41.703125 
Q 47.40625 39.59375 52.65625 34.296875 
Q 57.90625 29 57.90625 20.125 
Q 57.90625 9.515625 50.796875 4.046875 
Q 43.703125 -1.421875 29.984375 -1.421875 
Q 24.8125 -1.421875 18.96875 -0.25 
Q 13.140625 0.921875 6.890625 3.21875 
L 6.890625 13.375 
Q 12.890625 10.015625 18.65625 8.296875 
Q 24.421875 6.59375 29.984375 6.59375 
Q 38.421875 6.59375 43.015625 9.90625 
Q 47.609375 13.234375 47.609375 19.390625 
Q 47.609375 24.75 44.3125 27.78125 
Q 41.015625 30.8125 33.5 32.328125 
L 27.484375 33.5 
Q 16.453125 35.6875 11.515625 40.375 
Q 6.59375 45.0625 6.59375 53.421875 
Q 6.59375 63.09375 13.40625 68.65625 
Q 20.21875 74.21875 32.171875 74.21875 
Q 37.3125 74.21875 42.625 73.28125 
Q 47.953125 72.359375 53.515625 70.515625 
z
" id="DejaVuSans-83"/>
       <path d="M 8.5 21.578125 
L 8.5 54.6875 
L 17.484375 54.6875 
L 17.484375 21.921875 
Q 17.484375 14.15625 20.5 10.265625 
Q 23.53125 6.390625 29.59375 6.390625 
Q 36.859375 6.390625 41.078125 11.03125 
Q 45.3125 15.671875 45.3125 23.6875 
L 45.3125 54.6875 
L 54.296875 54.6875 
L 54.296875 0 
L 45.3125 0 
L 45.3125 8.40625 
Q 42.046875 3.421875 37.71875 1 
Q 33.40625 -1.421875 27.6875 -1.421875 
Q 18.265625 -1.421875 13.375 4.4375 
Q 8.5 10.296875 8.5 21.578125 
z
M 31.109375 56 
z
" id="DejaVuSans-117"/>
       <path d="M 45.40625 46.390625 
L 45.40625 75.984375 
L 54.390625 75.984375 
L 54.390625 0 
L 45.40625 0 
L 45.40625 8.203125 
Q 42.578125 3.328125 38.25 0.953125 
Q 33.9375 -1.421875 27.875 -1.421875 
Q 17.96875 -1.421875 11.734375 6.484375 
Q 5.515625 14.40625 5.515625 27.296875 
Q 5.515625 40.1875 11.734375 48.09375 
Q 17.96875 56 27.875 56 
Q 33.9375 56 38.25 53.625 
Q 42.578125 51.265625 45.40625 46.390625 
z
M 14.796875 27.296875 
Q 14.796875 17.390625 18.875 11.75 
Q 22.953125 6.109375 30.078125 6.109375 
Q 37.203125 6.109375 41.296875 11.75 
Q 45.40625 17.390625 45.40625 27.296875 
Q 45.40625 37.203125 41.296875 42.84375 
Q 37.203125 48.484375 30.078125 48.484375 
Q 22.953125 48.484375 18.875 42.84375 
Q 14.796875 37.203125 14.796875 27.296875 
z
" id="DejaVuSans-100"/>
       <path d="M 9.8125 72.90625 
L 24.515625 72.90625 
L 43.109375 23.296875 
L 61.8125 72.90625 
L 76.515625 72.90625 
L 76.515625 0 
L 66.890625 0 
L 66.890625 64.015625 
L 48.09375 14.015625 
L 38.1875 14.015625 
L 19.390625 64.015625 
L 19.390625 0 
L 9.8125 0 
z
" id="DejaVuSans-77"/>
       <path d="M 19.671875 64.796875 
L 19.671875 37.40625 
L 32.078125 37.40625 
Q 38.96875 37.40625 42.71875 40.96875 
Q 46.484375 44.53125 46.484375 51.125 
Q 46.484375 57.671875 42.71875 61.234375 
Q 38.96875 64.796875 32.078125 64.796875 
z
M 9.8125 72.90625 
L 32.078125 72.90625 
Q 44.34375 72.90625 50.609375 67.359375 
Q 56.890625 61.8125 56.890625 51.125 
Q 56.890625 40.328125 50.609375 34.8125 
Q 44.34375 29.296875 32.078125 29.296875 
L 19.671875 29.296875 
L 19.671875 0 
L 9.8125 0 
z
" id="DejaVuSans-80"/>
      </defs>
      <g transform="translate(-78.435938 83.526048)scale(0.1 -0.1)">
       <use xlink:href="#DejaVuSans-87"/>
       <use x="92.501953" xlink:href="#DejaVuSans-97"/>
       <use x="153.78125" xlink:href="#DejaVuSans-108"/>
       <use x="181.564453" xlink:href="#DejaVuSans-116"/>
       <use x="220.773438" xlink:href="#DejaVuSans-32"/>
       <use x="252.560547" xlink:href="#DejaVuSans-68"/>
       <use x="329.5625" xlink:href="#DejaVuSans-105"/>
       <use x="357.345703" xlink:href="#DejaVuSans-115"/>
       <use x="409.445312" xlink:href="#DejaVuSans-110"/>
       <use x="472.824219" xlink:href="#DejaVuSans-101"/>
       <use x="534.347656" xlink:href="#DejaVuSans-121"/>
       <use x="593.527344" xlink:href="#DejaVuSans-32"/>
       <use x="625.314453" xlink:href="#DejaVuSans-83"/>
       <use x="688.791016" xlink:href="#DejaVuSans-116"/>
       <use x="728" xlink:href="#DejaVuSans-117"/>
       <use x="791.378906" xlink:href="#DejaVuSans-100"/>
       <use x="854.855469" xlink:href="#DejaVuSans-105"/>
       <use x="882.638672" xlink:href="#DejaVuSans-111"/>
       <use x="943.820312" xlink:href="#DejaVuSans-115"/>
       <use x="995.919922" xlink:href="#DejaVuSans-32"/>
       <use x="1027.707031" xlink:href="#DejaVuSans-77"/>
       <use x="1113.986328" xlink:href="#DejaVuSans-111"/>
       <use x="1175.167969" xlink:href="#DejaVuSans-116"/>
       <use x="1214.376953" xlink:href="#DejaVuSans-105"/>
       <use x="1242.160156" xlink:href="#DejaVuSans-111"/>
       <use x="1303.341797" xlink:href="#DejaVuSans-110"/>
       <use x="1366.720703" xlink:href="#DejaVuSans-32"/>
       <use x="1398.507812" xlink:href="#DejaVuSans-80"/>
       <use x="1456.560547" xlink:href="#DejaVuSans-105"/>
       <use x="1484.34375" xlink:href="#DejaVuSans-99"/>
       <use x="1539.324219" xlink:href="#DejaVuSans-116"/>
       <use x="1578.533203" xlink:href="#DejaVuSans-117"/>
       <use x="1641.912109" xlink:href="#DejaVuSans-114"/>
       <use x="1680.775391" xlink:href="#DejaVuSans-101"/>
       <use x="1742.298828" xlink:href="#DejaVuSans-115"/>
      </g>
     </g>
    </g>
    <g id="ytick_2">
     <g id="line2d_7">
      <g>
       <use style="stroke:#000000;stroke-width:0.8;" x="108" xlink:href="#mf4ff45db58" y="90.333659"/>
      </g>
     </g>
     <g id="text_9">
      <!-- Warner Bros. -->
      <defs>
       <path d="M 19.671875 34.8125 
L 19.671875 8.109375 
L 35.5 8.109375 
Q 43.453125 8.109375 47.28125 11.40625 
Q 51.125 14.703125 51.125 21.484375 
Q 51.125 28.328125 47.28125 31.5625 
Q 43.453125 34.8125 35.5 34.8125 
z
M 19.671875 64.796875 
L 19.671875 42.828125 
L 34.28125 42.828125 
Q 41.5 42.828125 45.03125 45.53125 
Q 48.578125 48.25 48.578125 53.8125 
Q 48.578125 59.328125 45.03125 62.0625 
Q 41.5 64.796875 34.28125 64.796875 
z
M 9.8125 72.90625 
L 35.015625 72.90625 
Q 46.296875 72.90625 52.390625 68.21875 
Q 58.5 63.53125 58.5 54.890625 
Q 58.5 48.1875 55.375 44.234375 
Q 52.25 40.28125 46.1875 39.3125 
Q 53.46875 37.75 57.5 32.78125 
Q 61.53125 27.828125 61.53125 20.40625 
Q 61.53125 10.640625 54.890625 5.3125 
Q 48.25 0 35.984375 0 
L 9.8125 0 
z
" id="DejaVuSans-66"/>
       <path d="M 10.6875 12.40625 
L 21 12.40625 
L 21 0 
L 10.6875 0 
z
" id="DejaVuSans-46"/>
      </defs>
      <g transform="translate(36.653125 94.132877)scale(0.1 -0.1)">
       <use xlink:href="#DejaVuSans-87"/>
       <use x="92.501953" xlink:href="#DejaVuSans-97"/>
       <use x="153.78125" xlink:href="#DejaVuSans-114"/>
       <use x="193.144531" xlink:href="#DejaVuSans-110"/>
       <use x="256.523438" xlink:href="#DejaVuSans-101"/>
       <use x="318.046875" xlink:href="#DejaVuSans-114"/>
       <use x="359.160156" xlink:href="#DejaVuSans-32"/>
       <use x="390.947266" xlink:href="#DejaVuSans-66"/>
       <use x="459.550781" xlink:href="#DejaVuSans-114"/>
       <use x="498.414062" xlink:href="#DejaVuSans-111"/>
       <use x="559.595703" xlink:href="#DejaVuSans-115"/>
       <use x="611.695312" xlink:href="#DejaVuSans-46"/>
      </g>
     </g>
    </g>
    <g id="ytick_3">
     <g id="line2d_8">
      <g>
       <use style="stroke:#000000;stroke-width:0.8;" x="108" xlink:href="#mf4ff45db58" y="100.940488"/>
      </g>
     </g>
     <g id="text_10">
      <!-- Universal Pictures -->
      <defs>
       <path d="M 8.6875 72.90625 
L 18.609375 72.90625 
L 18.609375 28.609375 
Q 18.609375 16.890625 22.84375 11.734375 
Q 27.09375 6.59375 36.625 6.59375 
Q 46.09375 6.59375 50.34375 11.734375 
Q 54.59375 16.890625 54.59375 28.609375 
L 54.59375 72.90625 
L 64.5 72.90625 
L 64.5 27.390625 
Q 64.5 13.140625 57.4375 5.859375 
Q 50.390625 -1.421875 36.625 -1.421875 
Q 22.796875 -1.421875 15.734375 5.859375 
Q 8.6875 13.140625 8.6875 27.390625 
z
" id="DejaVuSans-85"/>
       <path d="M 2.984375 54.6875 
L 12.5 54.6875 
L 29.59375 8.796875 
L 46.6875 54.6875 
L 56.203125 54.6875 
L 35.6875 0 
L 23.484375 0 
z
" id="DejaVuSans-118"/>
      </defs>
      <g transform="translate(11.501562 104.739707)scale(0.1 -0.1)">
       <use xlink:href="#DejaVuSans-85"/>
       <use x="73.193359" xlink:href="#DejaVuSans-110"/>
       <use x="136.572266" xlink:href="#DejaVuSans-105"/>
       <use x="164.355469" xlink:href="#DejaVuSans-118"/>
       <use x="223.535156" xlink:href="#DejaVuSans-101"/>
       <use x="285.058594" xlink:href="#DejaVuSans-114"/>
       <use x="326.171875" xlink:href="#DejaVuSans-115"/>
       <use x="378.271484" xlink:href="#DejaVuSans-97"/>
       <use x="439.550781" xlink:href="#DejaVuSans-108"/>
       <use x="467.333984" xlink:href="#DejaVuSans-32"/>
       <use x="499.121094" xlink:href="#DejaVuSans-80"/>
       <use x="557.173828" xlink:href="#DejaVuSans-105"/>
       <use x="584.957031" xlink:href="#DejaVuSans-99"/>
       <use x="639.9375" xlink:href="#DejaVuSans-116"/>
       <use x="679.146484" xlink:href="#DejaVuSans-117"/>
       <use x="742.525391" xlink:href="#DejaVuSans-114"/>
       <use x="781.388672" xlink:href="#DejaVuSans-101"/>
       <use x="842.912109" xlink:href="#DejaVuSans-115"/>
      </g>
     </g>
    </g>
    <g id="ytick_4">
     <g id="line2d_9">
      <g>
       <use style="stroke:#000000;stroke-width:0.8;" x="108" xlink:href="#mf4ff45db58" y="111.547317"/>
      </g>
     </g>
     <g id="text_11">
      <!-- Twentieth Century Fox -->
      <defs>
       <path d="M -0.296875 72.90625 
L 61.375 72.90625 
L 61.375 64.59375 
L 35.5 64.59375 
L 35.5 0 
L 25.59375 0 
L 25.59375 64.59375 
L -0.296875 64.59375 
z
" id="DejaVuSans-84"/>
       <path d="M 4.203125 54.6875 
L 13.1875 54.6875 
L 24.421875 12.015625 
L 35.59375 54.6875 
L 46.1875 54.6875 
L 57.421875 12.015625 
L 68.609375 54.6875 
L 77.59375 54.6875 
L 63.28125 0 
L 52.6875 0 
L 40.921875 44.828125 
L 29.109375 0 
L 18.5 0 
z
" id="DejaVuSans-119"/>
       <path d="M 54.890625 33.015625 
L 54.890625 0 
L 45.90625 0 
L 45.90625 32.71875 
Q 45.90625 40.484375 42.875 44.328125 
Q 39.84375 48.1875 33.796875 48.1875 
Q 26.515625 48.1875 22.3125 43.546875 
Q 18.109375 38.921875 18.109375 30.90625 
L 18.109375 0 
L 9.078125 0 
L 9.078125 75.984375 
L 18.109375 75.984375 
L 18.109375 46.1875 
Q 21.34375 51.125 25.703125 53.5625 
Q 30.078125 56 35.796875 56 
Q 45.21875 56 50.046875 50.171875 
Q 54.890625 44.34375 54.890625 33.015625 
z
" id="DejaVuSans-104"/>
       <path d="M 64.40625 67.28125 
L 64.40625 56.890625 
Q 59.421875 61.53125 53.78125 63.8125 
Q 48.140625 66.109375 41.796875 66.109375 
Q 29.296875 66.109375 22.65625 58.46875 
Q 16.015625 50.828125 16.015625 36.375 
Q 16.015625 21.96875 22.65625 14.328125 
Q 29.296875 6.6875 41.796875 6.6875 
Q 48.140625 6.6875 53.78125 8.984375 
Q 59.421875 11.28125 64.40625 15.921875 
L 64.40625 5.609375 
Q 59.234375 2.09375 53.4375 0.328125 
Q 47.65625 -1.421875 41.21875 -1.421875 
Q 24.65625 -1.421875 15.125 8.703125 
Q 5.609375 18.84375 5.609375 36.375 
Q 5.609375 53.953125 15.125 64.078125 
Q 24.65625 74.21875 41.21875 74.21875 
Q 47.75 74.21875 53.53125 72.484375 
Q 59.328125 70.75 64.40625 67.28125 
z
" id="DejaVuSans-67"/>
       <path d="M 9.8125 72.90625 
L 51.703125 72.90625 
L 51.703125 64.59375 
L 19.671875 64.59375 
L 19.671875 43.109375 
L 48.578125 43.109375 
L 48.578125 34.8125 
L 19.671875 34.8125 
L 19.671875 0 
L 9.8125 0 
z
" id="DejaVuSans-70"/>
       <path d="M 54.890625 54.6875 
L 35.109375 28.078125 
L 55.90625 0 
L 45.3125 0 
L 29.390625 21.484375 
L 13.484375 0 
L 2.875 0 
L 24.125 28.609375 
L 4.6875 54.6875 
L 15.28125 54.6875 
L 29.78125 35.203125 
L 44.28125 54.6875 
z
" id="DejaVuSans-120"/>
      </defs>
      <g transform="translate(-10.467188 115.346536)scale(0.1 -0.1)">
       <use xlink:href="#DejaVuSans-84"/>
       <use x="44.583984" xlink:href="#DejaVuSans-119"/>
       <use x="126.371094" xlink:href="#DejaVuSans-101"/>
       <use x="187.894531" xlink:href="#DejaVuSans-110"/>
       <use x="251.273438" xlink:href="#DejaVuSans-116"/>
       <use x="290.482422" xlink:href="#DejaVuSans-105"/>
       <use x="318.265625" xlink:href="#DejaVuSans-101"/>
       <use x="379.789062" xlink:href="#DejaVuSans-116"/>
       <use x="418.998047" xlink:href="#DejaVuSans-104"/>
       <use x="482.376953" xlink:href="#DejaVuSans-32"/>
       <use x="514.164062" xlink:href="#DejaVuSans-67"/>
       <use x="583.988281" xlink:href="#DejaVuSans-101"/>
       <use x="645.511719" xlink:href="#DejaVuSans-110"/>
       <use x="708.890625" xlink:href="#DejaVuSans-116"/>
       <use x="748.099609" xlink:href="#DejaVuSans-117"/>
       <use x="811.478516" xlink:href="#DejaVuSans-114"/>
       <use x="852.591797" xlink:href="#DejaVuSans-121"/>
       <use x="911.771484" xlink:href="#DejaVuSans-32"/>
       <use x="943.558594" xlink:href="#DejaVuSans-70"/>
       <use x="997.453125" xlink:href="#DejaVuSans-111"/>
       <use x="1055.509766" xlink:href="#DejaVuSans-120"/>
      </g>
     </g>
    </g>
    <g id="ytick_5">
     <g id="line2d_10">
      <g>
       <use style="stroke:#000000;stroke-width:0.8;" x="108" xlink:href="#mf4ff45db58" y="122.154146"/>
      </g>
     </g>
     <g id="text_12">
      <!-- Paramount Pictures -->
      <g transform="translate(3.832812 125.953365)scale(0.1 -0.1)">
       <use xlink:href="#DejaVuSans-80"/>
       <use x="55.802734" xlink:href="#DejaVuSans-97"/>
       <use x="117.082031" xlink:href="#DejaVuSans-114"/>
       <use x="158.195312" xlink:href="#DejaVuSans-97"/>
       <use x="219.474609" xlink:href="#DejaVuSans-109"/>
       <use x="316.886719" xlink:href="#DejaVuSans-111"/>
       <use x="378.068359" xlink:href="#DejaVuSans-117"/>
       <use x="441.447266" xlink:href="#DejaVuSans-110"/>
       <use x="504.826172" xlink:href="#DejaVuSans-116"/>
       <use x="544.035156" xlink:href="#DejaVuSans-32"/>
       <use x="575.822266" xlink:href="#DejaVuSans-80"/>
       <use x="633.875" xlink:href="#DejaVuSans-105"/>
       <use x="661.658203" xlink:href="#DejaVuSans-99"/>
       <use x="716.638672" xlink:href="#DejaVuSans-116"/>
       <use x="755.847656" xlink:href="#DejaVuSans-117"/>
       <use x="819.226562" xlink:href="#DejaVuSans-114"/>
       <use x="858.089844" xlink:href="#DejaVuSans-101"/>
       <use x="919.613281" xlink:href="#DejaVuSans-115"/>
      </g>
     </g>
    </g>
    <g id="ytick_6">
     <g id="line2d_11">
      <g>
       <use style="stroke:#000000;stroke-width:0.8;" x="108" xlink:href="#mf4ff45db58" y="132.760976"/>
      </g>
     </g>
     <g id="text_13">
      <!-- Sony Pictures Releasing -->
      <defs>
       <path d="M 44.390625 34.1875 
Q 47.5625 33.109375 50.5625 29.59375 
Q 53.5625 26.078125 56.59375 19.921875 
L 66.609375 0 
L 56 0 
L 46.6875 18.703125 
Q 43.0625 26.03125 39.671875 28.421875 
Q 36.28125 30.8125 30.421875 30.8125 
L 19.671875 30.8125 
L 19.671875 0 
L 9.8125 0 
L 9.8125 72.90625 
L 32.078125 72.90625 
Q 44.578125 72.90625 50.734375 67.671875 
Q 56.890625 62.453125 56.890625 51.90625 
Q 56.890625 45.015625 53.6875 40.46875 
Q 50.484375 35.9375 44.390625 34.1875 
z
M 19.671875 64.796875 
L 19.671875 38.921875 
L 32.078125 38.921875 
Q 39.203125 38.921875 42.84375 42.21875 
Q 46.484375 45.515625 46.484375 51.90625 
Q 46.484375 58.296875 42.84375 61.546875 
Q 39.203125 64.796875 32.078125 64.796875 
z
" id="DejaVuSans-82"/>
       <path d="M 45.40625 27.984375 
Q 45.40625 37.75 41.375 43.109375 
Q 37.359375 48.484375 30.078125 48.484375 
Q 22.859375 48.484375 18.828125 43.109375 
Q 14.796875 37.75 14.796875 27.984375 
Q 14.796875 18.265625 18.828125 12.890625 
Q 22.859375 7.515625 30.078125 7.515625 
Q 37.359375 7.515625 41.375 12.890625 
Q 45.40625 18.265625 45.40625 27.984375 
z
M 54.390625 6.78125 
Q 54.390625 -7.171875 48.1875 -13.984375 
Q 42 -20.796875 29.203125 -20.796875 
Q 24.46875 -20.796875 20.265625 -20.09375 
Q 16.0625 -19.390625 12.109375 -17.921875 
L 12.109375 -9.1875 
Q 16.0625 -11.328125 19.921875 -12.34375 
Q 23.78125 -13.375 27.78125 -13.375 
Q 36.625 -13.375 41.015625 -8.765625 
Q 45.40625 -4.15625 45.40625 5.171875 
L 45.40625 9.625 
Q 42.625 4.78125 38.28125 2.390625 
Q 33.9375 0 27.875 0 
Q 17.828125 0 11.671875 7.65625 
Q 5.515625 15.328125 5.515625 27.984375 
Q 5.515625 40.671875 11.671875 48.328125 
Q 17.828125 56 27.875 56 
Q 33.9375 56 38.28125 53.609375 
Q 42.625 51.21875 45.40625 46.390625 
L 45.40625 54.6875 
L 54.390625 54.6875 
z
" id="DejaVuSans-103"/>
      </defs>
      <g transform="translate(-18.051563 136.560194)scale(0.1 -0.1)">
       <use xlink:href="#DejaVuSans-83"/>
       <use x="63.476562" xlink:href="#DejaVuSans-111"/>
       <use x="124.658203" xlink:href="#DejaVuSans-110"/>
       <use x="188.037109" xlink:href="#DejaVuSans-121"/>
       <use x="247.216797" xlink:href="#DejaVuSans-32"/>
       <use x="279.003906" xlink:href="#DejaVuSans-80"/>
       <use x="337.056641" xlink:href="#DejaVuSans-105"/>
       <use x="364.839844" xlink:href="#DejaVuSans-99"/>
       <use x="419.820312" xlink:href="#DejaVuSans-116"/>
       <use x="459.029297" xlink:href="#DejaVuSans-117"/>
       <use x="522.408203" xlink:href="#DejaVuSans-114"/>
       <use x="561.271484" xlink:href="#DejaVuSans-101"/>
       <use x="622.794922" xlink:href="#DejaVuSans-115"/>
       <use x="674.894531" xlink:href="#DejaVuSans-32"/>
       <use x="706.681641" xlink:href="#DejaVuSans-82"/>
       <use x="771.664062" xlink:href="#DejaVuSans-101"/>
       <use x="833.1875" xlink:href="#DejaVuSans-108"/>
       <use x="860.970703" xlink:href="#DejaVuSans-101"/>
       <use x="922.494141" xlink:href="#DejaVuSans-97"/>
       <use x="983.773438" xlink:href="#DejaVuSans-115"/>
       <use x="1035.873047" xlink:href="#DejaVuSans-105"/>
       <use x="1063.65625" xlink:href="#DejaVuSans-110"/>
       <use x="1127.035156" xlink:href="#DejaVuSans-103"/>
      </g>
     </g>
    </g>
    <g id="ytick_7">
     <g id="line2d_12">
      <g>
       <use style="stroke:#000000;stroke-width:0.8;" x="108" xlink:href="#mf4ff45db58" y="143.367805"/>
      </g>
     </g>
     <g id="text_14">
      <!-- Lionsgate -->
      <defs>
       <path d="M 9.8125 72.90625 
L 19.671875 72.90625 
L 19.671875 8.296875 
L 55.171875 8.296875 
L 55.171875 0 
L 9.8125 0 
z
" id="DejaVuSans-76"/>
      </defs>
      <g transform="translate(52.434375 147.167024)scale(0.1 -0.1)">
       <use xlink:href="#DejaVuSans-76"/>
       <use x="55.712891" xlink:href="#DejaVuSans-105"/>
       <use x="83.496094" xlink:href="#DejaVuSans-111"/>
       <use x="144.677734" xlink:href="#DejaVuSans-110"/>
       <use x="208.056641" xlink:href="#DejaVuSans-115"/>
       <use x="260.15625" xlink:href="#DejaVuSans-103"/>
       <use x="323.632812" xlink:href="#DejaVuSans-97"/>
       <use x="384.912109" xlink:href="#DejaVuSans-116"/>
       <use x="424.121094" xlink:href="#DejaVuSans-101"/>
      </g>
     </g>
    </g>
    <g id="ytick_8">
     <g id="line2d_13">
      <g>
       <use style="stroke:#000000;stroke-width:0.8;" x="108" xlink:href="#mf4ff45db58" y="153.974634"/>
      </g>
     </g>
     <g id="text_15">
      <!-- New Line Cinema -->
      <defs>
       <path d="M 9.8125 72.90625 
L 23.09375 72.90625 
L 55.421875 11.921875 
L 55.421875 72.90625 
L 64.984375 72.90625 
L 64.984375 0 
L 51.703125 0 
L 19.390625 60.984375 
L 19.390625 0 
L 9.8125 0 
z
" id="DejaVuSans-78"/>
      </defs>
      <g transform="translate(13.870312 157.773853)scale(0.1 -0.1)">
       <use xlink:href="#DejaVuSans-78"/>
       <use x="74.804688" xlink:href="#DejaVuSans-101"/>
       <use x="136.328125" xlink:href="#DejaVuSans-119"/>
       <use x="218.115234" xlink:href="#DejaVuSans-32"/>
       <use x="249.902344" xlink:href="#DejaVuSans-76"/>
       <use x="305.615234" xlink:href="#DejaVuSans-105"/>
       <use x="333.398438" xlink:href="#DejaVuSans-110"/>
       <use x="396.777344" xlink:href="#DejaVuSans-101"/>
       <use x="458.300781" xlink:href="#DejaVuSans-32"/>
       <use x="490.087891" xlink:href="#DejaVuSans-67"/>
       <use x="559.912109" xlink:href="#DejaVuSans-105"/>
       <use x="587.695312" xlink:href="#DejaVuSans-110"/>
       <use x="651.074219" xlink:href="#DejaVuSans-101"/>
       <use x="712.597656" xlink:href="#DejaVuSans-109"/>
       <use x="810.009766" xlink:href="#DejaVuSans-97"/>
      </g>
     </g>
    </g>
    <g id="ytick_9">
     <g id="line2d_14">
      <g>
       <use style="stroke:#000000;stroke-width:0.8;" x="108" xlink:href="#mf4ff45db58" y="164.581463"/>
      </g>
     </g>
     <g id="text_16">
      <!-- Metro-Goldwyn-Mayer (MGM) -->
      <defs>
       <path d="M 4.890625 31.390625 
L 31.203125 31.390625 
L 31.203125 23.390625 
L 4.890625 23.390625 
z
" id="DejaVuSans-45"/>
       <path d="M 31 75.875 
Q 24.46875 64.65625 21.28125 53.65625 
Q 18.109375 42.671875 18.109375 31.390625 
Q 18.109375 20.125 21.3125 9.0625 
Q 24.515625 -2 31 -13.1875 
L 23.1875 -13.1875 
Q 15.875 -1.703125 12.234375 9.375 
Q 8.59375 20.453125 8.59375 31.390625 
Q 8.59375 42.28125 12.203125 53.3125 
Q 15.828125 64.359375 23.1875 75.875 
z
" id="DejaVuSans-40"/>
       <path d="M 8.015625 75.875 
L 15.828125 75.875 
Q 23.140625 64.359375 26.78125 53.3125 
Q 30.421875 42.28125 30.421875 31.390625 
Q 30.421875 20.453125 26.78125 9.375 
Q 23.140625 -1.703125 15.828125 -13.1875 
L 8.015625 -13.1875 
Q 14.5 -2 17.703125 9.0625 
Q 20.90625 20.125 20.90625 31.390625 
Q 20.90625 42.671875 17.703125 53.65625 
Q 14.5 64.65625 8.015625 75.875 
z
" id="DejaVuSans-41"/>
      </defs>
      <g transform="translate(-45.825 168.380682)scale(0.1 -0.1)">
       <use xlink:href="#DejaVuSans-77"/>
       <use x="86.279297" xlink:href="#DejaVuSans-101"/>
       <use x="147.802734" xlink:href="#DejaVuSans-116"/>
       <use x="187.011719" xlink:href="#DejaVuSans-114"/>
       <use x="225.875" xlink:href="#DejaVuSans-111"/>
       <use x="288.931641" xlink:href="#DejaVuSans-45"/>
       <use x="328.640625" xlink:href="#DejaVuSans-71"/>
       <use x="406.130859" xlink:href="#DejaVuSans-111"/>
       <use x="467.3125" xlink:href="#DejaVuSans-108"/>
       <use x="495.095703" xlink:href="#DejaVuSans-100"/>
       <use x="558.572266" xlink:href="#DejaVuSans-119"/>
       <use x="640.359375" xlink:href="#DejaVuSans-121"/>
       <use x="699.539062" xlink:href="#DejaVuSans-110"/>
       <use x="762.917969" xlink:href="#DejaVuSans-45"/>
       <use x="799.001953" xlink:href="#DejaVuSans-77"/>
       <use x="885.28125" xlink:href="#DejaVuSans-97"/>
       <use x="946.560547" xlink:href="#DejaVuSans-121"/>
       <use x="1005.740234" xlink:href="#DejaVuSans-101"/>
       <use x="1067.263672" xlink:href="#DejaVuSans-114"/>
       <use x="1108.376953" xlink:href="#DejaVuSans-32"/>
       <use x="1140.164062" xlink:href="#DejaVuSans-40"/>
       <use x="1179.177734" xlink:href="#DejaVuSans-77"/>
       <use x="1265.457031" xlink:href="#DejaVuSans-71"/>
       <use x="1342.947266" xlink:href="#DejaVuSans-77"/>
       <use x="1429.226562" xlink:href="#DejaVuSans-41"/>
      </g>
     </g>
    </g>
    <g id="ytick_10">
     <g id="line2d_15">
      <g>
       <use style="stroke:#000000;stroke-width:0.8;" x="108" xlink:href="#mf4ff45db58" y="175.188293"/>
      </g>
     </g>
     <g id="text_17">
      <!-- Columbia Pictures -->
      <defs>
       <path d="M 48.6875 27.296875 
Q 48.6875 37.203125 44.609375 42.84375 
Q 40.53125 48.484375 33.40625 48.484375 
Q 26.265625 48.484375 22.1875 42.84375 
Q 18.109375 37.203125 18.109375 27.296875 
Q 18.109375 17.390625 22.1875 11.75 
Q 26.265625 6.109375 33.40625 6.109375 
Q 40.53125 6.109375 44.609375 11.75 
Q 48.6875 17.390625 48.6875 27.296875 
z
M 18.109375 46.390625 
Q 20.953125 51.265625 25.265625 53.625 
Q 29.59375 56 35.59375 56 
Q 45.5625 56 51.78125 48.09375 
Q 58.015625 40.1875 58.015625 27.296875 
Q 58.015625 14.40625 51.78125 6.484375 
Q 45.5625 -1.421875 35.59375 -1.421875 
Q 29.59375 -1.421875 25.265625 0.953125 
Q 20.953125 3.328125 18.109375 8.203125 
L 18.109375 0 
L 9.078125 0 
L 9.078125 75.984375 
L 18.109375 75.984375 
z
" id="DejaVuSans-98"/>
      </defs>
      <g transform="translate(11.021875 178.987511)scale(0.1 -0.1)">
       <use xlink:href="#DejaVuSans-67"/>
       <use x="69.824219" xlink:href="#DejaVuSans-111"/>
       <use x="131.005859" xlink:href="#DejaVuSans-108"/>
       <use x="158.789062" xlink:href="#DejaVuSans-117"/>
       <use x="222.167969" xlink:href="#DejaVuSans-109"/>
       <use x="319.580078" xlink:href="#DejaVuSans-98"/>
       <use x="383.056641" xlink:href="#DejaVuSans-105"/>
       <use x="410.839844" xlink:href="#DejaVuSans-97"/>
       <use x="472.119141" xlink:href="#DejaVuSans-32"/>
       <use x="503.90625" xlink:href="#DejaVuSans-80"/>
       <use x="561.958984" xlink:href="#DejaVuSans-105"/>
       <use x="589.742188" xlink:href="#DejaVuSans-99"/>
       <use x="644.722656" xlink:href="#DejaVuSans-116"/>
       <use x="683.931641" xlink:href="#DejaVuSans-117"/>
       <use x="747.310547" xlink:href="#DejaVuSans-114"/>
       <use x="786.173828" xlink:href="#DejaVuSans-101"/>
       <use x="847.697266" xlink:href="#DejaVuSans-115"/>
      </g>
     </g>
    </g>
    <g id="ytick_11">
     <g id="line2d_16">
      <g>
       <use style="stroke:#000000;stroke-width:0.8;" x="108" xlink:href="#mf4ff45db58" y="185.795122"/>
      </g>
     </g>
     <g id="text_18">
      <!-- DreamWorks -->
      <defs>
       <path d="M 9.078125 75.984375 
L 18.109375 75.984375 
L 18.109375 31.109375 
L 44.921875 54.6875 
L 56.390625 54.6875 
L 27.390625 29.109375 
L 57.625 0 
L 45.90625 0 
L 18.109375 26.703125 
L 18.109375 0 
L 9.078125 0 
z
" id="DejaVuSans-107"/>
      </defs>
      <g transform="translate(36.8625 189.594341)scale(0.1 -0.1)">
       <use xlink:href="#DejaVuSans-68"/>
       <use x="77.001953" xlink:href="#DejaVuSans-114"/>
       <use x="115.865234" xlink:href="#DejaVuSans-101"/>
       <use x="177.388672" xlink:href="#DejaVuSans-97"/>
       <use x="238.667969" xlink:href="#DejaVuSans-109"/>
       <use x="336.080078" xlink:href="#DejaVuSans-87"/>
       <use x="429.082031" xlink:href="#DejaVuSans-111"/>
       <use x="490.263672" xlink:href="#DejaVuSans-114"/>
       <use x="531.376953" xlink:href="#DejaVuSans-107"/>
       <use x="589.287109" xlink:href="#DejaVuSans-115"/>
      </g>
     </g>
    </g>
    <g id="ytick_12">
     <g id="line2d_17">
      <g>
       <use style="stroke:#000000;stroke-width:0.8;" x="108" xlink:href="#mf4ff45db58" y="196.401951"/>
      </g>
     </g>
     <g id="text_19">
      <!-- Miramax -->
      <g transform="translate(57.567187 200.20117)scale(0.1 -0.1)">
       <use xlink:href="#DejaVuSans-77"/>
       <use x="86.279297" xlink:href="#DejaVuSans-105"/>
       <use x="114.0625" xlink:href="#DejaVuSans-114"/>
       <use x="155.175781" xlink:href="#DejaVuSans-97"/>
       <use x="216.455078" xlink:href="#DejaVuSans-109"/>
       <use x="313.867188" xlink:href="#DejaVuSans-97"/>
       <use x="375.146484" xlink:href="#DejaVuSans-120"/>
      </g>
     </g>
    </g>
    <g id="ytick_13">
     <g id="line2d_18">
      <g>
       <use style="stroke:#000000;stroke-width:0.8;" x="108" xlink:href="#mf4ff45db58" y="207.00878"/>
      </g>
     </g>
     <g id="text_20">
      <!-- DreamWorks Distribution -->
      <g transform="translate(-24.653125 210.807999)scale(0.1 -0.1)">
       <use xlink:href="#DejaVuSans-68"/>
       <use x="77.001953" xlink:href="#DejaVuSans-114"/>
       <use x="115.865234" xlink:href="#DejaVuSans-101"/>
       <use x="177.388672" xlink:href="#DejaVuSans-97"/>
       <use x="238.667969" xlink:href="#DejaVuSans-109"/>
       <use x="336.080078" xlink:href="#DejaVuSans-87"/>
       <use x="429.082031" xlink:href="#DejaVuSans-111"/>
       <use x="490.263672" xlink:href="#DejaVuSans-114"/>
       <use x="531.376953" xlink:href="#DejaVuSans-107"/>
       <use x="589.287109" xlink:href="#DejaVuSans-115"/>
       <use x="641.386719" xlink:href="#DejaVuSans-32"/>
       <use x="673.173828" xlink:href="#DejaVuSans-68"/>
       <use x="750.175781" xlink:href="#DejaVuSans-105"/>
       <use x="777.958984" xlink:href="#DejaVuSans-115"/>
       <use x="830.058594" xlink:href="#DejaVuSans-116"/>
       <use x="869.267578" xlink:href="#DejaVuSans-114"/>
       <use x="910.380859" xlink:href="#DejaVuSans-105"/>
       <use x="938.164062" xlink:href="#DejaVuSans-98"/>
       <use x="1001.640625" xlink:href="#DejaVuSans-117"/>
       <use x="1065.019531" xlink:href="#DejaVuSans-116"/>
       <use x="1104.228516" xlink:href="#DejaVuSans-105"/>
       <use x="1132.011719" xlink:href="#DejaVuSans-111"/>
       <use x="1193.193359" xlink:href="#DejaVuSans-110"/>
      </g>
     </g>
    </g>
    <g id="ytick_14">
     <g id="line2d_19">
      <g>
       <use style="stroke:#000000;stroke-width:0.8;" x="108" xlink:href="#mf4ff45db58" y="217.61561"/>
      </g>
     </g>
     <g id="text_21">
      <!-- TriStar Pictures -->
      <g transform="translate(26.204687 221.414829)scale(0.1 -0.1)">
       <use xlink:href="#DejaVuSans-84"/>
       <use x="46.333984" xlink:href="#DejaVuSans-114"/>
       <use x="87.447266" xlink:href="#DejaVuSans-105"/>
       <use x="115.230469" xlink:href="#DejaVuSans-83"/>
       <use x="178.707031" xlink:href="#DejaVuSans-116"/>
       <use x="217.916016" xlink:href="#DejaVuSans-97"/>
       <use x="279.195312" xlink:href="#DejaVuSans-114"/>
       <use x="320.308594" xlink:href="#DejaVuSans-32"/>
       <use x="352.095703" xlink:href="#DejaVuSans-80"/>
       <use x="410.148438" xlink:href="#DejaVuSans-105"/>
       <use x="437.931641" xlink:href="#DejaVuSans-99"/>
       <use x="492.912109" xlink:href="#DejaVuSans-116"/>
       <use x="532.121094" xlink:href="#DejaVuSans-117"/>
       <use x="595.5" xlink:href="#DejaVuSans-114"/>
       <use x="634.363281" xlink:href="#DejaVuSans-101"/>
       <use x="695.886719" xlink:href="#DejaVuSans-115"/>
      </g>
     </g>
    </g>
    <g id="ytick_15">
     <g id="line2d_20">
      <g>
       <use style="stroke:#000000;stroke-width:0.8;" x="108" xlink:href="#mf4ff45db58" y="228.222439"/>
      </g>
     </g>
     <g id="text_22">
      <!-- Screen Gems -->
      <g transform="translate(34.59375 232.021658)scale(0.1 -0.1)">
       <use xlink:href="#DejaVuSans-83"/>
       <use x="63.476562" xlink:href="#DejaVuSans-99"/>
       <use x="118.457031" xlink:href="#DejaVuSans-114"/>
       <use x="157.320312" xlink:href="#DejaVuSans-101"/>
       <use x="218.84375" xlink:href="#DejaVuSans-101"/>
       <use x="280.367188" xlink:href="#DejaVuSans-110"/>
       <use x="343.746094" xlink:href="#DejaVuSans-32"/>
       <use x="375.533203" xlink:href="#DejaVuSans-71"/>
       <use x="453.023438" xlink:href="#DejaVuSans-101"/>
       <use x="514.546875" xlink:href="#DejaVuSans-109"/>
       <use x="611.958984" xlink:href="#DejaVuSans-115"/>
      </g>
     </g>
    </g>
    <g id="ytick_16">
     <g id="line2d_21">
      <g>
       <use style="stroke:#000000;stroke-width:0.8;" x="108" xlink:href="#mf4ff45db58" y="238.829268"/>
      </g>
     </g>
     <g id="text_23">
      <!-- Fox Searchlight Pictures -->
      <g transform="translate(-18.571875 242.628487)scale(0.1 -0.1)">
       <use xlink:href="#DejaVuSans-70"/>
       <use x="53.894531" xlink:href="#DejaVuSans-111"/>
       <use x="111.951172" xlink:href="#DejaVuSans-120"/>
       <use x="171.130859" xlink:href="#DejaVuSans-32"/>
       <use x="202.917969" xlink:href="#DejaVuSans-83"/>
       <use x="266.394531" xlink:href="#DejaVuSans-101"/>
       <use x="327.917969" xlink:href="#DejaVuSans-97"/>
       <use x="389.197266" xlink:href="#DejaVuSans-114"/>
       <use x="428.060547" xlink:href="#DejaVuSans-99"/>
       <use x="483.041016" xlink:href="#DejaVuSans-104"/>
       <use x="546.419922" xlink:href="#DejaVuSans-108"/>
       <use x="574.203125" xlink:href="#DejaVuSans-105"/>
       <use x="601.986328" xlink:href="#DejaVuSans-103"/>
       <use x="665.462891" xlink:href="#DejaVuSans-104"/>
       <use x="728.841797" xlink:href="#DejaVuSans-116"/>
       <use x="768.050781" xlink:href="#DejaVuSans-32"/>
       <use x="799.837891" xlink:href="#DejaVuSans-80"/>
       <use x="857.890625" xlink:href="#DejaVuSans-105"/>
       <use x="885.673828" xlink:href="#DejaVuSans-99"/>
       <use x="940.654297" xlink:href="#DejaVuSans-116"/>
       <use x="979.863281" xlink:href="#DejaVuSans-117"/>
       <use x="1043.242188" xlink:href="#DejaVuSans-114"/>
       <use x="1082.105469" xlink:href="#DejaVuSans-101"/>
       <use x="1143.628906" xlink:href="#DejaVuSans-115"/>
      </g>
     </g>
    </g>
    <g id="ytick_17">
     <g id="line2d_22">
      <g>
       <use style="stroke:#000000;stroke-width:0.8;" x="108" xlink:href="#mf4ff45db58" y="249.436098"/>
      </g>
     </g>
     <g id="text_24">
      <!-- Focus Features -->
      <g transform="translate(26.279687 253.235316)scale(0.1 -0.1)">
       <use xlink:href="#DejaVuSans-70"/>
       <use x="53.894531" xlink:href="#DejaVuSans-111"/>
       <use x="115.076172" xlink:href="#DejaVuSans-99"/>
       <use x="170.056641" xlink:href="#DejaVuSans-117"/>
       <use x="233.435547" xlink:href="#DejaVuSans-115"/>
       <use x="285.535156" xlink:href="#DejaVuSans-32"/>
       <use x="317.322266" xlink:href="#DejaVuSans-70"/>
       <use x="369.341797" xlink:href="#DejaVuSans-101"/>
       <use x="430.865234" xlink:href="#DejaVuSans-97"/>
       <use x="492.144531" xlink:href="#DejaVuSans-116"/>
       <use x="531.353516" xlink:href="#DejaVuSans-117"/>
       <use x="594.732422" xlink:href="#DejaVuSans-114"/>
       <use x="633.595703" xlink:href="#DejaVuSans-101"/>
       <use x="695.119141" xlink:href="#DejaVuSans-115"/>
      </g>
     </g>
    </g>
    <g id="ytick_18">
     <g id="line2d_23">
      <g>
       <use style="stroke:#000000;stroke-width:0.8;" x="108" xlink:href="#mf4ff45db58" y="260.042927"/>
      </g>
     </g>
     <g id="text_25">
      <!-- Orion Pictures -->
      <defs>
       <path d="M 39.40625 66.21875 
Q 28.65625 66.21875 22.328125 58.203125 
Q 16.015625 50.203125 16.015625 36.375 
Q 16.015625 22.609375 22.328125 14.59375 
Q 28.65625 6.59375 39.40625 6.59375 
Q 50.140625 6.59375 56.421875 14.59375 
Q 62.703125 22.609375 62.703125 36.375 
Q 62.703125 50.203125 56.421875 58.203125 
Q 50.140625 66.21875 39.40625 66.21875 
z
M 39.40625 74.21875 
Q 54.734375 74.21875 63.90625 63.9375 
Q 73.09375 53.65625 73.09375 36.375 
Q 73.09375 19.140625 63.90625 8.859375 
Q 54.734375 -1.421875 39.40625 -1.421875 
Q 24.03125 -1.421875 14.8125 8.828125 
Q 5.609375 19.09375 5.609375 36.375 
Q 5.609375 53.65625 14.8125 63.9375 
Q 24.03125 74.21875 39.40625 74.21875 
z
" id="DejaVuSans-79"/>
      </defs>
      <g transform="translate(31.017187 263.842146)scale(0.1 -0.1)">
       <use xlink:href="#DejaVuSans-79"/>
       <use x="78.710938" xlink:href="#DejaVuSans-114"/>
       <use x="119.824219" xlink:href="#DejaVuSans-105"/>
       <use x="147.607422" xlink:href="#DejaVuSans-111"/>
       <use x="208.789062" xlink:href="#DejaVuSans-110"/>
       <use x="272.167969" xlink:href="#DejaVuSans-32"/>
       <use x="303.955078" xlink:href="#DejaVuSans-80"/>
       <use x="362.007812" xlink:href="#DejaVuSans-105"/>
       <use x="389.791016" xlink:href="#DejaVuSans-99"/>
       <use x="444.771484" xlink:href="#DejaVuSans-116"/>
       <use x="483.980469" xlink:href="#DejaVuSans-117"/>
       <use x="547.359375" xlink:href="#DejaVuSans-114"/>
       <use x="586.222656" xlink:href="#DejaVuSans-101"/>
       <use x="647.746094" xlink:href="#DejaVuSans-115"/>
      </g>
     </g>
    </g>
    <g id="ytick_19">
     <g id="line2d_24">
      <g>
       <use style="stroke:#000000;stroke-width:0.8;" x="108" xlink:href="#mf4ff45db58" y="270.649756"/>
      </g>
     </g>
     <g id="text_26">
      <!-- Revolution Studios -->
      <g transform="translate(7.801562 274.448975)scale(0.1 -0.1)">
       <use xlink:href="#DejaVuSans-82"/>
       <use x="64.982422" xlink:href="#DejaVuSans-101"/>
       <use x="126.505859" xlink:href="#DejaVuSans-118"/>
       <use x="185.685547" xlink:href="#DejaVuSans-111"/>
       <use x="246.867188" xlink:href="#DejaVuSans-108"/>
       <use x="274.650391" xlink:href="#DejaVuSans-117"/>
       <use x="338.029297" xlink:href="#DejaVuSans-116"/>
       <use x="377.238281" xlink:href="#DejaVuSans-105"/>
       <use x="405.021484" xlink:href="#DejaVuSans-111"/>
       <use x="466.203125" xlink:href="#DejaVuSans-110"/>
       <use x="529.582031" xlink:href="#DejaVuSans-32"/>
       <use x="561.369141" xlink:href="#DejaVuSans-83"/>
       <use x="624.845703" xlink:href="#DejaVuSans-116"/>
       <use x="664.054688" xlink:href="#DejaVuSans-117"/>
       <use x="727.433594" xlink:href="#DejaVuSans-100"/>
       <use x="790.910156" xlink:href="#DejaVuSans-105"/>
       <use x="818.693359" xlink:href="#DejaVuSans-111"/>
       <use x="879.875" xlink:href="#DejaVuSans-115"/>
      </g>
     </g>
    </g>
    <g id="ytick_20">
     <g id="line2d_25">
      <g>
       <use style="stroke:#000000;stroke-width:0.8;" x="108" xlink:href="#mf4ff45db58" y="281.256585"/>
      </g>
     </g>
     <g id="text_27">
      <!-- The Weinstein Company -->
      <defs>
       <path d="M 18.109375 8.203125 
L 18.109375 -20.796875 
L 9.078125 -20.796875 
L 9.078125 54.6875 
L 18.109375 54.6875 
L 18.109375 46.390625 
Q 20.953125 51.265625 25.265625 53.625 
Q 29.59375 56 35.59375 56 
Q 45.5625 56 51.78125 48.09375 
Q 58.015625 40.1875 58.015625 27.296875 
Q 58.015625 14.40625 51.78125 6.484375 
Q 45.5625 -1.421875 35.59375 -1.421875 
Q 29.59375 -1.421875 25.265625 0.953125 
Q 20.953125 3.328125 18.109375 8.203125 
z
M 48.6875 27.296875 
Q 48.6875 37.203125 44.609375 42.84375 
Q 40.53125 48.484375 33.40625 48.484375 
Q 26.265625 48.484375 22.1875 42.84375 
Q 18.109375 37.203125 18.109375 27.296875 
Q 18.109375 17.390625 22.1875 11.75 
Q 26.265625 6.109375 33.40625 6.109375 
Q 40.53125 6.109375 44.609375 11.75 
Q 48.6875 17.390625 48.6875 27.296875 
z
" id="DejaVuSans-112"/>
      </defs>
      <g transform="translate(-20.496875 285.055804)scale(0.1 -0.1)">
       <use xlink:href="#DejaVuSans-84"/>
       <use x="61.083984" xlink:href="#DejaVuSans-104"/>
       <use x="124.462891" xlink:href="#DejaVuSans-101"/>
       <use x="185.986328" xlink:href="#DejaVuSans-32"/>
       <use x="217.773438" xlink:href="#DejaVuSans-87"/>
       <use x="310.775391" xlink:href="#DejaVuSans-101"/>
       <use x="372.298828" xlink:href="#DejaVuSans-105"/>
       <use x="400.082031" xlink:href="#DejaVuSans-110"/>
       <use x="463.460938" xlink:href="#DejaVuSans-115"/>
       <use x="515.560547" xlink:href="#DejaVuSans-116"/>
       <use x="554.769531" xlink:href="#DejaVuSans-101"/>
       <use x="616.292969" xlink:href="#DejaVuSans-105"/>
       <use x="644.076172" xlink:href="#DejaVuSans-110"/>
       <use x="707.455078" xlink:href="#DejaVuSans-32"/>
       <use x="739.242188" xlink:href="#DejaVuSans-67"/>
       <use x="809.066406" xlink:href="#DejaVuSans-111"/>
       <use x="870.248047" xlink:href="#DejaVuSans-109"/>
       <use x="967.660156" xlink:href="#DejaVuSans-112"/>
       <use x="1031.136719" xlink:href="#DejaVuSans-97"/>
       <use x="1092.416016" xlink:href="#DejaVuSans-110"/>
       <use x="1155.794922" xlink:href="#DejaVuSans-121"/>
      </g>
     </g>
    </g>
    <g id="ytick_21">
     <g id="line2d_26">
      <g>
       <use style="stroke:#000000;stroke-width:0.8;" x="108" xlink:href="#mf4ff45db58" y="291.863415"/>
      </g>
     </g>
     <g id="text_28">
      <!-- Summit Entertainment -->
      <defs>
       <path d="M 9.8125 72.90625 
L 55.90625 72.90625 
L 55.90625 64.59375 
L 19.671875 64.59375 
L 19.671875 43.015625 
L 54.390625 43.015625 
L 54.390625 34.71875 
L 19.671875 34.71875 
L 19.671875 8.296875 
L 56.78125 8.296875 
L 56.78125 0 
L 9.8125 0 
z
" id="DejaVuSans-69"/>
      </defs>
      <g transform="translate(-13.2 295.662633)scale(0.1 -0.1)">
       <use xlink:href="#DejaVuSans-83"/>
       <use x="63.476562" xlink:href="#DejaVuSans-117"/>
       <use x="126.855469" xlink:href="#DejaVuSans-109"/>
       <use x="224.267578" xlink:href="#DejaVuSans-109"/>
       <use x="321.679688" xlink:href="#DejaVuSans-105"/>
       <use x="349.462891" xlink:href="#DejaVuSans-116"/>
       <use x="388.671875" xlink:href="#DejaVuSans-32"/>
       <use x="420.458984" xlink:href="#DejaVuSans-69"/>
       <use x="483.642578" xlink:href="#DejaVuSans-110"/>
       <use x="547.021484" xlink:href="#DejaVuSans-116"/>
       <use x="586.230469" xlink:href="#DejaVuSans-101"/>
       <use x="647.753906" xlink:href="#DejaVuSans-114"/>
       <use x="688.867188" xlink:href="#DejaVuSans-116"/>
       <use x="728.076172" xlink:href="#DejaVuSans-97"/>
       <use x="789.355469" xlink:href="#DejaVuSans-105"/>
       <use x="817.138672" xlink:href="#DejaVuSans-110"/>
       <use x="880.517578" xlink:href="#DejaVuSans-109"/>
       <use x="977.929688" xlink:href="#DejaVuSans-101"/>
       <use x="1039.453125" xlink:href="#DejaVuSans-110"/>
       <use x="1102.832031" xlink:href="#DejaVuSans-116"/>
      </g>
     </g>
    </g>
    <g id="ytick_22">
     <g id="line2d_27">
      <g>
       <use style="stroke:#000000;stroke-width:0.8;" x="108" xlink:href="#mf4ff45db58" y="302.470244"/>
      </g>
     </g>
     <g id="text_29">
      <!-- Dimension Films -->
      <g transform="translate(19.135937 306.269463)scale(0.1 -0.1)">
       <use xlink:href="#DejaVuSans-68"/>
       <use x="77.001953" xlink:href="#DejaVuSans-105"/>
       <use x="104.785156" xlink:href="#DejaVuSans-109"/>
       <use x="202.197266" xlink:href="#DejaVuSans-101"/>
       <use x="263.720703" xlink:href="#DejaVuSans-110"/>
       <use x="327.099609" xlink:href="#DejaVuSans-115"/>
       <use x="379.199219" xlink:href="#DejaVuSans-105"/>
       <use x="406.982422" xlink:href="#DejaVuSans-111"/>
       <use x="468.164062" xlink:href="#DejaVuSans-110"/>
       <use x="531.542969" xlink:href="#DejaVuSans-32"/>
       <use x="563.330078" xlink:href="#DejaVuSans-70"/>
       <use x="613.599609" xlink:href="#DejaVuSans-105"/>
       <use x="641.382812" xlink:href="#DejaVuSans-108"/>
       <use x="669.166016" xlink:href="#DejaVuSans-109"/>
       <use x="766.578125" xlink:href="#DejaVuSans-115"/>
      </g>
     </g>
    </g>
    <g id="ytick_23">
     <g id="line2d_28">
      <g>
       <use style="stroke:#000000;stroke-width:0.8;" x="108" xlink:href="#mf4ff45db58" y="313.077073"/>
      </g>
     </g>
     <g id="text_30">
      <!-- Sony Pictures Classics -->
      <g transform="translate(-9.460938 316.876292)scale(0.1 -0.1)">
       <use xlink:href="#DejaVuSans-83"/>
       <use x="63.476562" xlink:href="#DejaVuSans-111"/>
       <use x="124.658203" xlink:href="#DejaVuSans-110"/>
       <use x="188.037109" xlink:href="#DejaVuSans-121"/>
       <use x="247.216797" xlink:href="#DejaVuSans-32"/>
       <use x="279.003906" xlink:href="#DejaVuSans-80"/>
       <use x="337.056641" xlink:href="#DejaVuSans-105"/>
       <use x="364.839844" xlink:href="#DejaVuSans-99"/>
       <use x="419.820312" xlink:href="#DejaVuSans-116"/>
       <use x="459.029297" xlink:href="#DejaVuSans-117"/>
       <use x="522.408203" xlink:href="#DejaVuSans-114"/>
       <use x="561.271484" xlink:href="#DejaVuSans-101"/>
       <use x="622.794922" xlink:href="#DejaVuSans-115"/>
       <use x="674.894531" xlink:href="#DejaVuSans-32"/>
       <use x="706.681641" xlink:href="#DejaVuSans-67"/>
       <use x="776.505859" xlink:href="#DejaVuSans-108"/>
       <use x="804.289062" xlink:href="#DejaVuSans-97"/>
       <use x="865.568359" xlink:href="#DejaVuSans-115"/>
       <use x="917.667969" xlink:href="#DejaVuSans-115"/>
       <use x="969.767578" xlink:href="#DejaVuSans-105"/>
       <use x="997.550781" xlink:href="#DejaVuSans-99"/>
       <use x="1052.53125" xlink:href="#DejaVuSans-115"/>
      </g>
     </g>
    </g>
    <g id="ytick_24">
     <g id="line2d_29">
      <g>
       <use style="stroke:#000000;stroke-width:0.8;" x="108" xlink:href="#mf4ff45db58" y="323.683902"/>
      </g>
     </g>
     <g id="text_31">
      <!-- STX Entertainment -->
      <defs>
       <path d="M 6.296875 72.90625 
L 16.890625 72.90625 
L 35.015625 45.796875 
L 53.21875 72.90625 
L 63.8125 72.90625 
L 40.375 37.890625 
L 65.375 0 
L 54.78125 0 
L 34.28125 31 
L 13.625 0 
L 2.984375 0 
L 29 38.921875 
z
" id="DejaVuSans-88"/>
      </defs>
      <g transform="translate(6.359375 327.483121)scale(0.1 -0.1)">
       <use xlink:href="#DejaVuSans-83"/>
       <use x="63.476562" xlink:href="#DejaVuSans-84"/>
       <use x="124.560547" xlink:href="#DejaVuSans-88"/>
       <use x="193.066406" xlink:href="#DejaVuSans-32"/>
       <use x="224.853516" xlink:href="#DejaVuSans-69"/>
       <use x="288.037109" xlink:href="#DejaVuSans-110"/>
       <use x="351.416016" xlink:href="#DejaVuSans-116"/>
       <use x="390.625" xlink:href="#DejaVuSans-101"/>
       <use x="452.148438" xlink:href="#DejaVuSans-114"/>
       <use x="493.261719" xlink:href="#DejaVuSans-116"/>
       <use x="532.470703" xlink:href="#DejaVuSans-97"/>
       <use x="593.75" xlink:href="#DejaVuSans-105"/>
       <use x="621.533203" xlink:href="#DejaVuSans-110"/>
       <use x="684.912109" xlink:href="#DejaVuSans-109"/>
       <use x="782.324219" xlink:href="#DejaVuSans-101"/>
       <use x="843.847656" xlink:href="#DejaVuSans-110"/>
       <use x="907.226562" xlink:href="#DejaVuSans-116"/>
      </g>
     </g>
    </g>
    <g id="ytick_25">
     <g id="line2d_30">
      <g>
       <use style="stroke:#000000;stroke-width:0.8;" x="108" xlink:href="#mf4ff45db58" y="334.290732"/>
      </g>
     </g>
     <g id="text_32">
      <!-- Relativity Media -->
      <g transform="translate(20.99375 338.08995)scale(0.1 -0.1)">
       <use xlink:href="#DejaVuSans-82"/>
       <use x="64.982422" xlink:href="#DejaVuSans-101"/>
       <use x="126.505859" xlink:href="#DejaVuSans-108"/>
       <use x="154.289062" xlink:href="#DejaVuSans-97"/>
       <use x="215.568359" xlink:href="#DejaVuSans-116"/>
       <use x="254.777344" xlink:href="#DejaVuSans-105"/>
       <use x="282.560547" xlink:href="#DejaVuSans-118"/>
       <use x="341.740234" xlink:href="#DejaVuSans-105"/>
       <use x="369.523438" xlink:href="#DejaVuSans-116"/>
       <use x="408.732422" xlink:href="#DejaVuSans-121"/>
       <use x="467.912109" xlink:href="#DejaVuSans-32"/>
       <use x="499.699219" xlink:href="#DejaVuSans-77"/>
       <use x="585.978516" xlink:href="#DejaVuSans-101"/>
       <use x="647.501953" xlink:href="#DejaVuSans-100"/>
       <use x="710.978516" xlink:href="#DejaVuSans-105"/>
       <use x="738.761719" xlink:href="#DejaVuSans-97"/>
      </g>
     </g>
    </g>
    <g id="ytick_26">
     <g id="line2d_31">
      <g>
       <use style="stroke:#000000;stroke-width:0.8;" x="108" xlink:href="#mf4ff45db58" y="344.897561"/>
      </g>
     </g>
     <g id="text_33">
      <!-- United Artists -->
      <defs>
       <path d="M 34.1875 63.1875 
L 20.796875 26.90625 
L 47.609375 26.90625 
z
M 28.609375 72.90625 
L 39.796875 72.90625 
L 67.578125 0 
L 57.328125 0 
L 50.6875 18.703125 
L 17.828125 18.703125 
L 11.1875 0 
L 0.78125 0 
z
" id="DejaVuSans-65"/>
      </defs>
      <g transform="translate(32.976562 348.69678)scale(0.1 -0.1)">
       <use xlink:href="#DejaVuSans-85"/>
       <use x="73.193359" xlink:href="#DejaVuSans-110"/>
       <use x="136.572266" xlink:href="#DejaVuSans-105"/>
       <use x="164.355469" xlink:href="#DejaVuSans-116"/>
       <use x="203.564453" xlink:href="#DejaVuSans-101"/>
       <use x="265.087891" xlink:href="#DejaVuSans-100"/>
       <use x="328.564453" xlink:href="#DejaVuSans-32"/>
       <use x="360.351562" xlink:href="#DejaVuSans-65"/>
       <use x="428.759766" xlink:href="#DejaVuSans-114"/>
       <use x="469.873047" xlink:href="#DejaVuSans-116"/>
       <use x="509.082031" xlink:href="#DejaVuSans-105"/>
       <use x="536.865234" xlink:href="#DejaVuSans-115"/>
       <use x="588.964844" xlink:href="#DejaVuSans-116"/>
       <use x="628.173828" xlink:href="#DejaVuSans-115"/>
      </g>
     </g>
    </g>
    <g id="ytick_27">
     <g id="line2d_32">
      <g>
       <use style="stroke:#000000;stroke-width:0.8;" x="108" xlink:href="#mf4ff45db58" y="355.50439"/>
      </g>
     </g>
     <g id="text_34">
      <!-- Open Road Films (II) -->
      <defs>
       <path d="M 9.8125 72.90625 
L 19.671875 72.90625 
L 19.671875 0 
L 9.8125 0 
z
" id="DejaVuSans-73"/>
      </defs>
      <g transform="translate(0.425 359.303609)scale(0.1 -0.1)">
       <use xlink:href="#DejaVuSans-79"/>
       <use x="78.710938" xlink:href="#DejaVuSans-112"/>
       <use x="142.1875" xlink:href="#DejaVuSans-101"/>
       <use x="203.710938" xlink:href="#DejaVuSans-110"/>
       <use x="267.089844" xlink:href="#DejaVuSans-32"/>
       <use x="298.876953" xlink:href="#DejaVuSans-82"/>
       <use x="363.859375" xlink:href="#DejaVuSans-111"/>
       <use x="425.041016" xlink:href="#DejaVuSans-97"/>
       <use x="486.320312" xlink:href="#DejaVuSans-100"/>
       <use x="549.796875" xlink:href="#DejaVuSans-32"/>
       <use x="581.583984" xlink:href="#DejaVuSans-70"/>
       <use x="631.853516" xlink:href="#DejaVuSans-105"/>
       <use x="659.636719" xlink:href="#DejaVuSans-108"/>
       <use x="687.419922" xlink:href="#DejaVuSans-109"/>
       <use x="784.832031" xlink:href="#DejaVuSans-115"/>
       <use x="836.931641" xlink:href="#DejaVuSans-32"/>
       <use x="868.71875" xlink:href="#DejaVuSans-40"/>
       <use x="907.732422" xlink:href="#DejaVuSans-73"/>
       <use x="937.224609" xlink:href="#DejaVuSans-73"/>
       <use x="966.716797" xlink:href="#DejaVuSans-41"/>
      </g>
     </g>
    </g>
    <g id="ytick_28">
     <g id="line2d_33">
      <g>
       <use style="stroke:#000000;stroke-width:0.8;" x="108" xlink:href="#mf4ff45db58" y="366.11122"/>
      </g>
     </g>
     <g id="text_35">
      <!-- Roadside Attractions -->
      <g transform="translate(-2.36875 369.910438)scale(0.1 -0.1)">
       <use xlink:href="#DejaVuSans-82"/>
       <use x="64.982422" xlink:href="#DejaVuSans-111"/>
       <use x="126.164062" xlink:href="#DejaVuSans-97"/>
       <use x="187.443359" xlink:href="#DejaVuSans-100"/>
       <use x="250.919922" xlink:href="#DejaVuSans-115"/>
       <use x="303.019531" xlink:href="#DejaVuSans-105"/>
       <use x="330.802734" xlink:href="#DejaVuSans-100"/>
       <use x="394.279297" xlink:href="#DejaVuSans-101"/>
       <use x="455.802734" xlink:href="#DejaVuSans-32"/>
       <use x="487.589844" xlink:href="#DejaVuSans-65"/>
       <use x="554.248047" xlink:href="#DejaVuSans-116"/>
       <use x="593.457031" xlink:href="#DejaVuSans-116"/>
       <use x="632.666016" xlink:href="#DejaVuSans-114"/>
       <use x="673.779297" xlink:href="#DejaVuSans-97"/>
       <use x="735.058594" xlink:href="#DejaVuSans-99"/>
       <use x="790.039062" xlink:href="#DejaVuSans-116"/>
       <use x="829.248047" xlink:href="#DejaVuSans-105"/>
       <use x="857.03125" xlink:href="#DejaVuSans-111"/>
       <use x="918.212891" xlink:href="#DejaVuSans-110"/>
       <use x="981.591797" xlink:href="#DejaVuSans-115"/>
      </g>
     </g>
    </g>
    <g id="ytick_29">
     <g id="line2d_34">
      <g>
       <use style="stroke:#000000;stroke-width:0.8;" x="108" xlink:href="#mf4ff45db58" y="376.718049"/>
      </g>
     </g>
     <g id="text_36">
      <!-- Newmarket Films -->
      <g transform="translate(14.995312 380.517268)scale(0.1 -0.1)">
       <use xlink:href="#DejaVuSans-78"/>
       <use x="74.804688" xlink:href="#DejaVuSans-101"/>
       <use x="136.328125" xlink:href="#DejaVuSans-119"/>
       <use x="218.115234" xlink:href="#DejaVuSans-109"/>
       <use x="315.527344" xlink:href="#DejaVuSans-97"/>
       <use x="376.806641" xlink:href="#DejaVuSans-114"/>
       <use x="417.919922" xlink:href="#DejaVuSans-107"/>
       <use x="472.205078" xlink:href="#DejaVuSans-101"/>
       <use x="533.728516" xlink:href="#DejaVuSans-116"/>
       <use x="572.9375" xlink:href="#DejaVuSans-32"/>
       <use x="604.724609" xlink:href="#DejaVuSans-70"/>
       <use x="654.994141" xlink:href="#DejaVuSans-105"/>
       <use x="682.777344" xlink:href="#DejaVuSans-108"/>
       <use x="710.560547" xlink:href="#DejaVuSans-109"/>
       <use x="807.972656" xlink:href="#DejaVuSans-115"/>
      </g>
     </g>
    </g>
    <g id="ytick_30">
     <g id="line2d_35">
      <g>
       <use style="stroke:#000000;stroke-width:0.8;" x="108" xlink:href="#mf4ff45db58" y="387.324878"/>
      </g>
     </g>
     <g id="text_37">
      <!-- A24 -->
      <g transform="translate(81.434375 391.124097)scale(0.1 -0.1)">
       <use xlink:href="#DejaVuSans-65"/>
       <use x="68.408203" xlink:href="#DejaVuSans-50"/>
       <use x="132.03125" xlink:href="#DejaVuSans-52"/>
      </g>
     </g>
    </g>
    <g id="ytick_31">
     <g id="line2d_36">
      <g>
       <use style="stroke:#000000;stroke-width:0.8;" x="108" xlink:href="#mf4ff45db58" y="397.931707"/>
      </g>
     </g>
     <g id="text_38">
      <!-- MGM/Weinstein -->
      <defs>
       <path d="M 25.390625 72.90625 
L 33.6875 72.90625 
L 8.296875 -9.28125 
L 0 -9.28125 
z
" id="DejaVuSans-47"/>
      </defs>
      <g transform="translate(23.659375 401.730926)scale(0.1 -0.1)">
       <use xlink:href="#DejaVuSans-77"/>
       <use x="86.279297" xlink:href="#DejaVuSans-71"/>
       <use x="163.769531" xlink:href="#DejaVuSans-77"/>
       <use x="250.048828" xlink:href="#DejaVuSans-47"/>
       <use x="283.740234" xlink:href="#DejaVuSans-87"/>
       <use x="376.742188" xlink:href="#DejaVuSans-101"/>
       <use x="438.265625" xlink:href="#DejaVuSans-105"/>
       <use x="466.048828" xlink:href="#DejaVuSans-110"/>
       <use x="529.427734" xlink:href="#DejaVuSans-115"/>
       <use x="581.527344" xlink:href="#DejaVuSans-116"/>
       <use x="620.736328" xlink:href="#DejaVuSans-101"/>
       <use x="682.259766" xlink:href="#DejaVuSans-105"/>
       <use x="710.042969" xlink:href="#DejaVuSans-110"/>
      </g>
     </g>
    </g>
    <g id="ytick_32">
     <g id="line2d_37">
      <g>
       <use style="stroke:#000000;stroke-width:0.8;" x="108" xlink:href="#mf4ff45db58" y="408.538537"/>
      </g>
     </g>
     <g id="text_39">
      <!-- IFC Films -->
      <g transform="translate(56.604687 412.337755)scale(0.1 -0.1)">
       <use xlink:href="#DejaVuSans-73"/>
       <use x="29.492188" xlink:href="#DejaVuSans-70"/>
       <use x="87.011719" xlink:href="#DejaVuSans-67"/>
       <use x="156.835938" xlink:href="#DejaVuSans-32"/>
       <use x="188.623047" xlink:href="#DejaVuSans-70"/>
       <use x="238.892578" xlink:href="#DejaVuSans-105"/>
       <use x="266.675781" xlink:href="#DejaVuSans-108"/>
       <use x="294.458984" xlink:href="#DejaVuSans-109"/>
       <use x="391.871094" xlink:href="#DejaVuSans-115"/>
      </g>
     </g>
    </g>
    <g id="ytick_33">
     <g id="line2d_38">
      <g>
       <use style="stroke:#000000;stroke-width:0.8;" x="108" xlink:href="#mf4ff45db58" y="419.145366"/>
      </g>
     </g>
     <g id="text_40">
      <!-- FilmDistrict -->
      <g transform="translate(44.760937 422.944585)scale(0.1 -0.1)">
       <use xlink:href="#DejaVuSans-70"/>
       <use x="50.269531" xlink:href="#DejaVuSans-105"/>
       <use x="78.052734" xlink:href="#DejaVuSans-108"/>
       <use x="105.835938" xlink:href="#DejaVuSans-109"/>
       <use x="203.248047" xlink:href="#DejaVuSans-68"/>
       <use x="280.25" xlink:href="#DejaVuSans-105"/>
       <use x="308.033203" xlink:href="#DejaVuSans-115"/>
       <use x="360.132812" xlink:href="#DejaVuSans-116"/>
       <use x="399.341797" xlink:href="#DejaVuSans-114"/>
       <use x="440.455078" xlink:href="#DejaVuSans-105"/>
       <use x="468.238281" xlink:href="#DejaVuSans-99"/>
       <use x="523.21875" xlink:href="#DejaVuSans-116"/>
      </g>
     </g>
    </g>
    <g id="ytick_34">
     <g id="line2d_39">
      <g>
       <use style="stroke:#000000;stroke-width:0.8;" x="108" xlink:href="#mf4ff45db58" y="429.752195"/>
      </g>
     </g>
     <g id="text_41">
      <!-- Gramercy Pictures (I) -->
      <g transform="translate(-4.88125 433.551414)scale(0.1 -0.1)">
       <use xlink:href="#DejaVuSans-71"/>
       <use x="77.490234" xlink:href="#DejaVuSans-114"/>
       <use x="118.603516" xlink:href="#DejaVuSans-97"/>
       <use x="179.882812" xlink:href="#DejaVuSans-109"/>
       <use x="277.294922" xlink:href="#DejaVuSans-101"/>
       <use x="338.818359" xlink:href="#DejaVuSans-114"/>
       <use x="377.681641" xlink:href="#DejaVuSans-99"/>
       <use x="432.662109" xlink:href="#DejaVuSans-121"/>
       <use x="491.841797" xlink:href="#DejaVuSans-32"/>
       <use x="523.628906" xlink:href="#DejaVuSans-80"/>
       <use x="581.681641" xlink:href="#DejaVuSans-105"/>
       <use x="609.464844" xlink:href="#DejaVuSans-99"/>
       <use x="664.445312" xlink:href="#DejaVuSans-116"/>
       <use x="703.654297" xlink:href="#DejaVuSans-117"/>
       <use x="767.033203" xlink:href="#DejaVuSans-114"/>
       <use x="805.896484" xlink:href="#DejaVuSans-101"/>
       <use x="867.419922" xlink:href="#DejaVuSans-115"/>
       <use x="919.519531" xlink:href="#DejaVuSans-32"/>
       <use x="951.306641" xlink:href="#DejaVuSans-40"/>
       <use x="990.320312" xlink:href="#DejaVuSans-73"/>
       <use x="1019.8125" xlink:href="#DejaVuSans-41"/>
      </g>
     </g>
    </g>
    <g id="ytick_35">
     <g id="line2d_40">
      <g>
       <use style="stroke:#000000;stroke-width:0.8;" x="108" xlink:href="#mf4ff45db58" y="440.359024"/>
      </g>
     </g>
     <g id="text_42">
      <!-- Artisan Entertainment -->
      <g transform="translate(-9.659375 444.158243)scale(0.1 -0.1)">
       <use xlink:href="#DejaVuSans-65"/>
       <use x="68.408203" xlink:href="#DejaVuSans-114"/>
       <use x="109.521484" xlink:href="#DejaVuSans-116"/>
       <use x="148.730469" xlink:href="#DejaVuSans-105"/>
       <use x="176.513672" xlink:href="#DejaVuSans-115"/>
       <use x="228.613281" xlink:href="#DejaVuSans-97"/>
       <use x="289.892578" xlink:href="#DejaVuSans-110"/>
       <use x="353.271484" xlink:href="#DejaVuSans-32"/>
       <use x="385.058594" xlink:href="#DejaVuSans-69"/>
       <use x="448.242188" xlink:href="#DejaVuSans-110"/>
       <use x="511.621094" xlink:href="#DejaVuSans-116"/>
       <use x="550.830078" xlink:href="#DejaVuSans-101"/>
       <use x="612.353516" xlink:href="#DejaVuSans-114"/>
       <use x="653.466797" xlink:href="#DejaVuSans-116"/>
       <use x="692.675781" xlink:href="#DejaVuSans-97"/>
       <use x="753.955078" xlink:href="#DejaVuSans-105"/>
       <use x="781.738281" xlink:href="#DejaVuSans-110"/>
       <use x="845.117188" xlink:href="#DejaVuSans-109"/>
       <use x="942.529297" xlink:href="#DejaVuSans-101"/>
       <use x="1004.052734" xlink:href="#DejaVuSans-110"/>
       <use x="1067.431641" xlink:href="#DejaVuSans-116"/>
      </g>
     </g>
    </g>
    <g id="ytick_36">
     <g id="line2d_41">
      <g>
       <use style="stroke:#000000;stroke-width:0.8;" x="108" xlink:href="#mf4ff45db58" y="450.965854"/>
      </g>
     </g>
     <g id="text_43">
      <!-- The Samuel Goldwyn Company -->
      <g transform="translate(-55.621875 454.765072)scale(0.1 -0.1)">
       <use xlink:href="#DejaVuSans-84"/>
       <use x="61.083984" xlink:href="#DejaVuSans-104"/>
       <use x="124.462891" xlink:href="#DejaVuSans-101"/>
       <use x="185.986328" xlink:href="#DejaVuSans-32"/>
       <use x="217.773438" xlink:href="#DejaVuSans-83"/>
       <use x="281.25" xlink:href="#DejaVuSans-97"/>
       <use x="342.529297" xlink:href="#DejaVuSans-109"/>
       <use x="439.941406" xlink:href="#DejaVuSans-117"/>
       <use x="503.320312" xlink:href="#DejaVuSans-101"/>
       <use x="564.84375" xlink:href="#DejaVuSans-108"/>
       <use x="592.626953" xlink:href="#DejaVuSans-32"/>
       <use x="624.414062" xlink:href="#DejaVuSans-71"/>
       <use x="701.904297" xlink:href="#DejaVuSans-111"/>
       <use x="763.085938" xlink:href="#DejaVuSans-108"/>
       <use x="790.869141" xlink:href="#DejaVuSans-100"/>
       <use x="854.345703" xlink:href="#DejaVuSans-119"/>
       <use x="936.132812" xlink:href="#DejaVuSans-121"/>
       <use x="995.3125" xlink:href="#DejaVuSans-110"/>
       <use x="1058.691406" xlink:href="#DejaVuSans-32"/>
       <use x="1090.478516" xlink:href="#DejaVuSans-67"/>
       <use x="1160.302734" xlink:href="#DejaVuSans-111"/>
       <use x="1221.484375" xlink:href="#DejaVuSans-109"/>
       <use x="1318.896484" xlink:href="#DejaVuSans-112"/>
       <use x="1382.373047" xlink:href="#DejaVuSans-97"/>
       <use x="1443.652344" xlink:href="#DejaVuSans-110"/>
       <use x="1507.03125" xlink:href="#DejaVuSans-121"/>
      </g>
     </g>
    </g>
    <g id="ytick_37">
     <g id="line2d_42">
      <g>
       <use style="stroke:#000000;stroke-width:0.8;" x="108" xlink:href="#mf4ff45db58" y="461.572683"/>
      </g>
     </g>
     <g id="text_44">
      <!-- Cannon Film Distributors -->
      <g transform="translate(-22.464063 465.371902)scale(0.1 -0.1)">
       <use xlink:href="#DejaVuSans-67"/>
       <use x="69.824219" xlink:href="#DejaVuSans-97"/>
       <use x="131.103516" xlink:href="#DejaVuSans-110"/>
       <use x="194.482422" xlink:href="#DejaVuSans-110"/>
       <use x="257.861328" xlink:href="#DejaVuSans-111"/>
       <use x="319.042969" xlink:href="#DejaVuSans-110"/>
       <use x="382.421875" xlink:href="#DejaVuSans-32"/>
       <use x="414.208984" xlink:href="#DejaVuSans-70"/>
       <use x="464.478516" xlink:href="#DejaVuSans-105"/>
       <use x="492.261719" xlink:href="#DejaVuSans-108"/>
       <use x="520.044922" xlink:href="#DejaVuSans-109"/>
       <use x="617.457031" xlink:href="#DejaVuSans-32"/>
       <use x="649.244141" xlink:href="#DejaVuSans-68"/>
       <use x="726.246094" xlink:href="#DejaVuSans-105"/>
       <use x="754.029297" xlink:href="#DejaVuSans-115"/>
       <use x="806.128906" xlink:href="#DejaVuSans-116"/>
       <use x="845.337891" xlink:href="#DejaVuSans-114"/>
       <use x="886.451172" xlink:href="#DejaVuSans-105"/>
       <use x="914.234375" xlink:href="#DejaVuSans-98"/>
       <use x="977.710938" xlink:href="#DejaVuSans-117"/>
       <use x="1041.089844" xlink:href="#DejaVuSans-116"/>
       <use x="1080.298828" xlink:href="#DejaVuSans-111"/>
       <use x="1141.480469" xlink:href="#DejaVuSans-114"/>
       <use x="1182.59375" xlink:href="#DejaVuSans-115"/>
      </g>
     </g>
    </g>
    <g id="ytick_38">
     <g id="line2d_43">
      <g>
       <use style="stroke:#000000;stroke-width:0.8;" x="108" xlink:href="#mf4ff45db58" y="472.179512"/>
      </g>
     </g>
     <g id="text_45">
      <!-- IMAX -->
      <g transform="translate(75.73125 475.978731)scale(0.1 -0.1)">
       <use xlink:href="#DejaVuSans-73"/>
       <use x="29.492188" xlink:href="#DejaVuSans-77"/>
       <use x="115.771484" xlink:href="#DejaVuSans-65"/>
       <use x="184.179688" xlink:href="#DejaVuSans-88"/>
      </g>
     </g>
    </g>
    <g id="ytick_39">
     <g id="line2d_44">
      <g>
       <use style="stroke:#000000;stroke-width:0.8;" x="108" xlink:href="#mf4ff45db58" y="482.786341"/>
      </g>
     </g>
     <g id="text_46">
      <!-- Overture Films -->
      <g transform="translate(27.9375 486.58556)scale(0.1 -0.1)">
       <use xlink:href="#DejaVuSans-79"/>
       <use x="78.710938" xlink:href="#DejaVuSans-118"/>
       <use x="137.890625" xlink:href="#DejaVuSans-101"/>
       <use x="199.414062" xlink:href="#DejaVuSans-114"/>
       <use x="240.527344" xlink:href="#DejaVuSans-116"/>
       <use x="279.736328" xlink:href="#DejaVuSans-117"/>
       <use x="343.115234" xlink:href="#DejaVuSans-114"/>
       <use x="381.978516" xlink:href="#DejaVuSans-101"/>
       <use x="443.501953" xlink:href="#DejaVuSans-32"/>
       <use x="475.289062" xlink:href="#DejaVuSans-70"/>
       <use x="525.558594" xlink:href="#DejaVuSans-105"/>
       <use x="553.341797" xlink:href="#DejaVuSans-108"/>
       <use x="581.125" xlink:href="#DejaVuSans-109"/>
       <use x="678.537109" xlink:href="#DejaVuSans-115"/>
      </g>
     </g>
    </g>
    <g id="ytick_40">
     <g id="line2d_45">
      <g>
       <use style="stroke:#000000;stroke-width:0.8;" x="108" xlink:href="#mf4ff45db58" y="493.393171"/>
      </g>
     </g>
     <g id="text_47">
      <!-- CBS Films -->
      <g transform="translate(52.271875 497.192389)scale(0.1 -0.1)">
       <use xlink:href="#DejaVuSans-67"/>
       <use x="69.824219" xlink:href="#DejaVuSans-66"/>
       <use x="136.677734" xlink:href="#DejaVuSans-83"/>
       <use x="200.154297" xlink:href="#DejaVuSans-32"/>
       <use x="231.941406" xlink:href="#DejaVuSans-70"/>
       <use x="282.210938" xlink:href="#DejaVuSans-105"/>
       <use x="309.994141" xlink:href="#DejaVuSans-108"/>
       <use x="337.777344" xlink:href="#DejaVuSans-109"/>
       <use x="435.189453" xlink:href="#DejaVuSans-115"/>
      </g>
     </g>
    </g>
    <g id="text_48">
     <!-- Distributor -->
     <g transform="translate(-85.3475 323.892969)rotate(-90)scale(0.14 -0.14)">
      <use xlink:href="#DejaVuSans-68"/>
      <use x="77.001953" xlink:href="#DejaVuSans-105"/>
      <use x="104.785156" xlink:href="#DejaVuSans-115"/>
      <use x="156.884766" xlink:href="#DejaVuSans-116"/>
      <use x="196.09375" xlink:href="#DejaVuSans-114"/>
      <use x="237.207031" xlink:href="#DejaVuSans-105"/>
      <use x="264.990234" xlink:href="#DejaVuSans-98"/>
      <use x="328.466797" xlink:href="#DejaVuSans-117"/>
      <use x="391.845703" xlink:href="#DejaVuSans-116"/>
      <use x="431.054688" xlink:href="#DejaVuSans-111"/>
      <use x="492.236328" xlink:href="#DejaVuSans-114"/>
     </g>
    </g>
   </g>
   <g id="patch_3">
    <path d="M 108 504 
L 108 69.12 
" style="fill:none;stroke:#000000;stroke-linecap:square;stroke-linejoin:miter;stroke-width:0.8;"/>
   </g>
   <g id="patch_4">
    <path d="M 777.6 504 
L 777.6 69.12 
" style="fill:none;stroke:#000000;stroke-linecap:square;stroke-linejoin:miter;stroke-width:0.8;"/>
   </g>
   <g id="patch_5">
    <path d="M 108 504 
L 777.6 504 
" style="fill:none;stroke:#000000;stroke-linecap:square;stroke-linejoin:miter;stroke-width:0.8;"/>
   </g>
   <g id="patch_6">
    <path d="M 108 69.12 
L 777.6 69.12 
" style="fill:none;stroke:#000000;stroke-linecap:square;stroke-linejoin:miter;stroke-width:0.8;"/>
   </g>
   <g id="text_49">
    <!-- Top 40 Distributors by Dom. Gross -->
    <g transform="translate(322.953438 63.12)scale(0.14 -0.14)">
     <use xlink:href="#DejaVuSans-84"/>
     <use x="44.083984" xlink:href="#DejaVuSans-111"/>
     <use x="105.265625" xlink:href="#DejaVuSans-112"/>
     <use x="168.742188" xlink:href="#DejaVuSans-32"/>
     <use x="200.529297" xlink:href="#DejaVuSans-52"/>
     <use x="264.152344" xlink:href="#DejaVuSans-48"/>
     <use x="327.775391" xlink:href="#DejaVuSans-32"/>
     <use x="359.5625" xlink:href="#DejaVuSans-68"/>
     <use x="436.564453" xlink:href="#DejaVuSans-105"/>
     <use x="464.347656" xlink:href="#DejaVuSans-115"/>
     <use x="516.447266" xlink:href="#DejaVuSans-116"/>
     <use x="555.65625" xlink:href="#DejaVuSans-114"/>
     <use x="596.769531" xlink:href="#DejaVuSans-105"/>
     <use x="624.552734" xlink:href="#DejaVuSans-98"/>
     <use x="688.029297" xlink:href="#DejaVuSans-117"/>
     <use x="751.408203" xlink:href="#DejaVuSans-116"/>
     <use x="790.617188" xlink:href="#DejaVuSans-111"/>
     <use x="851.798828" xlink:href="#DejaVuSans-114"/>
     <use x="892.912109" xlink:href="#DejaVuSans-115"/>
     <use x="945.011719" xlink:href="#DejaVuSans-32"/>
     <use x="976.798828" xlink:href="#DejaVuSans-98"/>
     <use x="1040.275391" xlink:href="#DejaVuSans-121"/>
     <use x="1099.455078" xlink:href="#DejaVuSans-32"/>
     <use x="1131.242188" xlink:href="#DejaVuSans-68"/>
     <use x="1208.244141" xlink:href="#DejaVuSans-111"/>
     <use x="1269.425781" xlink:href="#DejaVuSans-109"/>
     <use x="1366.837891" xlink:href="#DejaVuSans-46"/>
     <use x="1398.625" xlink:href="#DejaVuSans-32"/>
     <use x="1430.412109" xlink:href="#DejaVuSans-71"/>
     <use x="1507.902344" xlink:href="#DejaVuSans-114"/>
     <use x="1546.765625" xlink:href="#DejaVuSans-111"/>
     <use x="1607.947266" xlink:href="#DejaVuSans-115"/>
     <use x="1660.046875" xlink:href="#DejaVuSans-115"/>
    </g>
   </g>
   <g id="legend_1">
    <g id="patch_7">
     <path d="M 440.8 290.56 
L 444.8 290.56 
Q 446.8 290.56 446.8 288.56 
L 446.8 284.56 
Q 446.8 282.56 444.8 282.56 
L 440.8 282.56 
Q 438.8 282.56 438.8 284.56 
L 438.8 288.56 
Q 438.8 290.56 440.8 290.56 
z
" style="fill:#ffffff;opacity:0.8;stroke:#cccccc;stroke-linejoin:miter;"/>
    </g>
   </g>
  </g>
 </g>
 <defs>
  <clipPath id="p556c0a4b04">
   <rect height="434.88" width="669.6" x="108" y="69.12"/>
  </clipPath>
 </defs>
</svg>
